<svg width="631" height="630" viewBox="0 0 631 630" fill="none" xmlns="http://www.w3.org/2000/svg">
<circle cx="361.629" cy="81.4516" r="19.35" fill="#C6C6C6"/>
<path d="M316.996 110.52H318.706C318.61 109.836 318.406 109.236 318.094 108.72C317.782 108.192 317.392 107.754 316.924 107.406C316.456 107.058 315.922 106.794 315.322 106.614C314.722 106.434 314.086 106.344 313.414 106.344C312.43 106.344 311.554 106.524 310.786 106.884C310.03 107.232 309.394 107.712 308.878 108.324C308.374 108.936 307.99 109.656 307.726 110.484C307.462 111.3 307.33 112.176 307.33 113.112C307.33 114.048 307.45 114.924 307.69 115.74C307.942 116.556 308.314 117.264 308.806 117.864C309.298 118.464 309.916 118.938 310.66 119.286C311.404 119.622 312.274 119.79 313.27 119.79C314.914 119.79 316.21 119.34 317.158 118.44C318.106 117.54 318.664 116.28 318.832 114.66H317.122C317.086 115.188 316.978 115.68 316.798 116.136C316.618 116.592 316.366 116.988 316.042 117.324C315.73 117.648 315.352 117.906 314.908 118.098C314.476 118.278 313.978 118.368 313.414 118.368C312.646 118.368 311.986 118.224 311.434 117.936C310.882 117.648 310.426 117.264 310.066 116.784C309.718 116.292 309.46 115.722 309.292 115.074C309.124 114.414 309.04 113.718 309.04 112.986C309.04 112.314 309.124 111.666 309.292 111.042C309.46 110.418 309.718 109.866 310.066 109.386C310.426 108.894 310.876 108.504 311.416 108.216C311.968 107.928 312.628 107.784 313.396 107.784C314.296 107.784 315.07 108.012 315.718 108.468C316.378 108.924 316.804 109.608 316.996 110.52ZM321.454 114.858C321.454 114.294 321.526 113.796 321.67 113.364C321.826 112.92 322.036 112.548 322.3 112.248C322.564 111.948 322.87 111.72 323.218 111.564C323.578 111.408 323.956 111.33 324.352 111.33C324.748 111.33 325.12 111.408 325.468 111.564C325.828 111.72 326.14 111.948 326.404 112.248C326.668 112.548 326.872 112.92 327.016 113.364C327.172 113.796 327.25 114.294 327.25 114.858C327.25 115.422 327.172 115.926 327.016 116.37C326.872 116.802 326.668 117.168 326.404 117.468C326.14 117.756 325.828 117.978 325.468 118.134C325.12 118.29 324.748 118.368 324.352 118.368C323.956 118.368 323.578 118.29 323.218 118.134C322.87 117.978 322.564 117.756 322.3 117.468C322.036 117.168 321.826 116.802 321.67 116.37C321.526 115.926 321.454 115.422 321.454 114.858ZM319.834 114.858C319.834 115.542 319.93 116.178 320.122 116.766C320.314 117.354 320.602 117.87 320.986 118.314C321.37 118.746 321.844 119.088 322.408 119.34C322.972 119.58 323.62 119.7 324.352 119.7C325.096 119.7 325.744 119.58 326.296 119.34C326.86 119.088 327.334 118.746 327.718 118.314C328.102 117.87 328.39 117.354 328.582 116.766C328.774 116.178 328.87 115.542 328.87 114.858C328.87 114.174 328.774 113.538 328.582 112.95C328.39 112.35 328.102 111.834 327.718 111.402C327.334 110.958 326.86 110.61 326.296 110.358C325.744 110.106 325.096 109.98 324.352 109.98C323.62 109.98 322.972 110.106 322.408 110.358C321.844 110.61 321.37 110.958 320.986 111.402C320.602 111.834 320.314 112.35 320.122 112.95C319.93 113.538 319.834 114.174 319.834 114.858ZM330.314 110.196V119.502H331.844V113.706C331.844 113.526 331.886 113.304 331.97 113.04C332.066 112.764 332.21 112.5 332.402 112.248C332.606 111.996 332.864 111.78 333.176 111.6C333.5 111.42 333.884 111.33 334.328 111.33C334.676 111.33 334.958 111.384 335.174 111.492C335.402 111.588 335.582 111.732 335.714 111.924C335.846 112.104 335.936 112.32 335.984 112.572C336.044 112.824 336.074 113.1 336.074 113.4V119.502H337.604V113.706C337.604 112.986 337.82 112.41 338.252 111.978C338.684 111.546 339.278 111.33 340.034 111.33C340.406 111.33 340.706 111.384 340.934 111.492C341.174 111.6 341.36 111.75 341.492 111.942C341.624 112.122 341.714 112.338 341.762 112.59C341.81 112.842 341.834 113.112 341.834 113.4V119.502H343.364V112.68C343.364 112.2 343.286 111.792 343.13 111.456C342.986 111.108 342.776 110.826 342.5 110.61C342.236 110.394 341.912 110.238 341.528 110.142C341.156 110.034 340.736 109.98 340.268 109.98C339.656 109.98 339.092 110.118 338.576 110.394C338.072 110.67 337.664 111.06 337.352 111.564C337.16 110.988 336.83 110.58 336.362 110.34C335.894 110.1 335.372 109.98 334.796 109.98C333.488 109.98 332.486 110.508 331.79 111.564H331.754V110.196H330.314ZM345.354 110.196V123.048H346.884V118.26H346.92C347.088 118.536 347.292 118.77 347.532 118.962C347.784 119.142 348.048 119.286 348.324 119.394C348.6 119.502 348.876 119.58 349.152 119.628C349.44 119.676 349.698 119.7 349.926 119.7C350.634 119.7 351.252 119.574 351.78 119.322C352.32 119.07 352.764 118.728 353.112 118.296C353.472 117.852 353.736 117.336 353.904 116.748C354.084 116.16 354.174 115.536 354.174 114.876C354.174 114.216 354.084 113.592 353.904 113.004C353.724 112.416 353.454 111.9 353.094 111.456C352.746 111 352.302 110.64 351.762 110.376C351.234 110.112 350.61 109.98 349.89 109.98C349.242 109.98 348.648 110.1 348.108 110.34C347.568 110.568 347.172 110.94 346.92 111.456H346.884V110.196H345.354ZM352.554 114.768C352.554 115.224 352.506 115.668 352.41 116.1C352.314 116.532 352.158 116.916 351.942 117.252C351.726 117.588 351.438 117.858 351.078 118.062C350.73 118.266 350.292 118.368 349.764 118.368C349.236 118.368 348.786 118.272 348.414 118.08C348.042 117.876 347.736 117.612 347.496 117.288C347.268 116.964 347.1 116.592 346.992 116.172C346.884 115.74 346.83 115.296 346.83 114.84C346.83 114.408 346.878 113.982 346.974 113.562C347.082 113.142 347.25 112.77 347.478 112.446C347.706 112.11 348 111.84 348.36 111.636C348.72 111.432 349.158 111.33 349.674 111.33C350.166 111.33 350.592 111.426 350.952 111.618C351.324 111.81 351.624 112.068 351.852 112.392C352.092 112.716 352.266 113.088 352.374 113.508C352.494 113.916 352.554 114.336 352.554 114.768ZM356.726 114.858C356.726 114.294 356.798 113.796 356.942 113.364C357.098 112.92 357.308 112.548 357.572 112.248C357.836 111.948 358.142 111.72 358.49 111.564C358.85 111.408 359.228 111.33 359.624 111.33C360.02 111.33 360.392 111.408 360.74 111.564C361.1 111.72 361.412 111.948 361.676 112.248C361.94 112.548 362.144 112.92 362.288 113.364C362.444 113.796 362.522 114.294 362.522 114.858C362.522 115.422 362.444 115.926 362.288 116.37C362.144 116.802 361.94 117.168 361.676 117.468C361.412 117.756 361.1 117.978 360.74 118.134C360.392 118.29 360.02 118.368 359.624 118.368C359.228 118.368 358.85 118.29 358.49 118.134C358.142 117.978 357.836 117.756 357.572 117.468C357.308 117.168 357.098 116.802 356.942 116.37C356.798 115.926 356.726 115.422 356.726 114.858ZM355.106 114.858C355.106 115.542 355.202 116.178 355.394 116.766C355.586 117.354 355.874 117.87 356.258 118.314C356.642 118.746 357.116 119.088 357.68 119.34C358.244 119.58 358.892 119.7 359.624 119.7C360.368 119.7 361.016 119.58 361.568 119.34C362.132 119.088 362.606 118.746 362.99 118.314C363.374 117.87 363.662 117.354 363.854 116.766C364.046 116.178 364.142 115.542 364.142 114.858C364.142 114.174 364.046 113.538 363.854 112.95C363.662 112.35 363.374 111.834 362.99 111.402C362.606 110.958 362.132 110.61 361.568 110.358C361.016 110.106 360.368 109.98 359.624 109.98C358.892 109.98 358.244 110.106 357.68 110.358C357.116 110.61 356.642 110.958 356.258 111.402C355.874 111.834 355.586 112.35 355.394 112.95C355.202 113.538 355.106 114.174 355.106 114.858ZM366.522 116.568H364.992C365.016 117.144 365.136 117.636 365.352 118.044C365.568 118.44 365.856 118.764 366.216 119.016C366.576 119.256 366.99 119.43 367.458 119.538C367.926 119.646 368.418 119.7 368.934 119.7C369.402 119.7 369.87 119.652 370.338 119.556C370.818 119.472 371.244 119.316 371.616 119.088C372 118.86 372.306 118.56 372.534 118.188C372.774 117.816 372.894 117.348 372.894 116.784C372.894 116.34 372.804 115.968 372.624 115.668C372.456 115.368 372.228 115.122 371.94 114.93C371.664 114.726 371.34 114.564 370.968 114.444C370.608 114.324 370.236 114.222 369.852 114.138C369.492 114.054 369.132 113.976 368.772 113.904C368.412 113.82 368.088 113.724 367.8 113.616C367.512 113.496 367.272 113.352 367.08 113.184C366.9 113.004 366.81 112.782 366.81 112.518C366.81 112.278 366.87 112.086 366.99 111.942C367.11 111.786 367.266 111.666 367.458 111.582C367.65 111.486 367.86 111.42 368.088 111.384C368.328 111.348 368.562 111.33 368.79 111.33C369.042 111.33 369.288 111.36 369.528 111.42C369.78 111.468 370.008 111.552 370.212 111.672C370.416 111.792 370.584 111.954 370.716 112.158C370.848 112.35 370.926 112.596 370.95 112.896H372.48C372.444 112.332 372.324 111.864 372.12 111.492C371.916 111.108 371.64 110.808 371.292 110.592C370.956 110.364 370.566 110.208 370.122 110.124C369.678 110.028 369.192 109.98 368.664 109.98C368.256 109.98 367.842 110.034 367.422 110.142C367.014 110.238 366.642 110.394 366.306 110.61C365.982 110.814 365.712 111.084 365.496 111.42C365.292 111.756 365.19 112.158 365.19 112.626C365.19 113.226 365.34 113.694 365.64 114.03C365.94 114.366 366.312 114.63 366.756 114.822C367.212 115.002 367.704 115.146 368.232 115.254C368.76 115.35 369.246 115.464 369.69 115.596C370.146 115.716 370.524 115.878 370.824 116.082C371.124 116.286 371.274 116.586 371.274 116.982C371.274 117.27 371.202 117.51 371.058 117.702C370.914 117.882 370.728 118.02 370.5 118.116C370.284 118.212 370.044 118.278 369.78 118.314C369.516 118.35 369.264 118.368 369.024 118.368C368.712 118.368 368.406 118.338 368.106 118.278C367.818 118.218 367.554 118.122 367.314 117.99C367.086 117.846 366.9 117.66 366.756 117.432C366.612 117.192 366.534 116.904 366.522 116.568ZM375.846 108.522V106.65H374.316V108.522H375.846ZM374.316 110.196V119.502H375.846V110.196H374.316ZM379.98 110.196V107.406H378.45V110.196H376.866V111.546H378.45V117.468C378.45 117.9 378.492 118.248 378.576 118.512C378.66 118.776 378.786 118.98 378.954 119.124C379.134 119.268 379.362 119.37 379.638 119.43C379.926 119.478 380.268 119.502 380.664 119.502H381.834V118.152H381.132C380.892 118.152 380.694 118.146 380.538 118.134C380.394 118.11 380.28 118.068 380.196 118.008C380.112 117.948 380.052 117.864 380.016 117.756C379.992 117.648 379.98 117.504 379.98 117.324V111.546H381.834V110.196H379.98ZM384.794 108.522V106.65H383.264V108.522H384.794ZM383.264 110.196V119.502H384.794V110.196H383.264ZM387.92 114.858C387.92 114.294 387.992 113.796 388.136 113.364C388.292 112.92 388.502 112.548 388.766 112.248C389.03 111.948 389.336 111.72 389.684 111.564C390.044 111.408 390.422 111.33 390.818 111.33C391.214 111.33 391.586 111.408 391.934 111.564C392.294 111.72 392.606 111.948 392.87 112.248C393.134 112.548 393.338 112.92 393.482 113.364C393.638 113.796 393.716 114.294 393.716 114.858C393.716 115.422 393.638 115.926 393.482 116.37C393.338 116.802 393.134 117.168 392.87 117.468C392.606 117.756 392.294 117.978 391.934 118.134C391.586 118.29 391.214 118.368 390.818 118.368C390.422 118.368 390.044 118.29 389.684 118.134C389.336 117.978 389.03 117.756 388.766 117.468C388.502 117.168 388.292 116.802 388.136 116.37C387.992 115.926 387.92 115.422 387.92 114.858ZM386.3 114.858C386.3 115.542 386.396 116.178 386.588 116.766C386.78 117.354 387.068 117.87 387.452 118.314C387.836 118.746 388.31 119.088 388.874 119.34C389.438 119.58 390.086 119.7 390.818 119.7C391.562 119.7 392.21 119.58 392.762 119.34C393.326 119.088 393.8 118.746 394.184 118.314C394.568 117.87 394.856 117.354 395.048 116.766C395.24 116.178 395.336 115.542 395.336 114.858C395.336 114.174 395.24 113.538 395.048 112.95C394.856 112.35 394.568 111.834 394.184 111.402C393.8 110.958 393.326 110.61 392.762 110.358C392.21 110.106 391.562 109.98 390.818 109.98C390.086 109.98 389.438 110.106 388.874 110.358C388.31 110.61 387.836 110.958 387.452 111.402C387.068 111.834 386.78 112.35 386.588 112.95C386.396 113.538 386.3 114.174 386.3 114.858ZM396.78 110.196V119.502H398.31V114.246C398.31 113.826 398.364 113.442 398.472 113.094C398.592 112.734 398.766 112.422 398.994 112.158C399.222 111.894 399.504 111.69 399.84 111.546C400.188 111.402 400.596 111.33 401.064 111.33C401.652 111.33 402.114 111.498 402.45 111.834C402.786 112.17 402.954 112.626 402.954 113.202V119.502H404.484V113.382C404.484 112.878 404.43 112.422 404.322 112.014C404.226 111.594 404.052 111.234 403.8 110.934C403.548 110.634 403.218 110.4 402.81 110.232C402.402 110.064 401.892 109.98 401.28 109.98C399.9 109.98 398.892 110.544 398.256 111.672H398.22V110.196H396.78ZM416.327 119.502V106.74H415.157C415.073 107.22 414.917 107.616 414.689 107.928C414.461 108.24 414.179 108.486 413.843 108.666C413.519 108.846 413.153 108.972 412.745 109.044C412.337 109.104 411.917 109.134 411.485 109.134V110.358H414.797V119.502H416.327Z" fill="black"/>
<circle cx="539.828" cy="340.651" r="19.35" fill="#C6C6C6"/>
<path d="M495.195 369.719H496.905C496.809 369.035 496.605 368.435 496.293 367.919C495.981 367.391 495.591 366.953 495.123 366.605C494.655 366.257 494.121 365.993 493.521 365.813C492.921 365.633 492.285 365.543 491.613 365.543C490.629 365.543 489.753 365.723 488.985 366.083C488.229 366.431 487.593 366.911 487.077 367.523C486.573 368.135 486.189 368.855 485.925 369.683C485.661 370.499 485.529 371.375 485.529 372.311C485.529 373.247 485.649 374.123 485.889 374.939C486.141 375.755 486.513 376.463 487.005 377.063C487.497 377.663 488.115 378.137 488.859 378.485C489.603 378.821 490.473 378.989 491.469 378.989C493.113 378.989 494.409 378.539 495.357 377.639C496.305 376.739 496.863 375.479 497.031 373.859H495.321C495.285 374.387 495.177 374.879 494.997 375.335C494.817 375.791 494.565 376.187 494.241 376.523C493.929 376.847 493.551 377.105 493.107 377.297C492.675 377.477 492.177 377.567 491.613 377.567C490.845 377.567 490.185 377.423 489.633 377.135C489.081 376.847 488.625 376.463 488.265 375.983C487.917 375.491 487.659 374.921 487.491 374.273C487.323 373.613 487.239 372.917 487.239 372.185C487.239 371.513 487.323 370.865 487.491 370.241C487.659 369.617 487.917 369.065 488.265 368.585C488.625 368.093 489.075 367.703 489.615 367.415C490.167 367.127 490.827 366.983 491.595 366.983C492.495 366.983 493.269 367.211 493.917 367.667C494.577 368.123 495.003 368.807 495.195 369.719ZM499.653 374.057C499.653 373.493 499.725 372.995 499.869 372.563C500.025 372.119 500.235 371.747 500.499 371.447C500.763 371.147 501.069 370.919 501.417 370.763C501.777 370.607 502.155 370.529 502.551 370.529C502.947 370.529 503.319 370.607 503.667 370.763C504.027 370.919 504.339 371.147 504.603 371.447C504.867 371.747 505.071 372.119 505.215 372.563C505.371 372.995 505.449 373.493 505.449 374.057C505.449 374.621 505.371 375.125 505.215 375.569C505.071 376.001 504.867 376.367 504.603 376.667C504.339 376.955 504.027 377.177 503.667 377.333C503.319 377.489 502.947 377.567 502.551 377.567C502.155 377.567 501.777 377.489 501.417 377.333C501.069 377.177 500.763 376.955 500.499 376.667C500.235 376.367 500.025 376.001 499.869 375.569C499.725 375.125 499.653 374.621 499.653 374.057ZM498.033 374.057C498.033 374.741 498.129 375.377 498.321 375.965C498.513 376.553 498.801 377.069 499.185 377.513C499.569 377.945 500.043 378.287 500.607 378.539C501.171 378.779 501.819 378.899 502.551 378.899C503.295 378.899 503.943 378.779 504.495 378.539C505.059 378.287 505.533 377.945 505.917 377.513C506.301 377.069 506.589 376.553 506.781 375.965C506.973 375.377 507.069 374.741 507.069 374.057C507.069 373.373 506.973 372.737 506.781 372.149C506.589 371.549 506.301 371.033 505.917 370.601C505.533 370.157 505.059 369.809 504.495 369.557C503.943 369.305 503.295 369.179 502.551 369.179C501.819 369.179 501.171 369.305 500.607 369.557C500.043 369.809 499.569 370.157 499.185 370.601C498.801 371.033 498.513 371.549 498.321 372.149C498.129 372.737 498.033 373.373 498.033 374.057ZM508.513 369.395V378.701H510.043V372.905C510.043 372.725 510.085 372.503 510.169 372.239C510.265 371.963 510.409 371.699 510.601 371.447C510.805 371.195 511.063 370.979 511.375 370.799C511.699 370.619 512.083 370.529 512.527 370.529C512.875 370.529 513.157 370.583 513.373 370.691C513.601 370.787 513.781 370.931 513.913 371.123C514.045 371.303 514.135 371.519 514.183 371.771C514.243 372.023 514.273 372.299 514.273 372.599V378.701H515.803V372.905C515.803 372.185 516.019 371.609 516.451 371.177C516.883 370.745 517.477 370.529 518.233 370.529C518.605 370.529 518.905 370.583 519.133 370.691C519.373 370.799 519.559 370.949 519.691 371.141C519.823 371.321 519.913 371.537 519.961 371.789C520.009 372.041 520.033 372.311 520.033 372.599V378.701H521.563V371.879C521.563 371.399 521.485 370.991 521.329 370.655C521.185 370.307 520.975 370.025 520.699 369.809C520.435 369.593 520.111 369.437 519.727 369.341C519.355 369.233 518.935 369.179 518.467 369.179C517.855 369.179 517.291 369.317 516.775 369.593C516.271 369.869 515.863 370.259 515.551 370.763C515.359 370.187 515.029 369.779 514.561 369.539C514.093 369.299 513.571 369.179 512.995 369.179C511.687 369.179 510.685 369.707 509.989 370.763H509.953V369.395H508.513ZM523.553 369.395V382.247H525.083V377.459H525.119C525.287 377.735 525.491 377.969 525.731 378.161C525.983 378.341 526.247 378.485 526.523 378.593C526.799 378.701 527.075 378.779 527.351 378.827C527.639 378.875 527.897 378.899 528.125 378.899C528.833 378.899 529.451 378.773 529.979 378.521C530.519 378.269 530.963 377.927 531.311 377.495C531.671 377.051 531.935 376.535 532.103 375.947C532.283 375.359 532.373 374.735 532.373 374.075C532.373 373.415 532.283 372.791 532.103 372.203C531.923 371.615 531.653 371.099 531.293 370.655C530.945 370.199 530.501 369.839 529.961 369.575C529.433 369.311 528.809 369.179 528.089 369.179C527.441 369.179 526.847 369.299 526.307 369.539C525.767 369.767 525.371 370.139 525.119 370.655H525.083V369.395H523.553ZM530.753 373.967C530.753 374.423 530.705 374.867 530.609 375.299C530.513 375.731 530.357 376.115 530.141 376.451C529.925 376.787 529.637 377.057 529.277 377.261C528.929 377.465 528.491 377.567 527.963 377.567C527.435 377.567 526.985 377.471 526.613 377.279C526.241 377.075 525.935 376.811 525.695 376.487C525.467 376.163 525.299 375.791 525.191 375.371C525.083 374.939 525.029 374.495 525.029 374.039C525.029 373.607 525.077 373.181 525.173 372.761C525.281 372.341 525.449 371.969 525.677 371.645C525.905 371.309 526.199 371.039 526.559 370.835C526.919 370.631 527.357 370.529 527.873 370.529C528.365 370.529 528.791 370.625 529.151 370.817C529.523 371.009 529.823 371.267 530.051 371.591C530.291 371.915 530.465 372.287 530.573 372.707C530.693 373.115 530.753 373.535 530.753 373.967ZM534.925 374.057C534.925 373.493 534.997 372.995 535.141 372.563C535.297 372.119 535.507 371.747 535.771 371.447C536.035 371.147 536.341 370.919 536.689 370.763C537.049 370.607 537.427 370.529 537.823 370.529C538.219 370.529 538.591 370.607 538.939 370.763C539.299 370.919 539.611 371.147 539.875 371.447C540.139 371.747 540.343 372.119 540.487 372.563C540.643 372.995 540.721 373.493 540.721 374.057C540.721 374.621 540.643 375.125 540.487 375.569C540.343 376.001 540.139 376.367 539.875 376.667C539.611 376.955 539.299 377.177 538.939 377.333C538.591 377.489 538.219 377.567 537.823 377.567C537.427 377.567 537.049 377.489 536.689 377.333C536.341 377.177 536.035 376.955 535.771 376.667C535.507 376.367 535.297 376.001 535.141 375.569C534.997 375.125 534.925 374.621 534.925 374.057ZM533.305 374.057C533.305 374.741 533.401 375.377 533.593 375.965C533.785 376.553 534.073 377.069 534.457 377.513C534.841 377.945 535.315 378.287 535.879 378.539C536.443 378.779 537.091 378.899 537.823 378.899C538.567 378.899 539.215 378.779 539.767 378.539C540.331 378.287 540.805 377.945 541.189 377.513C541.573 377.069 541.861 376.553 542.053 375.965C542.245 375.377 542.341 374.741 542.341 374.057C542.341 373.373 542.245 372.737 542.053 372.149C541.861 371.549 541.573 371.033 541.189 370.601C540.805 370.157 540.331 369.809 539.767 369.557C539.215 369.305 538.567 369.179 537.823 369.179C537.091 369.179 536.443 369.305 535.879 369.557C535.315 369.809 534.841 370.157 534.457 370.601C534.073 371.033 533.785 371.549 533.593 372.149C533.401 372.737 533.305 373.373 533.305 374.057ZM544.721 375.767H543.191C543.215 376.343 543.335 376.835 543.551 377.243C543.767 377.639 544.055 377.963 544.415 378.215C544.775 378.455 545.189 378.629 545.657 378.737C546.125 378.845 546.617 378.899 547.133 378.899C547.601 378.899 548.069 378.851 548.537 378.755C549.017 378.671 549.443 378.515 549.815 378.287C550.199 378.059 550.505 377.759 550.733 377.387C550.973 377.015 551.093 376.547 551.093 375.983C551.093 375.539 551.003 375.167 550.823 374.867C550.655 374.567 550.427 374.321 550.139 374.129C549.863 373.925 549.539 373.763 549.167 373.643C548.807 373.523 548.435 373.421 548.051 373.337C547.691 373.253 547.331 373.175 546.971 373.103C546.611 373.019 546.287 372.923 545.999 372.815C545.711 372.695 545.471 372.551 545.279 372.383C545.099 372.203 545.009 371.981 545.009 371.717C545.009 371.477 545.069 371.285 545.189 371.141C545.309 370.985 545.465 370.865 545.657 370.781C545.849 370.685 546.059 370.619 546.287 370.583C546.527 370.547 546.761 370.529 546.989 370.529C547.241 370.529 547.487 370.559 547.727 370.619C547.979 370.667 548.207 370.751 548.411 370.871C548.615 370.991 548.783 371.153 548.915 371.357C549.047 371.549 549.125 371.795 549.149 372.095H550.679C550.643 371.531 550.523 371.063 550.319 370.691C550.115 370.307 549.839 370.007 549.491 369.791C549.155 369.563 548.765 369.407 548.321 369.323C547.877 369.227 547.391 369.179 546.863 369.179C546.455 369.179 546.041 369.233 545.621 369.341C545.213 369.437 544.841 369.593 544.505 369.809C544.181 370.013 543.911 370.283 543.695 370.619C543.491 370.955 543.389 371.357 543.389 371.825C543.389 372.425 543.539 372.893 543.839 373.229C544.139 373.565 544.511 373.829 544.955 374.021C545.411 374.201 545.903 374.345 546.431 374.453C546.959 374.549 547.445 374.663 547.889 374.795C548.345 374.915 548.723 375.077 549.023 375.281C549.323 375.485 549.473 375.785 549.473 376.181C549.473 376.469 549.401 376.709 549.257 376.901C549.113 377.081 548.927 377.219 548.699 377.315C548.483 377.411 548.243 377.477 547.979 377.513C547.715 377.549 547.463 377.567 547.223 377.567C546.911 377.567 546.605 377.537 546.305 377.477C546.017 377.417 545.753 377.321 545.513 377.189C545.285 377.045 545.099 376.859 544.955 376.631C544.811 376.391 544.733 376.103 544.721 375.767ZM554.045 367.721V365.849H552.515V367.721H554.045ZM552.515 369.395V378.701H554.045V369.395H552.515ZM558.179 369.395V366.605H556.649V369.395H555.065V370.745H556.649V376.667C556.649 377.099 556.691 377.447 556.775 377.711C556.859 377.975 556.985 378.179 557.153 378.323C557.333 378.467 557.561 378.569 557.837 378.629C558.125 378.677 558.467 378.701 558.863 378.701H560.033V377.351H559.331C559.091 377.351 558.893 377.345 558.737 377.333C558.593 377.309 558.479 377.267 558.395 377.207C558.311 377.147 558.251 377.063 558.215 376.955C558.191 376.847 558.179 376.703 558.179 376.523V370.745H560.033V369.395H558.179ZM562.993 367.721V365.849H561.463V367.721H562.993ZM561.463 369.395V378.701H562.993V369.395H561.463ZM566.119 374.057C566.119 373.493 566.191 372.995 566.335 372.563C566.491 372.119 566.701 371.747 566.965 371.447C567.229 371.147 567.535 370.919 567.883 370.763C568.243 370.607 568.621 370.529 569.017 370.529C569.413 370.529 569.785 370.607 570.133 370.763C570.493 370.919 570.805 371.147 571.069 371.447C571.333 371.747 571.537 372.119 571.681 372.563C571.837 372.995 571.915 373.493 571.915 374.057C571.915 374.621 571.837 375.125 571.681 375.569C571.537 376.001 571.333 376.367 571.069 376.667C570.805 376.955 570.493 377.177 570.133 377.333C569.785 377.489 569.413 377.567 569.017 377.567C568.621 377.567 568.243 377.489 567.883 377.333C567.535 377.177 567.229 376.955 566.965 376.667C566.701 376.367 566.491 376.001 566.335 375.569C566.191 375.125 566.119 374.621 566.119 374.057ZM564.499 374.057C564.499 374.741 564.595 375.377 564.787 375.965C564.979 376.553 565.267 377.069 565.651 377.513C566.035 377.945 566.509 378.287 567.073 378.539C567.637 378.779 568.285 378.899 569.017 378.899C569.761 378.899 570.409 378.779 570.961 378.539C571.525 378.287 571.999 377.945 572.383 377.513C572.767 377.069 573.055 376.553 573.247 375.965C573.439 375.377 573.535 374.741 573.535 374.057C573.535 373.373 573.439 372.737 573.247 372.149C573.055 371.549 572.767 371.033 572.383 370.601C571.999 370.157 571.525 369.809 570.961 369.557C570.409 369.305 569.761 369.179 569.017 369.179C568.285 369.179 567.637 369.305 567.073 369.557C566.509 369.809 566.035 370.157 565.651 370.601C565.267 371.033 564.979 371.549 564.787 372.149C564.595 372.737 564.499 373.373 564.499 374.057ZM574.979 369.395V378.701H576.509V373.445C576.509 373.025 576.563 372.641 576.671 372.293C576.791 371.933 576.965 371.621 577.193 371.357C577.421 371.093 577.703 370.889 578.039 370.745C578.387 370.601 578.795 370.529 579.263 370.529C579.851 370.529 580.313 370.697 580.649 371.033C580.985 371.369 581.153 371.825 581.153 372.401V378.701H582.683V372.581C582.683 372.077 582.629 371.621 582.521 371.213C582.425 370.793 582.251 370.433 581.999 370.133C581.747 369.833 581.417 369.599 581.009 369.431C580.601 369.263 580.091 369.179 579.479 369.179C578.099 369.179 577.091 369.743 576.455 370.871H576.419V369.395H574.979ZM588.911 370.457H590.441C590.429 370.073 590.465 369.695 590.549 369.323C590.645 368.939 590.795 368.597 590.999 368.297C591.203 367.997 591.461 367.757 591.773 367.577C592.097 367.385 592.481 367.289 592.925 367.289C593.261 367.289 593.579 367.343 593.879 367.451C594.179 367.559 594.437 367.715 594.653 367.919C594.881 368.123 595.061 368.369 595.193 368.657C595.325 368.933 595.391 369.245 595.391 369.593C595.391 370.037 595.319 370.427 595.175 370.763C595.043 371.099 594.839 371.411 594.563 371.699C594.299 371.987 593.963 372.275 593.555 372.563C593.147 372.839 592.673 373.145 592.133 373.481C591.689 373.745 591.263 374.027 590.855 374.327C590.447 374.627 590.081 374.975 589.757 375.371C589.433 375.767 589.163 376.235 588.947 376.775C588.743 377.303 588.611 377.945 588.551 378.701H596.885V377.351H590.333C590.405 376.955 590.555 376.607 590.783 376.307C591.023 375.995 591.305 375.707 591.629 375.443C591.965 375.179 592.331 374.933 592.727 374.705C593.123 374.465 593.519 374.225 593.915 373.985C594.311 373.733 594.695 373.469 595.067 373.193C595.439 372.917 595.769 372.611 596.057 372.275C596.345 371.927 596.573 371.537 596.741 371.105C596.921 370.673 597.011 370.175 597.011 369.611C597.011 369.011 596.903 368.483 596.687 368.027C596.483 367.571 596.201 367.193 595.841 366.893C595.481 366.581 595.055 366.347 594.563 366.191C594.083 366.023 593.567 365.939 593.015 365.939C592.343 365.939 591.743 366.053 591.215 366.281C590.687 366.509 590.243 366.827 589.883 367.235C589.535 367.631 589.277 368.105 589.109 368.657C588.941 369.209 588.875 369.809 588.911 370.457Z" fill="black"/>
<circle cx="428.61" cy="502.651" r="19.35" fill="#C6C6C6"/>
<path d="M383.976 531.719H385.686C385.59 531.035 385.386 530.435 385.074 529.919C384.762 529.391 384.372 528.953 383.904 528.605C383.436 528.257 382.902 527.993 382.302 527.813C381.702 527.633 381.066 527.543 380.394 527.543C379.41 527.543 378.534 527.723 377.766 528.083C377.01 528.431 376.374 528.911 375.858 529.523C375.354 530.135 374.97 530.855 374.706 531.683C374.442 532.499 374.31 533.375 374.31 534.311C374.31 535.247 374.43 536.123 374.67 536.939C374.922 537.755 375.294 538.463 375.786 539.063C376.278 539.663 376.896 540.137 377.64 540.485C378.384 540.821 379.254 540.989 380.25 540.989C381.894 540.989 383.19 540.539 384.138 539.639C385.086 538.739 385.644 537.479 385.812 535.859H384.102C384.066 536.387 383.958 536.879 383.778 537.335C383.598 537.791 383.346 538.187 383.022 538.523C382.71 538.847 382.332 539.105 381.888 539.297C381.456 539.477 380.958 539.567 380.394 539.567C379.626 539.567 378.966 539.423 378.414 539.135C377.862 538.847 377.406 538.463 377.046 537.983C376.698 537.491 376.44 536.921 376.272 536.273C376.104 535.613 376.02 534.917 376.02 534.185C376.02 533.513 376.104 532.865 376.272 532.241C376.44 531.617 376.698 531.065 377.046 530.585C377.406 530.093 377.856 529.703 378.396 529.415C378.948 529.127 379.608 528.983 380.376 528.983C381.276 528.983 382.05 529.211 382.698 529.667C383.358 530.123 383.784 530.807 383.976 531.719ZM388.435 536.057C388.435 535.493 388.507 534.995 388.651 534.563C388.807 534.119 389.017 533.747 389.281 533.447C389.545 533.147 389.851 532.919 390.199 532.763C390.559 532.607 390.937 532.529 391.333 532.529C391.729 532.529 392.101 532.607 392.449 532.763C392.809 532.919 393.121 533.147 393.385 533.447C393.649 533.747 393.853 534.119 393.997 534.563C394.153 534.995 394.231 535.493 394.231 536.057C394.231 536.621 394.153 537.125 393.997 537.569C393.853 538.001 393.649 538.367 393.385 538.667C393.121 538.955 392.809 539.177 392.449 539.333C392.101 539.489 391.729 539.567 391.333 539.567C390.937 539.567 390.559 539.489 390.199 539.333C389.851 539.177 389.545 538.955 389.281 538.667C389.017 538.367 388.807 538.001 388.651 537.569C388.507 537.125 388.435 536.621 388.435 536.057ZM386.815 536.057C386.815 536.741 386.911 537.377 387.103 537.965C387.295 538.553 387.583 539.069 387.967 539.513C388.351 539.945 388.825 540.287 389.389 540.539C389.953 540.779 390.601 540.899 391.333 540.899C392.077 540.899 392.725 540.779 393.277 540.539C393.841 540.287 394.315 539.945 394.699 539.513C395.083 539.069 395.371 538.553 395.563 537.965C395.755 537.377 395.851 536.741 395.851 536.057C395.851 535.373 395.755 534.737 395.563 534.149C395.371 533.549 395.083 533.033 394.699 532.601C394.315 532.157 393.841 531.809 393.277 531.557C392.725 531.305 392.077 531.179 391.333 531.179C390.601 531.179 389.953 531.305 389.389 531.557C388.825 531.809 388.351 532.157 387.967 532.601C387.583 533.033 387.295 533.549 387.103 534.149C386.911 534.737 386.815 535.373 386.815 536.057ZM397.295 531.395V540.701H398.825V534.905C398.825 534.725 398.867 534.503 398.951 534.239C399.047 533.963 399.191 533.699 399.383 533.447C399.587 533.195 399.845 532.979 400.157 532.799C400.481 532.619 400.865 532.529 401.309 532.529C401.657 532.529 401.939 532.583 402.155 532.691C402.383 532.787 402.563 532.931 402.695 533.123C402.827 533.303 402.917 533.519 402.965 533.771C403.025 534.023 403.055 534.299 403.055 534.599V540.701H404.585V534.905C404.585 534.185 404.801 533.609 405.233 533.177C405.665 532.745 406.259 532.529 407.015 532.529C407.387 532.529 407.687 532.583 407.915 532.691C408.155 532.799 408.341 532.949 408.473 533.141C408.605 533.321 408.695 533.537 408.743 533.789C408.791 534.041 408.815 534.311 408.815 534.599V540.701H410.345V533.879C410.345 533.399 410.267 532.991 410.111 532.655C409.967 532.307 409.757 532.025 409.481 531.809C409.217 531.593 408.893 531.437 408.509 531.341C408.137 531.233 407.717 531.179 407.249 531.179C406.637 531.179 406.073 531.317 405.557 531.593C405.053 531.869 404.645 532.259 404.333 532.763C404.141 532.187 403.811 531.779 403.343 531.539C402.875 531.299 402.353 531.179 401.777 531.179C400.469 531.179 399.467 531.707 398.771 532.763H398.735V531.395H397.295ZM412.334 531.395V544.247H413.864V539.459H413.9C414.068 539.735 414.272 539.969 414.512 540.161C414.764 540.341 415.028 540.485 415.304 540.593C415.58 540.701 415.856 540.779 416.132 540.827C416.42 540.875 416.678 540.899 416.906 540.899C417.614 540.899 418.232 540.773 418.76 540.521C419.3 540.269 419.744 539.927 420.092 539.495C420.452 539.051 420.716 538.535 420.884 537.947C421.064 537.359 421.154 536.735 421.154 536.075C421.154 535.415 421.064 534.791 420.884 534.203C420.704 533.615 420.434 533.099 420.074 532.655C419.726 532.199 419.282 531.839 418.742 531.575C418.214 531.311 417.59 531.179 416.87 531.179C416.222 531.179 415.628 531.299 415.088 531.539C414.548 531.767 414.152 532.139 413.9 532.655H413.864V531.395H412.334ZM419.534 535.967C419.534 536.423 419.486 536.867 419.39 537.299C419.294 537.731 419.138 538.115 418.922 538.451C418.706 538.787 418.418 539.057 418.058 539.261C417.71 539.465 417.272 539.567 416.744 539.567C416.216 539.567 415.766 539.471 415.394 539.279C415.022 539.075 414.716 538.811 414.476 538.487C414.248 538.163 414.08 537.791 413.972 537.371C413.864 536.939 413.81 536.495 413.81 536.039C413.81 535.607 413.858 535.181 413.954 534.761C414.062 534.341 414.23 533.969 414.458 533.645C414.686 533.309 414.98 533.039 415.34 532.835C415.7 532.631 416.138 532.529 416.654 532.529C417.146 532.529 417.572 532.625 417.932 532.817C418.304 533.009 418.604 533.267 418.832 533.591C419.072 533.915 419.246 534.287 419.354 534.707C419.474 535.115 419.534 535.535 419.534 535.967ZM423.706 536.057C423.706 535.493 423.778 534.995 423.922 534.563C424.078 534.119 424.288 533.747 424.552 533.447C424.816 533.147 425.122 532.919 425.47 532.763C425.83 532.607 426.208 532.529 426.604 532.529C427 532.529 427.372 532.607 427.72 532.763C428.08 532.919 428.392 533.147 428.656 533.447C428.92 533.747 429.124 534.119 429.268 534.563C429.424 534.995 429.502 535.493 429.502 536.057C429.502 536.621 429.424 537.125 429.268 537.569C429.124 538.001 428.92 538.367 428.656 538.667C428.392 538.955 428.08 539.177 427.72 539.333C427.372 539.489 427 539.567 426.604 539.567C426.208 539.567 425.83 539.489 425.47 539.333C425.122 539.177 424.816 538.955 424.552 538.667C424.288 538.367 424.078 538.001 423.922 537.569C423.778 537.125 423.706 536.621 423.706 536.057ZM422.086 536.057C422.086 536.741 422.182 537.377 422.374 537.965C422.566 538.553 422.854 539.069 423.238 539.513C423.622 539.945 424.096 540.287 424.66 540.539C425.224 540.779 425.872 540.899 426.604 540.899C427.348 540.899 427.996 540.779 428.548 540.539C429.112 540.287 429.586 539.945 429.97 539.513C430.354 539.069 430.642 538.553 430.834 537.965C431.026 537.377 431.122 536.741 431.122 536.057C431.122 535.373 431.026 534.737 430.834 534.149C430.642 533.549 430.354 533.033 429.97 532.601C429.586 532.157 429.112 531.809 428.548 531.557C427.996 531.305 427.348 531.179 426.604 531.179C425.872 531.179 425.224 531.305 424.66 531.557C424.096 531.809 423.622 532.157 423.238 532.601C422.854 533.033 422.566 533.549 422.374 534.149C422.182 534.737 422.086 535.373 422.086 536.057ZM433.502 537.767H431.972C431.996 538.343 432.116 538.835 432.332 539.243C432.548 539.639 432.836 539.963 433.196 540.215C433.556 540.455 433.97 540.629 434.438 540.737C434.906 540.845 435.398 540.899 435.914 540.899C436.382 540.899 436.85 540.851 437.318 540.755C437.798 540.671 438.224 540.515 438.596 540.287C438.98 540.059 439.286 539.759 439.514 539.387C439.754 539.015 439.874 538.547 439.874 537.983C439.874 537.539 439.784 537.167 439.604 536.867C439.436 536.567 439.208 536.321 438.92 536.129C438.644 535.925 438.32 535.763 437.948 535.643C437.588 535.523 437.216 535.421 436.832 535.337C436.472 535.253 436.112 535.175 435.752 535.103C435.392 535.019 435.068 534.923 434.78 534.815C434.492 534.695 434.252 534.551 434.06 534.383C433.88 534.203 433.79 533.981 433.79 533.717C433.79 533.477 433.85 533.285 433.97 533.141C434.09 532.985 434.246 532.865 434.438 532.781C434.63 532.685 434.84 532.619 435.068 532.583C435.308 532.547 435.542 532.529 435.77 532.529C436.022 532.529 436.268 532.559 436.508 532.619C436.76 532.667 436.988 532.751 437.192 532.871C437.396 532.991 437.564 533.153 437.696 533.357C437.828 533.549 437.906 533.795 437.93 534.095H439.46C439.424 533.531 439.304 533.063 439.1 532.691C438.896 532.307 438.62 532.007 438.272 531.791C437.936 531.563 437.546 531.407 437.102 531.323C436.658 531.227 436.172 531.179 435.644 531.179C435.236 531.179 434.822 531.233 434.402 531.341C433.994 531.437 433.622 531.593 433.286 531.809C432.962 532.013 432.692 532.283 432.476 532.619C432.272 532.955 432.17 533.357 432.17 533.825C432.17 534.425 432.32 534.893 432.62 535.229C432.92 535.565 433.292 535.829 433.736 536.021C434.192 536.201 434.684 536.345 435.212 536.453C435.74 536.549 436.226 536.663 436.67 536.795C437.126 536.915 437.504 537.077 437.804 537.281C438.104 537.485 438.254 537.785 438.254 538.181C438.254 538.469 438.182 538.709 438.038 538.901C437.894 539.081 437.708 539.219 437.48 539.315C437.264 539.411 437.024 539.477 436.76 539.513C436.496 539.549 436.244 539.567 436.004 539.567C435.692 539.567 435.386 539.537 435.086 539.477C434.798 539.417 434.534 539.321 434.294 539.189C434.066 539.045 433.88 538.859 433.736 538.631C433.592 538.391 433.514 538.103 433.502 537.767ZM442.826 529.721V527.849H441.296V529.721H442.826ZM441.296 531.395V540.701H442.826V531.395H441.296ZM446.96 531.395V528.605H445.43V531.395H443.846V532.745H445.43V538.667C445.43 539.099 445.472 539.447 445.556 539.711C445.64 539.975 445.766 540.179 445.934 540.323C446.114 540.467 446.342 540.569 446.618 540.629C446.906 540.677 447.248 540.701 447.644 540.701H448.814V539.351H448.112C447.872 539.351 447.674 539.345 447.518 539.333C447.374 539.309 447.26 539.267 447.176 539.207C447.092 539.147 447.032 539.063 446.996 538.955C446.972 538.847 446.96 538.703 446.96 538.523V532.745H448.814V531.395H446.96ZM451.774 529.721V527.849H450.244V529.721H451.774ZM450.244 531.395V540.701H451.774V531.395H450.244ZM454.9 536.057C454.9 535.493 454.972 534.995 455.116 534.563C455.272 534.119 455.482 533.747 455.746 533.447C456.01 533.147 456.316 532.919 456.664 532.763C457.024 532.607 457.402 532.529 457.798 532.529C458.194 532.529 458.566 532.607 458.914 532.763C459.274 532.919 459.586 533.147 459.85 533.447C460.114 533.747 460.318 534.119 460.462 534.563C460.618 534.995 460.696 535.493 460.696 536.057C460.696 536.621 460.618 537.125 460.462 537.569C460.318 538.001 460.114 538.367 459.85 538.667C459.586 538.955 459.274 539.177 458.914 539.333C458.566 539.489 458.194 539.567 457.798 539.567C457.402 539.567 457.024 539.489 456.664 539.333C456.316 539.177 456.01 538.955 455.746 538.667C455.482 538.367 455.272 538.001 455.116 537.569C454.972 537.125 454.9 536.621 454.9 536.057ZM453.28 536.057C453.28 536.741 453.376 537.377 453.568 537.965C453.76 538.553 454.048 539.069 454.432 539.513C454.816 539.945 455.29 540.287 455.854 540.539C456.418 540.779 457.066 540.899 457.798 540.899C458.542 540.899 459.19 540.779 459.742 540.539C460.306 540.287 460.78 539.945 461.164 539.513C461.548 539.069 461.836 538.553 462.028 537.965C462.22 537.377 462.316 536.741 462.316 536.057C462.316 535.373 462.22 534.737 462.028 534.149C461.836 533.549 461.548 533.033 461.164 532.601C460.78 532.157 460.306 531.809 459.742 531.557C459.19 531.305 458.542 531.179 457.798 531.179C457.066 531.179 456.418 531.305 455.854 531.557C455.29 531.809 454.816 532.157 454.432 532.601C454.048 533.033 453.76 533.549 453.568 534.149C453.376 534.737 453.28 535.373 453.28 536.057ZM463.76 531.395V540.701H465.29V535.445C465.29 535.025 465.344 534.641 465.452 534.293C465.572 533.933 465.746 533.621 465.974 533.357C466.202 533.093 466.484 532.889 466.82 532.745C467.168 532.601 467.576 532.529 468.044 532.529C468.632 532.529 469.094 532.697 469.43 533.033C469.766 533.369 469.934 533.825 469.934 534.401V540.701H471.464V534.581C471.464 534.077 471.41 533.621 471.302 533.213C471.206 532.793 471.032 532.433 470.78 532.133C470.528 531.833 470.198 531.599 469.79 531.431C469.382 531.263 468.872 531.179 468.26 531.179C466.88 531.179 465.872 531.743 465.236 532.871H465.2V531.395H463.76ZM485.36 529.505V528.155H479.06L477.872 534.779L479.186 534.851C479.486 534.491 479.828 534.203 480.212 533.987C480.608 533.759 481.058 533.645 481.562 533.645C481.994 533.645 482.384 533.717 482.732 533.861C483.092 534.005 483.398 534.209 483.65 534.473C483.902 534.725 484.094 535.031 484.226 535.391C484.37 535.739 484.442 536.123 484.442 536.543C484.442 537.047 484.37 537.491 484.226 537.875C484.082 538.247 483.884 538.559 483.632 538.811C483.392 539.063 483.104 539.255 482.768 539.387C482.444 539.507 482.102 539.567 481.742 539.567C481.358 539.567 481.004 539.513 480.68 539.405C480.368 539.285 480.092 539.123 479.852 538.919C479.624 538.703 479.438 538.457 479.294 538.181C479.162 537.893 479.084 537.587 479.06 537.263H477.53C477.542 537.839 477.656 538.355 477.872 538.811C478.088 539.267 478.382 539.651 478.754 539.963C479.126 540.263 479.552 540.497 480.032 540.665C480.524 540.821 481.046 540.899 481.598 540.899C482.342 540.899 482.99 540.785 483.542 540.557C484.106 540.317 484.574 539.999 484.946 539.603C485.318 539.207 485.594 538.757 485.774 538.253C485.966 537.737 486.062 537.209 486.062 536.669C486.062 535.937 485.954 535.301 485.738 534.761C485.522 534.209 485.228 533.753 484.856 533.393C484.484 533.021 484.046 532.745 483.542 532.565C483.038 532.385 482.504 532.295 481.94 532.295C481.508 532.295 481.07 532.373 480.626 532.529C480.194 532.673 479.84 532.901 479.564 533.213L479.528 533.177L480.212 529.505H485.36Z" fill="black"/>
<circle cx="97.0316" cy="499.952" r="19.35" fill="#C6C6C6"/>
<path d="M52.3982 529.02H54.1082C54.0122 528.336 53.8082 527.736 53.4962 527.22C53.1842 526.692 52.7942 526.254 52.3262 525.906C51.8582 525.558 51.3242 525.294 50.7242 525.114C50.1242 524.934 49.4882 524.844 48.8162 524.844C47.8322 524.844 46.9562 525.024 46.1882 525.384C45.4322 525.732 44.7962 526.212 44.2802 526.824C43.7762 527.436 43.3922 528.156 43.1282 528.984C42.8642 529.8 42.7322 530.676 42.7322 531.612C42.7322 532.548 42.8522 533.424 43.0922 534.24C43.3442 535.056 43.7162 535.764 44.2082 536.364C44.7002 536.964 45.3182 537.438 46.0622 537.786C46.8062 538.122 47.6762 538.29 48.6722 538.29C50.3162 538.29 51.6122 537.84 52.5602 536.94C53.5082 536.04 54.0662 534.78 54.2342 533.16H52.5242C52.4882 533.688 52.3802 534.18 52.2002 534.636C52.0202 535.092 51.7682 535.488 51.4442 535.824C51.1322 536.148 50.7542 536.406 50.3102 536.598C49.8782 536.778 49.3802 536.868 48.8162 536.868C48.0482 536.868 47.3882 536.724 46.8362 536.436C46.2842 536.148 45.8282 535.764 45.4682 535.284C45.1202 534.792 44.8622 534.222 44.6942 533.574C44.5262 532.914 44.4422 532.218 44.4422 531.486C44.4422 530.814 44.5262 530.166 44.6942 529.542C44.8622 528.918 45.1202 528.366 45.4682 527.886C45.8282 527.394 46.2782 527.004 46.8182 526.716C47.3702 526.428 48.0302 526.284 48.7982 526.284C49.6982 526.284 50.4722 526.512 51.1202 526.968C51.7802 527.424 52.2062 528.108 52.3982 529.02ZM56.8565 533.358C56.8565 532.794 56.9285 532.296 57.0725 531.864C57.2285 531.42 57.4385 531.048 57.7025 530.748C57.9665 530.448 58.2725 530.22 58.6205 530.064C58.9805 529.908 59.3585 529.83 59.7545 529.83C60.1505 529.83 60.5225 529.908 60.8705 530.064C61.2305 530.22 61.5425 530.448 61.8065 530.748C62.0705 531.048 62.2745 531.42 62.4185 531.864C62.5745 532.296 62.6525 532.794 62.6525 533.358C62.6525 533.922 62.5745 534.426 62.4185 534.87C62.2745 535.302 62.0705 535.668 61.8065 535.968C61.5425 536.256 61.2305 536.478 60.8705 536.634C60.5225 536.79 60.1505 536.868 59.7545 536.868C59.3585 536.868 58.9805 536.79 58.6205 536.634C58.2725 536.478 57.9665 536.256 57.7025 535.968C57.4385 535.668 57.2285 535.302 57.0725 534.87C56.9285 534.426 56.8565 533.922 56.8565 533.358ZM55.2365 533.358C55.2365 534.042 55.3325 534.678 55.5245 535.266C55.7165 535.854 56.0045 536.37 56.3885 536.814C56.7725 537.246 57.2465 537.588 57.8105 537.84C58.3745 538.08 59.0225 538.2 59.7545 538.2C60.4985 538.2 61.1465 538.08 61.6985 537.84C62.2625 537.588 62.7365 537.246 63.1205 536.814C63.5045 536.37 63.7925 535.854 63.9845 535.266C64.1765 534.678 64.2725 534.042 64.2725 533.358C64.2725 532.674 64.1765 532.038 63.9845 531.45C63.7925 530.85 63.5045 530.334 63.1205 529.902C62.7365 529.458 62.2625 529.11 61.6985 528.858C61.1465 528.606 60.4985 528.48 59.7545 528.48C59.0225 528.48 58.3745 528.606 57.8105 528.858C57.2465 529.11 56.7725 529.458 56.3885 529.902C56.0045 530.334 55.7165 530.85 55.5245 531.45C55.3325 532.038 55.2365 532.674 55.2365 533.358ZM65.7164 528.696V538.002H67.2464V532.206C67.2464 532.026 67.2884 531.804 67.3724 531.54C67.4684 531.264 67.6124 531 67.8044 530.748C68.0084 530.496 68.2664 530.28 68.5784 530.1C68.9024 529.92 69.2864 529.83 69.7304 529.83C70.0784 529.83 70.3604 529.884 70.5764 529.992C70.8044 530.088 70.9844 530.232 71.1164 530.424C71.2484 530.604 71.3384 530.82 71.3864 531.072C71.4464 531.324 71.4764 531.6 71.4764 531.9V538.002H73.0064V532.206C73.0064 531.486 73.2224 530.91 73.6544 530.478C74.0864 530.046 74.6804 529.83 75.4364 529.83C75.8084 529.83 76.1084 529.884 76.3364 529.992C76.5764 530.1 76.7624 530.25 76.8944 530.442C77.0264 530.622 77.1164 530.838 77.1644 531.09C77.2124 531.342 77.2364 531.612 77.2364 531.9V538.002H78.7664V531.18C78.7664 530.7 78.6884 530.292 78.5324 529.956C78.3884 529.608 78.1784 529.326 77.9024 529.11C77.6384 528.894 77.3144 528.738 76.9304 528.642C76.5584 528.534 76.1384 528.48 75.6704 528.48C75.0584 528.48 74.4944 528.618 73.9784 528.894C73.4744 529.17 73.0664 529.56 72.7544 530.064C72.5624 529.488 72.2324 529.08 71.7644 528.84C71.2964 528.6 70.7744 528.48 70.1984 528.48C68.8904 528.48 67.8884 529.008 67.1924 530.064H67.1564V528.696H65.7164ZM80.7561 528.696V541.548H82.2861V536.76H82.3221C82.4901 537.036 82.6941 537.27 82.9341 537.462C83.1861 537.642 83.4501 537.786 83.7261 537.894C84.0021 538.002 84.2781 538.08 84.5541 538.128C84.8421 538.176 85.1001 538.2 85.3281 538.2C86.0361 538.2 86.6541 538.074 87.1821 537.822C87.7221 537.57 88.1661 537.228 88.5141 536.796C88.8741 536.352 89.1381 535.836 89.3061 535.248C89.4861 534.66 89.5761 534.036 89.5761 533.376C89.5761 532.716 89.4861 532.092 89.3061 531.504C89.1261 530.916 88.8561 530.4 88.4961 529.956C88.1481 529.5 87.7041 529.14 87.1641 528.876C86.6361 528.612 86.0121 528.48 85.2921 528.48C84.6441 528.48 84.0501 528.6 83.5101 528.84C82.9701 529.068 82.5741 529.44 82.3221 529.956H82.2861V528.696H80.7561ZM87.9561 533.268C87.9561 533.724 87.9081 534.168 87.8121 534.6C87.7161 535.032 87.5601 535.416 87.3441 535.752C87.1281 536.088 86.8401 536.358 86.4801 536.562C86.1321 536.766 85.6941 536.868 85.1661 536.868C84.6381 536.868 84.1881 536.772 83.8161 536.58C83.4441 536.376 83.1381 536.112 82.8981 535.788C82.6701 535.464 82.5021 535.092 82.3941 534.672C82.2861 534.24 82.2321 533.796 82.2321 533.34C82.2321 532.908 82.2801 532.482 82.3761 532.062C82.4841 531.642 82.6521 531.27 82.8801 530.946C83.1081 530.61 83.4021 530.34 83.7621 530.136C84.1221 529.932 84.5601 529.83 85.0761 529.83C85.5681 529.83 85.9941 529.926 86.3541 530.118C86.7261 530.31 87.0261 530.568 87.2541 530.892C87.4941 531.216 87.6681 531.588 87.7761 532.008C87.8961 532.416 87.9561 532.836 87.9561 533.268ZM92.128 533.358C92.128 532.794 92.2 532.296 92.344 531.864C92.5 531.42 92.71 531.048 92.974 530.748C93.238 530.448 93.544 530.22 93.892 530.064C94.252 529.908 94.63 529.83 95.026 529.83C95.422 529.83 95.794 529.908 96.142 530.064C96.502 530.22 96.814 530.448 97.078 530.748C97.342 531.048 97.546 531.42 97.69 531.864C97.846 532.296 97.924 532.794 97.924 533.358C97.924 533.922 97.846 534.426 97.69 534.87C97.546 535.302 97.342 535.668 97.078 535.968C96.814 536.256 96.502 536.478 96.142 536.634C95.794 536.79 95.422 536.868 95.026 536.868C94.63 536.868 94.252 536.79 93.892 536.634C93.544 536.478 93.238 536.256 92.974 535.968C92.71 535.668 92.5 535.302 92.344 534.87C92.2 534.426 92.128 533.922 92.128 533.358ZM90.508 533.358C90.508 534.042 90.604 534.678 90.796 535.266C90.988 535.854 91.276 536.37 91.66 536.814C92.044 537.246 92.518 537.588 93.082 537.84C93.646 538.08 94.294 538.2 95.026 538.2C95.77 538.2 96.418 538.08 96.97 537.84C97.534 537.588 98.008 537.246 98.392 536.814C98.776 536.37 99.064 535.854 99.256 535.266C99.448 534.678 99.544 534.042 99.544 533.358C99.544 532.674 99.448 532.038 99.256 531.45C99.064 530.85 98.776 530.334 98.392 529.902C98.008 529.458 97.534 529.11 96.97 528.858C96.418 528.606 95.77 528.48 95.026 528.48C94.294 528.48 93.646 528.606 93.082 528.858C92.518 529.11 92.044 529.458 91.66 529.902C91.276 530.334 90.988 530.85 90.796 531.45C90.604 532.038 90.508 532.674 90.508 533.358ZM101.924 535.068H100.394C100.418 535.644 100.538 536.136 100.754 536.544C100.97 536.94 101.258 537.264 101.618 537.516C101.978 537.756 102.392 537.93 102.86 538.038C103.328 538.146 103.82 538.2 104.336 538.2C104.804 538.2 105.272 538.152 105.74 538.056C106.22 537.972 106.646 537.816 107.018 537.588C107.402 537.36 107.708 537.06 107.936 536.688C108.176 536.316 108.296 535.848 108.296 535.284C108.296 534.84 108.206 534.468 108.026 534.168C107.858 533.868 107.63 533.622 107.342 533.43C107.066 533.226 106.742 533.064 106.37 532.944C106.01 532.824 105.638 532.722 105.254 532.638C104.894 532.554 104.534 532.476 104.174 532.404C103.814 532.32 103.49 532.224 103.202 532.116C102.914 531.996 102.674 531.852 102.482 531.684C102.302 531.504 102.212 531.282 102.212 531.018C102.212 530.778 102.272 530.586 102.392 530.442C102.512 530.286 102.668 530.166 102.86 530.082C103.052 529.986 103.262 529.92 103.49 529.884C103.73 529.848 103.964 529.83 104.192 529.83C104.444 529.83 104.69 529.86 104.93 529.92C105.182 529.968 105.41 530.052 105.614 530.172C105.818 530.292 105.986 530.454 106.118 530.658C106.25 530.85 106.328 531.096 106.352 531.396H107.882C107.846 530.832 107.726 530.364 107.522 529.992C107.318 529.608 107.042 529.308 106.694 529.092C106.358 528.864 105.968 528.708 105.524 528.624C105.08 528.528 104.594 528.48 104.066 528.48C103.658 528.48 103.244 528.534 102.824 528.642C102.416 528.738 102.044 528.894 101.708 529.11C101.384 529.314 101.114 529.584 100.898 529.92C100.694 530.256 100.592 530.658 100.592 531.126C100.592 531.726 100.742 532.194 101.042 532.53C101.342 532.866 101.714 533.13 102.158 533.322C102.614 533.502 103.106 533.646 103.634 533.754C104.162 533.85 104.648 533.964 105.092 534.096C105.548 534.216 105.926 534.378 106.226 534.582C106.526 534.786 106.676 535.086 106.676 535.482C106.676 535.77 106.604 536.01 106.46 536.202C106.316 536.382 106.13 536.52 105.902 536.616C105.686 536.712 105.446 536.778 105.182 536.814C104.918 536.85 104.666 536.868 104.426 536.868C104.114 536.868 103.808 536.838 103.508 536.778C103.22 536.718 102.956 536.622 102.716 536.49C102.488 536.346 102.302 536.16 102.158 535.932C102.014 535.692 101.936 535.404 101.924 535.068ZM111.248 527.022V525.15H109.718V527.022H111.248ZM109.718 528.696V538.002H111.248V528.696H109.718ZM115.382 528.696V525.906H113.852V528.696H112.268V530.046H113.852V535.968C113.852 536.4 113.894 536.748 113.978 537.012C114.062 537.276 114.188 537.48 114.356 537.624C114.536 537.768 114.764 537.87 115.04 537.93C115.328 537.978 115.67 538.002 116.066 538.002H117.236V536.652H116.534C116.294 536.652 116.096 536.646 115.94 536.634C115.796 536.61 115.682 536.568 115.598 536.508C115.514 536.448 115.454 536.364 115.418 536.256C115.394 536.148 115.382 536.004 115.382 535.824V530.046H117.236V528.696H115.382ZM120.196 527.022V525.15H118.666V527.022H120.196ZM118.666 528.696V538.002H120.196V528.696H118.666ZM123.322 533.358C123.322 532.794 123.394 532.296 123.538 531.864C123.694 531.42 123.904 531.048 124.168 530.748C124.432 530.448 124.738 530.22 125.086 530.064C125.446 529.908 125.824 529.83 126.22 529.83C126.616 529.83 126.988 529.908 127.336 530.064C127.696 530.22 128.008 530.448 128.272 530.748C128.536 531.048 128.74 531.42 128.884 531.864C129.04 532.296 129.118 532.794 129.118 533.358C129.118 533.922 129.04 534.426 128.884 534.87C128.74 535.302 128.536 535.668 128.272 535.968C128.008 536.256 127.696 536.478 127.336 536.634C126.988 536.79 126.616 536.868 126.22 536.868C125.824 536.868 125.446 536.79 125.086 536.634C124.738 536.478 124.432 536.256 124.168 535.968C123.904 535.668 123.694 535.302 123.538 534.87C123.394 534.426 123.322 533.922 123.322 533.358ZM121.702 533.358C121.702 534.042 121.798 534.678 121.99 535.266C122.182 535.854 122.47 536.37 122.854 536.814C123.238 537.246 123.712 537.588 124.276 537.84C124.84 538.08 125.488 538.2 126.22 538.2C126.964 538.2 127.612 538.08 128.164 537.84C128.728 537.588 129.202 537.246 129.586 536.814C129.97 536.37 130.258 535.854 130.45 535.266C130.642 534.678 130.738 534.042 130.738 533.358C130.738 532.674 130.642 532.038 130.45 531.45C130.258 530.85 129.97 530.334 129.586 529.902C129.202 529.458 128.728 529.11 128.164 528.858C127.612 528.606 126.964 528.48 126.22 528.48C125.488 528.48 124.84 528.606 124.276 528.858C123.712 529.11 123.238 529.458 122.854 529.902C122.47 530.334 122.182 530.85 121.99 531.45C121.798 532.038 121.702 532.674 121.702 533.358ZM132.182 528.696V538.002H133.712V532.746C133.712 532.326 133.766 531.942 133.874 531.594C133.994 531.234 134.168 530.922 134.396 530.658C134.624 530.394 134.906 530.19 135.242 530.046C135.59 529.902 135.998 529.83 136.466 529.83C137.054 529.83 137.516 529.998 137.852 530.334C138.188 530.67 138.356 531.126 138.356 531.702V538.002H139.886V531.882C139.886 531.378 139.832 530.922 139.724 530.514C139.628 530.094 139.454 529.734 139.202 529.434C138.95 529.134 138.62 528.9 138.212 528.732C137.804 528.564 137.294 528.48 136.682 528.48C135.302 528.48 134.294 529.044 133.658 530.172H133.622V528.696H132.182ZM151.424 533.664H147.14L151.388 527.418H151.424V533.664ZM152.864 533.664V525.24H151.64L145.826 533.538V535.014H151.424V538.002H152.864V535.014H154.592V533.664H152.864Z" fill="black"/>
<circle cx="131.231" cy="148.952" r="19.35" fill="#C6C6C6"/>
<path d="M118.018 183.798V174.15H116.308V183.546C116.308 184.254 116.158 184.818 115.858 185.238C115.57 185.658 115.036 185.868 114.256 185.868C113.836 185.868 113.488 185.808 113.212 185.688C112.948 185.556 112.738 185.376 112.582 185.148C112.438 184.92 112.336 184.65 112.276 184.338C112.216 184.026 112.186 183.684 112.186 183.312V182.772H110.476V183.564C110.476 184.788 110.8 185.718 111.448 186.354C112.096 186.978 113.02 187.29 114.22 187.29C114.94 187.29 115.54 187.194 116.02 187.002C116.512 186.798 116.902 186.534 117.19 186.21C117.49 185.874 117.7 185.496 117.82 185.076C117.952 184.656 118.018 184.23 118.018 183.798ZM121.826 176.022V174.15H120.296V176.022H121.826ZM120.296 177.696V187.002H121.826V177.696H120.296ZM123.836 177.696V187.002H125.366V181.746C125.366 181.326 125.42 180.942 125.528 180.594C125.648 180.234 125.822 179.922 126.05 179.658C126.278 179.394 126.56 179.19 126.896 179.046C127.244 178.902 127.652 178.83 128.12 178.83C128.708 178.83 129.17 178.998 129.506 179.334C129.842 179.67 130.01 180.126 130.01 180.702V187.002H131.54V180.882C131.54 180.378 131.486 179.922 131.378 179.514C131.282 179.094 131.108 178.734 130.856 178.434C130.604 178.134 130.274 177.9 129.866 177.732C129.458 177.564 128.948 177.48 128.336 177.48C126.956 177.48 125.948 178.044 125.312 179.172H125.276V177.696H123.836ZM141.506 186.21V177.696H140.066V179.028H140.048C139.772 178.512 139.388 178.128 138.896 177.876C138.404 177.612 137.864 177.48 137.276 177.48C136.472 177.48 135.794 177.636 135.242 177.948C134.69 178.248 134.246 178.638 133.91 179.118C133.574 179.586 133.334 180.114 133.19 180.702C133.046 181.278 132.974 181.842 132.974 182.394C132.974 183.03 133.058 183.636 133.226 184.212C133.406 184.776 133.67 185.274 134.018 185.706C134.366 186.126 134.798 186.462 135.314 186.714C135.83 186.966 136.436 187.092 137.132 187.092C137.732 187.092 138.296 186.96 138.824 186.696C139.364 186.42 139.766 185.994 140.03 185.418H140.066V186.03C140.066 186.546 140.012 187.02 139.904 187.452C139.808 187.884 139.646 188.25 139.418 188.55C139.19 188.862 138.902 189.102 138.554 189.27C138.206 189.45 137.78 189.54 137.276 189.54C137.024 189.54 136.76 189.51 136.484 189.45C136.208 189.402 135.95 189.318 135.71 189.198C135.482 189.078 135.284 188.922 135.116 188.73C134.96 188.538 134.876 188.304 134.864 188.028H133.334C133.358 188.532 133.49 188.958 133.73 189.306C133.97 189.654 134.27 189.936 134.63 190.152C135.002 190.368 135.41 190.524 135.854 190.62C136.31 190.716 136.754 190.764 137.186 190.764C138.674 190.764 139.766 190.386 140.462 189.63C141.158 188.874 141.506 187.734 141.506 186.21ZM137.222 185.76C136.718 185.76 136.298 185.658 135.962 185.454C135.626 185.238 135.356 184.962 135.152 184.626C134.948 184.278 134.804 183.894 134.72 183.474C134.636 183.054 134.594 182.634 134.594 182.214C134.594 181.77 134.642 181.344 134.738 180.936C134.846 180.528 135.008 180.168 135.224 179.856C135.452 179.544 135.74 179.298 136.088 179.118C136.436 178.926 136.856 178.83 137.348 178.83C137.828 178.83 138.236 178.926 138.572 179.118C138.908 179.31 139.178 179.568 139.382 179.892C139.598 180.204 139.754 180.558 139.85 180.954C139.946 181.35 139.994 181.752 139.994 182.16C139.994 182.592 139.94 183.024 139.832 183.456C139.736 183.888 139.58 184.278 139.364 184.626C139.148 184.962 138.86 185.238 138.5 185.454C138.152 185.658 137.726 185.76 137.222 185.76ZM143.544 174.15V187.002H145.074V174.15H143.544ZM153.546 181.458H148.2C148.224 181.098 148.302 180.762 148.434 180.45C148.566 180.126 148.746 179.844 148.974 179.604C149.202 179.364 149.472 179.178 149.784 179.046C150.108 178.902 150.468 178.83 150.864 178.83C151.248 178.83 151.596 178.902 151.908 179.046C152.232 179.178 152.508 179.364 152.736 179.604C152.976 179.832 153.162 180.108 153.294 180.432C153.438 180.756 153.522 181.098 153.546 181.458ZM155.022 184.05H153.51C153.378 184.662 153.102 185.118 152.682 185.418C152.274 185.718 151.746 185.868 151.098 185.868C150.594 185.868 150.156 185.784 149.784 185.616C149.412 185.448 149.106 185.226 148.866 184.95C148.626 184.662 148.452 184.338 148.344 183.978C148.236 183.606 148.188 183.216 148.2 182.808H155.166C155.19 182.244 155.136 181.65 155.004 181.026C154.884 180.402 154.656 179.826 154.32 179.298C153.996 178.77 153.558 178.338 153.006 178.002C152.466 177.654 151.782 177.48 150.954 177.48C150.318 177.48 149.73 177.6 149.19 177.84C148.662 178.08 148.2 178.416 147.804 178.848C147.42 179.28 147.12 179.79 146.904 180.378C146.688 180.966 146.58 181.614 146.58 182.322C146.604 183.03 146.706 183.684 146.886 184.284C147.078 184.884 147.36 185.4 147.732 185.832C148.104 186.264 148.56 186.6 149.1 186.84C149.652 187.08 150.3 187.2 151.044 187.2C152.1 187.2 152.976 186.936 153.672 186.408C154.368 185.88 154.818 185.094 155.022 184.05Z" fill="black"/>
<circle cx="112.071" cy="336.151" r="19.35" fill="#C6C6C6"/>
<path d="M67.4373 365.219H69.1473C69.0513 364.535 68.8473 363.935 68.5353 363.419C68.2233 362.891 67.8333 362.453 67.3653 362.105C66.8973 361.757 66.3633 361.493 65.7633 361.313C65.1633 361.133 64.5273 361.043 63.8553 361.043C62.8713 361.043 61.9953 361.223 61.2273 361.583C60.4713 361.931 59.8353 362.411 59.3193 363.023C58.8153 363.635 58.4313 364.355 58.1673 365.183C57.9033 365.999 57.7713 366.875 57.7713 367.811C57.7713 368.747 57.8913 369.623 58.1313 370.439C58.3833 371.255 58.7553 371.963 59.2473 372.563C59.7393 373.163 60.3573 373.637 61.1013 373.985C61.8453 374.321 62.7153 374.489 63.7113 374.489C65.3553 374.489 66.6513 374.039 67.5993 373.139C68.5473 372.239 69.1053 370.979 69.2733 369.359H67.5633C67.5273 369.887 67.4193 370.379 67.2393 370.835C67.0593 371.291 66.8073 371.687 66.4833 372.023C66.1713 372.347 65.7933 372.605 65.3493 372.797C64.9173 372.977 64.4193 373.067 63.8553 373.067C63.0873 373.067 62.4273 372.923 61.8753 372.635C61.3233 372.347 60.8673 371.963 60.5073 371.483C60.1593 370.991 59.9013 370.421 59.7333 369.773C59.5653 369.113 59.4813 368.417 59.4813 367.685C59.4813 367.013 59.5653 366.365 59.7333 365.741C59.9013 365.117 60.1593 364.565 60.5073 364.085C60.8673 363.593 61.3173 363.203 61.8573 362.915C62.4093 362.627 63.0693 362.483 63.8373 362.483C64.7373 362.483 65.5113 362.711 66.1593 363.167C66.8193 363.623 67.2453 364.307 67.4373 365.219ZM71.8955 369.557C71.8955 368.993 71.9675 368.495 72.1115 368.063C72.2675 367.619 72.4775 367.247 72.7415 366.947C73.0055 366.647 73.3115 366.419 73.6595 366.263C74.0195 366.107 74.3975 366.029 74.7935 366.029C75.1895 366.029 75.5615 366.107 75.9095 366.263C76.2695 366.419 76.5815 366.647 76.8455 366.947C77.1095 367.247 77.3135 367.619 77.4575 368.063C77.6135 368.495 77.6915 368.993 77.6915 369.557C77.6915 370.121 77.6135 370.625 77.4575 371.069C77.3135 371.501 77.1095 371.867 76.8455 372.167C76.5815 372.455 76.2695 372.677 75.9095 372.833C75.5615 372.989 75.1895 373.067 74.7935 373.067C74.3975 373.067 74.0195 372.989 73.6595 372.833C73.3115 372.677 73.0055 372.455 72.7415 372.167C72.4775 371.867 72.2675 371.501 72.1115 371.069C71.9675 370.625 71.8955 370.121 71.8955 369.557ZM70.2755 369.557C70.2755 370.241 70.3715 370.877 70.5635 371.465C70.7555 372.053 71.0435 372.569 71.4275 373.013C71.8115 373.445 72.2855 373.787 72.8495 374.039C73.4135 374.279 74.0615 374.399 74.7935 374.399C75.5375 374.399 76.1855 374.279 76.7375 374.039C77.3015 373.787 77.7755 373.445 78.1595 373.013C78.5435 372.569 78.8315 372.053 79.0235 371.465C79.2155 370.877 79.3115 370.241 79.3115 369.557C79.3115 368.873 79.2155 368.237 79.0235 367.649C78.8315 367.049 78.5435 366.533 78.1595 366.101C77.7755 365.657 77.3015 365.309 76.7375 365.057C76.1855 364.805 75.5375 364.679 74.7935 364.679C74.0615 364.679 73.4135 364.805 72.8495 365.057C72.2855 365.309 71.8115 365.657 71.4275 366.101C71.0435 366.533 70.7555 367.049 70.5635 367.649C70.3715 368.237 70.2755 368.873 70.2755 369.557ZM80.7555 364.895V374.201H82.2855V368.405C82.2855 368.225 82.3275 368.003 82.4115 367.739C82.5075 367.463 82.6515 367.199 82.8435 366.947C83.0475 366.695 83.3055 366.479 83.6175 366.299C83.9415 366.119 84.3255 366.029 84.7695 366.029C85.1175 366.029 85.3995 366.083 85.6155 366.191C85.8435 366.287 86.0235 366.431 86.1555 366.623C86.2875 366.803 86.3775 367.019 86.4255 367.271C86.4855 367.523 86.5155 367.799 86.5155 368.099V374.201H88.0455V368.405C88.0455 367.685 88.2615 367.109 88.6935 366.677C89.1255 366.245 89.7195 366.029 90.4755 366.029C90.8475 366.029 91.1475 366.083 91.3755 366.191C91.6155 366.299 91.8015 366.449 91.9335 366.641C92.0655 366.821 92.1555 367.037 92.2035 367.289C92.2515 367.541 92.2755 367.811 92.2755 368.099V374.201H93.8055V367.379C93.8055 366.899 93.7275 366.491 93.5715 366.155C93.4275 365.807 93.2175 365.525 92.9415 365.309C92.6775 365.093 92.3535 364.937 91.9695 364.841C91.5975 364.733 91.1775 364.679 90.7095 364.679C90.0975 364.679 89.5335 364.817 89.0175 365.093C88.5135 365.369 88.1055 365.759 87.7935 366.263C87.6015 365.687 87.2715 365.279 86.8035 365.039C86.3355 364.799 85.8135 364.679 85.2375 364.679C83.9295 364.679 82.9275 365.207 82.2315 366.263H82.1955V364.895H80.7555ZM95.7952 364.895V377.747H97.3252V372.959H97.3612C97.5292 373.235 97.7332 373.469 97.9732 373.661C98.2252 373.841 98.4892 373.985 98.7652 374.093C99.0412 374.201 99.3172 374.279 99.5932 374.327C99.8812 374.375 100.139 374.399 100.367 374.399C101.075 374.399 101.693 374.273 102.221 374.021C102.761 373.769 103.205 373.427 103.553 372.995C103.913 372.551 104.177 372.035 104.345 371.447C104.525 370.859 104.615 370.235 104.615 369.575C104.615 368.915 104.525 368.291 104.345 367.703C104.165 367.115 103.895 366.599 103.535 366.155C103.187 365.699 102.743 365.339 102.203 365.075C101.675 364.811 101.051 364.679 100.331 364.679C99.6832 364.679 99.0892 364.799 98.5492 365.039C98.0092 365.267 97.6132 365.639 97.3612 366.155H97.3252V364.895H95.7952ZM102.995 369.467C102.995 369.923 102.947 370.367 102.851 370.799C102.755 371.231 102.599 371.615 102.383 371.951C102.167 372.287 101.879 372.557 101.519 372.761C101.171 372.965 100.733 373.067 100.205 373.067C99.6772 373.067 99.2272 372.971 98.8552 372.779C98.4832 372.575 98.1772 372.311 97.9372 371.987C97.7092 371.663 97.5412 371.291 97.4332 370.871C97.3252 370.439 97.2712 369.995 97.2712 369.539C97.2712 369.107 97.3192 368.681 97.4152 368.261C97.5232 367.841 97.6912 367.469 97.9192 367.145C98.1472 366.809 98.4412 366.539 98.8012 366.335C99.1612 366.131 99.5992 366.029 100.115 366.029C100.607 366.029 101.033 366.125 101.393 366.317C101.765 366.509 102.065 366.767 102.293 367.091C102.533 367.415 102.707 367.787 102.815 368.207C102.935 368.615 102.995 369.035 102.995 369.467ZM107.167 369.557C107.167 368.993 107.239 368.495 107.383 368.063C107.539 367.619 107.749 367.247 108.013 366.947C108.277 366.647 108.583 366.419 108.931 366.263C109.291 366.107 109.669 366.029 110.065 366.029C110.461 366.029 110.833 366.107 111.181 366.263C111.541 366.419 111.853 366.647 112.117 366.947C112.381 367.247 112.585 367.619 112.729 368.063C112.885 368.495 112.963 368.993 112.963 369.557C112.963 370.121 112.885 370.625 112.729 371.069C112.585 371.501 112.381 371.867 112.117 372.167C111.853 372.455 111.541 372.677 111.181 372.833C110.833 372.989 110.461 373.067 110.065 373.067C109.669 373.067 109.291 372.989 108.931 372.833C108.583 372.677 108.277 372.455 108.013 372.167C107.749 371.867 107.539 371.501 107.383 371.069C107.239 370.625 107.167 370.121 107.167 369.557ZM105.547 369.557C105.547 370.241 105.643 370.877 105.835 371.465C106.027 372.053 106.315 372.569 106.699 373.013C107.083 373.445 107.557 373.787 108.121 374.039C108.685 374.279 109.333 374.399 110.065 374.399C110.809 374.399 111.457 374.279 112.009 374.039C112.573 373.787 113.047 373.445 113.431 373.013C113.815 372.569 114.103 372.053 114.295 371.465C114.487 370.877 114.583 370.241 114.583 369.557C114.583 368.873 114.487 368.237 114.295 367.649C114.103 367.049 113.815 366.533 113.431 366.101C113.047 365.657 112.573 365.309 112.009 365.057C111.457 364.805 110.809 364.679 110.065 364.679C109.333 364.679 108.685 364.805 108.121 365.057C107.557 365.309 107.083 365.657 106.699 366.101C106.315 366.533 106.027 367.049 105.835 367.649C105.643 368.237 105.547 368.873 105.547 369.557ZM116.963 371.267H115.433C115.457 371.843 115.577 372.335 115.793 372.743C116.009 373.139 116.297 373.463 116.657 373.715C117.017 373.955 117.431 374.129 117.899 374.237C118.367 374.345 118.859 374.399 119.375 374.399C119.843 374.399 120.311 374.351 120.779 374.255C121.259 374.171 121.685 374.015 122.057 373.787C122.441 373.559 122.747 373.259 122.975 372.887C123.215 372.515 123.335 372.047 123.335 371.483C123.335 371.039 123.245 370.667 123.065 370.367C122.897 370.067 122.669 369.821 122.381 369.629C122.105 369.425 121.781 369.263 121.409 369.143C121.049 369.023 120.677 368.921 120.293 368.837C119.933 368.753 119.573 368.675 119.213 368.603C118.853 368.519 118.529 368.423 118.241 368.315C117.953 368.195 117.713 368.051 117.521 367.883C117.341 367.703 117.251 367.481 117.251 367.217C117.251 366.977 117.311 366.785 117.431 366.641C117.551 366.485 117.707 366.365 117.899 366.281C118.091 366.185 118.301 366.119 118.529 366.083C118.769 366.047 119.003 366.029 119.231 366.029C119.483 366.029 119.729 366.059 119.969 366.119C120.221 366.167 120.449 366.251 120.653 366.371C120.857 366.491 121.025 366.653 121.157 366.857C121.289 367.049 121.367 367.295 121.391 367.595H122.921C122.885 367.031 122.765 366.563 122.561 366.191C122.357 365.807 122.081 365.507 121.733 365.291C121.397 365.063 121.007 364.907 120.563 364.823C120.119 364.727 119.633 364.679 119.105 364.679C118.697 364.679 118.283 364.733 117.863 364.841C117.455 364.937 117.083 365.093 116.747 365.309C116.423 365.513 116.153 365.783 115.937 366.119C115.733 366.455 115.631 366.857 115.631 367.325C115.631 367.925 115.781 368.393 116.081 368.729C116.381 369.065 116.753 369.329 117.197 369.521C117.653 369.701 118.145 369.845 118.673 369.953C119.201 370.049 119.687 370.163 120.131 370.295C120.587 370.415 120.965 370.577 121.265 370.781C121.565 370.985 121.715 371.285 121.715 371.681C121.715 371.969 121.643 372.209 121.499 372.401C121.355 372.581 121.169 372.719 120.941 372.815C120.725 372.911 120.485 372.977 120.221 373.013C119.957 373.049 119.705 373.067 119.465 373.067C119.153 373.067 118.847 373.037 118.547 372.977C118.259 372.917 117.995 372.821 117.755 372.689C117.527 372.545 117.341 372.359 117.197 372.131C117.053 371.891 116.975 371.603 116.963 371.267ZM126.287 363.221V361.349H124.757V363.221H126.287ZM124.757 364.895V374.201H126.287V364.895H124.757ZM130.421 364.895V362.105H128.891V364.895H127.307V366.245H128.891V372.167C128.891 372.599 128.933 372.947 129.017 373.211C129.101 373.475 129.227 373.679 129.395 373.823C129.575 373.967 129.803 374.069 130.079 374.129C130.367 374.177 130.709 374.201 131.105 374.201H132.275V372.851H131.573C131.333 372.851 131.135 372.845 130.979 372.833C130.835 372.809 130.721 372.767 130.637 372.707C130.553 372.647 130.493 372.563 130.457 372.455C130.433 372.347 130.421 372.203 130.421 372.023V366.245H132.275V364.895H130.421ZM135.235 363.221V361.349H133.705V363.221H135.235ZM133.705 364.895V374.201H135.235V364.895H133.705ZM138.361 369.557C138.361 368.993 138.433 368.495 138.577 368.063C138.733 367.619 138.943 367.247 139.207 366.947C139.471 366.647 139.777 366.419 140.125 366.263C140.485 366.107 140.863 366.029 141.259 366.029C141.655 366.029 142.027 366.107 142.375 366.263C142.735 366.419 143.047 366.647 143.311 366.947C143.575 367.247 143.779 367.619 143.923 368.063C144.079 368.495 144.157 368.993 144.157 369.557C144.157 370.121 144.079 370.625 143.923 371.069C143.779 371.501 143.575 371.867 143.311 372.167C143.047 372.455 142.735 372.677 142.375 372.833C142.027 372.989 141.655 373.067 141.259 373.067C140.863 373.067 140.485 372.989 140.125 372.833C139.777 372.677 139.471 372.455 139.207 372.167C138.943 371.867 138.733 371.501 138.577 371.069C138.433 370.625 138.361 370.121 138.361 369.557ZM136.741 369.557C136.741 370.241 136.837 370.877 137.029 371.465C137.221 372.053 137.509 372.569 137.893 373.013C138.277 373.445 138.751 373.787 139.315 374.039C139.879 374.279 140.527 374.399 141.259 374.399C142.003 374.399 142.651 374.279 143.203 374.039C143.767 373.787 144.241 373.445 144.625 373.013C145.009 372.569 145.297 372.053 145.489 371.465C145.681 370.877 145.777 370.241 145.777 369.557C145.777 368.873 145.681 368.237 145.489 367.649C145.297 367.049 145.009 366.533 144.625 366.101C144.241 365.657 143.767 365.309 143.203 365.057C142.651 364.805 142.003 364.679 141.259 364.679C140.527 364.679 139.879 364.805 139.315 365.057C138.751 365.309 138.277 365.657 137.893 366.101C137.509 366.533 137.221 367.049 137.029 367.649C136.837 368.237 136.741 368.873 136.741 369.557ZM147.221 364.895V374.201H148.751V368.945C148.751 368.525 148.805 368.141 148.913 367.793C149.033 367.433 149.207 367.121 149.435 366.857C149.663 366.593 149.945 366.389 150.281 366.245C150.629 366.101 151.037 366.029 151.505 366.029C152.093 366.029 152.555 366.197 152.891 366.533C153.227 366.869 153.395 367.325 153.395 367.901V374.201H154.925V368.081C154.925 367.577 154.871 367.121 154.763 366.713C154.667 366.293 154.493 365.933 154.241 365.633C153.989 365.333 153.659 365.099 153.251 364.931C152.843 364.763 152.333 364.679 151.721 364.679C150.341 364.679 149.333 365.243 148.697 366.371H148.661V364.895H147.221ZM164.285 366.911V368.207C164.573 368.171 164.879 368.153 165.203 368.153C165.587 368.153 165.941 368.207 166.265 368.315C166.601 368.411 166.889 368.567 167.129 368.783C167.369 368.987 167.561 369.245 167.705 369.557C167.849 369.857 167.921 370.205 167.921 370.601C167.921 370.985 167.843 371.333 167.687 371.645C167.543 371.945 167.345 372.203 167.093 372.419C166.841 372.623 166.547 372.785 166.211 372.905C165.875 373.013 165.521 373.067 165.149 373.067C164.273 373.067 163.607 372.809 163.151 372.293C162.695 371.765 162.455 371.087 162.431 370.259H160.901C160.889 370.919 160.979 371.507 161.171 372.023C161.375 372.539 161.663 372.977 162.035 373.337C162.407 373.685 162.857 373.949 163.385 374.129C163.913 374.309 164.501 374.399 165.149 374.399C165.749 374.399 166.313 374.321 166.841 374.165C167.381 373.997 167.849 373.751 168.245 373.427C168.641 373.103 168.953 372.701 169.181 372.221C169.421 371.729 169.541 371.165 169.541 370.529C169.541 369.761 169.349 369.095 168.965 368.531C168.593 367.967 168.017 367.601 167.237 367.433V367.397C167.741 367.169 168.161 366.833 168.497 366.389C168.833 365.945 169.001 365.435 169.001 364.859C169.001 364.271 168.899 363.761 168.695 363.329C168.503 362.897 168.233 362.543 167.885 362.267C167.537 361.991 167.123 361.787 166.643 361.655C166.175 361.511 165.665 361.439 165.113 361.439C164.477 361.439 163.913 361.541 163.421 361.745C162.941 361.949 162.539 362.231 162.215 362.591C161.891 362.951 161.639 363.383 161.459 363.887C161.291 364.391 161.195 364.949 161.171 365.561H162.701C162.701 365.189 162.749 364.835 162.845 364.499C162.941 364.163 163.085 363.869 163.277 363.617C163.481 363.365 163.733 363.167 164.033 363.023C164.345 362.867 164.705 362.789 165.113 362.789C165.761 362.789 166.301 362.963 166.733 363.311C167.165 363.647 167.381 364.157 167.381 364.841C167.381 365.177 167.315 365.477 167.183 365.741C167.051 366.005 166.871 366.227 166.643 366.407C166.427 366.575 166.169 366.707 165.869 366.803C165.581 366.887 165.275 366.929 164.951 366.929H164.627C164.567 366.929 164.507 366.929 164.447 366.929C164.399 366.929 164.345 366.923 164.285 366.911Z" fill="black"/>
<path d="M352.7 128.699L341.807 139.85L356.91 143.708L352.7 128.699ZM309.5 283.499C310.795 283.88 310.795 283.879 310.796 283.879C310.796 283.878 310.796 283.877 310.796 283.876C310.797 283.873 310.798 283.869 310.8 283.863C310.803 283.853 310.808 283.836 310.814 283.815C310.827 283.772 310.846 283.708 310.871 283.623C310.92 283.453 310.994 283.201 311.092 282.869C311.286 282.206 311.573 281.226 311.943 279.959C312.684 277.426 313.758 273.747 315.09 269.163C317.755 259.994 321.456 247.204 325.598 232.716C333.881 203.743 343.933 167.972 351 140.805L348.387 140.126C341.329 167.259 331.284 203.004 323.002 231.974C318.861 246.457 315.162 259.243 312.498 268.409C311.165 272.992 310.092 276.67 309.352 279.202C308.982 280.467 308.695 281.447 308.501 282.11C308.404 282.441 308.33 282.693 308.28 282.863C308.255 282.948 308.236 283.012 308.224 283.054C308.217 283.076 308.213 283.092 308.209 283.103C308.208 283.108 308.207 283.112 308.206 283.115C308.206 283.116 308.205 283.117 308.205 283.118C308.205 283.118 308.205 283.119 309.5 283.499Z" fill="black"/>
<path d="M163.25 178.65L168.318 193.392L178.551 181.633L163.25 178.65ZM292.386 289.232L173.302 185.608L171.529 187.645L290.614 291.269L292.386 289.232Z" fill="black"/>
<path d="M138.049 331.65L152.915 336.339L149.543 321.12L138.049 331.65ZM288.057 297.032L149.619 327.703L150.203 330.339L288.641 299.668L288.057 297.032Z" fill="black"/>
<path d="M118.699 482.399L133.812 478.576L122.945 467.4L118.699 482.399ZM264.008 339.231L126.469 472.961L128.351 474.897L265.89 341.167L264.008 339.231Z" fill="black"/>
<path d="M414.349 480.149L414.072 464.563L400.712 472.596L414.349 480.149ZM330.392 343.145L406.931 470.432L409.245 469.041L332.706 341.754L330.392 343.145Z" fill="black"/>
<path d="M511.999 335.7L500.205 325.508L497.275 340.819L511.999 335.7ZM314.196 299.226L499.812 334.743L500.319 332.091L314.703 296.574L314.196 299.226Z" fill="black"/>
<circle cx="304.93" cy="296.1" r="19.35" fill="#ADFF00"/>
<path d="M255.576 321.298V334.15H257.286V328.264H263.19V326.824H257.286V322.738H264.018V321.298H255.576ZM273.004 334.15V324.844H271.474V330.1C271.474 330.52 271.414 330.91 271.294 331.27C271.186 331.618 271.018 331.924 270.79 332.188C270.562 332.452 270.274 332.656 269.926 332.8C269.59 332.944 269.188 333.016 268.72 333.016C268.132 333.016 267.67 332.848 267.334 332.512C266.998 332.176 266.83 331.72 266.83 331.144V324.844H265.3V330.964C265.3 331.468 265.348 331.93 265.444 332.35C265.552 332.758 265.732 333.112 265.984 333.412C266.236 333.712 266.566 333.946 266.974 334.114C267.382 334.27 267.892 334.348 268.504 334.348C269.188 334.348 269.782 334.216 270.286 333.952C270.79 333.676 271.204 333.25 271.528 332.674H271.564V334.15H273.004ZM277.066 324.844V322.054H275.536V324.844H273.952V326.194H275.536V332.116C275.536 332.548 275.578 332.896 275.662 333.16C275.746 333.424 275.872 333.628 276.04 333.772C276.22 333.916 276.448 334.018 276.724 334.078C277.012 334.126 277.354 334.15 277.75 334.15H278.92V332.8H278.218C277.978 332.8 277.78 332.794 277.624 332.782C277.48 332.758 277.366 332.716 277.282 332.656C277.198 332.596 277.138 332.512 277.102 332.404C277.078 332.296 277.066 332.152 277.066 331.972V326.194H278.92V324.844H277.066ZM287.964 334.15V324.844H286.434V330.1C286.434 330.52 286.374 330.91 286.254 331.27C286.146 331.618 285.978 331.924 285.75 332.188C285.522 332.452 285.234 332.656 284.886 332.8C284.55 332.944 284.148 333.016 283.68 333.016C283.092 333.016 282.63 332.848 282.294 332.512C281.958 332.176 281.79 331.72 281.79 331.144V324.844H280.26V330.964C280.26 331.468 280.308 331.93 280.404 332.35C280.512 332.758 280.692 333.112 280.944 333.412C281.196 333.712 281.526 333.946 281.934 334.114C282.342 334.27 282.852 334.348 283.464 334.348C284.148 334.348 284.742 334.216 285.246 333.952C285.75 333.676 286.164 333.25 286.488 332.674H286.524V334.15H287.964ZM289.848 324.844V334.15H291.378V330.01C291.378 329.41 291.438 328.882 291.558 328.426C291.678 327.958 291.87 327.562 292.134 327.238C292.398 326.914 292.746 326.668 293.178 326.5C293.61 326.332 294.132 326.248 294.744 326.248V324.628C293.916 324.604 293.232 324.772 292.692 325.132C292.152 325.492 291.696 326.05 291.324 326.806H291.288V324.844H289.848ZM301.681 328.606H296.335C296.359 328.246 296.437 327.91 296.569 327.598C296.701 327.274 296.881 326.992 297.109 326.752C297.337 326.512 297.607 326.326 297.919 326.194C298.243 326.05 298.603 325.978 298.999 325.978C299.383 325.978 299.731 326.05 300.043 326.194C300.367 326.326 300.643 326.512 300.871 326.752C301.111 326.98 301.297 327.256 301.429 327.58C301.573 327.904 301.657 328.246 301.681 328.606ZM303.157 331.198H301.645C301.513 331.81 301.237 332.266 300.817 332.566C300.409 332.866 299.881 333.016 299.233 333.016C298.729 333.016 298.291 332.932 297.919 332.764C297.547 332.596 297.241 332.374 297.001 332.098C296.761 331.81 296.587 331.486 296.479 331.126C296.371 330.754 296.323 330.364 296.335 329.956H303.301C303.325 329.392 303.271 328.798 303.139 328.174C303.019 327.55 302.791 326.974 302.455 326.446C302.131 325.918 301.693 325.486 301.141 325.15C300.601 324.802 299.917 324.628 299.089 324.628C298.453 324.628 297.865 324.748 297.325 324.988C296.797 325.228 296.335 325.564 295.939 325.996C295.555 326.428 295.255 326.938 295.039 327.526C294.823 328.114 294.715 328.762 294.715 329.47C294.739 330.178 294.841 330.832 295.021 331.432C295.213 332.032 295.495 332.548 295.867 332.98C296.239 333.412 296.695 333.748 297.235 333.988C297.787 334.228 298.435 334.348 299.179 334.348C300.235 334.348 301.111 334.084 301.807 333.556C302.503 333.028 302.953 332.242 303.157 331.198ZM314.487 334.15L319.059 321.298H317.277L313.569 332.44H313.533L309.861 321.298H308.025L312.543 334.15H314.487ZM319.953 329.506C319.953 328.942 320.025 328.444 320.169 328.012C320.325 327.568 320.535 327.196 320.799 326.896C321.063 326.596 321.369 326.368 321.717 326.212C322.077 326.056 322.455 325.978 322.851 325.978C323.247 325.978 323.619 326.056 323.967 326.212C324.327 326.368 324.639 326.596 324.903 326.896C325.167 327.196 325.371 327.568 325.515 328.012C325.671 328.444 325.749 328.942 325.749 329.506C325.749 330.07 325.671 330.574 325.515 331.018C325.371 331.45 325.167 331.816 324.903 332.116C324.639 332.404 324.327 332.626 323.967 332.782C323.619 332.938 323.247 333.016 322.851 333.016C322.455 333.016 322.077 332.938 321.717 332.782C321.369 332.626 321.063 332.404 320.799 332.116C320.535 331.816 320.325 331.45 320.169 331.018C320.025 330.574 319.953 330.07 319.953 329.506ZM318.333 329.506C318.333 330.19 318.429 330.826 318.621 331.414C318.813 332.002 319.101 332.518 319.485 332.962C319.869 333.394 320.343 333.736 320.907 333.988C321.471 334.228 322.119 334.348 322.851 334.348C323.595 334.348 324.243 334.228 324.795 333.988C325.359 333.736 325.833 333.394 326.217 332.962C326.601 332.518 326.889 332.002 327.081 331.414C327.273 330.826 327.369 330.19 327.369 329.506C327.369 328.822 327.273 328.186 327.081 327.598C326.889 326.998 326.601 326.482 326.217 326.05C325.833 325.606 325.359 325.258 324.795 325.006C324.243 324.754 323.595 324.628 322.851 324.628C322.119 324.628 321.471 324.754 320.907 325.006C320.343 325.258 319.869 325.606 319.485 326.05C319.101 326.482 318.813 326.998 318.621 327.598C318.429 328.186 318.333 328.822 318.333 329.506ZM330.433 323.17V321.298H328.903V323.17H330.433ZM328.903 324.844V334.15H330.433V324.844H328.903ZM338.761 327.832H340.345C340.285 327.28 340.141 326.806 339.913 326.41C339.685 326.002 339.391 325.666 339.031 325.402C338.683 325.138 338.275 324.946 337.807 324.826C337.351 324.694 336.859 324.628 336.331 324.628C335.599 324.628 334.957 324.76 334.405 325.024C333.853 325.276 333.391 325.63 333.019 326.086C332.659 326.53 332.389 327.058 332.209 327.67C332.029 328.27 331.939 328.918 331.939 329.614C331.939 330.31 332.029 330.952 332.209 331.54C332.401 332.116 332.677 332.614 333.037 333.034C333.409 333.454 333.865 333.778 334.405 334.006C334.957 334.234 335.587 334.348 336.295 334.348C337.483 334.348 338.419 334.036 339.103 333.412C339.799 332.788 340.231 331.9 340.399 330.748H338.833C338.737 331.468 338.473 332.026 338.041 332.422C337.621 332.818 337.033 333.016 336.277 333.016C335.797 333.016 335.383 332.92 335.035 332.728C334.687 332.536 334.405 332.284 334.189 331.972C333.973 331.648 333.811 331.282 333.703 330.874C333.607 330.466 333.559 330.046 333.559 329.614C333.559 329.146 333.607 328.696 333.703 328.264C333.799 327.82 333.955 327.43 334.171 327.094C334.399 326.758 334.699 326.488 335.071 326.284C335.443 326.08 335.905 325.978 336.457 325.978C337.105 325.978 337.621 326.14 338.005 326.464C338.389 326.788 338.641 327.244 338.761 327.832ZM348.213 328.606H342.867C342.891 328.246 342.969 327.91 343.101 327.598C343.233 327.274 343.413 326.992 343.641 326.752C343.869 326.512 344.139 326.326 344.451 326.194C344.775 326.05 345.135 325.978 345.531 325.978C345.915 325.978 346.263 326.05 346.575 326.194C346.899 326.326 347.175 326.512 347.403 326.752C347.643 326.98 347.829 327.256 347.961 327.58C348.105 327.904 348.189 328.246 348.213 328.606ZM349.689 331.198H348.177C348.045 331.81 347.769 332.266 347.349 332.566C346.941 332.866 346.413 333.016 345.765 333.016C345.261 333.016 344.823 332.932 344.451 332.764C344.079 332.596 343.773 332.374 343.533 332.098C343.293 331.81 343.119 331.486 343.011 331.126C342.903 330.754 342.855 330.364 342.867 329.956H349.833C349.857 329.392 349.803 328.798 349.671 328.174C349.551 327.55 349.323 326.974 348.987 326.446C348.663 325.918 348.225 325.486 347.673 325.15C347.133 324.802 346.449 324.628 345.621 324.628C344.985 324.628 344.397 324.748 343.857 324.988C343.329 325.228 342.867 325.564 342.471 325.996C342.087 326.428 341.787 326.938 341.571 327.526C341.355 328.114 341.247 328.762 341.247 329.47C341.271 330.178 341.373 330.832 341.553 331.432C341.745 332.032 342.027 332.548 342.399 332.98C342.771 333.412 343.227 333.748 343.767 333.988C344.319 334.228 344.967 334.348 345.711 334.348C346.767 334.348 347.643 334.084 348.339 333.556C349.035 333.028 349.485 332.242 349.689 331.198ZM351.995 331.216H350.465C350.489 331.792 350.609 332.284 350.825 332.692C351.041 333.088 351.329 333.412 351.689 333.664C352.049 333.904 352.463 334.078 352.931 334.186C353.399 334.294 353.891 334.348 354.407 334.348C354.875 334.348 355.343 334.3 355.811 334.204C356.291 334.12 356.717 333.964 357.089 333.736C357.473 333.508 357.779 333.208 358.007 332.836C358.247 332.464 358.367 331.996 358.367 331.432C358.367 330.988 358.277 330.616 358.097 330.316C357.929 330.016 357.701 329.77 357.413 329.578C357.137 329.374 356.813 329.212 356.441 329.092C356.081 328.972 355.709 328.87 355.325 328.786C354.965 328.702 354.605 328.624 354.245 328.552C353.885 328.468 353.561 328.372 353.273 328.264C352.985 328.144 352.745 328 352.553 327.832C352.373 327.652 352.283 327.43 352.283 327.166C352.283 326.926 352.343 326.734 352.463 326.59C352.583 326.434 352.739 326.314 352.931 326.23C353.123 326.134 353.333 326.068 353.561 326.032C353.801 325.996 354.035 325.978 354.263 325.978C354.515 325.978 354.761 326.008 355.001 326.068C355.253 326.116 355.481 326.2 355.685 326.32C355.889 326.44 356.057 326.602 356.189 326.806C356.321 326.998 356.399 327.244 356.423 327.544H357.953C357.917 326.98 357.797 326.512 357.593 326.14C357.389 325.756 357.113 325.456 356.765 325.24C356.429 325.012 356.039 324.856 355.595 324.772C355.151 324.676 354.665 324.628 354.137 324.628C353.729 324.628 353.315 324.682 352.895 324.79C352.487 324.886 352.115 325.042 351.779 325.258C351.455 325.462 351.185 325.732 350.969 326.068C350.765 326.404 350.663 326.806 350.663 327.274C350.663 327.874 350.813 328.342 351.113 328.678C351.413 329.014 351.785 329.278 352.229 329.47C352.685 329.65 353.177 329.794 353.705 329.902C354.233 329.998 354.719 330.112 355.163 330.244C355.619 330.364 355.997 330.526 356.297 330.73C356.597 330.934 356.747 331.234 356.747 331.63C356.747 331.918 356.675 332.158 356.531 332.35C356.387 332.53 356.201 332.668 355.973 332.764C355.757 332.86 355.517 332.926 355.253 332.962C354.989 332.998 354.737 333.016 354.497 333.016C354.185 333.016 353.879 332.986 353.579 332.926C353.291 332.866 353.027 332.77 352.787 332.638C352.559 332.494 352.373 332.308 352.229 332.08C352.085 331.84 352.007 331.552 351.995 331.216Z" fill="black"/>
</svg>
