<svg width="970" height="133" viewBox="0 0 970 133" fill="none" xmlns="http://www.w3.org/2000/svg">
<g clip-path="url(#clip0_505_693)">
<path d="M159.75 41.5H194.75" stroke="black"/>
<path d="M353.5 41.5H388.5" stroke="black"/>
<path d="M547 41.5H808.75" stroke="black"/>
<g clip-path="url(#clip1_505_693)">
<rect width="159.5" height="62" rx="2" fill="white"/>
<rect width="159.5" height="24.75" fill="#ADFF00"/>
<rect x="0.5" y="0.5" width="158.5" height="61" rx="1.5" stroke="black"/>
<path d="M9.65723 17.5V6.7627H13.7075C14.4204 6.7627 14.9648 6.79688 15.3408 6.86523C15.8682 6.95312 16.3101 7.12158 16.6665 7.37061C17.0229 7.61475 17.3086 7.95898 17.5234 8.40332C17.7432 8.84766 17.853 9.33594 17.853 9.86816C17.853 10.7812 17.5625 11.5552 16.9814 12.1899C16.4004 12.8198 15.3506 13.1348 13.832 13.1348H11.0781V17.5H9.65723ZM11.0781 11.8677H13.854C14.772 11.8677 15.4238 11.6968 15.8096 11.355C16.1953 11.0132 16.3882 10.5322 16.3882 9.91211C16.3882 9.46289 16.2734 9.07959 16.0439 8.76221C15.8193 8.43994 15.5215 8.22754 15.1504 8.125C14.9111 8.06152 14.4692 8.02979 13.8247 8.02979H11.0781V11.8677ZM19.0029 13.6108C19.0029 12.1704 19.4033 11.1035 20.2041 10.4102C20.873 9.83398 21.6885 9.5459 22.6504 9.5459C23.7197 9.5459 24.5938 9.89746 25.2725 10.6006C25.9512 11.2988 26.2905 12.2656 26.2905 13.501C26.2905 14.502 26.1392 15.2905 25.8364 15.8667C25.5386 16.438 25.1016 16.8823 24.5254 17.1997C23.9541 17.5171 23.3291 17.6758 22.6504 17.6758C21.5615 17.6758 20.6802 17.3267 20.0063 16.6284C19.3374 15.9302 19.0029 14.9243 19.0029 13.6108ZM20.3579 13.6108C20.3579 14.6069 20.5752 15.354 21.0098 15.8521C21.4443 16.3452 21.9912 16.5918 22.6504 16.5918C23.3047 16.5918 23.8491 16.3428 24.2837 15.8447C24.7183 15.3467 24.9355 14.5874 24.9355 13.5669C24.9355 12.605 24.7158 11.8774 24.2764 11.3843C23.8418 10.8862 23.2998 10.6372 22.6504 10.6372C21.9912 10.6372 21.4443 10.8838 21.0098 11.377C20.5752 11.8701 20.3579 12.6147 20.3579 13.6108ZM32.8896 17.5V16.5186C32.3965 17.29 31.6714 17.6758 30.7144 17.6758C30.0942 17.6758 29.5229 17.5049 29.0005 17.1631C28.4829 16.8213 28.0801 16.3452 27.792 15.7349C27.5088 15.1196 27.3672 14.4141 27.3672 13.6182C27.3672 12.8418 27.4966 12.1387 27.7554 11.5088C28.0142 10.874 28.4023 10.3882 28.9199 10.0513C29.4375 9.71436 30.0161 9.5459 30.6558 9.5459C31.1245 9.5459 31.542 9.646 31.9082 9.84619C32.2744 10.0415 32.5723 10.2979 32.8018 10.6152V6.7627H34.1128V17.5H32.8896ZM28.7222 13.6182C28.7222 14.6143 28.9321 15.3589 29.3521 15.8521C29.772 16.3452 30.2676 16.5918 30.8389 16.5918C31.415 16.5918 31.9033 16.3574 32.3037 15.8887C32.709 15.415 32.9116 14.6948 32.9116 13.728C32.9116 12.6636 32.7065 11.8823 32.2964 11.3843C31.8862 10.8862 31.3809 10.6372 30.7803 10.6372C30.1943 10.6372 29.7036 10.8765 29.3081 11.355C28.9175 11.8335 28.7222 12.5879 28.7222 13.6182ZM41.2686 14.6509L42.5649 14.8193C42.4233 15.7129 42.0596 16.4136 41.4736 16.9214C40.8926 17.4243 40.1772 17.6758 39.3276 17.6758C38.2632 17.6758 37.4062 17.3291 36.7568 16.6357C36.1123 15.9375 35.79 14.939 35.79 13.6401C35.79 12.8003 35.9292 12.0654 36.2075 11.4355C36.4858 10.8057 36.9082 10.3345 37.4746 10.022C38.0459 9.70459 38.666 9.5459 39.335 9.5459C40.1797 9.5459 40.8706 9.76074 41.4077 10.1904C41.9448 10.6152 42.2891 11.2207 42.4404 12.0068L41.1587 12.2046C41.0366 11.6821 40.8193 11.2891 40.5068 11.0254C40.1992 10.7617 39.8257 10.6299 39.3862 10.6299C38.7222 10.6299 38.1826 10.8691 37.7676 11.3477C37.3525 11.8213 37.145 12.5732 37.145 13.6035C37.145 14.6484 37.3452 15.4077 37.7456 15.8813C38.146 16.355 38.6685 16.5918 39.313 16.5918C39.8306 16.5918 40.2627 16.4331 40.6094 16.1157C40.9561 15.7983 41.1758 15.3101 41.2686 14.6509ZM48.7686 16.5405C48.2803 16.9556 47.8091 17.2485 47.355 17.4194C46.9058 17.5903 46.4224 17.6758 45.9048 17.6758C45.0503 17.6758 44.3936 17.4683 43.9346 17.0532C43.4756 16.6333 43.2461 16.0986 43.2461 15.4492C43.2461 15.0684 43.3315 14.7217 43.5024 14.4092C43.6782 14.0918 43.9053 13.8379 44.1836 13.6475C44.4668 13.457 44.7842 13.313 45.1357 13.2153C45.3945 13.147 45.7852 13.0811 46.3076 13.0176C47.3721 12.8906 48.1558 12.7393 48.6587 12.5635C48.6636 12.3828 48.666 12.2681 48.666 12.2192C48.666 11.6821 48.5415 11.3037 48.2925 11.084C47.9556 10.7861 47.4551 10.6372 46.791 10.6372C46.1709 10.6372 45.7119 10.7471 45.4141 10.9668C45.1211 11.1816 44.9038 11.5649 44.7622 12.1167L43.4731 11.9409C43.5903 11.3892 43.7832 10.9448 44.0518 10.6079C44.3203 10.2661 44.7085 10.0049 45.2163 9.82422C45.7241 9.63867 46.3125 9.5459 46.9814 9.5459C47.6455 9.5459 48.1851 9.62402 48.6001 9.78027C49.0151 9.93652 49.3203 10.1343 49.5156 10.3735C49.7109 10.6079 49.8477 10.9058 49.9258 11.2671C49.9697 11.4917 49.9917 11.897 49.9917 12.4829V14.2407C49.9917 15.4663 50.0186 16.2427 50.0723 16.5698C50.1309 16.8921 50.2432 17.2021 50.4092 17.5H49.0322C48.8955 17.2266 48.8076 16.9067 48.7686 16.5405ZM48.6587 13.5962C48.1802 13.7915 47.4624 13.9575 46.5054 14.0942C45.9634 14.1724 45.5801 14.2603 45.3555 14.3579C45.1309 14.4556 44.9575 14.5996 44.8354 14.79C44.7134 14.9756 44.6523 15.1831 44.6523 15.4126C44.6523 15.7642 44.7842 16.0571 45.0479 16.2915C45.3164 16.5259 45.707 16.6431 46.2197 16.6431C46.7275 16.6431 47.1792 16.5332 47.5747 16.3135C47.9702 16.0889 48.2607 15.7837 48.4463 15.3979C48.5879 15.1001 48.6587 14.6606 48.6587 14.0796V13.5962ZM51.5151 15.1782L52.8188 14.9731C52.8921 15.4956 53.0947 15.896 53.4268 16.1743C53.7637 16.4526 54.2324 16.5918 54.833 16.5918C55.4385 16.5918 55.8877 16.4697 56.1807 16.2256C56.4736 15.9766 56.6201 15.686 56.6201 15.354C56.6201 15.0562 56.4907 14.8218 56.2319 14.6509C56.0513 14.5337 55.6021 14.3848 54.8843 14.2041C53.9175 13.96 53.2461 13.75 52.8701 13.5742C52.499 13.3936 52.2158 13.147 52.0205 12.8345C51.8301 12.5171 51.7349 12.168 51.7349 11.7871C51.7349 11.4404 51.813 11.1206 51.9692 10.8276C52.1304 10.5298 52.3477 10.2832 52.6211 10.0879C52.8262 9.93652 53.1045 9.80957 53.4561 9.70703C53.8125 9.59961 54.1934 9.5459 54.5986 9.5459C55.209 9.5459 55.7437 9.63379 56.2026 9.80957C56.6665 9.98535 57.0083 10.2246 57.228 10.5273C57.4478 10.8252 57.5991 11.2256 57.6821 11.7285L56.3931 11.9043C56.3345 11.5039 56.1636 11.1914 55.8804 10.9668C55.6021 10.7422 55.2065 10.6299 54.6938 10.6299C54.0884 10.6299 53.6562 10.73 53.3975 10.9302C53.1387 11.1304 53.0093 11.3647 53.0093 11.6333C53.0093 11.8042 53.063 11.958 53.1704 12.0947C53.2778 12.2363 53.4463 12.3535 53.6758 12.4463C53.8076 12.4951 54.1958 12.6074 54.8403 12.7832C55.7729 13.0322 56.4224 13.2373 56.7886 13.3984C57.1597 13.5547 57.4502 13.7842 57.6602 14.0869C57.8701 14.3896 57.9751 14.7656 57.9751 15.2148C57.9751 15.6543 57.8457 16.0693 57.5869 16.46C57.333 16.8457 56.9644 17.146 56.481 17.3608C55.9976 17.5708 55.4507 17.6758 54.8403 17.6758C53.8296 17.6758 53.0581 17.4658 52.5259 17.0459C51.9985 16.626 51.6616 16.0034 51.5151 15.1782ZM62.4209 16.3208L62.6113 17.4854C62.2402 17.5635 61.9082 17.6025 61.6152 17.6025C61.1367 17.6025 60.7656 17.5269 60.502 17.3755C60.2383 17.2241 60.0527 17.0264 59.9453 16.7822C59.8379 16.5332 59.7842 16.0132 59.7842 15.2222V10.7471H58.8174V9.72168H59.7842V7.79541L61.0952 7.00439V9.72168H62.4209V10.7471H61.0952V15.2954C61.0952 15.6714 61.1172 15.9131 61.1611 16.0205C61.21 16.1279 61.2856 16.2134 61.3882 16.2769C61.4956 16.3403 61.647 16.3721 61.8423 16.3721C61.9888 16.3721 62.1816 16.355 62.4209 16.3208Z" fill="black"/>
<path d="M110.197 46.5V45.5186C109.704 46.29 108.979 46.6758 108.022 46.6758C107.402 46.6758 106.831 46.5049 106.308 46.1631C105.791 45.8213 105.388 45.3452 105.1 44.7349C104.816 44.1196 104.675 43.4141 104.675 42.6182C104.675 41.8418 104.804 41.1387 105.063 40.5088C105.322 39.874 105.71 39.3882 106.228 39.0513C106.745 38.7144 107.324 38.5459 107.963 38.5459C108.432 38.5459 108.85 38.646 109.216 38.8462C109.582 39.0415 109.88 39.2979 110.109 39.6152V35.7627H111.42V46.5H110.197ZM106.03 42.6182C106.03 43.6143 106.24 44.3589 106.66 44.8521C107.08 45.3452 107.575 45.5918 108.146 45.5918C108.723 45.5918 109.211 45.3574 109.611 44.8887C110.017 44.415 110.219 43.6948 110.219 42.728C110.219 41.6636 110.014 40.8823 109.604 40.3843C109.194 39.8862 108.688 39.6372 108.088 39.6372C107.502 39.6372 107.011 39.8765 106.616 40.355C106.225 40.8335 106.03 41.5879 106.03 42.6182ZM118.825 43.9951L120.188 44.1636C119.973 44.9595 119.575 45.5771 118.994 46.0166C118.413 46.4561 117.67 46.6758 116.767 46.6758C115.629 46.6758 114.726 46.3267 114.057 45.6284C113.393 44.9253 113.061 43.9414 113.061 42.6768C113.061 41.3682 113.398 40.3525 114.072 39.6299C114.746 38.9072 115.62 38.5459 116.694 38.5459C117.734 38.5459 118.583 38.8999 119.243 39.6079C119.902 40.3159 120.231 41.312 120.231 42.5962C120.231 42.6743 120.229 42.7915 120.224 42.9478H114.423C114.472 43.8022 114.714 44.4565 115.148 44.9106C115.583 45.3647 116.125 45.5918 116.774 45.5918C117.258 45.5918 117.67 45.4648 118.012 45.2109C118.354 44.957 118.625 44.5518 118.825 43.9951ZM114.497 41.8638H118.84C118.781 41.2095 118.615 40.7188 118.342 40.3916C117.922 39.8838 117.377 39.6299 116.708 39.6299C116.103 39.6299 115.593 39.8325 115.178 40.2378C114.768 40.6431 114.541 41.1851 114.497 41.8638ZM122.165 46.5V39.7471H121V38.7217H122.165V37.894C122.165 37.3716 122.211 36.9834 122.304 36.7295C122.431 36.3877 122.653 36.1118 122.971 35.9019C123.293 35.687 123.742 35.5796 124.318 35.5796C124.689 35.5796 125.1 35.6235 125.549 35.7114L125.351 36.8613C125.078 36.8125 124.819 36.7881 124.575 36.7881C124.174 36.7881 123.891 36.8735 123.725 37.0444C123.559 37.2153 123.476 37.5352 123.476 38.0039V38.7217H124.992V39.7471H123.476V46.5H122.165ZM131.101 45.5405C130.612 45.9556 130.141 46.2485 129.687 46.4194C129.238 46.5903 128.754 46.6758 128.237 46.6758C127.382 46.6758 126.726 46.4683 126.267 46.0532C125.808 45.6333 125.578 45.0986 125.578 44.4492C125.578 44.0684 125.664 43.7217 125.834 43.4092C126.01 43.0918 126.237 42.8379 126.516 42.6475C126.799 42.457 127.116 42.313 127.468 42.2153C127.727 42.147 128.117 42.0811 128.64 42.0176C129.704 41.8906 130.488 41.7393 130.991 41.5635C130.996 41.3828 130.998 41.2681 130.998 41.2192C130.998 40.6821 130.874 40.3037 130.625 40.084C130.288 39.7861 129.787 39.6372 129.123 39.6372C128.503 39.6372 128.044 39.7471 127.746 39.9668C127.453 40.1816 127.236 40.5649 127.094 41.1167L125.805 40.9409C125.922 40.3892 126.115 39.9448 126.384 39.6079C126.652 39.2661 127.041 39.0049 127.548 38.8242C128.056 38.6387 128.645 38.5459 129.313 38.5459C129.978 38.5459 130.517 38.624 130.932 38.7803C131.347 38.9365 131.652 39.1343 131.848 39.3735C132.043 39.6079 132.18 39.9058 132.258 40.2671C132.302 40.4917 132.324 40.897 132.324 41.4829V43.2407C132.324 44.4663 132.351 45.2427 132.404 45.5698C132.463 45.8921 132.575 46.2021 132.741 46.5H131.364C131.228 46.2266 131.14 45.9067 131.101 45.5405ZM130.991 42.5962C130.512 42.7915 129.794 42.9575 128.837 43.0942C128.295 43.1724 127.912 43.2603 127.688 43.3579C127.463 43.4556 127.29 43.5996 127.167 43.79C127.045 43.9756 126.984 44.1831 126.984 44.4126C126.984 44.7642 127.116 45.0571 127.38 45.2915C127.648 45.5259 128.039 45.6431 128.552 45.6431C129.06 45.6431 129.511 45.5332 129.907 45.3135C130.302 45.0889 130.593 44.7837 130.778 44.3979C130.92 44.1001 130.991 43.6606 130.991 43.0796V42.5962ZM139.472 46.5V45.3574C138.867 46.2363 138.044 46.6758 137.004 46.6758C136.545 46.6758 136.115 46.5879 135.715 46.4121C135.319 46.2363 135.024 46.0166 134.829 45.7529C134.638 45.4844 134.504 45.1572 134.426 44.7715C134.372 44.5127 134.345 44.1025 134.345 43.541V38.7217H135.664V43.0356C135.664 43.7241 135.69 44.188 135.744 44.4272C135.827 44.7739 136.003 45.0474 136.271 45.2476C136.54 45.4429 136.872 45.5405 137.268 45.5405C137.663 45.5405 138.034 45.4404 138.381 45.2402C138.728 45.0352 138.972 44.7593 139.113 44.4126C139.26 44.061 139.333 43.5532 139.333 42.8892V38.7217H140.651V46.5H139.472ZM142.695 46.5V35.7627H144.013V46.5H142.695ZM148.942 45.3208L149.133 46.4854C148.762 46.5635 148.43 46.6025 148.137 46.6025C147.658 46.6025 147.287 46.5269 147.023 46.3755C146.76 46.2241 146.574 46.0264 146.467 45.7822C146.359 45.5332 146.306 45.0132 146.306 44.2222V39.7471H145.339V38.7217H146.306V36.7954L147.617 36.0044V38.7217H148.942V39.7471H147.617V44.2954C147.617 44.6714 147.639 44.9131 147.683 45.0205C147.731 45.1279 147.807 45.2134 147.91 45.2769C148.017 45.3403 148.168 45.3721 148.364 45.3721C148.51 45.3721 148.703 45.355 148.942 45.3208Z" fill="black"/>
</g>
<circle cx="159.5" cy="41.5" r="5.5" fill="#F3F3F3" stroke="black"/>
<g clip-path="url(#clip2_505_693)">
<rect x="194" width="159.5" height="62" rx="2" fill="white"/>
<rect x="194" width="159.5" height="24.75" fill="#F3F3F3"/>
<rect x="194.5" y="0.5" width="158.5" height="61" rx="1.5" stroke="black"/>
<path d="M203.899 17.5V6.7627H205.32V17.5H203.899ZM207.664 17.5V9.72168H208.85V10.8276C209.421 9.97314 210.247 9.5459 211.326 9.5459C211.794 9.5459 212.224 9.63135 212.615 9.80225C213.01 9.96826 213.306 10.188 213.501 10.4614C213.696 10.7349 213.833 11.0596 213.911 11.4355C213.96 11.6797 213.984 12.1069 213.984 12.7173V17.5H212.666V12.7686C212.666 12.2314 212.615 11.8311 212.512 11.5674C212.41 11.2988 212.227 11.0864 211.963 10.9302C211.704 10.769 211.399 10.6885 211.047 10.6885C210.486 10.6885 210 10.8667 209.59 11.2231C209.185 11.5796 208.982 12.2559 208.982 13.252V17.5H207.664ZM218.892 16.3208L219.082 17.4854C218.711 17.5635 218.379 17.6025 218.086 17.6025C217.607 17.6025 217.236 17.5269 216.973 17.3755C216.709 17.2241 216.523 17.0264 216.416 16.7822C216.309 16.5332 216.255 16.0132 216.255 15.2222V10.7471H215.288V9.72168H216.255V7.79541L217.566 7.00439V9.72168H218.892V10.7471H217.566V15.2954C217.566 15.6714 217.588 15.9131 217.632 16.0205C217.681 16.1279 217.756 16.2134 217.859 16.2769C217.966 16.3403 218.118 16.3721 218.313 16.3721C218.459 16.3721 218.652 16.355 218.892 16.3208ZM220.173 17.5V9.72168H221.36V10.9009C221.663 10.3491 221.941 9.98535 222.195 9.80957C222.454 9.63379 222.737 9.5459 223.044 9.5459C223.489 9.5459 223.94 9.6875 224.399 9.9707L223.945 11.1938C223.623 11.0034 223.301 10.9082 222.979 10.9082C222.69 10.9082 222.432 10.9961 222.202 11.1719C221.973 11.3428 221.809 11.582 221.711 11.8896C221.565 12.3584 221.492 12.8711 221.492 13.4277V17.5H220.173ZM224.692 13.6108C224.692 12.1704 225.093 11.1035 225.894 10.4102C226.562 9.83398 227.378 9.5459 228.34 9.5459C229.409 9.5459 230.283 9.89746 230.962 10.6006C231.641 11.2988 231.98 12.2656 231.98 13.501C231.98 14.502 231.829 15.2905 231.526 15.8667C231.228 16.438 230.791 16.8823 230.215 17.1997C229.644 17.5171 229.019 17.6758 228.34 17.6758C227.251 17.6758 226.37 17.3267 225.696 16.6284C225.027 15.9302 224.692 14.9243 224.692 13.6108ZM226.047 13.6108C226.047 14.6069 226.265 15.354 226.699 15.8521C227.134 16.3452 227.681 16.5918 228.34 16.5918C228.994 16.5918 229.539 16.3428 229.973 15.8447C230.408 15.3467 230.625 14.5874 230.625 13.5669C230.625 12.605 230.405 11.8774 229.966 11.3843C229.531 10.8862 228.989 10.6372 228.34 10.6372C227.681 10.6372 227.134 10.8838 226.699 11.377C226.265 11.8701 226.047 12.6147 226.047 13.6108Z" fill="black"/>
<path d="M304.197 46.5V45.5186C303.704 46.29 302.979 46.6758 302.022 46.6758C301.402 46.6758 300.831 46.5049 300.308 46.1631C299.791 45.8213 299.388 45.3452 299.1 44.7349C298.816 44.1196 298.675 43.4141 298.675 42.6182C298.675 41.8418 298.804 41.1387 299.063 40.5088C299.322 39.874 299.71 39.3882 300.228 39.0513C300.745 38.7144 301.324 38.5459 301.963 38.5459C302.432 38.5459 302.85 38.646 303.216 38.8462C303.582 39.0415 303.88 39.2979 304.109 39.6152V35.7627H305.42V46.5H304.197ZM300.03 42.6182C300.03 43.6143 300.24 44.3589 300.66 44.8521C301.08 45.3452 301.575 45.5918 302.146 45.5918C302.723 45.5918 303.211 45.3574 303.611 44.8887C304.017 44.415 304.219 43.6948 304.219 42.728C304.219 41.6636 304.014 40.8823 303.604 40.3843C303.194 39.8862 302.688 39.6372 302.088 39.6372C301.502 39.6372 301.011 39.8765 300.616 40.355C300.225 40.8335 300.03 41.5879 300.03 42.6182ZM312.825 43.9951L314.188 44.1636C313.973 44.9595 313.575 45.5771 312.994 46.0166C312.413 46.4561 311.67 46.6758 310.767 46.6758C309.629 46.6758 308.726 46.3267 308.057 45.6284C307.393 44.9253 307.061 43.9414 307.061 42.6768C307.061 41.3682 307.398 40.3525 308.072 39.6299C308.746 38.9072 309.62 38.5459 310.694 38.5459C311.734 38.5459 312.583 38.8999 313.243 39.6079C313.902 40.3159 314.231 41.312 314.231 42.5962C314.231 42.6743 314.229 42.7915 314.224 42.9478H308.423C308.472 43.8022 308.714 44.4565 309.148 44.9106C309.583 45.3647 310.125 45.5918 310.774 45.5918C311.258 45.5918 311.67 45.4648 312.012 45.2109C312.354 44.957 312.625 44.5518 312.825 43.9951ZM308.497 41.8638H312.84C312.781 41.2095 312.615 40.7188 312.342 40.3916C311.922 39.8838 311.377 39.6299 310.708 39.6299C310.103 39.6299 309.593 39.8325 309.178 40.2378C308.768 40.6431 308.541 41.1851 308.497 41.8638ZM316.165 46.5V39.7471H315V38.7217H316.165V37.894C316.165 37.3716 316.211 36.9834 316.304 36.7295C316.431 36.3877 316.653 36.1118 316.971 35.9019C317.293 35.687 317.742 35.5796 318.318 35.5796C318.689 35.5796 319.1 35.6235 319.549 35.7114L319.351 36.8613C319.078 36.8125 318.819 36.7881 318.575 36.7881C318.174 36.7881 317.891 36.8735 317.725 37.0444C317.559 37.2153 317.476 37.5352 317.476 38.0039V38.7217H318.992V39.7471H317.476V46.5H316.165ZM325.101 45.5405C324.612 45.9556 324.141 46.2485 323.687 46.4194C323.238 46.5903 322.754 46.6758 322.237 46.6758C321.382 46.6758 320.726 46.4683 320.267 46.0532C319.808 45.6333 319.578 45.0986 319.578 44.4492C319.578 44.0684 319.664 43.7217 319.834 43.4092C320.01 43.0918 320.237 42.8379 320.516 42.6475C320.799 42.457 321.116 42.313 321.468 42.2153C321.727 42.147 322.117 42.0811 322.64 42.0176C323.704 41.8906 324.488 41.7393 324.991 41.5635C324.996 41.3828 324.998 41.2681 324.998 41.2192C324.998 40.6821 324.874 40.3037 324.625 40.084C324.288 39.7861 323.787 39.6372 323.123 39.6372C322.503 39.6372 322.044 39.7471 321.746 39.9668C321.453 40.1816 321.236 40.5649 321.094 41.1167L319.805 40.9409C319.922 40.3892 320.115 39.9448 320.384 39.6079C320.652 39.2661 321.041 39.0049 321.548 38.8242C322.056 38.6387 322.645 38.5459 323.313 38.5459C323.978 38.5459 324.517 38.624 324.932 38.7803C325.347 38.9365 325.652 39.1343 325.848 39.3735C326.043 39.6079 326.18 39.9058 326.258 40.2671C326.302 40.4917 326.324 40.897 326.324 41.4829V43.2407C326.324 44.4663 326.351 45.2427 326.404 45.5698C326.463 45.8921 326.575 46.2021 326.741 46.5H325.364C325.228 46.2266 325.14 45.9067 325.101 45.5405ZM324.991 42.5962C324.512 42.7915 323.794 42.9575 322.837 43.0942C322.295 43.1724 321.912 43.2603 321.688 43.3579C321.463 43.4556 321.29 43.5996 321.167 43.79C321.045 43.9756 320.984 44.1831 320.984 44.4126C320.984 44.7642 321.116 45.0571 321.38 45.2915C321.648 45.5259 322.039 45.6431 322.552 45.6431C323.06 45.6431 323.511 45.5332 323.907 45.3135C324.302 45.0889 324.593 44.7837 324.778 44.3979C324.92 44.1001 324.991 43.6606 324.991 43.0796V42.5962ZM333.472 46.5V45.3574C332.867 46.2363 332.044 46.6758 331.004 46.6758C330.545 46.6758 330.115 46.5879 329.715 46.4121C329.319 46.2363 329.024 46.0166 328.829 45.7529C328.638 45.4844 328.504 45.1572 328.426 44.7715C328.372 44.5127 328.345 44.1025 328.345 43.541V38.7217H329.664V43.0356C329.664 43.7241 329.69 44.188 329.744 44.4272C329.827 44.7739 330.003 45.0474 330.271 45.2476C330.54 45.4429 330.872 45.5405 331.268 45.5405C331.663 45.5405 332.034 45.4404 332.381 45.2402C332.728 45.0352 332.972 44.7593 333.113 44.4126C333.26 44.061 333.333 43.5532 333.333 42.8892V38.7217H334.651V46.5H333.472ZM336.695 46.5V35.7627H338.013V46.5H336.695ZM342.942 45.3208L343.133 46.4854C342.762 46.5635 342.43 46.6025 342.137 46.6025C341.658 46.6025 341.287 46.5269 341.023 46.3755C340.76 46.2241 340.574 46.0264 340.467 45.7822C340.359 45.5332 340.306 45.0132 340.306 44.2222V39.7471H339.339V38.7217H340.306V36.7954L341.617 36.0044V38.7217H342.942V39.7471H341.617V44.2954C341.617 44.6714 341.639 44.9131 341.683 45.0205C341.731 45.1279 341.807 45.2134 341.91 45.2769C342.017 45.3403 342.168 45.3721 342.364 45.3721C342.51 45.3721 342.703 45.355 342.942 45.3208Z" fill="black"/>
</g>
<circle cx="194" cy="41.5" r="5.5" fill="#F3F3F3" stroke="black"/>
<circle cx="353.5" cy="41.5" r="5.5" fill="#F3F3F3" stroke="black"/>
<g clip-path="url(#clip3_505_693)">
<rect x="388" width="159.5" height="79" rx="2" fill="white"/>
<rect x="388" width="159.5" height="24.75" fill="#F3F3F3"/>
<rect x="388.5" y="0.5" width="158.5" height="78" rx="1.5" stroke="black"/>
<path d="M397.613 17.5V6.7627H399.752L402.293 14.3652C402.528 15.0732 402.699 15.603 402.806 15.9546C402.928 15.564 403.119 14.9902 403.377 14.2334L405.948 6.7627H407.86V17.5H406.49V8.51318L403.37 17.5H402.088L398.983 8.35938V17.5H397.613ZM415.06 16.5405C414.571 16.9556 414.1 17.2485 413.646 17.4194C413.197 17.5903 412.713 17.6758 412.196 17.6758C411.341 17.6758 410.685 17.4683 410.226 17.0532C409.767 16.6333 409.537 16.0986 409.537 15.4492C409.537 15.0684 409.623 14.7217 409.793 14.4092C409.969 14.0918 410.196 13.8379 410.475 13.6475C410.758 13.457 411.075 13.313 411.427 13.2153C411.686 13.147 412.076 13.0811 412.599 13.0176C413.663 12.8906 414.447 12.7393 414.95 12.5635C414.955 12.3828 414.957 12.2681 414.957 12.2192C414.957 11.6821 414.833 11.3037 414.583 11.084C414.247 10.7861 413.746 10.6372 413.082 10.6372C412.462 10.6372 412.003 10.7471 411.705 10.9668C411.412 11.1816 411.195 11.5649 411.053 12.1167L409.764 11.9409C409.881 11.3892 410.074 10.9448 410.343 10.6079C410.611 10.2661 411 10.0049 411.507 9.82422C412.015 9.63867 412.604 9.5459 413.272 9.5459C413.937 9.5459 414.476 9.62402 414.891 9.78027C415.306 9.93652 415.611 10.1343 415.807 10.3735C416.002 10.6079 416.139 10.9058 416.217 11.2671C416.261 11.4917 416.283 11.897 416.283 12.4829V14.2407C416.283 15.4663 416.31 16.2427 416.363 16.5698C416.422 16.8921 416.534 17.2021 416.7 17.5H415.323C415.187 17.2266 415.099 16.9067 415.06 16.5405ZM414.95 13.5962C414.471 13.7915 413.753 13.9575 412.796 14.0942C412.254 14.1724 411.871 14.2603 411.646 14.3579C411.422 14.4556 411.249 14.5996 411.126 14.79C411.004 14.9756 410.943 15.1831 410.943 15.4126C410.943 15.7642 411.075 16.0571 411.339 16.2915C411.607 16.5259 411.998 16.6431 412.511 16.6431C413.019 16.6431 413.47 16.5332 413.866 16.3135C414.261 16.0889 414.552 15.7837 414.737 15.3979C414.879 15.1001 414.95 14.6606 414.95 14.0796V13.5962ZM418.341 8.27881V6.7627H419.659V8.27881H418.341ZM418.341 17.5V9.72168H419.659V17.5H418.341ZM421.673 17.5V9.72168H422.86V10.8276C423.431 9.97314 424.256 9.5459 425.335 9.5459C425.804 9.5459 426.234 9.63135 426.625 9.80225C427.02 9.96826 427.315 10.188 427.511 10.4614C427.706 10.7349 427.843 11.0596 427.921 11.4355C427.97 11.6797 427.994 12.1069 427.994 12.7173V17.5H426.676V12.7686C426.676 12.2314 426.625 11.8311 426.522 11.5674C426.419 11.2988 426.236 11.0864 425.973 10.9302C425.714 10.769 425.409 10.6885 425.057 10.6885C424.496 10.6885 424.01 10.8667 423.6 11.2231C423.194 11.5796 422.992 12.2559 422.992 13.252V17.5H421.673ZM436.82 17.5V8.02979H433.282V6.7627H441.793V8.02979H438.241V17.5H436.82ZM440.929 13.6108C440.929 12.1704 441.329 11.1035 442.13 10.4102C442.799 9.83398 443.614 9.5459 444.576 9.5459C445.646 9.5459 446.52 9.89746 447.198 10.6006C447.877 11.2988 448.216 12.2656 448.216 13.501C448.216 14.502 448.065 15.2905 447.762 15.8667C447.464 16.438 447.027 16.8823 446.451 17.1997C445.88 17.5171 445.255 17.6758 444.576 17.6758C443.487 17.6758 442.606 17.3267 441.932 16.6284C441.263 15.9302 440.929 14.9243 440.929 13.6108ZM442.284 13.6108C442.284 14.6069 442.501 15.354 442.936 15.8521C443.37 16.3452 443.917 16.5918 444.576 16.5918C445.23 16.5918 445.775 16.3428 446.209 15.8447C446.644 15.3467 446.861 14.5874 446.861 13.5669C446.861 12.605 446.642 11.8774 446.202 11.3843C445.768 10.8862 445.226 10.6372 444.576 10.6372C443.917 10.6372 443.37 10.8838 442.936 11.377C442.501 11.8701 442.284 12.6147 442.284 13.6108ZM449.769 20.481V9.72168H450.97V10.7324C451.253 10.3369 451.573 10.0415 451.93 9.84619C452.286 9.646 452.718 9.5459 453.226 9.5459C453.89 9.5459 454.476 9.7168 454.984 10.0586C455.492 10.4004 455.875 10.8838 456.134 11.5088C456.393 12.1289 456.522 12.8101 456.522 13.5522C456.522 14.3481 456.378 15.0659 456.09 15.7056C455.807 16.3403 455.392 16.8286 454.845 17.1704C454.303 17.5073 453.731 17.6758 453.131 17.6758C452.691 17.6758 452.296 17.583 451.944 17.3975C451.598 17.2119 451.312 16.9775 451.087 16.6943V20.481H449.769ZM450.963 13.6548C450.963 14.6558 451.166 15.3955 451.571 15.874C451.976 16.3525 452.467 16.5918 453.043 16.5918C453.629 16.5918 454.129 16.3452 454.544 15.8521C454.964 15.354 455.174 14.585 455.174 13.5449C455.174 12.5537 454.969 11.8115 454.559 11.3184C454.154 10.8252 453.668 10.5786 453.102 10.5786C452.54 10.5786 452.042 10.8423 451.607 11.3696C451.178 11.8921 450.963 12.6538 450.963 13.6548ZM458.126 8.27881V6.7627H459.444V8.27881H458.126ZM458.126 17.5V9.72168H459.444V17.5H458.126ZM466.534 14.6509L467.831 14.8193C467.689 15.7129 467.325 16.4136 466.739 16.9214C466.158 17.4243 465.443 17.6758 464.593 17.6758C463.529 17.6758 462.672 17.3291 462.022 16.6357C461.378 15.9375 461.056 14.939 461.056 13.6401C461.056 12.8003 461.195 12.0654 461.473 11.4355C461.751 10.8057 462.174 10.3345 462.74 10.022C463.312 9.70459 463.932 9.5459 464.601 9.5459C465.445 9.5459 466.136 9.76074 466.673 10.1904C467.21 10.6152 467.555 11.2207 467.706 12.0068L466.424 12.2046C466.302 11.6821 466.085 11.2891 465.772 11.0254C465.465 10.7617 465.091 10.6299 464.652 10.6299C463.988 10.6299 463.448 10.8691 463.033 11.3477C462.618 11.8213 462.411 12.5732 462.411 13.6035C462.411 14.6484 462.611 15.4077 463.011 15.8813C463.412 16.355 463.934 16.5918 464.579 16.5918C465.096 16.5918 465.528 16.4331 465.875 16.1157C466.222 15.7983 466.441 15.3101 466.534 14.6509Z" fill="black"/>
<path d="M498.197 46.5V45.5186C497.704 46.29 496.979 46.6758 496.022 46.6758C495.402 46.6758 494.831 46.5049 494.308 46.1631C493.791 45.8213 493.388 45.3452 493.1 44.7349C492.816 44.1196 492.675 43.4141 492.675 42.6182C492.675 41.8418 492.804 41.1387 493.063 40.5088C493.322 39.874 493.71 39.3882 494.228 39.0513C494.745 38.7144 495.324 38.5459 495.963 38.5459C496.432 38.5459 496.85 38.646 497.216 38.8462C497.582 39.0415 497.88 39.2979 498.109 39.6152V35.7627H499.42V46.5H498.197ZM494.03 42.6182C494.03 43.6143 494.24 44.3589 494.66 44.8521C495.08 45.3452 495.575 45.5918 496.146 45.5918C496.723 45.5918 497.211 45.3574 497.611 44.8887C498.017 44.415 498.219 43.6948 498.219 42.728C498.219 41.6636 498.014 40.8823 497.604 40.3843C497.194 39.8862 496.688 39.6372 496.088 39.6372C495.502 39.6372 495.011 39.8765 494.616 40.355C494.225 40.8335 494.03 41.5879 494.03 42.6182ZM506.825 43.9951L508.188 44.1636C507.973 44.9595 507.575 45.5771 506.994 46.0166C506.413 46.4561 505.67 46.6758 504.767 46.6758C503.629 46.6758 502.726 46.3267 502.057 45.6284C501.393 44.9253 501.061 43.9414 501.061 42.6768C501.061 41.3682 501.398 40.3525 502.072 39.6299C502.746 38.9072 503.62 38.5459 504.694 38.5459C505.734 38.5459 506.583 38.8999 507.243 39.6079C507.902 40.3159 508.231 41.312 508.231 42.5962C508.231 42.6743 508.229 42.7915 508.224 42.9478H502.423C502.472 43.8022 502.714 44.4565 503.148 44.9106C503.583 45.3647 504.125 45.5918 504.774 45.5918C505.258 45.5918 505.67 45.4648 506.012 45.2109C506.354 44.957 506.625 44.5518 506.825 43.9951ZM502.497 41.8638H506.84C506.781 41.2095 506.615 40.7188 506.342 40.3916C505.922 39.8838 505.377 39.6299 504.708 39.6299C504.103 39.6299 503.593 39.8325 503.178 40.2378C502.768 40.6431 502.541 41.1851 502.497 41.8638ZM510.165 46.5V39.7471H509V38.7217H510.165V37.894C510.165 37.3716 510.211 36.9834 510.304 36.7295C510.431 36.3877 510.653 36.1118 510.971 35.9019C511.293 35.687 511.742 35.5796 512.318 35.5796C512.689 35.5796 513.1 35.6235 513.549 35.7114L513.351 36.8613C513.078 36.8125 512.819 36.7881 512.575 36.7881C512.174 36.7881 511.891 36.8735 511.725 37.0444C511.559 37.2153 511.476 37.5352 511.476 38.0039V38.7217H512.992V39.7471H511.476V46.5H510.165ZM519.101 45.5405C518.612 45.9556 518.141 46.2485 517.687 46.4194C517.238 46.5903 516.754 46.6758 516.237 46.6758C515.382 46.6758 514.726 46.4683 514.267 46.0532C513.808 45.6333 513.578 45.0986 513.578 44.4492C513.578 44.0684 513.664 43.7217 513.834 43.4092C514.01 43.0918 514.237 42.8379 514.516 42.6475C514.799 42.457 515.116 42.313 515.468 42.2153C515.727 42.147 516.117 42.0811 516.64 42.0176C517.704 41.8906 518.488 41.7393 518.991 41.5635C518.996 41.3828 518.998 41.2681 518.998 41.2192C518.998 40.6821 518.874 40.3037 518.625 40.084C518.288 39.7861 517.787 39.6372 517.123 39.6372C516.503 39.6372 516.044 39.7471 515.746 39.9668C515.453 40.1816 515.236 40.5649 515.094 41.1167L513.805 40.9409C513.922 40.3892 514.115 39.9448 514.384 39.6079C514.652 39.2661 515.041 39.0049 515.548 38.8242C516.056 38.6387 516.645 38.5459 517.313 38.5459C517.978 38.5459 518.517 38.624 518.932 38.7803C519.347 38.9365 519.652 39.1343 519.848 39.3735C520.043 39.6079 520.18 39.9058 520.258 40.2671C520.302 40.4917 520.324 40.897 520.324 41.4829V43.2407C520.324 44.4663 520.351 45.2427 520.404 45.5698C520.463 45.8921 520.575 46.2021 520.741 46.5H519.364C519.228 46.2266 519.14 45.9067 519.101 45.5405ZM518.991 42.5962C518.512 42.7915 517.794 42.9575 516.837 43.0942C516.295 43.1724 515.912 43.2603 515.688 43.3579C515.463 43.4556 515.29 43.5996 515.167 43.79C515.045 43.9756 514.984 44.1831 514.984 44.4126C514.984 44.7642 515.116 45.0571 515.38 45.2915C515.648 45.5259 516.039 45.6431 516.552 45.6431C517.06 45.6431 517.511 45.5332 517.907 45.3135C518.302 45.0889 518.593 44.7837 518.778 44.3979C518.92 44.1001 518.991 43.6606 518.991 43.0796V42.5962ZM527.472 46.5V45.3574C526.867 46.2363 526.044 46.6758 525.004 46.6758C524.545 46.6758 524.115 46.5879 523.715 46.4121C523.319 46.2363 523.024 46.0166 522.829 45.7529C522.638 45.4844 522.504 45.1572 522.426 44.7715C522.372 44.5127 522.345 44.1025 522.345 43.541V38.7217H523.664V43.0356C523.664 43.7241 523.69 44.188 523.744 44.4272C523.827 44.7739 524.003 45.0474 524.271 45.2476C524.54 45.4429 524.872 45.5405 525.268 45.5405C525.663 45.5405 526.034 45.4404 526.381 45.2402C526.728 45.0352 526.972 44.7593 527.113 44.4126C527.26 44.061 527.333 43.5532 527.333 42.8892V38.7217H528.651V46.5H527.472ZM530.695 46.5V35.7627H532.013V46.5H530.695ZM536.942 45.3208L537.133 46.4854C536.762 46.5635 536.43 46.6025 536.137 46.6025C535.658 46.6025 535.287 46.5269 535.023 46.3755C534.76 46.2241 534.574 46.0264 534.467 45.7822C534.359 45.5332 534.306 45.0132 534.306 44.2222V39.7471H533.339V38.7217H534.306V36.7954L535.617 36.0044V38.7217H536.942V39.7471H535.617V44.2954C535.617 44.6714 535.639 44.9131 535.683 45.0205C535.731 45.1279 535.807 45.2134 535.91 45.2769C536.017 45.3403 536.168 45.3721 536.364 45.3721C536.51 45.3721 536.703 45.355 536.942 45.3208Z" fill="black"/>
</g>
<circle cx="388" cy="41.5" r="5.5" fill="#F3F3F3" stroke="black"/>
<circle cx="547.5" cy="41.5" r="5.5" fill="#F3F3F3" stroke="black"/>
<path d="M547.75 62C559.249 62 572.39 65.906 572.39 86.203C572.39 106.5 586.25 112.25 598.125 112.25" stroke="black"/>
<path d="M808.75 41.375C796.224 41.375 781.909 46.8842 781.909 75.512C781.909 104.14 771 112.5 757.75 112.5" stroke="black"/>
<path d="M469.831 67.125V56.3877H471.149V60.2402C471.764 59.5273 472.541 59.1709 473.478 59.1709C474.054 59.1709 474.555 59.2856 474.979 59.5151C475.404 59.7397 475.707 60.0522 475.888 60.4526C476.073 60.853 476.166 61.4341 476.166 62.1958V67.125H474.848V62.1958C474.848 61.5366 474.704 61.0581 474.416 60.7603C474.132 60.4575 473.729 60.3062 473.207 60.3062C472.816 60.3062 472.448 60.4087 472.101 60.6138C471.759 60.814 471.515 61.0874 471.369 61.4341C471.222 61.7808 471.149 62.2593 471.149 62.8696V67.125H469.831ZM483.505 64.6201L484.867 64.7886C484.652 65.5845 484.254 66.2021 483.673 66.6416C483.092 67.0811 482.35 67.3008 481.447 67.3008C480.309 67.3008 479.406 66.9517 478.737 66.2534C478.073 65.5503 477.741 64.5664 477.741 63.3018C477.741 61.9932 478.078 60.9775 478.751 60.2549C479.425 59.5322 480.299 59.1709 481.374 59.1709C482.414 59.1709 483.263 59.5249 483.922 60.2329C484.582 60.9409 484.911 61.937 484.911 63.2212C484.911 63.2993 484.909 63.4165 484.904 63.5728H479.103C479.152 64.4272 479.394 65.0815 479.828 65.5356C480.263 65.9897 480.805 66.2168 481.454 66.2168C481.938 66.2168 482.35 66.0898 482.692 65.8359C483.034 65.582 483.305 65.1768 483.505 64.6201ZM479.176 62.4888H483.52C483.461 61.8345 483.295 61.3438 483.021 61.0166C482.602 60.5088 482.057 60.2549 481.388 60.2549C480.783 60.2549 480.272 60.4575 479.857 60.8628C479.447 61.2681 479.22 61.8101 479.176 62.4888ZM491.605 66.1655C491.117 66.5806 490.646 66.8735 490.192 67.0444C489.743 67.2153 489.259 67.3008 488.742 67.3008C487.887 67.3008 487.23 67.0933 486.771 66.6782C486.312 66.2583 486.083 65.7236 486.083 65.0742C486.083 64.6934 486.168 64.3467 486.339 64.0342C486.515 63.7168 486.742 63.4629 487.021 63.2725C487.304 63.082 487.621 62.938 487.973 62.8403C488.231 62.772 488.622 62.7061 489.145 62.6426C490.209 62.5156 490.993 62.3643 491.496 62.1885C491.5 62.0078 491.503 61.8931 491.503 61.8442C491.503 61.3071 491.378 60.9287 491.129 60.709C490.792 60.4111 490.292 60.2622 489.628 60.2622C489.008 60.2622 488.549 60.3721 488.251 60.5918C487.958 60.8066 487.741 61.1899 487.599 61.7417L486.31 61.5659C486.427 61.0142 486.62 60.5698 486.889 60.2329C487.157 59.8911 487.545 59.6299 488.053 59.4492C488.561 59.2637 489.149 59.1709 489.818 59.1709C490.482 59.1709 491.022 59.249 491.437 59.4053C491.852 59.5615 492.157 59.7593 492.353 59.9985C492.548 60.2329 492.685 60.5308 492.763 60.8921C492.807 61.1167 492.829 61.522 492.829 62.1079V63.8657C492.829 65.0913 492.855 65.8677 492.909 66.1948C492.968 66.5171 493.08 66.8271 493.246 67.125H491.869C491.732 66.8516 491.645 66.5317 491.605 66.1655ZM491.496 63.2212C491.017 63.4165 490.299 63.5825 489.342 63.7192C488.8 63.7974 488.417 63.8853 488.192 63.9829C487.968 64.0806 487.794 64.2246 487.672 64.415C487.55 64.6006 487.489 64.8081 487.489 65.0376C487.489 65.3892 487.621 65.6821 487.885 65.9165C488.153 66.1509 488.544 66.2681 489.057 66.2681C489.564 66.2681 490.016 66.1582 490.412 65.9385C490.807 65.7139 491.098 65.4087 491.283 65.0229C491.425 64.7251 491.496 64.2856 491.496 63.7046V63.2212ZM494.865 67.125V59.3467H496.051V60.5259C496.354 59.9741 496.632 59.6104 496.886 59.4346C497.145 59.2588 497.428 59.1709 497.736 59.1709C498.18 59.1709 498.632 59.3125 499.091 59.5957L498.637 60.8188C498.314 60.6284 497.992 60.5332 497.67 60.5332C497.382 60.5332 497.123 60.6211 496.894 60.7969C496.664 60.9678 496.5 61.207 496.403 61.5146C496.256 61.9834 496.183 62.4961 496.183 63.0527V67.125H494.865ZM504.049 67.125V59.3467H505.229V60.438C505.473 60.0571 505.797 59.752 506.203 59.5225C506.608 59.2881 507.069 59.1709 507.587 59.1709C508.163 59.1709 508.634 59.2905 509 59.5298C509.372 59.769 509.633 60.1035 509.784 60.5332C510.399 59.625 511.2 59.1709 512.187 59.1709C512.958 59.1709 513.551 59.3857 513.966 59.8154C514.381 60.2402 514.589 60.897 514.589 61.7856V67.125H513.278V62.2251C513.278 61.6978 513.234 61.3193 513.146 61.0898C513.063 60.8555 512.909 60.6675 512.685 60.5259C512.46 60.3843 512.196 60.3135 511.894 60.3135C511.347 60.3135 510.893 60.4966 510.531 60.8628C510.17 61.2241 509.989 61.8052 509.989 62.606V67.125H508.671V62.0713C508.671 61.4854 508.563 61.0459 508.349 60.7529C508.134 60.46 507.782 60.3135 507.294 60.3135C506.923 60.3135 506.579 60.4111 506.261 60.6064C505.949 60.8018 505.722 61.0874 505.58 61.4634C505.438 61.8394 505.368 62.3813 505.368 63.0894V67.125H504.049ZM516.054 63.2358C516.054 61.7954 516.454 60.7285 517.255 60.0352C517.924 59.459 518.739 59.1709 519.701 59.1709C520.771 59.1709 521.645 59.5225 522.323 60.2256C523.002 60.9238 523.341 61.8906 523.341 63.126C523.341 64.127 523.19 64.9155 522.887 65.4917C522.589 66.063 522.152 66.5073 521.576 66.8247C521.005 67.1421 520.38 67.3008 519.701 67.3008C518.612 67.3008 517.731 66.9517 517.057 66.2534C516.388 65.5552 516.054 64.5493 516.054 63.2358ZM517.409 63.2358C517.409 64.2319 517.626 64.979 518.061 65.4771C518.495 65.9702 519.042 66.2168 519.701 66.2168C520.355 66.2168 520.9 65.9678 521.334 65.4697C521.769 64.9717 521.986 64.2124 521.986 63.1919C521.986 62.23 521.767 61.5024 521.327 61.0093C520.893 60.5112 520.351 60.2622 519.701 60.2622C519.042 60.2622 518.495 60.5088 518.061 61.002C517.626 61.4951 517.409 62.2397 517.409 63.2358ZM524.879 67.125V59.3467H526.066V60.5259C526.369 59.9741 526.647 59.6104 526.901 59.4346C527.16 59.2588 527.443 59.1709 527.75 59.1709C528.195 59.1709 528.646 59.3125 529.105 59.5957L528.651 60.8188C528.329 60.6284 528.007 60.5332 527.685 60.5332C527.396 60.5332 527.138 60.6211 526.908 60.7969C526.679 60.9678 526.515 61.207 526.417 61.5146C526.271 61.9834 526.198 62.4961 526.198 63.0527V67.125H524.879ZM535.214 64.6201L536.576 64.7886C536.361 65.5845 535.963 66.2021 535.382 66.6416C534.801 67.0811 534.059 67.3008 533.156 67.3008C532.018 67.3008 531.115 66.9517 530.446 66.2534C529.782 65.5503 529.45 64.5664 529.45 63.3018C529.45 61.9932 529.787 60.9775 530.46 60.2549C531.134 59.5322 532.008 59.1709 533.083 59.1709C534.123 59.1709 534.972 59.5249 535.631 60.2329C536.291 60.9409 536.62 61.937 536.62 63.2212C536.62 63.2993 536.618 63.4165 536.613 63.5728H530.812C530.861 64.4272 531.103 65.0815 531.537 65.5356C531.972 65.9897 532.514 66.2168 533.163 66.2168C533.646 66.2168 534.059 66.0898 534.401 65.8359C534.743 65.582 535.014 65.1768 535.214 64.6201ZM530.885 62.4888H535.229C535.17 61.8345 535.004 61.3438 534.73 61.0166C534.311 60.5088 533.766 60.2549 533.097 60.2549C532.492 60.2549 531.981 60.4575 531.566 60.8628C531.156 61.2681 530.929 61.8101 530.885 62.4888Z" fill="black"/>
<circle cx="547.5" cy="62.125" r="5.5" fill="#F3F3F3" stroke="black"/>
<g clip-path="url(#clip4_505_693)">
<rect x="598.125" y="70.875" width="159.5" height="62" rx="2" fill="white"/>
<rect x="598.125" y="70.875" width="159.5" height="24.75" fill="#F3F3F3"/>
<rect x="598.625" y="71.375" width="158.5" height="61" rx="1.5" stroke="black"/>
<path d="M607.812 88.375V77.6377H615.575V78.9048H609.232V82.1934H615.172V83.4531H609.232V87.1079H615.824V88.375H607.812ZM616.74 88.375L619.582 84.332L616.952 80.5967H618.6L619.794 82.4204C620.019 82.7671 620.199 83.0576 620.336 83.292C620.551 82.9697 620.749 82.6841 620.929 82.4351L622.24 80.5967H623.815L621.127 84.2588L624.02 88.375H622.401L620.805 85.958L620.38 85.3062L618.336 88.375H616.74ZM627.997 87.1958L628.188 88.3604C627.816 88.4385 627.484 88.4775 627.191 88.4775C626.713 88.4775 626.342 88.4019 626.078 88.2505C625.814 88.0991 625.629 87.9014 625.521 87.6572C625.414 87.4082 625.36 86.8882 625.36 86.0972V81.6221H624.394V80.5967H625.36V78.6704L626.671 77.8794V80.5967H627.997V81.6221H626.671V86.1704C626.671 86.5464 626.693 86.7881 626.737 86.8955C626.786 87.0029 626.862 87.0884 626.964 87.1519C627.072 87.2153 627.223 87.2471 627.418 87.2471C627.565 87.2471 627.758 87.23 627.997 87.1958ZM634.618 85.8701L635.98 86.0386C635.766 86.8345 635.368 87.4521 634.787 87.8916C634.206 88.3311 633.463 88.5508 632.56 88.5508C631.422 88.5508 630.519 88.2017 629.85 87.5034C629.186 86.8003 628.854 85.8164 628.854 84.5518C628.854 83.2432 629.191 82.2275 629.865 81.5049C630.539 80.7822 631.413 80.4209 632.487 80.4209C633.527 80.4209 634.376 80.7749 635.036 81.4829C635.695 82.1909 636.024 83.187 636.024 84.4712C636.024 84.5493 636.022 84.6665 636.017 84.8228H630.216C630.265 85.6772 630.507 86.3315 630.941 86.7856C631.376 87.2397 631.918 87.4668 632.567 87.4668C633.051 87.4668 633.463 87.3398 633.805 87.0859C634.147 86.832 634.418 86.4268 634.618 85.8701ZM630.29 83.7388H634.633C634.574 83.0845 634.408 82.5938 634.135 82.2666C633.715 81.7588 633.17 81.5049 632.501 81.5049C631.896 81.5049 631.386 81.7075 630.971 82.1128C630.561 82.5181 630.333 83.0601 630.29 83.7388ZM637.643 88.375V80.5967H638.83V81.7026C639.401 80.8481 640.226 80.4209 641.305 80.4209C641.774 80.4209 642.204 80.5063 642.594 80.6772C642.99 80.8433 643.285 81.063 643.48 81.3364C643.676 81.6099 643.812 81.9346 643.891 82.3105C643.939 82.5547 643.964 82.9819 643.964 83.5923V88.375H642.646V83.6436C642.646 83.1064 642.594 82.7061 642.492 82.4424C642.389 82.1738 642.206 81.9614 641.942 81.8052C641.684 81.644 641.378 81.5635 641.027 81.5635C640.465 81.5635 639.979 81.7417 639.569 82.0981C639.164 82.4546 638.961 83.1309 638.961 84.127V88.375H637.643ZM651.039 88.375V87.3936C650.546 88.165 649.821 88.5508 648.864 88.5508C648.244 88.5508 647.672 88.3799 647.15 88.0381C646.632 87.6963 646.229 87.2202 645.941 86.6099C645.658 85.9946 645.517 85.2891 645.517 84.4932C645.517 83.7168 645.646 83.0137 645.905 82.3838C646.164 81.749 646.552 81.2632 647.069 80.9263C647.587 80.5894 648.166 80.4209 648.805 80.4209C649.274 80.4209 649.691 80.521 650.058 80.7212C650.424 80.9165 650.722 81.1729 650.951 81.4902V77.6377H652.262V88.375H651.039ZM646.872 84.4932C646.872 85.4893 647.082 86.2339 647.501 86.7271C647.921 87.2202 648.417 87.4668 648.988 87.4668C649.564 87.4668 650.053 87.2324 650.453 86.7637C650.858 86.29 651.061 85.5698 651.061 84.603C651.061 83.5386 650.856 82.7573 650.446 82.2593C650.036 81.7612 649.53 81.5122 648.93 81.5122C648.344 81.5122 647.853 81.7515 647.458 82.23C647.067 82.7085 646.872 83.4629 646.872 84.4932ZM659.667 85.8701L661.029 86.0386C660.814 86.8345 660.417 87.4521 659.835 87.8916C659.254 88.3311 658.512 88.5508 657.609 88.5508C656.471 88.5508 655.568 88.2017 654.899 87.5034C654.235 86.8003 653.903 85.8164 653.903 84.5518C653.903 83.2432 654.24 82.2275 654.914 81.5049C655.587 80.7822 656.461 80.4209 657.536 80.4209C658.576 80.4209 659.425 80.7749 660.084 81.4829C660.744 82.1909 661.073 83.187 661.073 84.4712C661.073 84.5493 661.071 84.6665 661.066 84.8228H655.265C655.314 85.6772 655.556 86.3315 655.99 86.7856C656.425 87.2397 656.967 87.4668 657.616 87.4668C658.1 87.4668 658.512 87.3398 658.854 87.0859C659.196 86.832 659.467 86.4268 659.667 85.8701ZM655.338 83.7388H659.682C659.623 83.0845 659.457 82.5938 659.184 82.2666C658.764 81.7588 658.219 81.5049 657.55 81.5049C656.945 81.5049 656.435 81.7075 656.02 82.1128C655.609 82.5181 655.382 83.0601 655.338 83.7388ZM667.738 88.375V87.3936C667.245 88.165 666.52 88.5508 665.563 88.5508C664.943 88.5508 664.372 88.3799 663.849 88.0381C663.332 87.6963 662.929 87.2202 662.641 86.6099C662.357 85.9946 662.216 85.2891 662.216 84.4932C662.216 83.7168 662.345 83.0137 662.604 82.3838C662.863 81.749 663.251 81.2632 663.769 80.9263C664.286 80.5894 664.865 80.4209 665.504 80.4209C665.973 80.4209 666.391 80.521 666.757 80.7212C667.123 80.9165 667.421 81.1729 667.65 81.4902V77.6377H668.961V88.375H667.738ZM663.571 84.4932C663.571 85.4893 663.781 86.2339 664.201 86.7271C664.621 87.2202 665.116 87.4668 665.688 87.4668C666.264 87.4668 666.752 87.2324 667.152 86.7637C667.558 86.29 667.76 85.5698 667.76 84.603C667.76 83.5386 667.555 82.7573 667.145 82.2593C666.735 81.7612 666.229 81.5122 665.629 81.5122C665.043 81.5122 664.552 81.7515 664.157 82.23C663.766 82.7085 663.571 83.4629 663.571 84.4932ZM683.046 84.6104L684.467 84.9692C684.169 86.1362 683.632 87.0273 682.855 87.6426C682.084 88.2529 681.139 88.5581 680.021 88.5581C678.864 88.5581 677.921 88.3237 677.194 87.855C676.471 87.3813 675.919 86.6978 675.539 85.8042C675.163 84.9106 674.975 83.9512 674.975 82.9258C674.975 81.8076 675.187 80.8335 675.612 80.0034C676.042 79.1685 676.649 78.5361 677.436 78.1064C678.227 77.6719 679.096 77.4546 680.043 77.4546C681.117 77.4546 682.021 77.728 682.753 78.2749C683.485 78.8218 683.996 79.5908 684.284 80.582L682.885 80.9116C682.636 80.1304 682.274 79.5615 681.801 79.2051C681.327 78.8486 680.731 78.6704 680.014 78.6704C679.188 78.6704 678.498 78.8682 677.941 79.2637C677.389 79.6592 677.001 80.1914 676.776 80.8604C676.552 81.5244 676.439 82.2104 676.439 82.9185C676.439 83.8315 676.571 84.6299 676.835 85.3135C677.104 85.9922 677.519 86.5 678.08 86.8369C678.642 87.1738 679.25 87.3423 679.904 87.3423C680.7 87.3423 681.374 87.1128 681.925 86.6538C682.477 86.1948 682.851 85.5137 683.046 84.6104ZM685.565 84.4858C685.565 83.0454 685.966 81.9785 686.767 81.2852C687.436 80.709 688.251 80.4209 689.213 80.4209C690.282 80.4209 691.156 80.7725 691.835 81.4756C692.514 82.1738 692.853 83.1406 692.853 84.376C692.853 85.377 692.702 86.1655 692.399 86.7417C692.101 87.313 691.664 87.7573 691.088 88.0747C690.517 88.3921 689.892 88.5508 689.213 88.5508C688.124 88.5508 687.243 88.2017 686.569 87.5034C685.9 86.8052 685.565 85.7993 685.565 84.4858ZM686.92 84.4858C686.92 85.4819 687.138 86.229 687.572 86.7271C688.007 87.2202 688.554 87.4668 689.213 87.4668C689.867 87.4668 690.412 87.2178 690.846 86.7197C691.281 86.2217 691.498 85.4624 691.498 84.4419C691.498 83.48 691.278 82.7524 690.839 82.2593C690.404 81.7612 689.862 81.5122 689.213 81.5122C688.554 81.5122 688.007 81.7588 687.572 82.252C687.138 82.7451 686.92 83.4897 686.92 84.4858ZM694.406 88.375V80.5967H695.592V81.7026C696.164 80.8481 696.989 80.4209 698.068 80.4209C698.537 80.4209 698.966 80.5063 699.357 80.6772C699.752 80.8433 700.048 81.063 700.243 81.3364C700.438 81.6099 700.575 81.9346 700.653 82.3105C700.702 82.5547 700.727 82.9819 700.727 83.5923V88.375H699.408V83.6436C699.408 83.1064 699.357 82.7061 699.254 82.4424C699.152 82.1738 698.969 81.9614 698.705 81.8052C698.446 81.644 698.141 81.5635 697.79 81.5635C697.228 81.5635 696.742 81.7417 696.332 82.0981C695.927 82.4546 695.724 83.1309 695.724 84.127V88.375H694.406ZM705.634 87.1958L705.824 88.3604C705.453 88.4385 705.121 88.4775 704.828 88.4775C704.35 88.4775 703.979 88.4019 703.715 88.2505C703.451 88.0991 703.266 87.9014 703.158 87.6572C703.051 87.4082 702.997 86.8882 702.997 86.0972V81.6221H702.03V80.5967H702.997V78.6704L704.308 77.8794V80.5967H705.634V81.6221H704.308V86.1704C704.308 86.5464 704.33 86.7881 704.374 86.8955C704.423 87.0029 704.499 87.0884 704.601 87.1519C704.708 87.2153 704.86 87.2471 705.055 87.2471C705.202 87.2471 705.395 87.23 705.634 87.1958ZM712.255 85.8701L713.617 86.0386C713.402 86.8345 713.004 87.4521 712.423 87.8916C711.842 88.3311 711.1 88.5508 710.197 88.5508C709.059 88.5508 708.156 88.2017 707.487 87.5034C706.823 86.8003 706.491 85.8164 706.491 84.5518C706.491 83.2432 706.828 82.2275 707.501 81.5049C708.175 80.7822 709.049 80.4209 710.124 80.4209C711.164 80.4209 712.013 80.7749 712.672 81.4829C713.332 82.1909 713.661 83.187 713.661 84.4712C713.661 84.5493 713.659 84.6665 713.654 84.8228H707.853C707.902 85.6772 708.144 86.3315 708.578 86.7856C709.013 87.2397 709.555 87.4668 710.204 87.4668C710.688 87.4668 711.1 87.3398 711.442 87.0859C711.784 86.832 712.055 86.4268 712.255 85.8701ZM707.926 83.7388H712.27C712.211 83.0845 712.045 82.5938 711.771 82.2666C711.352 81.7588 710.807 81.5049 710.138 81.5049C709.533 81.5049 709.022 81.7075 708.607 82.1128C708.197 82.5181 707.97 83.0601 707.926 83.7388ZM715.28 88.375V80.5967H716.466V81.7026C717.038 80.8481 717.863 80.4209 718.942 80.4209C719.411 80.4209 719.84 80.5063 720.231 80.6772C720.626 80.8433 720.922 81.063 721.117 81.3364C721.312 81.6099 721.449 81.9346 721.527 82.3105C721.576 82.5547 721.601 82.9819 721.601 83.5923V88.375H720.282V83.6436C720.282 83.1064 720.231 82.7061 720.128 82.4424C720.026 82.1738 719.843 81.9614 719.579 81.8052C719.32 81.644 719.015 81.5635 718.664 81.5635C718.102 81.5635 717.616 81.7417 717.206 82.0981C716.801 82.4546 716.598 83.1309 716.598 84.127V88.375H715.28ZM726.508 87.1958L726.698 88.3604C726.327 88.4385 725.995 88.4775 725.702 88.4775C725.224 88.4775 724.853 88.4019 724.589 88.2505C724.325 88.0991 724.14 87.9014 724.032 87.6572C723.925 87.4082 723.871 86.8882 723.871 86.0972V81.6221H722.904V80.5967H723.871V78.6704L725.182 77.8794V80.5967H726.508V81.6221H725.182V86.1704C725.182 86.5464 725.204 86.7881 725.248 86.8955C725.297 87.0029 725.373 87.0884 725.475 87.1519C725.583 87.2153 725.734 87.2471 725.929 87.2471C726.076 87.2471 726.269 87.23 726.508 87.1958Z" fill="black"/>
<path d="M708.322 117.375V116.394C707.829 117.165 707.104 117.551 706.147 117.551C705.527 117.551 704.956 117.38 704.433 117.038C703.916 116.696 703.513 116.22 703.225 115.61C702.941 114.995 702.8 114.289 702.8 113.493C702.8 112.717 702.929 112.014 703.188 111.384C703.447 110.749 703.835 110.263 704.353 109.926C704.87 109.589 705.449 109.421 706.088 109.421C706.557 109.421 706.975 109.521 707.341 109.721C707.707 109.917 708.005 110.173 708.234 110.49V106.638H709.545V117.375H708.322ZM704.155 113.493C704.155 114.489 704.365 115.234 704.785 115.727C705.205 116.22 705.7 116.467 706.271 116.467C706.848 116.467 707.336 116.232 707.736 115.764C708.142 115.29 708.344 114.57 708.344 113.603C708.344 112.539 708.139 111.757 707.729 111.259C707.319 110.761 706.813 110.512 706.213 110.512C705.627 110.512 705.136 110.751 704.741 111.23C704.35 111.708 704.155 112.463 704.155 113.493ZM716.95 114.87L718.312 115.039C718.098 115.834 717.7 116.452 717.119 116.892C716.538 117.331 715.795 117.551 714.892 117.551C713.754 117.551 712.851 117.202 712.182 116.503C711.518 115.8 711.186 114.816 711.186 113.552C711.186 112.243 711.523 111.228 712.197 110.505C712.871 109.782 713.745 109.421 714.819 109.421C715.859 109.421 716.708 109.775 717.368 110.483C718.027 111.191 718.356 112.187 718.356 113.471C718.356 113.549 718.354 113.667 718.349 113.823H712.548C712.597 114.677 712.839 115.332 713.273 115.786C713.708 116.24 714.25 116.467 714.899 116.467C715.383 116.467 715.795 116.34 716.137 116.086C716.479 115.832 716.75 115.427 716.95 114.87ZM712.622 112.739H716.965C716.906 112.084 716.74 111.594 716.467 111.267C716.047 110.759 715.502 110.505 714.833 110.505C714.228 110.505 713.718 110.708 713.303 111.113C712.893 111.518 712.666 112.06 712.622 112.739ZM720.29 117.375V110.622H719.125V109.597H720.29V108.769C720.29 108.247 720.336 107.858 720.429 107.604C720.556 107.263 720.778 106.987 721.096 106.777C721.418 106.562 721.867 106.455 722.443 106.455C722.814 106.455 723.225 106.499 723.674 106.586L723.476 107.736C723.203 107.688 722.944 107.663 722.7 107.663C722.299 107.663 722.016 107.749 721.85 107.919C721.684 108.09 721.601 108.41 721.601 108.879V109.597H723.117V110.622H721.601V117.375H720.29ZM729.226 116.416C728.737 116.831 728.266 117.124 727.812 117.294C727.363 117.465 726.879 117.551 726.362 117.551C725.507 117.551 724.851 117.343 724.392 116.928C723.933 116.508 723.703 115.974 723.703 115.324C723.703 114.943 723.789 114.597 723.959 114.284C724.135 113.967 724.362 113.713 724.641 113.522C724.924 113.332 725.241 113.188 725.593 113.09C725.852 113.022 726.242 112.956 726.765 112.893C727.829 112.766 728.613 112.614 729.116 112.438C729.121 112.258 729.123 112.143 729.123 112.094C729.123 111.557 728.999 111.179 728.75 110.959C728.413 110.661 727.912 110.512 727.248 110.512C726.628 110.512 726.169 110.622 725.871 110.842C725.578 111.057 725.361 111.44 725.219 111.992L723.93 111.816C724.047 111.264 724.24 110.82 724.509 110.483C724.777 110.141 725.166 109.88 725.673 109.699C726.181 109.514 726.77 109.421 727.438 109.421C728.103 109.421 728.642 109.499 729.057 109.655C729.472 109.812 729.777 110.009 729.973 110.249C730.168 110.483 730.305 110.781 730.383 111.142C730.427 111.367 730.449 111.772 730.449 112.358V114.116C730.449 115.341 730.476 116.118 730.529 116.445C730.588 116.767 730.7 117.077 730.866 117.375H729.489C729.353 117.102 729.265 116.782 729.226 116.416ZM729.116 113.471C728.637 113.667 727.919 113.833 726.962 113.969C726.42 114.047 726.037 114.135 725.812 114.233C725.588 114.331 725.415 114.475 725.292 114.665C725.17 114.851 725.109 115.058 725.109 115.288C725.109 115.639 725.241 115.932 725.505 116.167C725.773 116.401 726.164 116.518 726.677 116.518C727.185 116.518 727.636 116.408 728.032 116.188C728.427 115.964 728.718 115.659 728.903 115.273C729.045 114.975 729.116 114.536 729.116 113.955V113.471ZM737.597 117.375V116.232C736.992 117.111 736.169 117.551 735.129 117.551C734.67 117.551 734.24 117.463 733.84 117.287C733.444 117.111 733.149 116.892 732.954 116.628C732.763 116.359 732.629 116.032 732.551 115.646C732.497 115.388 732.47 114.978 732.47 114.416V109.597H733.789V113.911C733.789 114.599 733.815 115.063 733.869 115.302C733.952 115.649 734.128 115.922 734.396 116.123C734.665 116.318 734.997 116.416 735.393 116.416C735.788 116.416 736.159 116.315 736.506 116.115C736.853 115.91 737.097 115.634 737.238 115.288C737.385 114.936 737.458 114.428 737.458 113.764V109.597H738.776V117.375H737.597ZM740.82 117.375V106.638H742.138V117.375H740.82ZM747.067 116.196L747.258 117.36C746.887 117.438 746.555 117.478 746.262 117.478C745.783 117.478 745.412 117.402 745.148 117.25C744.885 117.099 744.699 116.901 744.592 116.657C744.484 116.408 744.431 115.888 744.431 115.097V110.622H743.464V109.597H744.431V107.67L745.742 106.879V109.597H747.067V110.622H745.742V115.17C745.742 115.546 745.764 115.788 745.808 115.896C745.856 116.003 745.932 116.088 746.035 116.152C746.142 116.215 746.293 116.247 746.489 116.247C746.635 116.247 746.828 116.23 747.067 116.196Z" fill="black"/>
</g>
<circle cx="598.125" cy="112.375" r="5.5" fill="#F3F3F3" stroke="black"/>
<circle cx="757.625" cy="112.375" r="5.5" fill="#F3F3F3" stroke="black"/>
<g clip-path="url(#clip5_505_693)">
<rect x="810.25" width="159.5" height="62" rx="2" fill="white"/>
<rect x="810.25" width="159.5" height="24.75" fill="#F3F3F3"/>
<rect x="810.75" y="0.5" width="158.5" height="61" rx="1.5" stroke="black"/>
<path d="M819.475 12.2705C819.475 10.4883 819.954 9.09424 820.911 8.08838C821.868 7.07764 823.103 6.57227 824.617 6.57227C825.608 6.57227 826.501 6.80908 827.297 7.28271C828.093 7.75635 828.699 8.41797 829.114 9.26758C829.534 10.1123 829.744 11.0718 829.744 12.146C829.744 13.2349 829.524 14.209 829.084 15.0684C828.645 15.9277 828.022 16.5796 827.217 17.0239C826.411 17.4634 825.542 17.6831 824.609 17.6831C823.599 17.6831 822.695 17.439 821.899 16.9507C821.104 16.4624 820.5 15.7959 820.09 14.9512C819.68 14.1064 819.475 13.2129 819.475 12.2705ZM820.94 12.2925C820.94 13.5864 821.287 14.6069 821.98 15.354C822.678 16.0962 823.552 16.4673 824.602 16.4673C825.671 16.4673 826.55 16.0913 827.239 15.3394C827.932 14.5874 828.279 13.5205 828.279 12.1387C828.279 11.2646 828.13 10.5029 827.832 9.85352C827.539 9.19922 827.107 8.69385 826.536 8.3374C825.969 7.97607 825.332 7.79541 824.624 7.79541C823.618 7.79541 822.751 8.14209 822.024 8.83545C821.301 9.52393 820.94 10.6763 820.94 12.2925ZM836.511 17.5V16.3574C835.906 17.2363 835.083 17.6758 834.043 17.6758C833.584 17.6758 833.154 17.5879 832.754 17.4121C832.358 17.2363 832.063 17.0166 831.868 16.7529C831.677 16.4844 831.543 16.1572 831.465 15.7715C831.411 15.5127 831.384 15.1025 831.384 14.541V9.72168H832.703V14.0356C832.703 14.7241 832.729 15.188 832.783 15.4272C832.866 15.7739 833.042 16.0474 833.311 16.2476C833.579 16.4429 833.911 16.5405 834.307 16.5405C834.702 16.5405 835.073 16.4404 835.42 16.2402C835.767 16.0352 836.011 15.7593 836.152 15.4126C836.299 15.061 836.372 14.5532 836.372 13.8892V9.72168H837.69V17.5H836.511ZM842.642 16.3208L842.832 17.4854C842.461 17.5635 842.129 17.6025 841.836 17.6025C841.357 17.6025 840.986 17.5269 840.723 17.3755C840.459 17.2241 840.273 17.0264 840.166 16.7822C840.059 16.5332 840.005 16.0132 840.005 15.2222V10.7471H839.038V9.72168H840.005V7.79541L841.316 7.00439V9.72168H842.642V10.7471H841.316V15.2954C841.316 15.6714 841.338 15.9131 841.382 16.0205C841.431 16.1279 841.506 16.2134 841.609 16.2769C841.716 16.3403 841.868 16.3721 842.063 16.3721C842.209 16.3721 842.402 16.355 842.642 16.3208ZM843.923 17.5V9.72168H845.11V10.9009C845.413 10.3491 845.691 9.98535 845.945 9.80957C846.204 9.63379 846.487 9.5459 846.794 9.5459C847.239 9.5459 847.69 9.6875 848.149 9.9707L847.695 11.1938C847.373 11.0034 847.051 10.9082 846.729 10.9082C846.44 10.9082 846.182 10.9961 845.952 11.1719C845.723 11.3428 845.559 11.582 845.461 11.8896C845.315 12.3584 845.242 12.8711 845.242 13.4277V17.5H843.923ZM848.442 13.6108C848.442 12.1704 848.843 11.1035 849.644 10.4102C850.312 9.83398 851.128 9.5459 852.09 9.5459C853.159 9.5459 854.033 9.89746 854.712 10.6006C855.391 11.2988 855.73 12.2656 855.73 13.501C855.73 14.502 855.579 15.2905 855.276 15.8667C854.978 16.438 854.541 16.8823 853.965 17.1997C853.394 17.5171 852.769 17.6758 852.09 17.6758C851.001 17.6758 850.12 17.3267 849.446 16.6284C848.777 15.9302 848.442 14.9243 848.442 13.6108ZM849.797 13.6108C849.797 14.6069 850.015 15.354 850.449 15.8521C850.884 16.3452 851.431 16.5918 852.09 16.5918C852.744 16.5918 853.289 16.3428 853.723 15.8447C854.158 15.3467 854.375 14.5874 854.375 13.5669C854.375 12.605 854.155 11.8774 853.716 11.3843C853.281 10.8862 852.739 10.6372 852.09 10.6372C851.431 10.6372 850.884 10.8838 850.449 11.377C850.015 11.8701 849.797 12.6147 849.797 13.6108Z" fill="black"/>
</g>
<circle cx="810.25" cy="41.5" r="5.5" fill="#F3F3F3" stroke="black"/>
</g>
<defs>
<clipPath id="clip0_505_693">
<rect width="970" height="133" fill="white"/>
</clipPath>
<clipPath id="clip1_505_693">
<rect width="159.5" height="62" rx="2" fill="white"/>
</clipPath>
<clipPath id="clip2_505_693">
<rect x="194" width="159.5" height="62" rx="2" fill="white"/>
</clipPath>
<clipPath id="clip3_505_693">
<rect x="388" width="159.5" height="79" rx="2" fill="white"/>
</clipPath>
<clipPath id="clip4_505_693">
<rect x="598.125" y="70.875" width="159.5" height="62" rx="2" fill="white"/>
</clipPath>
<clipPath id="clip5_505_693">
<rect x="810.25" width="159.5" height="62" rx="2" fill="white"/>
</clipPath>
</defs>
</svg>
