<svg width="630" height="630" viewBox="0 0 630 630" fill="none" xmlns="http://www.w3.org/2000/svg">
<path d="M214.5 244.52L201 236.725V252.314L214.5 244.52ZM135 245.87H202.35V243.17H135V245.87Z" fill="black"/>
<path d="M347 244.52L333.5 236.725V252.314L347 244.52ZM267.5 245.87H334.85V243.17H267.5V245.87Z" fill="black"/>
<path d="M380 339.398L387.794 325.898H372.206L380 339.398ZM378.65 292.398V327.248H381.35V292.398H378.65Z" fill="black"/>
<path d="M492.75 259L477.611 262.716L488.399 273.969L492.75 259ZM402.934 346.975L484.914 268.383L483.045 266.434L401.066 345.025L402.934 346.975Z" fill="black"/>
<path d="M489.258 244.52L475.758 236.725V252.314L489.258 244.52ZM409.758 245.87H477.108V243.17H409.758V245.87Z" fill="black"/>
<circle cx="240.83" cy="243.745" r="19.35" fill="#C6C6C6"/>
<path d="M226.46 268.943V281.795H228.17V268.943H226.46ZM230.434 272.489V281.795H231.964V276.539C231.964 276.119 232.018 275.735 232.126 275.387C232.246 275.027 232.42 274.715 232.648 274.451C232.876 274.187 233.158 273.983 233.494 273.839C233.842 273.695 234.25 273.623 234.718 273.623C235.306 273.623 235.768 273.791 236.104 274.127C236.44 274.463 236.608 274.919 236.608 275.495V281.795H238.138V275.675C238.138 275.171 238.084 274.715 237.976 274.307C237.88 273.887 237.706 273.527 237.454 273.227C237.202 272.927 236.872 272.693 236.464 272.525C236.056 272.357 235.546 272.273 234.934 272.273C233.554 272.273 232.546 272.837 231.91 273.965H231.874V272.489H230.434ZM242.2 272.489V269.699H240.67V272.489H239.086V273.839H240.67V279.761C240.67 280.193 240.712 280.541 240.796 280.805C240.88 281.069 241.006 281.273 241.174 281.417C241.354 281.561 241.582 281.663 241.858 281.723C242.146 281.771 242.488 281.795 242.884 281.795H244.054V280.445H243.352C243.112 280.445 242.914 280.439 242.758 280.427C242.614 280.403 242.5 280.361 242.416 280.301C242.332 280.241 242.272 280.157 242.236 280.049C242.212 279.941 242.2 279.797 242.2 279.617V273.839H244.054V272.489H242.2ZM245.34 272.489V281.795H246.87V277.655C246.87 277.055 246.93 276.527 247.05 276.071C247.17 275.603 247.362 275.207 247.626 274.883C247.89 274.559 248.238 274.313 248.67 274.145C249.102 273.977 249.624 273.893 250.236 273.893V272.273C249.408 272.249 248.724 272.417 248.184 272.777C247.644 273.137 247.188 273.695 246.816 274.451H246.78V272.489H245.34ZM251.828 277.151C251.828 276.587 251.9 276.089 252.044 275.657C252.2 275.213 252.41 274.841 252.674 274.541C252.938 274.241 253.244 274.013 253.592 273.857C253.952 273.701 254.33 273.623 254.726 273.623C255.122 273.623 255.494 273.701 255.842 273.857C256.202 274.013 256.514 274.241 256.778 274.541C257.042 274.841 257.246 275.213 257.39 275.657C257.546 276.089 257.624 276.587 257.624 277.151C257.624 277.715 257.546 278.219 257.39 278.663C257.246 279.095 257.042 279.461 256.778 279.761C256.514 280.049 256.202 280.271 255.842 280.427C255.494 280.583 255.122 280.661 254.726 280.661C254.33 280.661 253.952 280.583 253.592 280.427C253.244 280.271 252.938 280.049 252.674 279.761C252.41 279.461 252.2 279.095 252.044 278.663C251.9 278.219 251.828 277.715 251.828 277.151ZM250.208 277.151C250.208 277.835 250.304 278.471 250.496 279.059C250.688 279.647 250.976 280.163 251.36 280.607C251.744 281.039 252.218 281.381 252.782 281.633C253.346 281.873 253.994 281.993 254.726 281.993C255.47 281.993 256.118 281.873 256.67 281.633C257.234 281.381 257.708 281.039 258.092 280.607C258.476 280.163 258.764 279.647 258.956 279.059C259.148 278.471 259.244 277.835 259.244 277.151C259.244 276.467 259.148 275.831 258.956 275.243C258.764 274.643 258.476 274.127 258.092 273.695C257.708 273.251 257.234 272.903 256.67 272.651C256.118 272.399 255.47 272.273 254.726 272.273C253.994 272.273 253.346 272.399 252.782 272.651C252.218 272.903 251.744 273.251 251.36 273.695C250.976 274.127 250.688 274.643 250.496 275.243C250.304 275.831 250.208 276.467 250.208 277.151Z" fill="black"/>
<circle cx="380.209" cy="243.745" r="19.35" fill="#C6C6C6"/>
<path d="M341.206 268.943V281.795H342.826V271.103H342.862L346.876 281.795H348.334L352.348 271.103H352.384V281.795H354.004V268.943H351.664L347.596 279.743L343.546 268.943H341.206ZM364.482 281.759C364.218 281.915 363.852 281.993 363.384 281.993C362.988 281.993 362.67 281.885 362.43 281.669C362.202 281.441 362.088 281.075 362.088 280.571C361.668 281.075 361.176 281.441 360.612 281.669C360.06 281.885 359.46 281.993 358.812 281.993C358.392 281.993 357.99 281.945 357.606 281.849C357.234 281.753 356.91 281.603 356.634 281.399C356.358 281.195 356.136 280.931 355.968 280.607C355.812 280.271 355.734 279.869 355.734 279.401C355.734 278.873 355.824 278.441 356.004 278.105C356.184 277.769 356.418 277.499 356.706 277.295C357.006 277.079 357.342 276.917 357.714 276.809C358.098 276.701 358.488 276.611 358.884 276.539C359.304 276.455 359.7 276.395 360.072 276.359C360.456 276.311 360.792 276.251 361.08 276.179C361.368 276.095 361.596 275.981 361.764 275.837C361.932 275.681 362.016 275.459 362.016 275.171C362.016 274.835 361.95 274.565 361.818 274.361C361.698 274.157 361.536 274.001 361.332 273.893C361.14 273.785 360.918 273.713 360.666 273.677C360.426 273.641 360.186 273.623 359.946 273.623C359.298 273.623 358.758 273.749 358.326 274.001C357.894 274.241 357.66 274.703 357.624 275.387H356.094C356.118 274.811 356.238 274.325 356.454 273.929C356.67 273.533 356.958 273.215 357.318 272.975C357.678 272.723 358.086 272.543 358.542 272.435C359.01 272.327 359.508 272.273 360.036 272.273C360.456 272.273 360.87 272.303 361.278 272.363C361.698 272.423 362.076 272.549 362.412 272.741C362.748 272.921 363.018 273.179 363.222 273.515C363.426 273.851 363.528 274.289 363.528 274.829V279.617C363.528 279.977 363.546 280.241 363.582 280.409C363.63 280.577 363.774 280.661 364.014 280.661C364.146 280.661 364.302 280.631 364.482 280.571V281.759ZM361.998 276.989C361.806 277.133 361.554 277.241 361.242 277.313C360.93 277.373 360.6 277.427 360.252 277.475C359.916 277.511 359.574 277.559 359.226 277.619C358.878 277.667 358.566 277.751 358.29 277.871C358.014 277.991 357.786 278.165 357.606 278.393C357.438 278.609 357.354 278.909 357.354 279.293C357.354 279.545 357.402 279.761 357.498 279.941C357.606 280.109 357.738 280.247 357.894 280.355C358.062 280.463 358.254 280.541 358.47 280.589C358.686 280.637 358.914 280.661 359.154 280.661C359.658 280.661 360.09 280.595 360.45 280.463C360.81 280.319 361.104 280.145 361.332 279.941C361.56 279.725 361.728 279.497 361.836 279.257C361.944 279.005 361.998 278.771 361.998 278.555V276.989ZM367.166 270.815V268.943H365.636V270.815H367.166ZM365.636 272.489V281.795H367.166V272.489H365.636ZM369.176 272.489V281.795H370.706V276.539C370.706 276.119 370.76 275.735 370.868 275.387C370.988 275.027 371.162 274.715 371.39 274.451C371.618 274.187 371.9 273.983 372.236 273.839C372.584 273.695 372.992 273.623 373.46 273.623C374.048 273.623 374.51 273.791 374.846 274.127C375.182 274.463 375.35 274.919 375.35 275.495V281.795H376.88V275.675C376.88 275.171 376.826 274.715 376.718 274.307C376.622 273.887 376.448 273.527 376.196 273.227C375.944 272.927 375.614 272.693 375.206 272.525C374.798 272.357 374.288 272.273 373.676 272.273C372.296 272.273 371.288 272.837 370.652 273.965H370.616V272.489H369.176ZM386.636 270.383V281.795H388.346V270.383H392.63V268.943H382.352V270.383H386.636ZM392.556 277.151C392.556 276.587 392.628 276.089 392.772 275.657C392.928 275.213 393.138 274.841 393.402 274.541C393.666 274.241 393.972 274.013 394.32 273.857C394.68 273.701 395.058 273.623 395.454 273.623C395.85 273.623 396.222 273.701 396.57 273.857C396.93 274.013 397.242 274.241 397.506 274.541C397.77 274.841 397.974 275.213 398.118 275.657C398.274 276.089 398.352 276.587 398.352 277.151C398.352 277.715 398.274 278.219 398.118 278.663C397.974 279.095 397.77 279.461 397.506 279.761C397.242 280.049 396.93 280.271 396.57 280.427C396.222 280.583 395.85 280.661 395.454 280.661C395.058 280.661 394.68 280.583 394.32 280.427C393.972 280.271 393.666 280.049 393.402 279.761C393.138 279.461 392.928 279.095 392.772 278.663C392.628 278.219 392.556 277.715 392.556 277.151ZM390.936 277.151C390.936 277.835 391.032 278.471 391.224 279.059C391.416 279.647 391.704 280.163 392.088 280.607C392.472 281.039 392.946 281.381 393.51 281.633C394.074 281.873 394.722 281.993 395.454 281.993C396.198 281.993 396.846 281.873 397.398 281.633C397.962 281.381 398.436 281.039 398.82 280.607C399.204 280.163 399.492 279.647 399.684 279.059C399.876 278.471 399.972 277.835 399.972 277.151C399.972 276.467 399.876 275.831 399.684 275.243C399.492 274.643 399.204 274.127 398.82 273.695C398.436 273.251 397.962 272.903 397.398 272.651C396.846 272.399 396.198 272.273 395.454 272.273C394.722 272.273 394.074 272.399 393.51 272.651C392.946 272.903 392.472 273.251 392.088 273.695C391.704 274.127 391.416 274.643 391.224 275.243C391.032 275.831 390.936 276.467 390.936 277.151ZM401.469 272.489V285.341H402.999V280.553H403.035C403.203 280.829 403.407 281.063 403.647 281.255C403.899 281.435 404.163 281.579 404.439 281.687C404.715 281.795 404.991 281.873 405.267 281.921C405.555 281.969 405.813 281.993 406.041 281.993C406.749 281.993 407.367 281.867 407.895 281.615C408.435 281.363 408.879 281.021 409.227 280.589C409.587 280.145 409.851 279.629 410.019 279.041C410.199 278.453 410.289 277.829 410.289 277.169C410.289 276.509 410.199 275.885 410.019 275.297C409.839 274.709 409.569 274.193 409.209 273.749C408.861 273.293 408.417 272.933 407.877 272.669C407.349 272.405 406.725 272.273 406.005 272.273C405.357 272.273 404.763 272.393 404.223 272.633C403.683 272.861 403.287 273.233 403.035 273.749H402.999V272.489H401.469ZM408.669 277.061C408.669 277.517 408.621 277.961 408.525 278.393C408.429 278.825 408.273 279.209 408.057 279.545C407.841 279.881 407.553 280.151 407.193 280.355C406.845 280.559 406.407 280.661 405.879 280.661C405.351 280.661 404.901 280.565 404.529 280.373C404.157 280.169 403.851 279.905 403.611 279.581C403.383 279.257 403.215 278.885 403.107 278.465C402.999 278.033 402.945 277.589 402.945 277.133C402.945 276.701 402.993 276.275 403.089 275.855C403.197 275.435 403.365 275.063 403.593 274.739C403.821 274.403 404.115 274.133 404.475 273.929C404.835 273.725 405.273 273.623 405.789 273.623C406.281 273.623 406.707 273.719 407.067 273.911C407.439 274.103 407.739 274.361 407.967 274.685C408.207 275.009 408.381 275.381 408.489 275.801C408.609 276.209 408.669 276.629 408.669 277.061ZM413.345 270.815V268.943H411.815V270.815H413.345ZM411.815 272.489V281.795H413.345V272.489H411.815ZM421.674 275.477H423.258C423.198 274.925 423.054 274.451 422.826 274.055C422.598 273.647 422.304 273.311 421.944 273.047C421.596 272.783 421.188 272.591 420.72 272.471C420.264 272.339 419.772 272.273 419.244 272.273C418.512 272.273 417.87 272.405 417.318 272.669C416.766 272.921 416.304 273.275 415.932 273.731C415.572 274.175 415.302 274.703 415.122 275.315C414.942 275.915 414.852 276.563 414.852 277.259C414.852 277.955 414.942 278.597 415.122 279.185C415.314 279.761 415.59 280.259 415.95 280.679C416.322 281.099 416.778 281.423 417.318 281.651C417.87 281.879 418.5 281.993 419.208 281.993C420.396 281.993 421.332 281.681 422.016 281.057C422.712 280.433 423.144 279.545 423.312 278.393H421.746C421.65 279.113 421.386 279.671 420.954 280.067C420.534 280.463 419.946 280.661 419.19 280.661C418.71 280.661 418.296 280.565 417.948 280.373C417.6 280.181 417.318 279.929 417.102 279.617C416.886 279.293 416.724 278.927 416.616 278.519C416.52 278.111 416.472 277.691 416.472 277.259C416.472 276.791 416.52 276.341 416.616 275.909C416.712 275.465 416.868 275.075 417.084 274.739C417.312 274.403 417.612 274.133 417.984 273.929C418.356 273.725 418.818 273.623 419.37 273.623C420.018 273.623 420.534 273.785 420.918 274.109C421.302 274.433 421.554 274.889 421.674 275.477Z" fill="black"/>
<circle cx="380.209" cy="365.35" r="19.35" fill="#C6C6C6"/>
<path d="M346.325 390.548V403.4H355.253V401.96H348.035V397.514H354.713V396.074H348.035V391.988H355.199V390.548H346.325ZM359.219 398.504L355.727 403.4H357.581L360.173 399.548L362.765 403.4H364.727L361.127 398.378L364.331 394.094H362.495L360.173 397.352L357.941 394.094H355.979L359.219 398.504ZM367.797 394.094V391.304H366.267V394.094H364.683V395.444H366.267V401.366C366.267 401.798 366.309 402.146 366.393 402.41C366.477 402.674 366.603 402.878 366.771 403.022C366.951 403.166 367.179 403.268 367.455 403.328C367.743 403.376 368.085 403.4 368.481 403.4H369.651V402.05H368.949C368.709 402.05 368.511 402.044 368.355 402.032C368.211 402.008 368.097 401.966 368.013 401.906C367.929 401.846 367.869 401.762 367.833 401.654C367.809 401.546 367.797 401.402 367.797 401.222V395.444H369.651V394.094H367.797ZM377.453 397.856H372.107C372.131 397.496 372.209 397.16 372.341 396.848C372.473 396.524 372.653 396.242 372.881 396.002C373.109 395.762 373.379 395.576 373.691 395.444C374.015 395.3 374.375 395.228 374.771 395.228C375.155 395.228 375.503 395.3 375.815 395.444C376.139 395.576 376.415 395.762 376.643 396.002C376.883 396.23 377.069 396.506 377.201 396.83C377.345 397.154 377.429 397.496 377.453 397.856ZM378.929 400.448H377.417C377.285 401.06 377.009 401.516 376.589 401.816C376.181 402.116 375.653 402.266 375.005 402.266C374.501 402.266 374.063 402.182 373.691 402.014C373.319 401.846 373.013 401.624 372.773 401.348C372.533 401.06 372.359 400.736 372.251 400.376C372.143 400.004 372.095 399.614 372.107 399.206H379.073C379.097 398.642 379.043 398.048 378.911 397.424C378.791 396.8 378.563 396.224 378.227 395.696C377.903 395.168 377.465 394.736 376.913 394.4C376.373 394.052 375.689 393.878 374.861 393.878C374.225 393.878 373.637 393.998 373.097 394.238C372.569 394.478 372.107 394.814 371.711 395.246C371.327 395.678 371.027 396.188 370.811 396.776C370.595 397.364 370.487 398.012 370.487 398.72C370.511 399.428 370.613 400.082 370.793 400.682C370.985 401.282 371.267 401.798 371.639 402.23C372.011 402.662 372.467 402.998 373.007 403.238C373.559 403.478 374.207 403.598 374.951 403.598C376.007 403.598 376.883 403.334 377.579 402.806C378.275 402.278 378.725 401.492 378.929 400.448ZM380.299 394.094V403.4H381.829V398.144C381.829 397.724 381.883 397.34 381.991 396.992C382.111 396.632 382.285 396.32 382.513 396.056C382.741 395.792 383.023 395.588 383.359 395.444C383.707 395.3 384.115 395.228 384.583 395.228C385.171 395.228 385.633 395.396 385.969 395.732C386.305 396.068 386.473 396.524 386.473 397.1V403.4H388.003V397.28C388.003 396.776 387.949 396.32 387.841 395.912C387.745 395.492 387.571 395.132 387.319 394.832C387.067 394.532 386.737 394.298 386.329 394.13C385.921 393.962 385.411 393.878 384.799 393.878C383.419 393.878 382.411 394.442 381.775 395.57H381.739V394.094H380.299ZM391.057 398.828C391.057 398.372 391.105 397.928 391.201 397.496C391.297 397.064 391.453 396.68 391.669 396.344C391.885 396.008 392.173 395.738 392.533 395.534C392.893 395.33 393.331 395.228 393.847 395.228C394.375 395.228 394.825 395.33 395.197 395.534C395.569 395.726 395.869 395.984 396.097 396.308C396.337 396.632 396.511 397.01 396.619 397.442C396.727 397.862 396.781 398.3 396.781 398.756C396.781 399.188 396.727 399.614 396.619 400.034C396.523 400.454 396.361 400.832 396.133 401.168C395.905 401.492 395.611 401.756 395.251 401.96C394.891 402.164 394.453 402.266 393.937 402.266C393.445 402.266 393.013 402.17 392.641 401.978C392.281 401.786 391.981 401.528 391.741 401.204C391.513 400.88 391.339 400.514 391.219 400.106C391.111 399.686 391.057 399.26 391.057 398.828ZM398.257 403.4V390.548H396.727V395.336H396.691C396.523 395.06 396.313 394.832 396.061 394.652C395.821 394.46 395.563 394.31 395.287 394.202C395.011 394.082 394.735 393.998 394.459 393.95C394.183 393.902 393.925 393.878 393.685 393.878C392.977 393.878 392.353 394.01 391.813 394.274C391.285 394.526 390.841 394.874 390.481 395.318C390.133 395.75 389.869 396.26 389.689 396.848C389.521 397.436 389.437 398.06 389.437 398.72C389.437 399.38 389.527 400.004 389.707 400.592C389.887 401.18 390.151 401.696 390.499 402.14C390.859 402.584 391.303 402.938 391.831 403.202C392.371 403.466 393.001 403.598 393.721 403.598C394.369 403.598 394.963 403.484 395.503 403.256C396.043 403.028 396.439 402.656 396.691 402.14H396.727V403.4H398.257ZM406.713 397.856H401.367C401.391 397.496 401.469 397.16 401.601 396.848C401.733 396.524 401.913 396.242 402.141 396.002C402.369 395.762 402.639 395.576 402.951 395.444C403.275 395.3 403.635 395.228 404.031 395.228C404.415 395.228 404.763 395.3 405.075 395.444C405.399 395.576 405.675 395.762 405.903 396.002C406.143 396.23 406.329 396.506 406.461 396.83C406.605 397.154 406.689 397.496 406.713 397.856ZM408.189 400.448H406.677C406.545 401.06 406.269 401.516 405.849 401.816C405.441 402.116 404.913 402.266 404.265 402.266C403.761 402.266 403.323 402.182 402.951 402.014C402.579 401.846 402.273 401.624 402.033 401.348C401.793 401.06 401.619 400.736 401.511 400.376C401.403 400.004 401.355 399.614 401.367 399.206H408.333C408.357 398.642 408.303 398.048 408.171 397.424C408.051 396.8 407.823 396.224 407.487 395.696C407.163 395.168 406.725 394.736 406.173 394.4C405.633 394.052 404.949 393.878 404.121 393.878C403.485 393.878 402.897 393.998 402.357 394.238C401.829 394.478 401.367 394.814 400.971 395.246C400.587 395.678 400.287 396.188 400.071 396.776C399.855 397.364 399.747 398.012 399.747 398.72C399.771 399.428 399.873 400.082 400.053 400.682C400.245 401.282 400.527 401.798 400.899 402.23C401.271 402.662 401.727 402.998 402.267 403.238C402.819 403.478 403.467 403.598 404.211 403.598C405.267 403.598 406.143 403.334 406.839 402.806C407.535 402.278 407.985 401.492 408.189 400.448ZM410.675 398.828C410.675 398.372 410.723 397.928 410.819 397.496C410.915 397.064 411.071 396.68 411.287 396.344C411.503 396.008 411.791 395.738 412.151 395.534C412.511 395.33 412.949 395.228 413.465 395.228C413.993 395.228 414.443 395.33 414.815 395.534C415.187 395.726 415.487 395.984 415.715 396.308C415.955 396.632 416.129 397.01 416.237 397.442C416.345 397.862 416.399 398.3 416.399 398.756C416.399 399.188 416.345 399.614 416.237 400.034C416.141 400.454 415.979 400.832 415.751 401.168C415.523 401.492 415.229 401.756 414.869 401.96C414.509 402.164 414.071 402.266 413.555 402.266C413.063 402.266 412.631 402.17 412.259 401.978C411.899 401.786 411.599 401.528 411.359 401.204C411.131 400.88 410.957 400.514 410.837 400.106C410.729 399.686 410.675 399.26 410.675 398.828ZM417.875 403.4V390.548H416.345V395.336H416.309C416.141 395.06 415.931 394.832 415.679 394.652C415.439 394.46 415.181 394.31 414.905 394.202C414.629 394.082 414.353 393.998 414.077 393.95C413.801 393.902 413.543 393.878 413.303 393.878C412.595 393.878 411.971 394.01 411.431 394.274C410.903 394.526 410.459 394.874 410.099 395.318C409.751 395.75 409.487 396.26 409.307 396.848C409.139 397.436 409.055 398.06 409.055 398.72C409.055 399.38 409.145 400.004 409.325 400.592C409.505 401.18 409.769 401.696 410.117 402.14C410.477 402.584 410.921 402.938 411.449 403.202C411.989 403.466 412.619 403.598 413.339 403.598C413.987 403.598 414.581 403.484 415.121 403.256C415.661 403.028 416.057 402.656 416.309 402.14H416.345V403.4H417.875ZM361.162 412.418H362.872C362.776 411.734 362.572 411.134 362.26 410.618C361.948 410.09 361.558 409.652 361.09 409.304C360.622 408.956 360.088 408.692 359.488 408.512C358.888 408.332 358.252 408.242 357.58 408.242C356.596 408.242 355.72 408.422 354.952 408.782C354.196 409.13 353.56 409.61 353.044 410.222C352.54 410.834 352.156 411.554 351.892 412.382C351.628 413.198 351.496 414.074 351.496 415.01C351.496 415.946 351.616 416.822 351.856 417.638C352.108 418.454 352.48 419.162 352.972 419.762C353.464 420.362 354.082 420.836 354.826 421.184C355.57 421.52 356.44 421.688 357.436 421.688C359.08 421.688 360.376 421.238 361.324 420.338C362.272 419.438 362.83 418.178 362.998 416.558H361.288C361.252 417.086 361.144 417.578 360.964 418.034C360.784 418.49 360.532 418.886 360.208 419.222C359.896 419.546 359.518 419.804 359.074 419.996C358.642 420.176 358.144 420.266 357.58 420.266C356.812 420.266 356.152 420.122 355.6 419.834C355.048 419.546 354.592 419.162 354.232 418.682C353.884 418.19 353.626 417.62 353.458 416.972C353.29 416.312 353.206 415.616 353.206 414.884C353.206 414.212 353.29 413.564 353.458 412.94C353.626 412.316 353.884 411.764 354.232 411.284C354.592 410.792 355.042 410.402 355.582 410.114C356.134 409.826 356.794 409.682 357.562 409.682C358.462 409.682 359.236 409.91 359.884 410.366C360.544 410.822 360.97 411.506 361.162 412.418ZM365.62 416.756C365.62 416.192 365.692 415.694 365.836 415.262C365.992 414.818 366.202 414.446 366.466 414.146C366.73 413.846 367.036 413.618 367.384 413.462C367.744 413.306 368.122 413.228 368.518 413.228C368.914 413.228 369.286 413.306 369.634 413.462C369.994 413.618 370.306 413.846 370.57 414.146C370.834 414.446 371.038 414.818 371.182 415.262C371.338 415.694 371.416 416.192 371.416 416.756C371.416 417.32 371.338 417.824 371.182 418.268C371.038 418.7 370.834 419.066 370.57 419.366C370.306 419.654 369.994 419.876 369.634 420.032C369.286 420.188 368.914 420.266 368.518 420.266C368.122 420.266 367.744 420.188 367.384 420.032C367.036 419.876 366.73 419.654 366.466 419.366C366.202 419.066 365.992 418.7 365.836 418.268C365.692 417.824 365.62 417.32 365.62 416.756ZM364 416.756C364 417.44 364.096 418.076 364.288 418.664C364.48 419.252 364.768 419.768 365.152 420.212C365.536 420.644 366.01 420.986 366.574 421.238C367.138 421.478 367.786 421.598 368.518 421.598C369.262 421.598 369.91 421.478 370.462 421.238C371.026 420.986 371.5 420.644 371.884 420.212C372.268 419.768 372.556 419.252 372.748 418.664C372.94 418.076 373.036 417.44 373.036 416.756C373.036 416.072 372.94 415.436 372.748 414.848C372.556 414.248 372.268 413.732 371.884 413.3C371.5 412.856 371.026 412.508 370.462 412.256C369.91 412.004 369.262 411.878 368.518 411.878C367.786 411.878 367.138 412.004 366.574 412.256C366.01 412.508 365.536 412.856 365.152 413.3C364.768 413.732 364.48 414.248 364.288 414.848C364.096 415.436 364 416.072 364 416.756ZM374.48 412.094V421.4H376.01V416.144C376.01 415.724 376.064 415.34 376.172 414.992C376.292 414.632 376.466 414.32 376.694 414.056C376.922 413.792 377.204 413.588 377.54 413.444C377.888 413.3 378.296 413.228 378.764 413.228C379.352 413.228 379.814 413.396 380.15 413.732C380.486 414.068 380.654 414.524 380.654 415.1V421.4H382.184V415.28C382.184 414.776 382.13 414.32 382.022 413.912C381.926 413.492 381.752 413.132 381.5 412.832C381.248 412.532 380.918 412.298 380.51 412.13C380.102 411.962 379.592 411.878 378.98 411.878C377.6 411.878 376.592 412.442 375.956 413.57H375.92V412.094H374.48ZM386.246 412.094V409.304H384.716V412.094H383.132V413.444H384.716V419.366C384.716 419.798 384.758 420.146 384.842 420.41C384.926 420.674 385.052 420.878 385.22 421.022C385.4 421.166 385.628 421.268 385.904 421.328C386.192 421.376 386.534 421.4 386.93 421.4H388.1V420.05H387.398C387.158 420.05 386.96 420.044 386.804 420.032C386.66 420.008 386.546 419.966 386.462 419.906C386.378 419.846 386.318 419.762 386.282 419.654C386.258 419.546 386.246 419.402 386.246 419.222V413.444H388.1V412.094H386.246ZM395.902 415.856H390.556C390.58 415.496 390.658 415.16 390.79 414.848C390.922 414.524 391.102 414.242 391.33 414.002C391.558 413.762 391.828 413.576 392.14 413.444C392.464 413.3 392.824 413.228 393.22 413.228C393.604 413.228 393.952 413.3 394.264 413.444C394.588 413.576 394.864 413.762 395.092 414.002C395.332 414.23 395.518 414.506 395.65 414.83C395.794 415.154 395.878 415.496 395.902 415.856ZM397.378 418.448H395.866C395.734 419.06 395.458 419.516 395.038 419.816C394.63 420.116 394.102 420.266 393.454 420.266C392.95 420.266 392.512 420.182 392.14 420.014C391.768 419.846 391.462 419.624 391.222 419.348C390.982 419.06 390.808 418.736 390.7 418.376C390.592 418.004 390.544 417.614 390.556 417.206H397.522C397.546 416.642 397.492 416.048 397.36 415.424C397.24 414.8 397.012 414.224 396.676 413.696C396.352 413.168 395.914 412.736 395.362 412.4C394.822 412.052 394.138 411.878 393.31 411.878C392.674 411.878 392.086 411.998 391.546 412.238C391.018 412.478 390.556 412.814 390.16 413.246C389.776 413.678 389.476 414.188 389.26 414.776C389.044 415.364 388.936 416.012 388.936 416.72C388.96 417.428 389.062 418.082 389.242 418.682C389.434 419.282 389.716 419.798 390.088 420.23C390.46 420.662 390.916 420.998 391.456 421.238C392.008 421.478 392.656 421.598 393.4 421.598C394.456 421.598 395.332 421.334 396.028 420.806C396.724 420.278 397.174 419.492 397.378 418.448ZM398.748 412.094V421.4H400.278V416.144C400.278 415.724 400.332 415.34 400.44 414.992C400.56 414.632 400.734 414.32 400.962 414.056C401.19 413.792 401.472 413.588 401.808 413.444C402.156 413.3 402.564 413.228 403.032 413.228C403.62 413.228 404.082 413.396 404.418 413.732C404.754 414.068 404.922 414.524 404.922 415.1V421.4H406.452V415.28C406.452 414.776 406.398 414.32 406.29 413.912C406.194 413.492 406.02 413.132 405.768 412.832C405.516 412.532 405.186 412.298 404.778 412.13C404.37 411.962 403.86 411.878 403.248 411.878C401.868 411.878 400.86 412.442 400.224 413.57H400.188V412.094H398.748ZM410.514 412.094V409.304H408.984V412.094H407.4V413.444H408.984V419.366C408.984 419.798 409.026 420.146 409.11 420.41C409.194 420.674 409.32 420.878 409.488 421.022C409.668 421.166 409.896 421.268 410.172 421.328C410.46 421.376 410.802 421.4 411.198 421.4H412.368V420.05H411.666C411.426 420.05 411.228 420.044 411.072 420.032C410.928 420.008 410.814 419.966 410.73 419.906C410.646 419.846 410.586 419.762 410.55 419.654C410.526 419.546 410.514 419.402 410.514 419.222V413.444H412.368V412.094H410.514Z" fill="black"/>
<circle cx="517.588" cy="243.745" r="19.35" fill="#C6C6C6"/>
<path d="M499.627 275.369C499.627 274.721 499.711 274.085 499.879 273.461C500.047 272.825 500.311 272.255 500.671 271.751C501.031 271.247 501.493 270.845 502.057 270.545C502.621 270.233 503.293 270.077 504.073 270.077C504.853 270.077 505.525 270.233 506.089 270.545C506.653 270.845 507.115 271.247 507.475 271.751C507.835 272.255 508.099 272.825 508.267 273.461C508.435 274.085 508.519 274.721 508.519 275.369C508.519 276.017 508.435 276.659 508.267 277.295C508.099 277.919 507.835 278.483 507.475 278.987C507.115 279.491 506.653 279.899 506.089 280.211C505.525 280.511 504.853 280.661 504.073 280.661C503.293 280.661 502.621 280.511 502.057 280.211C501.493 279.899 501.031 279.491 500.671 278.987C500.311 278.483 500.047 277.919 499.879 277.295C499.711 276.659 499.627 276.017 499.627 275.369ZM497.917 275.369C497.917 276.245 498.043 277.091 498.295 277.907C498.559 278.711 498.949 279.425 499.465 280.049C499.981 280.673 500.623 281.171 501.391 281.543C502.159 281.903 503.053 282.083 504.073 282.083C505.093 282.083 505.987 281.903 506.755 281.543C507.523 281.171 508.165 280.673 508.681 280.049C509.197 279.425 509.581 278.711 509.833 277.907C510.097 277.091 510.229 276.245 510.229 275.369C510.229 274.493 510.097 273.653 509.833 272.849C509.581 272.033 509.197 271.313 508.681 270.689C508.165 270.065 507.523 269.567 506.755 269.195C505.987 268.823 505.093 268.637 504.073 268.637C503.053 268.637 502.159 268.823 501.391 269.195C500.623 269.567 499.981 270.065 499.465 270.689C498.949 271.313 498.559 272.033 498.295 272.849C498.043 273.653 497.917 274.493 497.917 275.369ZM519.405 281.795V272.489H517.875V277.745C517.875 278.165 517.815 278.555 517.695 278.915C517.587 279.263 517.419 279.569 517.191 279.833C516.963 280.097 516.675 280.301 516.327 280.445C515.991 280.589 515.589 280.661 515.121 280.661C514.533 280.661 514.071 280.493 513.735 280.157C513.399 279.821 513.231 279.365 513.231 278.789V272.489H511.701V278.609C511.701 279.113 511.749 279.575 511.845 279.995C511.953 280.403 512.133 280.757 512.385 281.057C512.637 281.357 512.967 281.591 513.375 281.759C513.783 281.915 514.293 281.993 514.905 281.993C515.589 281.993 516.183 281.861 516.687 281.597C517.191 281.321 517.605 280.895 517.929 280.319H517.965V281.795H519.405ZM523.467 272.489V269.699H521.937V272.489H520.353V273.839H521.937V279.761C521.937 280.193 521.979 280.541 522.063 280.805C522.147 281.069 522.273 281.273 522.441 281.417C522.621 281.561 522.849 281.663 523.125 281.723C523.413 281.771 523.755 281.795 524.151 281.795H525.321V280.445H524.619C524.379 280.445 524.181 280.439 524.025 280.427C523.881 280.403 523.767 280.361 523.683 280.301C523.599 280.241 523.539 280.157 523.503 280.049C523.479 279.941 523.467 279.797 523.467 279.617V273.839H525.321V272.489H523.467ZM526.607 272.489V281.795H528.137V277.655C528.137 277.055 528.197 276.527 528.317 276.071C528.437 275.603 528.629 275.207 528.893 274.883C529.157 274.559 529.505 274.313 529.937 274.145C530.369 273.977 530.891 273.893 531.503 273.893V272.273C530.675 272.249 529.991 272.417 529.451 272.777C528.911 273.137 528.455 273.695 528.083 274.451H528.047V272.489H526.607ZM533.094 277.151C533.094 276.587 533.166 276.089 533.31 275.657C533.466 275.213 533.676 274.841 533.94 274.541C534.204 274.241 534.51 274.013 534.858 273.857C535.218 273.701 535.596 273.623 535.992 273.623C536.388 273.623 536.76 273.701 537.108 273.857C537.468 274.013 537.78 274.241 538.044 274.541C538.308 274.841 538.512 275.213 538.656 275.657C538.812 276.089 538.89 276.587 538.89 277.151C538.89 277.715 538.812 278.219 538.656 278.663C538.512 279.095 538.308 279.461 538.044 279.761C537.78 280.049 537.468 280.271 537.108 280.427C536.76 280.583 536.388 280.661 535.992 280.661C535.596 280.661 535.218 280.583 534.858 280.427C534.51 280.271 534.204 280.049 533.94 279.761C533.676 279.461 533.466 279.095 533.31 278.663C533.166 278.219 533.094 277.715 533.094 277.151ZM531.474 277.151C531.474 277.835 531.57 278.471 531.762 279.059C531.954 279.647 532.242 280.163 532.626 280.607C533.01 281.039 533.484 281.381 534.048 281.633C534.612 281.873 535.26 281.993 535.992 281.993C536.736 281.993 537.384 281.873 537.936 281.633C538.5 281.381 538.974 281.039 539.358 280.607C539.742 280.163 540.03 279.647 540.222 279.059C540.414 278.471 540.51 277.835 540.51 277.151C540.51 276.467 540.414 275.831 540.222 275.243C540.03 274.643 539.742 274.127 539.358 273.695C538.974 273.251 538.5 272.903 537.936 272.651C537.384 272.399 536.736 272.273 535.992 272.273C535.26 272.273 534.612 272.399 534.048 272.651C533.484 272.903 533.01 273.251 532.626 273.695C532.242 274.127 531.954 274.643 531.762 275.243C531.57 275.831 531.474 276.467 531.474 277.151Z" fill="black"/>
<circle cx="109.08" cy="243.745" r="19.35" fill="#ADFF00"/>
<path d="M81.5381 275.099V270.383H84.8861C85.8581 270.383 86.5661 270.587 87.0101 270.995C87.4661 271.391 87.6941 271.973 87.6941 272.741C87.6941 273.509 87.4661 274.097 87.0101 274.505C86.5661 274.913 85.8581 275.111 84.8861 275.099H81.5381ZM79.8281 268.943V281.795H81.5381V276.539H85.4621C86.7581 276.551 87.7361 276.221 88.3961 275.549C89.0681 274.877 89.4041 273.941 89.4041 272.741C89.4041 271.541 89.0681 270.611 88.3961 269.951C87.7361 269.279 86.7581 268.943 85.4621 268.943H79.8281ZM92.004 277.151C92.004 276.587 92.076 276.089 92.22 275.657C92.376 275.213 92.586 274.841 92.85 274.541C93.114 274.241 93.42 274.013 93.768 273.857C94.128 273.701 94.506 273.623 94.902 273.623C95.298 273.623 95.67 273.701 96.018 273.857C96.378 274.013 96.69 274.241 96.954 274.541C97.218 274.841 97.422 275.213 97.566 275.657C97.722 276.089 97.8 276.587 97.8 277.151C97.8 277.715 97.722 278.219 97.566 278.663C97.422 279.095 97.218 279.461 96.954 279.761C96.69 280.049 96.378 280.271 96.018 280.427C95.67 280.583 95.298 280.661 94.902 280.661C94.506 280.661 94.128 280.583 93.768 280.427C93.42 280.271 93.114 280.049 92.85 279.761C92.586 279.461 92.376 279.095 92.22 278.663C92.076 278.219 92.004 277.715 92.004 277.151ZM90.384 277.151C90.384 277.835 90.48 278.471 90.672 279.059C90.864 279.647 91.152 280.163 91.536 280.607C91.92 281.039 92.394 281.381 92.958 281.633C93.522 281.873 94.17 281.993 94.902 281.993C95.646 281.993 96.294 281.873 96.846 281.633C97.41 281.381 97.884 281.039 98.268 280.607C98.652 280.163 98.94 279.647 99.132 279.059C99.324 278.471 99.42 277.835 99.42 277.151C99.42 276.467 99.324 275.831 99.132 275.243C98.94 274.643 98.652 274.127 98.268 273.695C97.884 273.251 97.41 272.903 96.846 272.651C96.294 272.399 95.646 272.273 94.902 272.273C94.17 272.273 93.522 272.399 92.958 272.651C92.394 272.903 91.92 273.251 91.536 273.695C91.152 274.127 90.864 274.643 90.672 275.243C90.48 275.831 90.384 276.467 90.384 277.151ZM101.98 277.223C101.98 276.767 102.028 276.323 102.124 275.891C102.22 275.459 102.376 275.075 102.592 274.739C102.808 274.403 103.096 274.133 103.456 273.929C103.816 273.725 104.254 273.623 104.77 273.623C105.298 273.623 105.748 273.725 106.12 273.929C106.492 274.121 106.792 274.379 107.02 274.703C107.26 275.027 107.434 275.405 107.542 275.837C107.65 276.257 107.704 276.695 107.704 277.151C107.704 277.583 107.65 278.009 107.542 278.429C107.446 278.849 107.284 279.227 107.056 279.563C106.828 279.887 106.534 280.151 106.174 280.355C105.814 280.559 105.376 280.661 104.86 280.661C104.368 280.661 103.936 280.565 103.564 280.373C103.204 280.181 102.904 279.923 102.664 279.599C102.436 279.275 102.262 278.909 102.142 278.501C102.034 278.081 101.98 277.655 101.98 277.223ZM109.18 281.795V268.943H107.65V273.731H107.614C107.446 273.455 107.236 273.227 106.984 273.047C106.744 272.855 106.486 272.705 106.21 272.597C105.934 272.477 105.658 272.393 105.382 272.345C105.106 272.297 104.848 272.273 104.608 272.273C103.9 272.273 103.276 272.405 102.736 272.669C102.208 272.921 101.764 273.269 101.404 273.713C101.056 274.145 100.792 274.655 100.612 275.243C100.444 275.831 100.36 276.455 100.36 277.115C100.36 277.775 100.45 278.399 100.63 278.987C100.81 279.575 101.074 280.091 101.422 280.535C101.782 280.979 102.226 281.333 102.754 281.597C103.294 281.861 103.924 281.993 104.644 281.993C105.292 281.993 105.886 281.879 106.426 281.651C106.966 281.423 107.362 281.051 107.614 280.535H107.65V281.795H109.18ZM117.492 275.477H119.076C119.016 274.925 118.872 274.451 118.644 274.055C118.416 273.647 118.122 273.311 117.762 273.047C117.414 272.783 117.006 272.591 116.538 272.471C116.082 272.339 115.59 272.273 115.062 272.273C114.33 272.273 113.688 272.405 113.136 272.669C112.584 272.921 112.122 273.275 111.75 273.731C111.39 274.175 111.12 274.703 110.94 275.315C110.76 275.915 110.67 276.563 110.67 277.259C110.67 277.955 110.76 278.597 110.94 279.185C111.132 279.761 111.408 280.259 111.768 280.679C112.14 281.099 112.596 281.423 113.136 281.651C113.688 281.879 114.318 281.993 115.026 281.993C116.214 281.993 117.15 281.681 117.834 281.057C118.53 280.433 118.962 279.545 119.13 278.393H117.564C117.468 279.113 117.204 279.671 116.772 280.067C116.352 280.463 115.764 280.661 115.008 280.661C114.528 280.661 114.114 280.565 113.766 280.373C113.418 280.181 113.136 279.929 112.92 279.617C112.704 279.293 112.542 278.927 112.434 278.519C112.338 278.111 112.29 277.691 112.29 277.259C112.29 276.791 112.338 276.341 112.434 275.909C112.53 275.465 112.686 275.075 112.902 274.739C113.13 274.403 113.43 274.133 113.802 273.929C114.174 273.725 114.636 273.623 115.188 273.623C115.836 273.623 116.352 273.785 116.736 274.109C117.12 274.433 117.372 274.889 117.492 275.477ZM128.726 281.759C128.462 281.915 128.096 281.993 127.628 281.993C127.232 281.993 126.914 281.885 126.674 281.669C126.446 281.441 126.332 281.075 126.332 280.571C125.912 281.075 125.42 281.441 124.856 281.669C124.304 281.885 123.704 281.993 123.056 281.993C122.636 281.993 122.234 281.945 121.85 281.849C121.478 281.753 121.154 281.603 120.878 281.399C120.602 281.195 120.38 280.931 120.212 280.607C120.056 280.271 119.978 279.869 119.978 279.401C119.978 278.873 120.068 278.441 120.248 278.105C120.428 277.769 120.662 277.499 120.95 277.295C121.25 277.079 121.586 276.917 121.958 276.809C122.342 276.701 122.732 276.611 123.128 276.539C123.548 276.455 123.944 276.395 124.316 276.359C124.7 276.311 125.036 276.251 125.324 276.179C125.612 276.095 125.84 275.981 126.008 275.837C126.176 275.681 126.26 275.459 126.26 275.171C126.26 274.835 126.194 274.565 126.062 274.361C125.942 274.157 125.78 274.001 125.576 273.893C125.384 273.785 125.162 273.713 124.91 273.677C124.67 273.641 124.43 273.623 124.19 273.623C123.542 273.623 123.002 273.749 122.57 274.001C122.138 274.241 121.904 274.703 121.868 275.387H120.338C120.362 274.811 120.482 274.325 120.698 273.929C120.914 273.533 121.202 273.215 121.562 272.975C121.922 272.723 122.33 272.543 122.786 272.435C123.254 272.327 123.752 272.273 124.28 272.273C124.7 272.273 125.114 272.303 125.522 272.363C125.942 272.423 126.32 272.549 126.656 272.741C126.992 272.921 127.262 273.179 127.466 273.515C127.67 273.851 127.772 274.289 127.772 274.829V279.617C127.772 279.977 127.79 280.241 127.826 280.409C127.874 280.577 128.018 280.661 128.258 280.661C128.39 280.661 128.546 280.631 128.726 280.571V281.759ZM126.242 276.989C126.05 277.133 125.798 277.241 125.486 277.313C125.174 277.373 124.844 277.427 124.496 277.475C124.16 277.511 123.818 277.559 123.47 277.619C123.122 277.667 122.81 277.751 122.534 277.871C122.258 277.991 122.03 278.165 121.85 278.393C121.682 278.609 121.598 278.909 121.598 279.293C121.598 279.545 121.646 279.761 121.742 279.941C121.85 280.109 121.982 280.247 122.138 280.355C122.306 280.463 122.498 280.541 122.714 280.589C122.93 280.637 123.158 280.661 123.398 280.661C123.902 280.661 124.334 280.595 124.694 280.463C125.054 280.319 125.348 280.145 125.576 279.941C125.804 279.725 125.972 279.497 126.08 279.257C126.188 279.005 126.242 278.771 126.242 278.555V276.989ZM130.726 278.861H129.196C129.22 279.437 129.34 279.929 129.556 280.337C129.772 280.733 130.06 281.057 130.42 281.309C130.78 281.549 131.194 281.723 131.662 281.831C132.13 281.939 132.622 281.993 133.138 281.993C133.606 281.993 134.074 281.945 134.542 281.849C135.022 281.765 135.448 281.609 135.82 281.381C136.204 281.153 136.51 280.853 136.738 280.481C136.978 280.109 137.098 279.641 137.098 279.077C137.098 278.633 137.008 278.261 136.828 277.961C136.66 277.661 136.432 277.415 136.144 277.223C135.868 277.019 135.544 276.857 135.172 276.737C134.812 276.617 134.44 276.515 134.056 276.431C133.696 276.347 133.336 276.269 132.976 276.197C132.616 276.113 132.292 276.017 132.004 275.909C131.716 275.789 131.476 275.645 131.284 275.477C131.104 275.297 131.014 275.075 131.014 274.811C131.014 274.571 131.074 274.379 131.194 274.235C131.314 274.079 131.47 273.959 131.662 273.875C131.854 273.779 132.064 273.713 132.292 273.677C132.532 273.641 132.766 273.623 132.994 273.623C133.246 273.623 133.492 273.653 133.732 273.713C133.984 273.761 134.212 273.845 134.416 273.965C134.62 274.085 134.788 274.247 134.92 274.451C135.052 274.643 135.13 274.889 135.154 275.189H136.684C136.648 274.625 136.528 274.157 136.324 273.785C136.12 273.401 135.844 273.101 135.496 272.885C135.16 272.657 134.77 272.501 134.326 272.417C133.882 272.321 133.396 272.273 132.868 272.273C132.46 272.273 132.046 272.327 131.626 272.435C131.218 272.531 130.846 272.687 130.51 272.903C130.186 273.107 129.916 273.377 129.7 273.713C129.496 274.049 129.394 274.451 129.394 274.919C129.394 275.519 129.544 275.987 129.844 276.323C130.144 276.659 130.516 276.923 130.96 277.115C131.416 277.295 131.908 277.439 132.436 277.547C132.964 277.643 133.45 277.757 133.894 277.889C134.35 278.009 134.728 278.171 135.028 278.375C135.328 278.579 135.478 278.879 135.478 279.275C135.478 279.563 135.406 279.803 135.262 279.995C135.118 280.175 134.932 280.313 134.704 280.409C134.488 280.505 134.248 280.571 133.984 280.607C133.72 280.643 133.468 280.661 133.228 280.661C132.916 280.661 132.61 280.631 132.31 280.571C132.022 280.511 131.758 280.415 131.518 280.283C131.29 280.139 131.104 279.953 130.96 279.725C130.816 279.485 130.738 279.197 130.726 278.861ZM140.554 272.489V269.699H139.024V272.489H137.44V273.839H139.024V279.761C139.024 280.193 139.066 280.541 139.15 280.805C139.234 281.069 139.36 281.273 139.528 281.417C139.708 281.561 139.936 281.663 140.212 281.723C140.5 281.771 140.842 281.795 141.238 281.795H142.408V280.445H141.706C141.466 280.445 141.268 280.439 141.112 280.427C140.968 280.403 140.854 280.361 140.77 280.301C140.686 280.241 140.626 280.157 140.59 280.049C140.566 279.941 140.554 279.797 140.554 279.617V273.839H142.408V272.489H140.554Z" fill="black"/>
</svg>
