<?xml version="1.0" encoding="UTF-8"?><svg id="Layer_1" xmlns="http://www.w3.org/2000/svg" viewBox="0 0 276.68 119.41"><path d="m12.54,85.06h-1.51c-.18,0-.26-.08-.26-.26v-5.36c0-2.47.1-4.71.23-6.03l-.1-.03c-.1.39-.39,1.25-.65,1.82l-3.28,7.31c-.05.1-.13.16-.23.16h-.7c-.1,0-.18-.05-.23-.16l-3.25-7.31c-.23-.52-.52-1.3-.65-1.82l-.1.03c.16,1.38.23,3.51.23,6.03v5.36c0,.18-.08.26-.26.26H.27c-.18,0-.26-.08-.26-.26v-15.86c0-.18.08-.26.26-.26h1.43c.1,0,.18.05.23.16l4.08,9.59c.08.16.29.83.34,1.04h.08c.05-.21.29-.86.36-1.04l4.08-9.59c.05-.1.13-.16.23-.16h1.43c.18,0,.26.08.26.26v15.86c0,.18-.08.26-.26.26Z"/><path d="m25.83,79.5h-6.63c-.18,0-.26.08-.26.26v1.22c0,1.38,1.14,2.55,2.55,2.55.88,0,1.77-.52,2.31-1.48.08-.13.21-.18.34-.1l1.38.7c.16.08.18.18.1.34-.23.42-.49.83-.86,1.17-.7.7-1.72,1.17-3.28,1.17-2.81,0-4.6-1.77-4.6-4.34v-3.46c0-2.47,1.79-4.32,4.6-4.32s4.6,1.82,4.6,4.32v1.72c0,.18-.08.26-.26.26Zm-1.79-2.11c0-1.33-1.07-2.42-2.55-2.42-1.61,0-2.55,1.14-2.55,2.55v.29c0,.13.13.16.26.16h4.58c.18,0,.26-.08.26-.26v-.31Z"/><path d="m37.95,85.06h-1.25c-.18,0-.26-.08-.26-.26v-.73c0-.29-.26-.39-.47-.18-.78.83-1.72,1.17-2.37,1.17-2.81,0-4.6-1.79-4.6-4.34v-2.94c0-2.55,1.9-4.32,4.34-4.32.78,0,1.69.31,2.37,1.12.18.23.44.13.44-.18v-5.46c0-.18.08-.26.26-.26h1.53c.18,0,.26.08.26.26v15.86c0,.18-.08.26-.26.26Zm-1.79-7.28c0-1.38-1.14-2.55-2.55-2.55s-2.55,1.14-2.55,2.55v2.94c0,1.38,1.14,2.55,2.55,2.55s2.55-1.14,2.55-2.55v-2.94Z"/><path d="m43.43,71c-.73,0-1.27-.57-1.27-1.3s.57-1.27,1.27-1.27,1.3.55,1.3,1.27-.57,1.3-1.3,1.3Zm.78,14.07h-1.53c-.18,0-.26-.08-.26-.26v-11.08c0-.18.08-.26.26-.26h1.53c.18,0,.26.08.26.26v11.08c0,.18-.08.26-.26.26Z"/><path d="m57.24,79.5h-6.63c-.18,0-.26.08-.26.26v1.22c0,1.38,1.14,2.55,2.55,2.55.88,0,1.77-.52,2.31-1.48.08-.13.21-.18.34-.1l1.38.7c.16.08.18.18.1.34-.23.42-.49.83-.86,1.17-.7.7-1.72,1.17-3.28,1.17-2.81,0-4.6-1.77-4.6-4.34v-3.46c0-2.47,1.79-4.32,4.6-4.32s4.6,1.82,4.6,4.32v1.72c0,.18-.08.26-.26.26Zm-1.79-2.11c0-1.33-1.07-2.42-2.55-2.42-1.61,0-2.55,1.14-2.55,2.55v.29c0,.13.13.16.26.16h4.58c.18,0,.26-.08.26-.26v-.31Z"/><path d="m70.29,85.06h-1.53c-.18,0-.26-.08-.26-.26v-7.02c0-1.38-1.17-2.55-2.57-2.55s-2.55,1.14-2.55,2.55v7.02c0,.18-.08.26-.26.26h-1.53c-.18,0-.26-.08-.26-.26v-11.08c0-.18.08-.26.26-.26h1.27c.18,0,.26.08.26.26v.68c0,.29.26.42.44.18.7-.83,1.56-1.12,2.37-1.12,2.81,0,4.63,1.77,4.63,4.32v7.02c0,.18-.08.26-.26.26Z"/><path d="m75.65,71c-.73,0-1.27-.57-1.27-1.3s.57-1.27,1.27-1.27,1.3.55,1.3,1.27-.57,1.3-1.3,1.3Zm.78,14.07h-1.53c-.18,0-.26-.08-.26-.26v-11.08c0-.18.08-.26.26-.26h1.53c.18,0,.26.08.26.26v11.08c0,.18-.08.26-.26.26Z"/><path d="m89.87,85.06h-1.53c-.18,0-.26-.08-.26-.26v-7.02c0-1.38-1.17-2.55-2.57-2.55s-2.55,1.14-2.55,2.55v7.02c0,.18-.08.26-.26.26h-1.53c-.18,0-.26-.08-.26-.26v-11.08c0-.18.08-.26.26-.26h1.27c.18,0,.26.08.26.26v.68c0,.29.26.42.44.18.7-.83,1.56-1.12,2.37-1.12,2.81,0,4.63,1.77,4.63,4.32v7.02c0,.18-.08.26-.26.26Z"/><path d="m103.18,85.06h-1.53c-.18,0-.26-.08-.26-.26v-7.02c0-1.38-1.17-2.55-2.57-2.55s-2.55,1.14-2.55,2.55v7.02c0,.18-.08.26-.26.26h-1.53c-.18,0-.26-.08-.26-.26v-11.08c0-.18.08-.26.26-.26h1.27c.18,0,.26.08.26.26v.68c0,.29.26.42.44.18.7-.83,1.56-1.12,2.37-1.12,2.81,0,4.63,1.77,4.63,4.32v7.02c0,.18-.08.26-.26.26Z"/><path d="m111.73,85.32c-2.76,0-4.6-1.82-4.6-4.32v-3.48c0-2.47,1.79-4.32,4.6-4.32s4.6,1.82,4.6,4.32v3.48c0,2.47-1.79,4.32-4.6,4.32Zm2.55-7.93c0-1.33-1.07-2.42-2.55-2.42-1.61,0-2.55,1.14-2.55,2.55v3.61c0,1.33,1.07,2.42,2.55,2.42,1.61,0,2.55-1.14,2.55-2.55v-3.62Z"/><path d="m124.81,84.91c-.05.1-.13.16-.23.16h-1.25c-.1,0-.18-.05-.23-.16l-4.5-11.08c-.1-.23,0-.36.23-.36h1.61c.1,0,.18.05.23.16l2.94,7.44c.05.13.26.78.29,1.01h.1c.03-.23.23-.88.29-1.01l2.91-7.44c.05-.1.13-.16.23-.16h1.61c.23,0,.34.13.23.36l-4.47,11.08Z"/><path d="m139.94,85.06h-1.25c-.18,0-.26-.08-.26-.26v-.73c0-.29-.26-.42-.47-.21-.75.75-1.66,1.2-2.26,1.2h-1.01c-1.87,0-3.38-1.25-3.38-3.15v-.16c0-1.9,1.51-3.12,3.38-3.12h3.2c.18,0,.26-.08.26-.26v-.88c0-1.4-1.14-2.5-2.57-2.5-.86,0-1.72.44-2.29,1.43-.08.13-.21.18-.36.1l-1.33-.7c-.16-.08-.21-.21-.1-.36.29-.47.62-.91,1.07-1.25.73-.6,1.72-.99,3.02-.99,2.81,0,4.63,1.69,4.63,4.26v7.31c0,.18-.08.26-.26.26Zm-1.79-4.65c0-.18-.08-.26-.26-.26h-3.2c-.75,0-1.35.6-1.35,1.35v.42c0,.73.6,1.35,1.35,1.35h1.01c1.12,0,2.13-1.01,2.44-2.05v-.81Z"/><path d="m148.73,85.3c-1.07-.1-1.95-.47-2.63-.99-.96-.78-1.51-1.92-1.51-3.33v-5.49c0-.18-.08-.26-.26-.26h-1.46c-.18,0-.26-.08-.26-.26v-.7l2.96-3.12s.13-.08.18-.08h.62c.18,0,.26.08.26.26v1.87c0,.18.08.26.26.26h1.85c.18,0,.26.08.26.26v1.25c0,.18-.08.26-.26.26h-1.85c-.18,0-.26.08-.26.26v5.49c0,1.2.83,2.24,2.16,2.5.13.03.21.1.21.26v1.3c0,.18-.1.29-.29.26Z"/><path d="m153.54,71c-.73,0-1.27-.57-1.27-1.3s.57-1.27,1.27-1.27,1.3.55,1.3,1.27-.57,1.3-1.3,1.3Zm.78,14.07h-1.53c-.18,0-.26-.08-.26-.26v-11.08c0-.18.08-.26.26-.26h1.53c.18,0,.26.08.26.26v11.08c0,.18-.08.26-.26.26Z"/><path d="m163,85.32c-2.76,0-4.6-1.82-4.6-4.32v-3.48c0-2.47,1.79-4.32,4.6-4.32s4.6,1.82,4.6,4.32v3.48c0,2.47-1.79,4.32-4.6,4.32Zm2.55-7.93c0-1.33-1.07-2.42-2.55-2.42-1.61,0-2.55,1.14-2.55,2.55v3.61c0,1.33,1.07,2.42,2.55,2.42,1.61,0,2.55-1.14,2.55-2.55v-3.62Z"/><path d="m179.88,85.06h-1.53c-.18,0-.26-.08-.26-.26v-7.02c0-1.38-1.17-2.55-2.57-2.55s-2.55,1.14-2.55,2.55v7.02c0,.18-.08.26-.26.26h-1.53c-.18,0-.26-.08-.26-.26v-11.08c0-.18.08-.26.26-.26h1.27c.18,0,.26.08.26.26v.68c0,.29.26.42.44.18.7-.83,1.56-1.12,2.37-1.12,2.81,0,4.63,1.77,4.63,4.32v7.02c0,.18-.08.26-.26.26Z"/><path d="m188.43,85.32h-.78c-1.46,0-2.42-.42-3.09-1.01-.44-.36-.75-.83-.99-1.27-.08-.16-.03-.26.13-.34l1.25-.62c.16-.08.26-.03.34.1.47.86,1.4,1.46,2.37,1.46h.78c1.46,0,2.18-.83,2.18-1.79,0-1.27-1.69-1.46-3.51-1.82-1.72-.34-3.56-1.09-3.56-3.28,0-2.37,1.77-3.54,4.11-3.54h.78c1.35,0,2.31.36,2.99.91.49.39.83.86,1.09,1.33.08.16.03.29-.13.36l-1.25.62c-.13.08-.26.03-.34-.1-.52-.86-1.35-1.43-2.37-1.43h-.78c-1.51,0-2.11.73-2.11,1.59,0,1.43,1.69,1.56,3.46,1.92,1.98.42,3.64,1.07,3.64,3.17s-1.43,3.74-4.21,3.74Z"/><path d="m204.11,85.06h-8.76c-.26,0-.36-.16-.23-.39l5.41-9.02c.13-.23.03-.39-.23-.39h-4.84c-.18,0-.26-.08-.26-.26v-1.25c0-.18.08-.26.26-.26h8.24c.26,0,.36.16.23.39l-5.43,9c-.13.23-.03.39.23.39h5.38c.18,0,.26.08.26.26v1.27c0,.18-.08.26-.26.26Z"/><path d="m216.1,79.5h-6.63c-.18,0-.26.08-.26.26v1.22c0,1.38,1.14,2.55,2.55,2.55.88,0,1.77-.52,2.31-1.48.08-.13.21-.18.34-.1l1.38.7c.16.08.18.18.1.34-.23.42-.49.83-.86,1.17-.7.7-1.72,1.17-3.28,1.17-2.81,0-4.6-1.77-4.6-4.34v-3.46c0-2.47,1.79-4.32,4.6-4.32s4.6,1.82,4.6,4.32v1.72c0,.18-.08.26-.26.26Zm-1.79-2.11c0-1.33-1.07-2.42-2.55-2.42-1.61,0-2.55,1.14-2.55,2.55v.29c0,.13.13.16.26.16h4.58c.18,0,.26-.08.26-.26v-.31Z"/><path d="m228.63,85.06h-1.53c-.18,0-.26-.08-.26-.26v-7.02c0-1.38-1.17-2.55-2.57-2.55s-2.55,1.14-2.55,2.55v7.02c0,.18-.08.26-.26.26h-1.53c-.18,0-.26-.08-.26-.26v-11.08c0-.18.08-.26.26-.26h1.27c.18,0,.26.08.26.26v.68c0,.29.26.42.44.18.7-.83,1.56-1.12,2.37-1.12,2.81,0,4.63,1.77,4.63,4.32v7.02c0,.18-.08.26-.26.26Z"/><path d="m237.41,85.3c-1.07-.1-1.95-.47-2.63-.99-.96-.78-1.51-1.92-1.51-3.33v-5.49c0-.18-.08-.26-.26-.26h-1.46c-.18,0-.26-.08-.26-.26v-.7l2.96-3.12s.13-.08.18-.08h.62c.18,0,.26.08.26.26v1.87c0,.18.08.26.26.26h1.85c.18,0,.26.08.26.26v1.25c0,.18-.08.26-.26.26h-1.85c-.18,0-.26.08-.26.26v5.49c0,1.2.83,2.24,2.16,2.5.13.03.21.1.21.26v1.3c0,.18-.1.29-.29.26Z"/><path d="m246.28,75.62c-.13-.05-.31-.08-.47-.08-1.43,0-2.55.96-2.55,2.5v6.76c0,.18-.08.26-.26.26h-1.53c-.18,0-.26-.08-.26-.26v-11.08c0-.18.08-.26.26-.26h1.27c.18,0,.26.08.26.26v1.07c0,.29.26.42.44.18.68-.96,1.56-1.51,2.37-1.51h.57c.18,0,.23.1.23.29v1.64c0,.21-.13.31-.34.23Z"/><path d="m257.93,85.06h-1.25c-.18,0-.26-.08-.26-.26v-.73c0-.29-.29-.42-.47-.18-.68.83-1.56,1.17-2.37,1.17-2.81,0-4.6-1.79-4.6-4.34v-6.99c0-.18.08-.26.26-.26h1.53c.18,0,.26.08.26.26v6.99c0,1.38,1.14,2.55,2.55,2.55s2.57-1.12,2.57-2.55v-6.99c0-.18.08-.26.26-.26h1.51c.18,0,.26.08.26.26v11.08c0,.18-.08.26-.26.26Z"/><path d="m276.41,85.06h-1.53c-.18,0-.26-.08-.26-.26v-7.02c0-1.4-1.2-2.55-2.29-2.55-1.01,0-2.29,1.12-2.29,2.55v7.02c0,.18-.08.26-.26.26h-1.53c-.18,0-.26-.08-.26-.26v-7.02c0-1.4-1.2-2.55-2.29-2.55s-2.29,1.12-2.29,2.55v7.02c0,.18-.08.26-.26.26h-1.53c-.18,0-.26-.08-.26-.26v-11.08c0-.18.08-.26.26-.26h1.27c.18,0,.26.08.26.26v.68c0,.29.21.42.42.21.73-.81,1.61-1.14,2.39-1.14.94,0,2.11.39,2.86,1.35.13.18.29.16.42,0,.83-.94,1.92-1.35,3.09-1.35,2.47,0,4.34,1.77,4.34,4.32v7.02c0,.18-.08.26-.26.26Z"/><path d="m5.39,113.56H.27c-.18,0-.26-.08-.26-.26v-15.86c0-.18.08-.26.26-.26h5.12c2.81,0,4.6,1.79,4.6,4.6v.26c0,1.01-.81,2.42-1.77,2.99-.23.13-.23.31-.03.44.88.55,1.79,1.85,1.79,3.12v.39c0,2.81-1.79,4.58-4.6,4.58Zm2.57-12.04c0-1.38-1.14-2.55-2.57-2.55h-3.09c-.18,0-.26.08-.26.26v4.86c0,.18.08.26.26.26h3.09c1.4,0,2.57-1.14,2.57-2.57v-.26Zm0,7.15c0-1.38-1.14-2.52-2.57-2.52h-3.09c-.18,0-.26.08-.26.26v5.1c0,.18.08.26.26.26h3.09c1.4,0,2.57-1.12,2.57-2.55v-.55Z"/><path d="m21.83,113.56h-1.25c-.18,0-.26-.08-.26-.26v-.73c0-.29-.26-.42-.47-.21-.75.75-1.66,1.2-2.26,1.2h-1.01c-1.87,0-3.38-1.25-3.38-3.15v-.16c0-1.9,1.51-3.12,3.38-3.12h3.2c.18,0,.26-.08.26-.26v-.88c0-1.4-1.14-2.5-2.57-2.5-.86,0-1.72.44-2.29,1.43-.08.13-.21.18-.36.1l-1.33-.7c-.16-.08-.21-.21-.1-.36.29-.47.62-.91,1.07-1.25.73-.6,1.72-.99,3.02-.99,2.81,0,4.63,1.69,4.63,4.26v7.31c0,.18-.08.26-.26.26Zm-1.79-4.65c0-.18-.08-.26-.26-.26h-3.2c-.75,0-1.35.6-1.35,1.35v.42c0,.73.6,1.35,1.35,1.35h1.01c1.12,0,2.13-1.01,2.44-2.05v-.81Z"/><path d="m30.25,113.56c-.65,0-1.61-.34-2.37-1.14-.21-.21-.44-.13-.44.18v.7c0,.18-.08.26-.26.26h-1.27c-.18,0-.26-.08-.26-.26v-15.86c0-.18.08-.26.26-.26h1.53c.18,0,.26.08.26.26v5.43c0,.29.26.39.44.18.7-.78,1.61-1.09,2.37-1.09,2.42,0,4.37,1.77,4.37,4.32v2.94c0,2.55-1.82,4.34-4.63,4.34Zm2.57-7.28c0-1.38-1.17-2.55-2.57-2.55s-2.55,1.14-2.55,2.55v2.94c0,1.38,1.14,2.55,2.55,2.55s2.57-1.14,2.57-2.55v-2.94Z"/><path d="m47.25,108h-6.63c-.18,0-.26.08-.26.26v1.22c0,1.38,1.14,2.55,2.55,2.55.88,0,1.77-.52,2.31-1.48.08-.13.21-.18.34-.1l1.38.7c.16.08.18.18.1.34-.23.42-.49.83-.86,1.17-.7.7-1.72,1.17-3.28,1.17-2.81,0-4.6-1.77-4.6-4.34v-3.46c0-2.47,1.79-4.32,4.6-4.32s4.6,1.82,4.6,4.32v1.72c0,.18-.08.26-.26.26Zm-1.79-2.11c0-1.33-1.07-2.42-2.55-2.42-1.61,0-2.55,1.14-2.55,2.55v.29c0,.13.13.16.26.16h4.58c.18,0,.26-.08.26-.26v-.31Z"/><path d="m52.61,113.56h-1.53c-.18,0-.26-.08-.26-.26v-15.86c0-.18.08-.26.26-.26h1.53c.18,0,.26.08.26.26v15.86c0,.18-.08.26-.26.26Z"/><path d="m61.29,113.82h-.78c-1.46,0-2.42-.42-3.09-1.01-.44-.36-.75-.83-.99-1.27-.08-.16-.03-.26.13-.34l1.25-.62c.16-.08.26-.03.34.1.47.86,1.4,1.46,2.37,1.46h.78c1.46,0,2.18-.83,2.18-1.8,0-1.27-1.69-1.45-3.51-1.82-1.72-.34-3.56-1.09-3.56-3.28,0-2.37,1.77-3.54,4.11-3.54h.78c1.35,0,2.31.36,2.99.91.49.39.83.86,1.09,1.33.08.16.03.29-.13.36l-1.25.62c-.13.08-.26.03-.34-.1-.52-.86-1.35-1.43-2.37-1.43h-.78c-1.51,0-2.11.73-2.11,1.59,0,1.43,1.69,1.56,3.46,1.92,1.98.42,3.64,1.07,3.64,3.17s-1.43,3.74-4.21,3.74Z"/><path d="m73.62,113.56c-.65,0-1.61-.34-2.37-1.14-.21-.21-.44-.13-.44.18v.7c0,.18-.08.26-.26.26h-1.27c-.18,0-.26-.08-.26-.26v-15.86c0-.18.08-.26.26-.26h1.53c.18,0,.26.08.26.26v5.43c0,.29.26.39.44.18.7-.78,1.61-1.09,2.37-1.09,2.42,0,4.37,1.77,4.37,4.32v2.94c0,2.55-1.82,4.34-4.63,4.34Zm2.57-7.28c0-1.38-1.17-2.55-2.57-2.55s-2.55,1.14-2.55,2.55v2.94c0,1.38,1.14,2.55,2.55,2.55s2.57-1.14,2.57-2.55v-2.94Z"/><path d="m90.62,108h-6.63c-.18,0-.26.08-.26.26v1.22c0,1.38,1.14,2.55,2.55,2.55.88,0,1.77-.52,2.31-1.48.08-.13.21-.18.34-.1l1.38.7c.16.08.18.18.1.34-.23.42-.49.83-.86,1.17-.7.7-1.72,1.17-3.28,1.17-2.81,0-4.6-1.77-4.6-4.34v-3.46c0-2.47,1.79-4.32,4.6-4.32s4.6,1.82,4.6,4.32v1.72c0,.18-.08.26-.26.26Zm-1.79-2.11c0-1.33-1.07-2.42-2.55-2.42-1.61,0-2.55,1.14-2.55,2.55v.29c0,.13.13.16.26.16h4.58c.18,0,.26-.08.26-.26v-.31Z"/><path d="m99.25,104.12c-.13-.05-.31-.08-.47-.08-1.43,0-2.55.96-2.55,2.5v6.76c0,.18-.08.26-.26.26h-1.53c-.18,0-.26-.08-.26-.26v-11.08c0-.18.08-.26.26-.26h1.27c.18,0,.26.08.26.26v1.07c0,.29.26.42.44.18.68-.96,1.56-1.51,2.37-1.51h.57c.18,0,.23.1.23.29v1.64c0,.21-.13.31-.34.23Z"/><path d="m108.3,119.41h-3.59c-1.87,0-3.41-1.22-3.41-3.15v-.21c0-1.01.62-1.79,1.53-2.44.13-.1.18-.21.1-.34-.26-.49-.42-.88-.42-1.38,0-.6.16-1.12.52-1.59.1-.13.08-.26-.05-.36-1.09-.86-1.69-2-1.69-3.41v-.26c0-2.55,2.03-4.32,4.6-4.32.65,0,1.59.31,2.37,1.14.21.21.47.13.47-.18v-.7c0-.18.08-.26.26-.26h1.25c.18,0,.26.08.26.26v4.32c0,2.55-2.03,4.34-4.6,4.34-.23,0-.57-.03-.81-.05-.42.18-.81.6-.81,1.07s.34.96.81,1.07h3.2c1.9,0,3.41,1.2,3.41,3.09v.21c0,1.92-1.51,3.15-3.41,3.15Zm.16-13.13c0-1.38-1.14-2.55-2.55-2.55s-2.55,1.14-2.55,2.55v.26c0,1.38,1.14,2.55,2.55,2.55s2.55-1.14,2.55-2.55v-.26Zm1.2,9.78c0-.73-.62-1.3-1.35-1.3h-3.59c-.73,0-1.35.55-1.35,1.3v.21c0,.75.57,1.35,1.35,1.35h3.59c.78,0,1.35-.6,1.35-1.35v-.21Z"/><path d="m84.97,56.73h-11.67c-.87,0-1.24-.37-1.24-1.24V1.31c0-.87.37-1.24,1.24-1.24h11.67c.87,0,1.24.37,1.24,1.24v54.18c0,.87-.37,1.24-1.24,1.24Z"/><path d="m146.98,3.97l-21.72,36c-.87,1.37-1.37,2.23-1.37,2.73,0,.62.5.99,1.37.99h21.35c.87,0,1.24.37,1.24,1.24v10.55c0,.87-.37,1.24-1.24,1.24h-46.18c-.87,0-1.37-.37-1.37-.99,0-.5.5-1.24,1.37-2.73l21.6-36c.87-1.37,1.49-2.48,1.49-2.98,0-.62-.5-.99-1.37-.99h-19.12c-.87,0-1.24-.37-1.24-1.24V1.24c0-.87.37-1.24,1.24-1.24h44.07c.87,0,1.37.37,1.37.99,0,.5-.62,1.61-1.49,2.98Z"/><path d="m55.45.06h-11.67c-.11,0-.19.02-.29.04h-.09s-.1.02-.15.03c-.01,0-.02,0-.03,0-.32.08-.66.36-.83.7-.2.4-.64,1.31-.99,2.01l-10.43,21.2h0c-1.66,3.38-2.39,5.27-2.39,5.27h-.42s-.74-1.89-2.39-5.28L15.2,2.5c-.34-.7-.75-1.53-.91-1.85-.16-.32-.68-.58-1.16-.58H1.24s0,0-.01,0c-.11,0-.21.02-.3.04-.63.09-.93.45-.93,1.2v54.18c0,.87.37,1.24,1.24,1.24h11.67c.87,0,1.24-.37,1.24-1.24v-2.2c0-13.54-.17-23.98-.17-23.98h.29c1.89,5.38,3.19,6.21,6.11,12.61h0l.25.51c.29.6,1,1.08,1.69,1.21.1.03.21.05.33.06,0,0,.02,0,.03,0h11.36s.02,0,.03,0c.12,0,.23-.02.33-.06.69-.14,1.39-.62,1.69-1.21l.21-.42h0c2.92-6.4,4.22-7.31,6.11-12.69h.29s-.17,10.44-.17,23.98v2.2c0,.87.37,1.24,1.24,1.24h11.67c.87,0,1.24-.37,1.24-1.24V1.31c0-.87-.37-1.24-1.24-1.24Z"/></svg>