<?xml version="1.0" encoding="utf-8"?>
<!-- Generator: Adobe Illustrator 27.2.0, SVG Export Plug-In . SVG Version: 6.00 Build 0)  -->
<svg version="1.1" id="Layer_1" xmlns="http://www.w3.org/2000/svg" xmlns:xlink="http://www.w3.org/1999/xlink" x="0px" y="0px"
	 viewBox="0 0 276.7 119.4" style="enable-background:new 0 0 276.7 119.4;" xml:space="preserve">
<style type="text/css">
	.st0{fill:#6D796E;}
	.st1{fill:#E11B22;}
</style>
<g>
	<path class="st0" d="M12.5,85.1H11c-0.2,0-0.3-0.1-0.3-0.3v-5.4c0-2.5,0.1-4.7,0.2-6l-0.1,0c-0.1,0.4-0.4,1.2-0.7,1.8L7,82.5
		c-0.1,0.1-0.1,0.2-0.2,0.2H6c-0.1,0-0.2-0.1-0.2-0.2l-3.3-7.3c-0.2-0.5-0.5-1.3-0.6-1.8l-0.1,0C2,74.8,2,76.9,2,79.4v5.4
		C2,85,2,85.1,1.8,85.1H0.3C0.1,85.1,0,85,0,84.8V68.9c0-0.2,0.1-0.3,0.3-0.3h1.4c0.1,0,0.2,0.1,0.2,0.2L6,78.4
		c0.1,0.2,0.3,0.8,0.3,1h0.1c0.1-0.2,0.3-0.9,0.4-1l4.1-9.6c0.1-0.1,0.1-0.2,0.2-0.2h1.4c0.2,0,0.3,0.1,0.3,0.3v15.9
		C12.8,85,12.7,85.1,12.5,85.1z"/>
	<path class="st0" d="M25.8,79.5h-6.6c-0.2,0-0.3,0.1-0.3,0.3V81c0,1.4,1.1,2.5,2.5,2.5c0.9,0,1.8-0.5,2.3-1.5
		c0.1-0.1,0.2-0.2,0.3-0.1l1.4,0.7c0.2,0.1,0.2,0.2,0.1,0.3c-0.2,0.4-0.5,0.8-0.9,1.2c-0.7,0.7-1.7,1.2-3.3,1.2
		c-2.8,0-4.6-1.8-4.6-4.3v-3.5c0-2.5,1.8-4.3,4.6-4.3c2.8,0,4.6,1.8,4.6,4.3v1.7C26.1,79.4,26,79.5,25.8,79.5z M24,77.4
		c0-1.3-1.1-2.4-2.5-2.4c-1.6,0-2.5,1.1-2.5,2.5v0.3c0,0.1,0.1,0.2,0.3,0.2h4.6c0.2,0,0.3-0.1,0.3-0.3V77.4z"/>
	<path class="st0" d="M37.9,85.1h-1.2c-0.2,0-0.3-0.1-0.3-0.3v-0.7c0-0.3-0.3-0.4-0.5-0.2c-0.8,0.8-1.7,1.2-2.4,1.2
		c-2.8,0-4.6-1.8-4.6-4.3v-2.9c0-2.5,1.9-4.3,4.3-4.3c0.8,0,1.7,0.3,2.4,1.1c0.2,0.2,0.4,0.1,0.4-0.2v-5.5c0-0.2,0.1-0.3,0.3-0.3
		h1.5c0.2,0,0.3,0.1,0.3,0.3v15.9C38.2,85,38.1,85.1,37.9,85.1z M36.2,77.8c0-1.4-1.1-2.5-2.5-2.5s-2.5,1.1-2.5,2.5v2.9
		c0,1.4,1.1,2.5,2.5,2.5c1.4,0,2.5-1.1,2.5-2.5V77.8z"/>
	<path class="st0" d="M43.4,71c-0.7,0-1.3-0.6-1.3-1.3c0-0.7,0.6-1.3,1.3-1.3c0.7,0,1.3,0.5,1.3,1.3C44.7,70.4,44.2,71,43.4,71z
		 M44.2,85.1h-1.5c-0.2,0-0.3-0.1-0.3-0.3V73.7c0-0.2,0.1-0.3,0.3-0.3h1.5c0.2,0,0.3,0.1,0.3,0.3v11.1C44.5,85,44.4,85.1,44.2,85.1z
		"/>
	<path class="st0" d="M57.2,79.5h-6.6c-0.2,0-0.3,0.1-0.3,0.3V81c0,1.4,1.1,2.5,2.5,2.5c0.9,0,1.8-0.5,2.3-1.5
		c0.1-0.1,0.2-0.2,0.3-0.1l1.4,0.7c0.2,0.1,0.2,0.2,0.1,0.3c-0.2,0.4-0.5,0.8-0.9,1.2c-0.7,0.7-1.7,1.2-3.3,1.2
		c-2.8,0-4.6-1.8-4.6-4.3v-3.5c0-2.5,1.8-4.3,4.6-4.3c2.8,0,4.6,1.8,4.6,4.3v1.7C57.5,79.4,57.4,79.5,57.2,79.5z M55.4,77.4
		c0-1.3-1.1-2.4-2.5-2.4c-1.6,0-2.5,1.1-2.5,2.5v0.3c0,0.1,0.1,0.2,0.3,0.2h4.6c0.2,0,0.3-0.1,0.3-0.3V77.4z"/>
	<path class="st0" d="M70.3,85.1h-1.5c-0.2,0-0.3-0.1-0.3-0.3v-7c0-1.4-1.2-2.5-2.6-2.5c-1.4,0-2.5,1.1-2.5,2.5v7
		c0,0.2-0.1,0.3-0.3,0.3h-1.5c-0.2,0-0.3-0.1-0.3-0.3V73.7c0-0.2,0.1-0.3,0.3-0.3h1.3c0.2,0,0.3,0.1,0.3,0.3v0.7
		c0,0.3,0.3,0.4,0.4,0.2c0.7-0.8,1.6-1.1,2.4-1.1c2.8,0,4.6,1.8,4.6,4.3v7C70.5,85,70.5,85.1,70.3,85.1z"/>
	<path class="st0" d="M75.6,71c-0.7,0-1.3-0.6-1.3-1.3c0-0.7,0.6-1.3,1.3-1.3c0.7,0,1.3,0.5,1.3,1.3C76.9,70.4,76.4,71,75.6,71z
		 M76.4,85.1h-1.5c-0.2,0-0.3-0.1-0.3-0.3V73.7c0-0.2,0.1-0.3,0.3-0.3h1.5c0.2,0,0.3,0.1,0.3,0.3v11.1C76.7,85,76.6,85.1,76.4,85.1z
		"/>
	<path class="st0" d="M89.9,85.1h-1.5c-0.2,0-0.3-0.1-0.3-0.3v-7c0-1.4-1.2-2.5-2.6-2.5c-1.4,0-2.5,1.1-2.5,2.5v7
		c0,0.2-0.1,0.3-0.3,0.3h-1.5c-0.2,0-0.3-0.1-0.3-0.3V73.7c0-0.2,0.1-0.3,0.3-0.3h1.3c0.2,0,0.3,0.1,0.3,0.3v0.7
		c0,0.3,0.3,0.4,0.4,0.2c0.7-0.8,1.6-1.1,2.4-1.1c2.8,0,4.6,1.8,4.6,4.3v7C90.1,85,90,85.1,89.9,85.1z"/>
	<path class="st0" d="M103.2,85.1h-1.5c-0.2,0-0.3-0.1-0.3-0.3v-7c0-1.4-1.2-2.5-2.6-2.5c-1.4,0-2.5,1.1-2.5,2.5v7
		c0,0.2-0.1,0.3-0.3,0.3h-1.5c-0.2,0-0.3-0.1-0.3-0.3V73.7c0-0.2,0.1-0.3,0.3-0.3h1.3c0.2,0,0.3,0.1,0.3,0.3v0.7
		c0,0.3,0.3,0.4,0.4,0.2c0.7-0.8,1.6-1.1,2.4-1.1c2.8,0,4.6,1.8,4.6,4.3v7C103.4,85,103.4,85.1,103.2,85.1z"/>
	<path class="st0" d="M111.7,85.3c-2.8,0-4.6-1.8-4.6-4.3v-3.5c0-2.5,1.8-4.3,4.6-4.3c2.8,0,4.6,1.8,4.6,4.3V81
		C116.3,83.5,114.5,85.3,111.7,85.3z M114.3,77.4c0-1.3-1.1-2.4-2.5-2.4c-1.6,0-2.5,1.1-2.5,2.5v3.6c0,1.3,1.1,2.4,2.5,2.4
		c1.6,0,2.5-1.1,2.5-2.5V77.4z"/>
	<path class="st0" d="M124.8,84.9c-0.1,0.1-0.1,0.2-0.2,0.2h-1.2c-0.1,0-0.2-0.1-0.2-0.2l-4.5-11.1c-0.1-0.2,0-0.4,0.2-0.4h1.6
		c0.1,0,0.2,0.1,0.2,0.2l2.9,7.4c0.1,0.1,0.3,0.8,0.3,1h0.1c0-0.2,0.2-0.9,0.3-1l2.9-7.4c0.1-0.1,0.1-0.2,0.2-0.2h1.6
		c0.2,0,0.3,0.1,0.2,0.4L124.8,84.9z"/>
	<path class="st0" d="M139.9,85.1h-1.2c-0.2,0-0.3-0.1-0.3-0.3v-0.7c0-0.3-0.3-0.4-0.5-0.2c-0.8,0.8-1.7,1.2-2.3,1.2h-1
		c-1.9,0-3.4-1.2-3.4-3.1v-0.2c0-1.9,1.5-3.1,3.4-3.1h3.2c0.2,0,0.3-0.1,0.3-0.3v-0.9c0-1.4-1.1-2.5-2.6-2.5c-0.9,0-1.7,0.4-2.3,1.4
		c-0.1,0.1-0.2,0.2-0.4,0.1l-1.3-0.7c-0.2-0.1-0.2-0.2-0.1-0.4c0.3-0.5,0.6-0.9,1.1-1.2c0.7-0.6,1.7-1,3-1c2.8,0,4.6,1.7,4.6,4.3
		v7.3C140.2,85,140.1,85.1,139.9,85.1z M138.1,80.4c0-0.2-0.1-0.3-0.3-0.3h-3.2c-0.8,0-1.4,0.6-1.4,1.4v0.4c0,0.7,0.6,1.4,1.4,1.4h1
		c1.1,0,2.1-1,2.4-2.1V80.4z"/>
	<path class="st0" d="M148.7,85.3c-1.1-0.1-1.9-0.5-2.6-1c-1-0.8-1.5-1.9-1.5-3.3v-5.5c0-0.2-0.1-0.3-0.3-0.3h-1.5
		c-0.2,0-0.3-0.1-0.3-0.3v-0.7l3-3.1c0,0,0.1-0.1,0.2-0.1h0.6c0.2,0,0.3,0.1,0.3,0.3v1.9c0,0.2,0.1,0.3,0.3,0.3h1.8
		c0.2,0,0.3,0.1,0.3,0.3V75c0,0.2-0.1,0.3-0.3,0.3h-1.8c-0.2,0-0.3,0.1-0.3,0.3V81c0,1.2,0.8,2.2,2.2,2.5c0.1,0,0.2,0.1,0.2,0.3V85
		C149,85.2,148.9,85.3,148.7,85.3z"/>
	<path class="st0" d="M153.5,71c-0.7,0-1.3-0.6-1.3-1.3c0-0.7,0.6-1.3,1.3-1.3c0.7,0,1.3,0.5,1.3,1.3C154.8,70.4,154.3,71,153.5,71z
		 M154.3,85.1h-1.5c-0.2,0-0.3-0.1-0.3-0.3V73.7c0-0.2,0.1-0.3,0.3-0.3h1.5c0.2,0,0.3,0.1,0.3,0.3v11.1
		C154.6,85,154.5,85.1,154.3,85.1z"/>
	<path class="st0" d="M163,85.3c-2.8,0-4.6-1.8-4.6-4.3v-3.5c0-2.5,1.8-4.3,4.6-4.3c2.8,0,4.6,1.8,4.6,4.3V81
		C167.6,83.5,165.8,85.3,163,85.3z M165.6,77.4c0-1.3-1.1-2.4-2.5-2.4c-1.6,0-2.5,1.1-2.5,2.5v3.6c0,1.3,1.1,2.4,2.5,2.4
		c1.6,0,2.5-1.1,2.5-2.5V77.4z"/>
	<path class="st0" d="M179.9,85.1h-1.5c-0.2,0-0.3-0.1-0.3-0.3v-7c0-1.4-1.2-2.5-2.6-2.5c-1.4,0-2.5,1.1-2.5,2.5v7
		c0,0.2-0.1,0.3-0.3,0.3h-1.5c-0.2,0-0.3-0.1-0.3-0.3V73.7c0-0.2,0.1-0.3,0.3-0.3h1.3c0.2,0,0.3,0.1,0.3,0.3v0.7
		c0,0.3,0.3,0.4,0.4,0.2c0.7-0.8,1.6-1.1,2.4-1.1c2.8,0,4.6,1.8,4.6,4.3v7C180.1,85,180.1,85.1,179.9,85.1z"/>
	<path class="st0" d="M188.4,85.3h-0.8c-1.5,0-2.4-0.4-3.1-1c-0.4-0.4-0.8-0.8-1-1.3c-0.1-0.2,0-0.3,0.1-0.3l1.2-0.6
		c0.2-0.1,0.3,0,0.3,0.1c0.5,0.9,1.4,1.5,2.4,1.5h0.8c1.5,0,2.2-0.8,2.2-1.8c0-1.3-1.7-1.5-3.5-1.8c-1.7-0.3-3.6-1.1-3.6-3.3
		c0-2.4,1.8-3.5,4.1-3.5h0.8c1.4,0,2.3,0.4,3,0.9c0.5,0.4,0.8,0.9,1.1,1.3c0.1,0.2,0,0.3-0.1,0.4l-1.2,0.6c-0.1,0.1-0.3,0-0.3-0.1
		c-0.5-0.9-1.4-1.4-2.4-1.4h-0.8c-1.5,0-2.1,0.7-2.1,1.6c0,1.4,1.7,1.6,3.5,1.9c2,0.4,3.6,1.1,3.6,3.2
		C192.6,83.6,191.2,85.3,188.4,85.3z"/>
	<path class="st0" d="M204.1,85.1h-8.8c-0.3,0-0.4-0.2-0.2-0.4l5.4-9c0.1-0.2,0-0.4-0.2-0.4h-4.8c-0.2,0-0.3-0.1-0.3-0.3v-1.2
		c0-0.2,0.1-0.3,0.3-0.3h8.2c0.3,0,0.4,0.2,0.2,0.4l-5.4,9c-0.1,0.2,0,0.4,0.2,0.4h5.4c0.2,0,0.3,0.1,0.3,0.3v1.3
		C204.4,85,204.3,85.1,204.1,85.1z"/>
	<path class="st0" d="M216.1,79.5h-6.6c-0.2,0-0.3,0.1-0.3,0.3V81c0,1.4,1.1,2.5,2.5,2.5c0.9,0,1.8-0.5,2.3-1.5
		c0.1-0.1,0.2-0.2,0.3-0.1l1.4,0.7c0.2,0.1,0.2,0.2,0.1,0.3c-0.2,0.4-0.5,0.8-0.9,1.2c-0.7,0.7-1.7,1.2-3.3,1.2
		c-2.8,0-4.6-1.8-4.6-4.3v-3.5c0-2.5,1.8-4.3,4.6-4.3c2.8,0,4.6,1.8,4.6,4.3v1.7C216.4,79.4,216.3,79.5,216.1,79.5z M214.3,77.4
		c0-1.3-1.1-2.4-2.5-2.4c-1.6,0-2.5,1.1-2.5,2.5v0.3c0,0.1,0.1,0.2,0.3,0.2h4.6c0.2,0,0.3-0.1,0.3-0.3V77.4z"/>
	<path class="st0" d="M228.6,85.1h-1.5c-0.2,0-0.3-0.1-0.3-0.3v-7c0-1.4-1.2-2.5-2.6-2.5c-1.4,0-2.5,1.1-2.5,2.5v7
		c0,0.2-0.1,0.3-0.3,0.3h-1.5c-0.2,0-0.3-0.1-0.3-0.3V73.7c0-0.2,0.1-0.3,0.3-0.3h1.3c0.2,0,0.3,0.1,0.3,0.3v0.7
		c0,0.3,0.3,0.4,0.4,0.2c0.7-0.8,1.6-1.1,2.4-1.1c2.8,0,4.6,1.8,4.6,4.3v7C228.9,85,228.8,85.1,228.6,85.1z"/>
	<path class="st0" d="M237.4,85.3c-1.1-0.1-1.9-0.5-2.6-1c-1-0.8-1.5-1.9-1.5-3.3v-5.5c0-0.2-0.1-0.3-0.3-0.3h-1.5
		c-0.2,0-0.3-0.1-0.3-0.3v-0.7l3-3.1c0,0,0.1-0.1,0.2-0.1h0.6c0.2,0,0.3,0.1,0.3,0.3v1.9c0,0.2,0.1,0.3,0.3,0.3h1.8
		c0.2,0,0.3,0.1,0.3,0.3V75c0,0.2-0.1,0.3-0.3,0.3h-1.8c-0.2,0-0.3,0.1-0.3,0.3V81c0,1.2,0.8,2.2,2.2,2.5c0.1,0,0.2,0.1,0.2,0.3V85
		C237.7,85.2,237.6,85.3,237.4,85.3z"/>
	<path class="st0" d="M246.3,75.6c-0.1-0.1-0.3-0.1-0.5-0.1c-1.4,0-2.5,1-2.5,2.5v6.8c0,0.2-0.1,0.3-0.3,0.3h-1.5
		c-0.2,0-0.3-0.1-0.3-0.3V73.7c0-0.2,0.1-0.3,0.3-0.3h1.3c0.2,0,0.3,0.1,0.3,0.3v1.1c0,0.3,0.3,0.4,0.4,0.2c0.7-1,1.6-1.5,2.4-1.5
		h0.6c0.2,0,0.2,0.1,0.2,0.3v1.6C246.6,75.6,246.5,75.7,246.3,75.6z"/>
	<path class="st0" d="M257.9,85.1h-1.2c-0.2,0-0.3-0.1-0.3-0.3v-0.7c0-0.3-0.3-0.4-0.5-0.2c-0.7,0.8-1.6,1.2-2.4,1.2
		c-2.8,0-4.6-1.8-4.6-4.3v-7c0-0.2,0.1-0.3,0.3-0.3h1.5c0.2,0,0.3,0.1,0.3,0.3v7c0,1.4,1.1,2.5,2.5,2.5c1.4,0,2.6-1.1,2.6-2.5v-7
		c0-0.2,0.1-0.3,0.3-0.3h1.5c0.2,0,0.3,0.1,0.3,0.3v11.1C258.2,85,258.1,85.1,257.9,85.1z"/>
	<path class="st0" d="M276.4,85.1h-1.5c-0.2,0-0.3-0.1-0.3-0.3v-7c0-1.4-1.2-2.5-2.3-2.5c-1,0-2.3,1.1-2.3,2.5v7
		c0,0.2-0.1,0.3-0.3,0.3h-1.5c-0.2,0-0.3-0.1-0.3-0.3v-7c0-1.4-1.2-2.5-2.3-2.5c-1,0-2.3,1.1-2.3,2.5v7c0,0.2-0.1,0.3-0.3,0.3h-1.5
		c-0.2,0-0.3-0.1-0.3-0.3V73.7c0-0.2,0.1-0.3,0.3-0.3h1.3c0.2,0,0.3,0.1,0.3,0.3v0.7c0,0.3,0.2,0.4,0.4,0.2c0.7-0.8,1.6-1.1,2.4-1.1
		c0.9,0,2.1,0.4,2.9,1.4c0.1,0.2,0.3,0.2,0.4,0c0.8-0.9,1.9-1.4,3.1-1.4c2.5,0,4.3,1.8,4.3,4.3v7C276.7,85,276.6,85.1,276.4,85.1z"
		/>
	<path class="st0" d="M5.4,113.6H0.3c-0.2,0-0.3-0.1-0.3-0.3V97.4c0-0.2,0.1-0.3,0.3-0.3h5.1c2.8,0,4.6,1.8,4.6,4.6v0.3
		c0,1-0.8,2.4-1.8,3c-0.2,0.1-0.2,0.3,0,0.4c0.9,0.5,1.8,1.8,1.8,3.1v0.4C10,111.8,8.2,113.6,5.4,113.6z M8,101.5
		c0-1.4-1.1-2.5-2.6-2.5H2.3C2.1,99,2,99.1,2,99.2v4.9c0,0.2,0.1,0.3,0.3,0.3h3.1c1.4,0,2.6-1.1,2.6-2.6V101.5z M8,108.7
		c0-1.4-1.1-2.5-2.6-2.5H2.3c-0.2,0-0.3,0.1-0.3,0.3v5.1c0,0.2,0.1,0.3,0.3,0.3h3.1c1.4,0,2.6-1.1,2.6-2.5V108.7z"/>
	<path class="st0" d="M21.8,113.6h-1.2c-0.2,0-0.3-0.1-0.3-0.3v-0.7c0-0.3-0.3-0.4-0.5-0.2c-0.8,0.8-1.7,1.2-2.3,1.2h-1
		c-1.9,0-3.4-1.2-3.4-3.1v-0.2c0-1.9,1.5-3.1,3.4-3.1h3.2c0.2,0,0.3-0.1,0.3-0.3V106c0-1.4-1.1-2.5-2.6-2.5c-0.9,0-1.7,0.4-2.3,1.4
		c-0.1,0.1-0.2,0.2-0.4,0.1l-1.3-0.7c-0.2-0.1-0.2-0.2-0.1-0.4c0.3-0.5,0.6-0.9,1.1-1.2c0.7-0.6,1.7-1,3-1c2.8,0,4.6,1.7,4.6,4.3
		v7.3C22.1,113.5,22,113.6,21.8,113.6z M20,108.9c0-0.2-0.1-0.3-0.3-0.3h-3.2c-0.8,0-1.4,0.6-1.4,1.4v0.4c0,0.7,0.6,1.4,1.4,1.4h1
		c1.1,0,2.1-1,2.4-2.1V108.9z"/>
	<path class="st0" d="M30.2,113.6c-0.6,0-1.6-0.3-2.4-1.1c-0.2-0.2-0.4-0.1-0.4,0.2v0.7c0,0.2-0.1,0.3-0.3,0.3h-1.3
		c-0.2,0-0.3-0.1-0.3-0.3V97.4c0-0.2,0.1-0.3,0.3-0.3h1.5c0.2,0,0.3,0.1,0.3,0.3v5.4c0,0.3,0.3,0.4,0.4,0.2c0.7-0.8,1.6-1.1,2.4-1.1
		c2.4,0,4.4,1.8,4.4,4.3v2.9C34.9,111.8,33.1,113.6,30.2,113.6z M32.8,106.3c0-1.4-1.2-2.5-2.6-2.5c-1.4,0-2.5,1.1-2.5,2.5v2.9
		c0,1.4,1.1,2.5,2.5,2.5c1.4,0,2.6-1.1,2.6-2.5V106.3z"/>
	<path class="st0" d="M47.3,108h-6.6c-0.2,0-0.3,0.1-0.3,0.3v1.2c0,1.4,1.1,2.5,2.5,2.5c0.9,0,1.8-0.5,2.3-1.5
		c0.1-0.1,0.2-0.2,0.3-0.1l1.4,0.7c0.2,0.1,0.2,0.2,0.1,0.3c-0.2,0.4-0.5,0.8-0.9,1.2c-0.7,0.7-1.7,1.2-3.3,1.2
		c-2.8,0-4.6-1.8-4.6-4.3V106c0-2.5,1.8-4.3,4.6-4.3c2.8,0,4.6,1.8,4.6,4.3v1.7C47.5,107.9,47.4,108,47.3,108z M45.5,105.9
		c0-1.3-1.1-2.4-2.5-2.4c-1.6,0-2.5,1.1-2.5,2.5v0.3c0,0.1,0.1,0.2,0.3,0.2h4.6c0.2,0,0.3-0.1,0.3-0.3V105.9z"/>
	<path class="st0" d="M52.6,113.6h-1.5c-0.2,0-0.3-0.1-0.3-0.3V97.4c0-0.2,0.1-0.3,0.3-0.3h1.5c0.2,0,0.3,0.1,0.3,0.3v15.9
		C52.9,113.5,52.8,113.6,52.6,113.6z"/>
	<path class="st0" d="M61.3,113.8h-0.8c-1.5,0-2.4-0.4-3.1-1c-0.4-0.4-0.8-0.8-1-1.3c-0.1-0.2,0-0.3,0.1-0.3l1.2-0.6
		c0.2-0.1,0.3,0,0.3,0.1c0.5,0.9,1.4,1.5,2.4,1.5h0.8c1.5,0,2.2-0.8,2.2-1.8c0-1.3-1.7-1.5-3.5-1.8c-1.7-0.3-3.6-1.1-3.6-3.3
		c0-2.4,1.8-3.5,4.1-3.5h0.8c1.4,0,2.3,0.4,3,0.9c0.5,0.4,0.8,0.9,1.1,1.3c0.1,0.2,0,0.3-0.1,0.4l-1.2,0.6c-0.1,0.1-0.3,0-0.3-0.1
		c-0.5-0.9-1.4-1.4-2.4-1.4h-0.8c-1.5,0-2.1,0.7-2.1,1.6c0,1.4,1.7,1.6,3.5,1.9c2,0.4,3.6,1.1,3.6,3.2
		C65.5,112.1,64.1,113.8,61.3,113.8z"/>
	<path class="st0" d="M73.6,113.6c-0.6,0-1.6-0.3-2.4-1.1c-0.2-0.2-0.4-0.1-0.4,0.2v0.7c0,0.2-0.1,0.3-0.3,0.3h-1.3
		c-0.2,0-0.3-0.1-0.3-0.3V97.4c0-0.2,0.1-0.3,0.3-0.3h1.5c0.2,0,0.3,0.1,0.3,0.3v5.4c0,0.3,0.3,0.4,0.4,0.2c0.7-0.8,1.6-1.1,2.4-1.1
		c2.4,0,4.4,1.8,4.4,4.3v2.9C78.2,111.8,76.4,113.6,73.6,113.6z M76.2,106.3c0-1.4-1.2-2.5-2.6-2.5c-1.4,0-2.5,1.1-2.5,2.5v2.9
		c0,1.4,1.1,2.5,2.5,2.5c1.4,0,2.6-1.1,2.6-2.5V106.3z"/>
	<path class="st0" d="M90.6,108H84c-0.2,0-0.3,0.1-0.3,0.3v1.2c0,1.4,1.1,2.5,2.5,2.5c0.9,0,1.8-0.5,2.3-1.5
		c0.1-0.1,0.2-0.2,0.3-0.1l1.4,0.7c0.2,0.1,0.2,0.2,0.1,0.3c-0.2,0.4-0.5,0.8-0.9,1.2c-0.7,0.7-1.7,1.2-3.3,1.2
		c-2.8,0-4.6-1.8-4.6-4.3V106c0-2.5,1.8-4.3,4.6-4.3c2.8,0,4.6,1.8,4.6,4.3v1.7C90.9,107.9,90.8,108,90.6,108z M88.8,105.9
		c0-1.3-1.1-2.4-2.5-2.4c-1.6,0-2.5,1.1-2.5,2.5v0.3c0,0.1,0.1,0.2,0.3,0.2h4.6c0.2,0,0.3-0.1,0.3-0.3V105.9z"/>
	<path class="st0" d="M99.3,104.1c-0.1-0.1-0.3-0.1-0.5-0.1c-1.4,0-2.5,1-2.5,2.5v6.8c0,0.2-0.1,0.3-0.3,0.3h-1.5
		c-0.2,0-0.3-0.1-0.3-0.3v-11.1c0-0.2,0.1-0.3,0.3-0.3h1.3c0.2,0,0.3,0.1,0.3,0.3v1.1c0,0.3,0.3,0.4,0.4,0.2c0.7-1,1.6-1.5,2.4-1.5
		h0.6c0.2,0,0.2,0.1,0.2,0.3v1.6C99.6,104.1,99.5,104.2,99.3,104.1z"/>
	<path class="st0" d="M108.3,119.4h-3.6c-1.9,0-3.4-1.2-3.4-3.1v-0.2c0-1,0.6-1.8,1.5-2.4c0.1-0.1,0.2-0.2,0.1-0.3
		c-0.3-0.5-0.4-0.9-0.4-1.4c0-0.6,0.2-1.1,0.5-1.6c0.1-0.1,0.1-0.3-0.1-0.4c-1.1-0.9-1.7-2-1.7-3.4v-0.3c0-2.5,2-4.3,4.6-4.3
		c0.7,0,1.6,0.3,2.4,1.1c0.2,0.2,0.5,0.1,0.5-0.2v-0.7c0-0.2,0.1-0.3,0.3-0.3h1.2c0.2,0,0.3,0.1,0.3,0.3v4.3c0,2.5-2,4.3-4.6,4.3
		c-0.2,0-0.6,0-0.8-0.1c-0.4,0.2-0.8,0.6-0.8,1.1c0,0.5,0.3,1,0.8,1.1h3.2c1.9,0,3.4,1.2,3.4,3.1v0.2
		C111.7,118.2,110.2,119.4,108.3,119.4z M108.5,106.3c0-1.4-1.1-2.5-2.5-2.5c-1.4,0-2.5,1.1-2.5,2.5v0.3c0,1.4,1.1,2.5,2.5,2.5
		c1.4,0,2.5-1.1,2.5-2.5V106.3z M109.7,116.1c0-0.7-0.6-1.3-1.4-1.3h-3.6c-0.7,0-1.4,0.5-1.4,1.3v0.2c0,0.8,0.6,1.4,1.4,1.4h3.6
		c0.8,0,1.4-0.6,1.4-1.4V116.1z"/>
</g>
<g>
	<path class="st1" d="M85,56.7H73.3c-0.9,0-1.2-0.4-1.2-1.2V1.3c0-0.9,0.4-1.2,1.2-1.2H85c0.9,0,1.2,0.4,1.2,1.2v54.2
		C86.2,56.4,85.8,56.7,85,56.7z"/>
</g>
<g>
	<path class="st0" d="M147,4l-21.7,36c-0.9,1.4-1.4,2.2-1.4,2.7c0,0.6,0.5,1,1.4,1h21.4c0.9,0,1.2,0.4,1.2,1.2v10.6
		c0,0.9-0.4,1.2-1.2,1.2h-46.2c-0.9,0-1.4-0.4-1.4-1c0-0.5,0.5-1.2,1.4-2.7L122,17c0.9-1.4,1.5-2.5,1.5-3c0-0.6-0.5-1-1.4-1H103
		c-0.9,0-1.2-0.4-1.2-1.2V1.2c0-0.9,0.4-1.2,1.2-1.2h44.1c0.9,0,1.4,0.4,1.4,1C148.5,1.5,147.8,2.6,147,4z"/>
</g>
<path class="st0" d="M55.4,0.1H43.8c-0.1,0-0.2,0-0.3,0h-0.1c0,0-0.1,0-0.2,0c0,0,0,0,0,0c-0.3,0.1-0.7,0.4-0.8,0.7
	c-0.2,0.4-0.6,1.3-1,2L31,24l0,0c-1.7,3.4-2.4,5.3-2.4,5.3h-0.4c0,0-0.7-1.9-2.4-5.3L15.2,2.5c-0.3-0.7-0.8-1.5-0.9-1.9
	c-0.2-0.3-0.7-0.6-1.2-0.6H1.2c0,0,0,0,0,0c-0.1,0-0.2,0-0.3,0C0.3,0.2,0,0.6,0,1.3v54.2c0,0.9,0.4,1.2,1.2,1.2h11.7
	c0.9,0,1.2-0.4,1.2-1.2v-2.2c0-13.5-0.2-24-0.2-24h0.3c1.9,5.4,3.2,6.2,6.1,12.6l0,0l0.2,0.5c0.3,0.6,1,1.1,1.7,1.2
	c0.1,0,0.2,0.1,0.3,0.1c0,0,0,0,0,0H34c0,0,0,0,0,0c0.1,0,0.2,0,0.3-0.1c0.7-0.1,1.4-0.6,1.7-1.2l0.2-0.4l0,0
	c2.9-6.4,4.2-7.3,6.1-12.7h0.3c0,0-0.2,10.4-0.2,24v2.2c0,0.9,0.4,1.2,1.2,1.2h11.7c0.9,0,1.2-0.4,1.2-1.2V1.3
	C56.7,0.4,56.3,0.1,55.4,0.1z"/>
</svg>
