<svg width="250" height="30" viewBox="0 0 250 30" fill="none" xmlns="http://www.w3.org/2000/svg">
<g clip-path="url(#clip0_26_632)">
<path d="M39.4386 26.36H34.0099C33.5923 26.36 33.4531 26.1744 33.4531 25.8031V0.60329C33.4531 0.185612 33.6387 0.0463867 34.0099 0.0463867H39.4386C39.8562 0.0463867 39.9954 0.232021 39.9954 0.60329V25.7567C39.9954 26.1744 39.8098 26.36 39.4386 26.36Z" fill="#200806"/>
<path d="M68.2077 1.85632L58.1391 18.5634C57.7215 19.2131 57.4895 19.5844 57.4895 19.8164C57.4895 20.0949 57.7215 20.2805 58.1391 20.2805H68.0685C68.4861 20.2805 68.6253 20.4662 68.6253 20.8374V25.7567C68.6253 26.1744 68.4397 26.3136 68.0685 26.3136H46.632C46.2144 26.3136 45.9824 26.128 45.9824 25.8496C45.9824 25.6175 46.2144 25.2926 46.632 24.5965L56.6543 7.88943C57.0719 7.23971 57.3503 6.72922 57.3503 6.49718C57.3503 6.21873 57.1183 6.03309 56.7007 6.03309H47.792C47.3744 6.03309 47.2352 5.84746 47.2352 5.47619V0.60329C47.2352 0.185612 47.4208 0.0463867 47.792 0.0463867H68.2541C68.6717 0.0463867 68.9037 0.232021 68.9037 0.510472C68.9037 0.696107 68.5789 1.2066 68.2077 1.85632Z" fill="#200806"/>
<path d="M25.7053 0.0464086H20.3229C20.2765 0.0464086 20.2301 0.0464086 20.1837 0.0464086H20.1373C20.1373 0.0464086 20.0909 0.0464086 20.0445 0.0464086C19.9053 0.0928171 19.7198 0.232043 19.6734 0.371269C19.5806 0.556903 19.395 0.97458 19.2094 1.29944L14.3838 11.1845C13.595 12.7624 13.2702 13.6441 13.2702 13.6441H13.0846C13.0846 13.6441 12.7598 12.7624 11.971 11.1845L7.05271 1.16021C6.91351 0.835354 6.68152 0.464086 6.63512 0.278451C6.54232 0.139226 6.31032 0 6.07832 0H0.556793C0.510394 0 0.463994 0 0.417595 0C0.139198 0.0928171 0 0.278451 0 0.603311V25.7568C0 26.1744 0.185598 26.3137 0.556793 26.3137H5.98552C6.40312 26.3137 6.54232 26.128 6.54232 25.7568V24.7358C6.54232 18.4706 6.44952 13.5977 6.44952 13.5977H6.58872C7.4703 16.1038 8.0735 16.475 9.41908 19.4452L9.55828 19.6772C9.69748 19.9557 10.0223 20.1877 10.3471 20.2341C10.3935 20.2341 10.4399 20.2805 10.4863 20.2805H15.7758C15.8222 20.2805 15.8686 20.2805 15.915 20.2341C16.2398 20.1877 16.5646 19.9557 16.7038 19.6772L16.7966 19.4916C18.1422 16.5215 18.7454 16.1038 19.627 13.5977H19.7661C19.7661 13.5977 19.6734 18.4242 19.6734 24.7358V25.7568C19.6734 26.1744 19.8589 26.3137 20.2301 26.3137H25.6589C26.0765 26.3137 26.2157 26.128 26.2157 25.7568V0.603311C26.3085 0.232043 26.1229 0.0464086 25.7053 0.0464086Z" fill="#200806"/>
<path d="M89.0865 10.1239H88.1585C88.0657 10.1239 88.0193 10.0774 88.0193 9.98455V6.73378C88.0193 5.24771 88.0657 3.85452 88.1585 3.06505H88.1121C88.0657 3.29725 87.8802 3.80808 87.741 4.1796L85.7458 8.6378C85.6994 8.68424 85.653 8.73068 85.6066 8.73068H85.189C85.1426 8.73068 85.0962 8.68424 85.0498 8.6378L83.0546 4.13316C82.9154 3.80808 82.7298 3.34369 82.637 3.01861H82.5906C82.6834 3.85452 82.7298 5.15483 82.7298 6.68734V9.93811C82.7298 10.031 82.6834 10.0774 82.5906 10.0774H81.6626C81.5698 10.0774 81.5234 10.031 81.5234 9.93811V0.32511C81.5234 0.232231 81.5698 0.185791 81.6626 0.185791H82.5442C82.5906 0.185791 82.637 0.232231 82.6834 0.27867L85.1426 6.08362C85.189 6.1765 85.3282 6.59446 85.3282 6.73378H85.3746C85.421 6.59446 85.5602 6.22294 85.6066 6.08362L88.0657 0.27867C88.1121 0.232231 88.1585 0.185791 88.2049 0.185791H89.0865C89.1793 0.185791 89.2257 0.232231 89.2257 0.32511V9.93811C89.2721 10.0774 89.2257 10.1239 89.0865 10.1239Z" fill="white"/>
<path d="M89.0865 10.1239H88.1585C88.0657 10.1239 88.0193 10.0774 88.0193 9.98455V6.73378C88.0193 5.24771 88.0657 3.85452 88.1585 3.06505H88.1121C88.0657 3.29725 87.8802 3.80808 87.741 4.1796L85.7458 8.6378C85.6994 8.68424 85.653 8.73068 85.6066 8.73068H85.189C85.1426 8.73068 85.0962 8.68424 85.0498 8.6378L83.0546 4.13316C82.9154 3.80808 82.7298 3.34369 82.637 3.01861H82.5906C82.6834 3.85452 82.7298 5.15483 82.7298 6.68734V9.93811C82.7298 10.031 82.6834 10.0774 82.5906 10.0774H81.6626C81.5698 10.0774 81.5234 10.031 81.5234 9.93811V0.32511C81.5234 0.232231 81.5698 0.185791 81.6626 0.185791H82.5442C82.5906 0.185791 82.637 0.232231 82.6834 0.27867L85.1426 6.08362C85.189 6.1765 85.3282 6.59446 85.3282 6.73378H85.3746C85.421 6.59446 85.5602 6.22294 85.6066 6.08362L88.0657 0.27867C88.1121 0.232231 88.1585 0.185791 88.2049 0.185791H89.0865C89.1793 0.185791 89.2257 0.232231 89.2257 0.32511V9.93811C89.2721 10.0774 89.2257 10.1239 89.0865 10.1239Z" fill="#200806" fill-opacity="0.25"/>
<path d="M97.1607 6.73388H93.1239C93.0311 6.73388 92.9847 6.78032 92.9847 6.8732V7.61624C92.9847 8.45215 93.6807 9.14874 94.5159 9.14874C95.0727 9.14874 95.5831 8.82367 95.9079 8.26639C95.9543 8.17351 96.0471 8.17351 96.0935 8.21995L96.9287 8.63791C97.0215 8.68435 97.0215 8.73079 96.9751 8.82367C96.8359 9.05586 96.6967 9.3345 96.4647 9.52026C96.0471 9.93822 95.4439 10.2169 94.4695 10.2169C92.7527 10.2169 91.6855 9.14874 91.6855 7.5698V5.48001C91.6855 3.99395 92.7527 2.87939 94.4695 2.87939C96.1399 2.87939 97.2535 3.99395 97.2535 5.48001V6.50169C97.2999 6.68744 97.2535 6.73388 97.1607 6.73388ZM96.0471 5.43357C96.0471 4.6441 95.3975 3.94751 94.5159 3.94751C93.5415 3.94751 92.9847 4.6441 92.9847 5.48001V5.66577C92.9847 5.75865 93.0775 5.75865 93.1239 5.75865H95.9079C96.0007 5.75865 96.0471 5.71221 96.0471 5.61933V5.43357Z" fill="white"/>
<path d="M97.1607 6.73388H93.1239C93.0311 6.73388 92.9847 6.78032 92.9847 6.8732V7.61624C92.9847 8.45215 93.6807 9.14874 94.5159 9.14874C95.0727 9.14874 95.5831 8.82367 95.9079 8.26639C95.9543 8.17351 96.0471 8.17351 96.0935 8.21995L96.9287 8.63791C97.0215 8.68435 97.0215 8.73079 96.9751 8.82367C96.8359 9.05586 96.6967 9.3345 96.4647 9.52026C96.0471 9.93822 95.4439 10.2169 94.4695 10.2169C92.7527 10.2169 91.6855 9.14874 91.6855 7.5698V5.48001C91.6855 3.99395 92.7527 2.87939 94.4695 2.87939C96.1399 2.87939 97.2535 3.99395 97.2535 5.48001V6.50169C97.2999 6.68744 97.2535 6.73388 97.1607 6.73388ZM96.0471 5.43357C96.0471 4.6441 95.3975 3.94751 94.5159 3.94751C93.5415 3.94751 92.9847 4.6441 92.9847 5.48001V5.66577C92.9847 5.75865 93.0775 5.75865 93.1239 5.75865H95.9079C96.0007 5.75865 96.0471 5.71221 96.0471 5.61933V5.43357Z" fill="#200806" fill-opacity="0.25"/>
<path d="M104.816 10.1239H104.074C103.981 10.1239 103.934 10.0774 103.934 9.98455V9.52016C103.934 9.3344 103.795 9.28796 103.656 9.42728C103.192 9.93811 102.635 10.1239 102.218 10.1239C100.501 10.1239 99.4336 9.05576 99.4336 7.47681V5.71211C99.4336 4.1796 100.594 3.11149 102.078 3.11149C102.542 3.11149 103.099 3.29725 103.517 3.80808C103.61 3.9474 103.795 3.90096 103.795 3.7152V0.32511C103.795 0.232231 103.842 0.185791 103.934 0.185791H104.862C104.955 0.185791 105.002 0.232231 105.002 0.32511V9.93811C105.002 10.0774 104.955 10.1239 104.816 10.1239ZM103.749 5.66567C103.749 4.82975 103.053 4.13316 102.218 4.13316C101.382 4.13316 100.686 4.82975 100.686 5.66567V7.43037C100.686 8.26629 101.382 8.96288 102.218 8.96288C103.053 8.96288 103.749 8.26629 103.749 7.43037V5.66567Z" fill="white"/>
<path d="M104.816 10.1239H104.074C103.981 10.1239 103.934 10.0774 103.934 9.98455V9.52016C103.934 9.3344 103.795 9.28796 103.656 9.42728C103.192 9.93811 102.635 10.1239 102.218 10.1239C100.501 10.1239 99.4336 9.05576 99.4336 7.47681V5.71211C99.4336 4.1796 100.594 3.11149 102.078 3.11149C102.542 3.11149 103.099 3.29725 103.517 3.80808C103.61 3.9474 103.795 3.90096 103.795 3.7152V0.32511C103.795 0.232231 103.842 0.185791 103.934 0.185791H104.862C104.955 0.185791 105.002 0.232231 105.002 0.32511V9.93811C105.002 10.0774 104.955 10.1239 104.816 10.1239ZM103.749 5.66567C103.749 4.82975 103.053 4.13316 102.218 4.13316C101.382 4.13316 100.686 4.82975 100.686 5.66567V7.43037C100.686 8.26629 101.382 8.96288 102.218 8.96288C103.053 8.96288 103.749 8.26629 103.749 7.43037V5.66567Z" fill="#200806" fill-opacity="0.25"/>
<path d="M108.158 1.57895C107.694 1.57895 107.369 1.25387 107.369 0.789474C107.369 0.371517 107.694 0 108.158 0C108.622 0 108.947 0.325077 108.947 0.789474C108.947 1.20743 108.576 1.57895 108.158 1.57895ZM108.622 10.1238H107.694C107.601 10.1238 107.555 10.0774 107.555 9.98452V3.20433C107.555 3.11146 107.601 3.06502 107.694 3.06502H108.622C108.715 3.06502 108.761 3.11146 108.761 3.20433V9.93808C108.808 10.0774 108.715 10.1238 108.622 10.1238Z" fill="white"/>
<path d="M108.158 1.57895C107.694 1.57895 107.369 1.25387 107.369 0.789474C107.369 0.371517 107.694 0 108.158 0C108.622 0 108.947 0.325077 108.947 0.789474C108.947 1.20743 108.576 1.57895 108.158 1.57895ZM108.622 10.1238H107.694C107.601 10.1238 107.555 10.0774 107.555 9.98452V3.20433C107.555 3.11146 107.601 3.06502 107.694 3.06502H108.622C108.715 3.06502 108.761 3.11146 108.761 3.20433V9.93808C108.808 10.0774 108.715 10.1238 108.622 10.1238Z" fill="#200806" fill-opacity="0.25"/>
<path d="M116.508 6.73388H112.472C112.379 6.73388 112.332 6.78032 112.332 6.8732V7.61624C112.332 8.45215 113.028 9.14874 113.864 9.14874C114.42 9.14874 114.931 8.82367 115.256 8.26639C115.302 8.17351 115.395 8.17351 115.441 8.21995L116.276 8.63791C116.369 8.68435 116.369 8.73079 116.323 8.82367C116.184 9.05586 116.044 9.3345 115.812 9.52026C115.395 9.93822 114.792 10.2169 113.817 10.2169C112.1 10.2169 111.033 9.14874 111.033 7.5698V5.48001C111.033 3.99395 112.1 2.87939 113.817 2.87939C115.488 2.87939 116.601 3.99395 116.601 5.48001V6.50169C116.694 6.68744 116.648 6.73388 116.508 6.73388ZM115.441 5.43357C115.441 4.6441 114.792 3.94751 113.91 3.94751C112.936 3.94751 112.379 4.6441 112.379 5.48001V5.66577C112.379 5.75865 112.472 5.75865 112.518 5.75865H115.302C115.395 5.75865 115.441 5.71221 115.441 5.61933V5.43357Z" fill="white"/>
<path d="M116.508 6.73388H112.472C112.379 6.73388 112.332 6.78032 112.332 6.8732V7.61624C112.332 8.45215 113.028 9.14874 113.864 9.14874C114.42 9.14874 114.931 8.82367 115.256 8.26639C115.302 8.17351 115.395 8.17351 115.441 8.21995L116.276 8.63791C116.369 8.68435 116.369 8.73079 116.323 8.82367C116.184 9.05586 116.044 9.3345 115.812 9.52026C115.395 9.93822 114.792 10.2169 113.817 10.2169C112.1 10.2169 111.033 9.14874 111.033 7.5698V5.48001C111.033 3.99395 112.1 2.87939 113.817 2.87939C115.488 2.87939 116.601 3.99395 116.601 5.48001V6.50169C116.694 6.68744 116.648 6.73388 116.508 6.73388ZM115.441 5.43357C115.441 4.6441 114.792 3.94751 113.91 3.94751C112.936 3.94751 112.379 4.6441 112.379 5.48001V5.66577C112.379 5.75865 112.472 5.75865 112.518 5.75865H115.302C115.395 5.75865 115.441 5.71221 115.441 5.61933V5.43357Z" fill="#200806" fill-opacity="0.25"/>
<path d="M124.443 10.1238H123.515C123.422 10.1238 123.376 10.0774 123.376 9.9845V5.71205C123.376 4.87614 122.68 4.17955 121.798 4.17955C120.963 4.17955 120.267 4.87614 120.267 5.71205V9.9845C120.267 10.0774 120.221 10.1238 120.128 10.1238H119.2C119.107 10.1238 119.061 10.0774 119.061 9.9845V3.20431C119.061 3.11143 119.107 3.06499 119.2 3.06499H119.989C120.081 3.06499 120.128 3.11143 120.128 3.20431V3.62227C120.128 3.80803 120.267 3.85447 120.406 3.71515C120.824 3.20431 121.334 3.01855 121.845 3.01855C123.561 3.01855 124.675 4.08667 124.675 5.61917V9.89162C124.628 10.0774 124.536 10.1238 124.443 10.1238Z" fill="white"/>
<path d="M124.443 10.1238H123.515C123.422 10.1238 123.376 10.0774 123.376 9.9845V5.71205C123.376 4.87614 122.68 4.17955 121.798 4.17955C120.963 4.17955 120.267 4.87614 120.267 5.71205V9.9845C120.267 10.0774 120.221 10.1238 120.128 10.1238H119.2C119.107 10.1238 119.061 10.0774 119.061 9.9845V3.20431C119.061 3.11143 119.107 3.06499 119.2 3.06499H119.989C120.081 3.06499 120.128 3.11143 120.128 3.20431V3.62227C120.128 3.80803 120.267 3.85447 120.406 3.71515C120.824 3.20431 121.334 3.01855 121.845 3.01855C123.561 3.01855 124.675 4.08667 124.675 5.61917V9.89162C124.628 10.0774 124.536 10.1238 124.443 10.1238Z" fill="#200806" fill-opacity="0.25"/>
<path d="M127.691 1.57895C127.227 1.57895 126.902 1.25387 126.902 0.789474C126.902 0.371517 127.227 0 127.691 0C128.155 0 128.48 0.325077 128.48 0.789474C128.48 1.20743 128.155 1.57895 127.691 1.57895ZM128.155 10.1238H127.227C127.134 10.1238 127.088 10.0774 127.088 9.98452V3.20433C127.088 3.11146 127.134 3.06502 127.227 3.06502H128.155C128.248 3.06502 128.294 3.11146 128.294 3.20433V9.93808C128.341 10.0774 128.294 10.1238 128.155 10.1238Z" fill="white"/>
<path d="M127.691 1.57895C127.227 1.57895 126.902 1.25387 126.902 0.789474C126.902 0.371517 127.227 0 127.691 0C128.155 0 128.48 0.325077 128.48 0.789474C128.48 1.20743 128.155 1.57895 127.691 1.57895ZM128.155 10.1238H127.227C127.134 10.1238 127.088 10.0774 127.088 9.98452V3.20433C127.088 3.11146 127.134 3.06502 127.227 3.06502H128.155C128.248 3.06502 128.294 3.11146 128.294 3.20433V9.93808C128.341 10.0774 128.294 10.1238 128.155 10.1238Z" fill="#200806" fill-opacity="0.25"/>
<path d="M136.322 10.1238H135.394C135.301 10.1238 135.255 10.0774 135.255 9.9845V5.71205C135.255 4.87614 134.559 4.17955 133.677 4.17955C132.842 4.17955 132.146 4.87614 132.146 5.71205V9.9845C132.146 10.0774 132.099 10.1238 132.007 10.1238H131.079C130.986 10.1238 130.939 10.0774 130.939 9.9845V3.20431C130.939 3.11143 130.986 3.06499 131.079 3.06499H131.867C131.96 3.06499 132.007 3.11143 132.007 3.20431V3.62227C132.007 3.80803 132.146 3.85447 132.285 3.71515C132.703 3.20431 133.213 3.01855 133.723 3.01855C135.44 3.01855 136.554 4.08667 136.554 5.61917V9.89162C136.507 10.0774 136.461 10.1238 136.322 10.1238Z" fill="white"/>
<path d="M136.322 10.1238H135.394C135.301 10.1238 135.255 10.0774 135.255 9.9845V5.71205C135.255 4.87614 134.559 4.17955 133.677 4.17955C132.842 4.17955 132.146 4.87614 132.146 5.71205V9.9845C132.146 10.0774 132.099 10.1238 132.007 10.1238H131.079C130.986 10.1238 130.939 10.0774 130.939 9.9845V3.20431C130.939 3.11143 130.986 3.06499 131.079 3.06499H131.867C131.96 3.06499 132.007 3.11143 132.007 3.20431V3.62227C132.007 3.80803 132.146 3.85447 132.285 3.71515C132.703 3.20431 133.213 3.01855 133.723 3.01855C135.44 3.01855 136.554 4.08667 136.554 5.61917V9.89162C136.507 10.0774 136.461 10.1238 136.322 10.1238Z" fill="#200806" fill-opacity="0.25"/>
<path d="M144.394 10.1238H143.466C143.373 10.1238 143.327 10.0774 143.327 9.9845V5.71205C143.327 4.87614 142.631 4.17955 141.749 4.17955C140.914 4.17955 140.218 4.87614 140.218 5.71205V9.9845C140.218 10.0774 140.172 10.1238 140.079 10.1238H139.151C139.058 10.1238 139.012 10.0774 139.012 9.9845V3.20431C139.012 3.11143 139.058 3.06499 139.151 3.06499H139.94C140.033 3.06499 140.079 3.11143 140.079 3.20431V3.62227C140.079 3.80803 140.218 3.85447 140.357 3.71515C140.775 3.20431 141.285 3.01855 141.796 3.01855C143.512 3.01855 144.626 4.08667 144.626 5.61917V9.89162C144.58 10.0774 144.533 10.1238 144.394 10.1238Z" fill="white"/>
<path d="M144.394 10.1238H143.466C143.373 10.1238 143.327 10.0774 143.327 9.9845V5.71205C143.327 4.87614 142.631 4.17955 141.749 4.17955C140.914 4.17955 140.218 4.87614 140.218 5.71205V9.9845C140.218 10.0774 140.172 10.1238 140.079 10.1238H139.151C139.058 10.1238 139.012 10.0774 139.012 9.9845V3.20431C139.012 3.11143 139.058 3.06499 139.151 3.06499H139.94C140.033 3.06499 140.079 3.11143 140.079 3.20431V3.62227C140.079 3.80803 140.218 3.85447 140.357 3.71515C140.775 3.20431 141.285 3.01855 141.796 3.01855C143.512 3.01855 144.626 4.08667 144.626 5.61917V9.89162C144.58 10.0774 144.533 10.1238 144.394 10.1238Z" fill="#200806" fill-opacity="0.25"/>
<path d="M149.593 10.2632C147.922 10.2632 146.809 9.14869 146.809 7.66262V5.5264C146.809 4.04033 147.876 2.92578 149.593 2.92578C151.263 2.92578 152.377 4.04033 152.377 5.5264V7.66262C152.377 9.14869 151.309 10.2632 149.593 10.2632ZM151.124 5.43352C151.124 4.64405 150.474 3.94745 149.593 3.94745C148.618 3.94745 148.061 4.64405 148.061 5.47996V7.66262C148.061 8.4521 148.711 9.14869 149.593 9.14869C150.567 9.14869 151.124 8.4521 151.124 7.61618V5.43352Z" fill="white"/>
<path d="M149.593 10.2632C147.922 10.2632 146.809 9.14869 146.809 7.66262V5.5264C146.809 4.04033 147.876 2.92578 149.593 2.92578C151.263 2.92578 152.377 4.04033 152.377 5.5264V7.66262C152.377 9.14869 151.309 10.2632 149.593 10.2632ZM151.124 5.43352C151.124 4.64405 150.474 3.94745 149.593 3.94745C148.618 3.94745 148.061 4.64405 148.061 5.47996V7.66262C148.061 8.4521 148.711 9.14869 149.593 9.14869C150.567 9.14869 151.124 8.4521 151.124 7.61618V5.43352Z" fill="#200806" fill-opacity="0.25"/>
<path d="M157.526 10.0309C157.479 10.0773 157.433 10.1238 157.387 10.1238H156.644C156.598 10.1238 156.551 10.0773 156.505 10.0309L153.767 3.29714C153.721 3.15782 153.767 3.06494 153.907 3.06494H154.881C154.927 3.06494 154.974 3.11138 155.02 3.15782L156.783 7.66246C156.83 7.75534 156.923 8.12686 156.969 8.26618H157.015C157.015 8.12686 157.155 7.7089 157.201 7.66246L158.964 3.15782C159.011 3.11138 159.057 3.06494 159.103 3.06494H160.078C160.217 3.06494 160.263 3.15782 160.217 3.29714L157.526 10.0309Z" fill="white"/>
<path d="M157.526 10.0309C157.479 10.0773 157.433 10.1238 157.387 10.1238H156.644C156.598 10.1238 156.551 10.0773 156.505 10.0309L153.767 3.29714C153.721 3.15782 153.767 3.06494 153.907 3.06494H154.881C154.927 3.06494 154.974 3.11138 155.02 3.15782L156.783 7.66246C156.83 7.75534 156.923 8.12686 156.969 8.26618H157.015C157.015 8.12686 157.155 7.7089 157.201 7.66246L158.964 3.15782C159.011 3.11138 159.057 3.06494 159.103 3.06494H160.078C160.217 3.06494 160.263 3.15782 160.217 3.29714L157.526 10.0309Z" fill="#200806" fill-opacity="0.25"/>
<path d="M166.712 10.1239H165.97C165.877 10.1239 165.831 10.0775 165.831 9.98461V9.52021C165.831 9.33445 165.692 9.28801 165.552 9.38089C165.088 9.84529 164.532 10.1239 164.16 10.1239H163.557C162.444 10.1239 161.516 9.38089 161.516 8.2199V8.12702C161.516 6.96603 162.444 6.223 163.557 6.223H165.506C165.599 6.223 165.645 6.17656 165.645 6.08368V5.5264C165.645 4.69049 164.949 3.99389 164.068 3.99389C163.557 3.99389 163.047 4.27253 162.676 4.87625C162.629 4.96913 162.536 4.96913 162.444 4.92269L161.655 4.50473C161.562 4.45829 161.516 4.36541 161.608 4.27253C161.794 3.99389 161.98 3.71525 162.258 3.5295C162.722 3.15798 163.279 2.92578 164.068 2.92578C165.784 2.92578 166.898 3.94745 166.898 5.5264V9.98461C166.852 10.0775 166.805 10.1239 166.712 10.1239ZM165.645 7.29111C165.645 7.19823 165.599 7.15179 165.506 7.15179H163.557C163.093 7.15179 162.722 7.52331 162.722 7.9877V8.2199C162.722 8.6843 163.093 9.05581 163.557 9.05581H164.16C164.856 9.05581 165.46 8.4521 165.645 7.80194V7.29111Z" fill="white"/>
<path d="M166.712 10.1239H165.97C165.877 10.1239 165.831 10.0775 165.831 9.98461V9.52021C165.831 9.33445 165.692 9.28801 165.552 9.38089C165.088 9.84529 164.532 10.1239 164.16 10.1239H163.557C162.444 10.1239 161.516 9.38089 161.516 8.2199V8.12702C161.516 6.96603 162.444 6.223 163.557 6.223H165.506C165.599 6.223 165.645 6.17656 165.645 6.08368V5.5264C165.645 4.69049 164.949 3.99389 164.068 3.99389C163.557 3.99389 163.047 4.27253 162.676 4.87625C162.629 4.96913 162.536 4.96913 162.444 4.92269L161.655 4.50473C161.562 4.45829 161.516 4.36541 161.608 4.27253C161.794 3.99389 161.98 3.71525 162.258 3.5295C162.722 3.15798 163.279 2.92578 164.068 2.92578C165.784 2.92578 166.898 3.94745 166.898 5.5264V9.98461C166.852 10.0775 166.805 10.1239 166.712 10.1239ZM165.645 7.29111C165.645 7.19823 165.599 7.15179 165.506 7.15179H163.557C163.093 7.15179 162.722 7.52331 162.722 7.9877V8.2199C162.722 8.6843 163.093 9.05581 163.557 9.05581H164.16C164.856 9.05581 165.46 8.4521 165.645 7.80194V7.29111Z" fill="#200806" fill-opacity="0.25"/>
<path d="M172.048 10.2633C171.399 10.2169 170.842 9.98467 170.471 9.6596C169.868 9.1952 169.543 8.49861 169.543 7.61625V4.2726C169.543 4.17972 169.496 4.13328 169.404 4.13328H168.522C168.429 4.13328 168.383 4.08684 168.383 3.99396V3.52957L170.192 1.62554L170.285 1.5791H170.656C170.749 1.5791 170.796 1.62554 170.796 1.71842V2.83297C170.796 2.92585 170.842 2.97229 170.935 2.97229H172.048C172.141 2.97229 172.188 3.01873 172.188 3.11161V3.85464C172.188 3.94752 172.141 3.99396 172.048 3.99396H170.935C170.842 3.99396 170.796 4.0404 170.796 4.13328V7.47694C170.796 8.21997 171.306 8.82368 172.095 9.00944C172.188 9.00944 172.234 9.05588 172.234 9.14876V9.93824C172.234 10.2169 172.141 10.2633 172.048 10.2633Z" fill="white"/>
<path d="M172.048 10.2633C171.399 10.2169 170.842 9.98467 170.471 9.6596C169.868 9.1952 169.543 8.49861 169.543 7.61625V4.2726C169.543 4.17972 169.496 4.13328 169.404 4.13328H168.522C168.429 4.13328 168.383 4.08684 168.383 3.99396V3.52957L170.192 1.62554L170.285 1.5791H170.656C170.749 1.5791 170.796 1.62554 170.796 1.71842V2.83297C170.796 2.92585 170.842 2.97229 170.935 2.97229H172.048C172.141 2.97229 172.188 3.01873 172.188 3.11161V3.85464C172.188 3.94752 172.141 3.99396 172.048 3.99396H170.935C170.842 3.99396 170.796 4.0404 170.796 4.13328V7.47694C170.796 8.21997 171.306 8.82368 172.095 9.00944C172.188 9.00944 172.234 9.05588 172.234 9.14876V9.93824C172.234 10.2169 172.141 10.2633 172.048 10.2633Z" fill="#200806" fill-opacity="0.25"/>
<path d="M174.972 1.57895C174.508 1.57895 174.184 1.25387 174.184 0.789474C174.184 0.371517 174.508 0 174.972 0C175.436 0 175.761 0.325077 175.761 0.789474C175.761 1.20743 175.39 1.57895 174.972 1.57895ZM175.436 10.1238H174.508C174.416 10.1238 174.369 10.0774 174.369 9.98452V3.20433C174.369 3.11146 174.416 3.06502 174.508 3.06502H175.436C175.529 3.06502 175.576 3.11146 175.576 3.20433V9.93808C175.576 10.0774 175.529 10.1238 175.436 10.1238Z" fill="white"/>
<path d="M174.972 1.57895C174.508 1.57895 174.184 1.25387 174.184 0.789474C174.184 0.371517 174.508 0 174.972 0C175.436 0 175.761 0.325077 175.761 0.789474C175.761 1.20743 175.39 1.57895 174.972 1.57895ZM175.436 10.1238H174.508C174.416 10.1238 174.369 10.0774 174.369 9.98452V3.20433C174.369 3.11146 174.416 3.06502 174.508 3.06502H175.436C175.529 3.06502 175.576 3.11146 175.576 3.20433V9.93808C175.576 10.0774 175.529 10.1238 175.436 10.1238Z" fill="#200806" fill-opacity="0.25"/>
<path d="M180.401 10.2632C178.731 10.2632 177.617 9.14869 177.617 7.66262V5.5264C177.617 4.04033 178.684 2.92578 180.401 2.92578C182.072 2.92578 183.185 4.04033 183.185 5.5264V7.66262C183.185 9.14869 182.072 10.2632 180.401 10.2632ZM181.932 5.43352C181.932 4.64405 181.283 3.94745 180.401 3.94745C179.427 3.94745 178.87 4.64405 178.87 5.47996V7.66262C178.87 8.4521 179.52 9.14869 180.401 9.14869C181.376 9.14869 181.932 8.4521 181.932 7.61618V5.43352Z" fill="white"/>
<path d="M180.401 10.2632C178.731 10.2632 177.617 9.14869 177.617 7.66262V5.5264C177.617 4.04033 178.684 2.92578 180.401 2.92578C182.072 2.92578 183.185 4.04033 183.185 5.5264V7.66262C183.185 9.14869 182.072 10.2632 180.401 10.2632ZM181.932 5.43352C181.932 4.64405 181.283 3.94745 180.401 3.94745C179.427 3.94745 178.87 4.64405 178.87 5.47996V7.66262C178.87 8.4521 179.52 9.14869 180.401 9.14869C181.376 9.14869 181.932 8.4521 181.932 7.61618V5.43352Z" fill="#200806" fill-opacity="0.25"/>
<path d="M190.933 10.1238H190.005C189.912 10.1238 189.866 10.0774 189.866 9.9845V5.71205C189.866 4.87614 189.17 4.17955 188.288 4.17955C187.407 4.17955 186.757 4.87614 186.757 5.71205V9.9845C186.757 10.0774 186.711 10.1238 186.618 10.1238H185.69C185.597 10.1238 185.551 10.0774 185.551 9.9845V3.20431C185.551 3.11143 185.597 3.06499 185.69 3.06499H186.479C186.572 3.06499 186.618 3.11143 186.618 3.20431V3.62227C186.618 3.80803 186.757 3.85447 186.896 3.71515C187.314 3.20431 187.824 3.01855 188.335 3.01855C190.052 3.01855 191.165 4.08667 191.165 5.61917V9.89162C191.119 10.0774 191.072 10.1238 190.933 10.1238Z" fill="white"/>
<path d="M190.933 10.1238H190.005C189.912 10.1238 189.866 10.0774 189.866 9.9845V5.71205C189.866 4.87614 189.17 4.17955 188.288 4.17955C187.407 4.17955 186.757 4.87614 186.757 5.71205V9.9845C186.757 10.0774 186.711 10.1238 186.618 10.1238H185.69C185.597 10.1238 185.551 10.0774 185.551 9.9845V3.20431C185.551 3.11143 185.597 3.06499 185.69 3.06499H186.479C186.572 3.06499 186.618 3.11143 186.618 3.20431V3.62227C186.618 3.80803 186.757 3.85447 186.896 3.71515C187.314 3.20431 187.824 3.01855 188.335 3.01855C190.052 3.01855 191.165 4.08667 191.165 5.61917V9.89162C191.119 10.0774 191.072 10.1238 190.933 10.1238Z" fill="#200806" fill-opacity="0.25"/>
<path d="M196.13 10.2632H195.666C194.784 10.2632 194.181 10.031 193.81 9.65953C193.531 9.42733 193.346 9.14869 193.207 8.87005C193.16 8.77717 193.207 8.73073 193.299 8.6843L194.042 8.31278C194.135 8.26634 194.181 8.31278 194.227 8.35922C194.506 8.87005 195.063 9.24157 195.666 9.24157H196.13C197.011 9.24157 197.475 8.73073 197.475 8.17346C197.475 7.38399 196.455 7.29111 195.341 7.05891C194.32 6.87315 193.16 6.40875 193.16 5.062C193.16 3.62238 194.227 2.92578 195.666 2.92578H196.13C196.965 2.92578 197.522 3.15798 197.939 3.48306C198.218 3.71525 198.45 3.99389 198.589 4.27253C198.635 4.36541 198.589 4.45829 198.496 4.50473L197.754 4.87625C197.661 4.92269 197.615 4.87625 197.568 4.82981C197.243 4.31897 196.733 3.94745 196.13 3.94745H195.666C194.738 3.94745 194.367 4.41185 194.367 4.92269C194.367 5.80504 195.387 5.85148 196.455 6.08368C197.661 6.31587 198.682 6.73383 198.682 7.9877C198.682 9.24157 197.8 10.2632 196.13 10.2632Z" fill="white"/>
<path d="M196.13 10.2632H195.666C194.784 10.2632 194.181 10.031 193.81 9.65953C193.531 9.42733 193.346 9.14869 193.207 8.87005C193.16 8.77717 193.207 8.73073 193.299 8.6843L194.042 8.31278C194.135 8.26634 194.181 8.31278 194.227 8.35922C194.506 8.87005 195.063 9.24157 195.666 9.24157H196.13C197.011 9.24157 197.475 8.73073 197.475 8.17346C197.475 7.38399 196.455 7.29111 195.341 7.05891C194.32 6.87315 193.16 6.40875 193.16 5.062C193.16 3.62238 194.227 2.92578 195.666 2.92578H196.13C196.965 2.92578 197.522 3.15798 197.939 3.48306C198.218 3.71525 198.45 3.99389 198.589 4.27253C198.635 4.36541 198.589 4.45829 198.496 4.50473L197.754 4.87625C197.661 4.92269 197.615 4.87625 197.568 4.82981C197.243 4.31897 196.733 3.94745 196.13 3.94745H195.666C194.738 3.94745 194.367 4.41185 194.367 4.92269C194.367 5.80504 195.387 5.85148 196.455 6.08368C197.661 6.31587 198.682 6.73383 198.682 7.9877C198.682 9.24157 197.8 10.2632 196.13 10.2632Z" fill="#200806" fill-opacity="0.25"/>
<path d="M205.966 10.124H200.63C200.49 10.124 200.398 10.0311 200.49 9.89176L203.785 4.41188C203.878 4.27256 203.785 4.17968 203.646 4.17968H200.722C200.63 4.17968 200.583 4.13324 200.583 4.04036V3.25089C200.583 3.15801 200.63 3.11157 200.722 3.11157H205.734C205.873 3.11157 205.966 3.20445 205.873 3.34377L202.578 8.82365C202.486 8.96296 202.578 9.05584 202.718 9.05584H205.966C206.058 9.05584 206.105 9.10228 206.105 9.19516V9.98464C206.105 10.0775 206.058 10.124 205.966 10.124Z" fill="white"/>
<path d="M205.966 10.124H200.63C200.49 10.124 200.398 10.0311 200.49 9.89176L203.785 4.41188C203.878 4.27256 203.785 4.17968 203.646 4.17968H200.722C200.63 4.17968 200.583 4.13324 200.583 4.04036V3.25089C200.583 3.15801 200.63 3.11157 200.722 3.11157H205.734C205.873 3.11157 205.966 3.20445 205.873 3.34377L202.578 8.82365C202.486 8.96296 202.578 9.05584 202.718 9.05584H205.966C206.058 9.05584 206.105 9.10228 206.105 9.19516V9.98464C206.105 10.0775 206.058 10.124 205.966 10.124Z" fill="#200806" fill-opacity="0.25"/>
<path d="M212.926 6.73388H208.89C208.797 6.73388 208.75 6.78032 208.75 6.8732V7.61624C208.75 8.45215 209.446 9.14874 210.282 9.14874C210.838 9.14874 211.349 8.82367 211.674 8.26639C211.72 8.17351 211.813 8.17351 211.859 8.21995L212.694 8.63791C212.787 8.68435 212.787 8.73079 212.741 8.82367C212.602 9.05586 212.462 9.3345 212.23 9.52026C211.813 9.93822 211.21 10.2169 210.235 10.2169C208.518 10.2169 207.451 9.14874 207.451 7.5698V5.48001C207.451 3.99395 208.518 2.87939 210.235 2.87939C211.906 2.87939 213.019 3.99395 213.019 5.48001V6.50169C213.066 6.68744 213.019 6.73388 212.926 6.73388ZM211.813 5.43357C211.813 4.6441 211.163 3.94751 210.282 3.94751C209.307 3.94751 208.75 4.6441 208.75 5.48001V5.66577C208.75 5.75865 208.843 5.75865 208.89 5.75865H211.674C211.766 5.75865 211.813 5.71221 211.813 5.61933V5.43357Z" fill="white"/>
<path d="M212.926 6.73388H208.89C208.797 6.73388 208.75 6.78032 208.75 6.8732V7.61624C208.75 8.45215 209.446 9.14874 210.282 9.14874C210.838 9.14874 211.349 8.82367 211.674 8.26639C211.72 8.17351 211.813 8.17351 211.859 8.21995L212.694 8.63791C212.787 8.68435 212.787 8.73079 212.741 8.82367C212.602 9.05586 212.462 9.3345 212.23 9.52026C211.813 9.93822 211.21 10.2169 210.235 10.2169C208.518 10.2169 207.451 9.14874 207.451 7.5698V5.48001C207.451 3.99395 208.518 2.87939 210.235 2.87939C211.906 2.87939 213.019 3.99395 213.019 5.48001V6.50169C213.066 6.68744 213.019 6.73388 212.926 6.73388ZM211.813 5.43357C211.813 4.6441 211.163 3.94751 210.282 3.94751C209.307 3.94751 208.75 4.6441 208.75 5.48001V5.66577C208.75 5.75865 208.843 5.75865 208.89 5.75865H211.674C211.766 5.75865 211.813 5.71221 211.813 5.61933V5.43357Z" fill="#200806" fill-opacity="0.25"/>
<path d="M220.537 10.1238H219.609C219.516 10.1238 219.469 10.0774 219.469 9.9845V5.71205C219.469 4.87614 218.773 4.17955 217.892 4.17955C217.057 4.17955 216.361 4.87614 216.361 5.71205V9.9845C216.361 10.0774 216.314 10.1238 216.221 10.1238H215.293C215.201 10.1238 215.154 10.0774 215.154 9.9845V3.20431C215.154 3.11143 215.201 3.06499 215.293 3.06499H216.082C216.175 3.06499 216.221 3.11143 216.221 3.20431V3.62227C216.221 3.80803 216.361 3.85447 216.5 3.71515C216.917 3.20431 217.428 3.01855 217.938 3.01855C219.655 3.01855 220.769 4.08667 220.769 5.61917V9.89162C220.676 10.0774 220.629 10.1238 220.537 10.1238Z" fill="white"/>
<path d="M220.537 10.1238H219.609C219.516 10.1238 219.469 10.0774 219.469 9.9845V5.71205C219.469 4.87614 218.773 4.17955 217.892 4.17955C217.057 4.17955 216.361 4.87614 216.361 5.71205V9.9845C216.361 10.0774 216.314 10.1238 216.221 10.1238H215.293C215.201 10.1238 215.154 10.0774 215.154 9.9845V3.20431C215.154 3.11143 215.201 3.06499 215.293 3.06499H216.082C216.175 3.06499 216.221 3.11143 216.221 3.20431V3.62227C216.221 3.80803 216.361 3.85447 216.5 3.71515C216.917 3.20431 217.428 3.01855 217.938 3.01855C219.655 3.01855 220.769 4.08667 220.769 5.61917V9.89162C220.676 10.0774 220.629 10.1238 220.537 10.1238Z" fill="#200806" fill-opacity="0.25"/>
<path d="M225.873 10.2633C225.223 10.2169 224.713 9.98467 224.295 9.6596C223.692 9.1952 223.367 8.49861 223.367 7.61625V4.2726C223.367 4.17972 223.321 4.13328 223.228 4.13328H222.346C222.253 4.13328 222.207 4.08684 222.207 3.99396V3.52957L224.017 1.62554L224.109 1.5791H224.481C224.573 1.5791 224.62 1.62554 224.62 1.71842V2.83297C224.62 2.92585 224.666 2.97229 224.759 2.97229H225.873C225.965 2.97229 226.012 3.01873 226.012 3.11161V3.85464C226.012 3.94752 225.965 3.99396 225.873 3.99396H224.759C224.666 3.99396 224.62 4.0404 224.62 4.13328V7.47694C224.62 8.21997 225.13 8.82368 225.919 9.00944C226.012 9.00944 226.058 9.05588 226.058 9.14876V9.93824C226.012 10.2169 225.965 10.2633 225.873 10.2633Z" fill="white"/>
<path d="M225.873 10.2633C225.223 10.2169 224.713 9.98467 224.295 9.6596C223.692 9.1952 223.367 8.49861 223.367 7.61625V4.2726C223.367 4.17972 223.321 4.13328 223.228 4.13328H222.346C222.253 4.13328 222.207 4.08684 222.207 3.99396V3.52957L224.017 1.62554L224.109 1.5791H224.481C224.573 1.5791 224.62 1.62554 224.62 1.71842V2.83297C224.62 2.92585 224.666 2.97229 224.759 2.97229H225.873C225.965 2.97229 226.012 3.01873 226.012 3.11161V3.85464C226.012 3.94752 225.965 3.99396 225.873 3.99396H224.759C224.666 3.99396 224.62 4.0404 224.62 4.13328V7.47694C224.62 8.21997 225.13 8.82368 225.919 9.00944C226.012 9.00944 226.058 9.05588 226.058 9.14876V9.93824C226.012 10.2169 225.965 10.2633 225.873 10.2633Z" fill="#200806" fill-opacity="0.25"/>
<path d="M231.254 4.3653C231.161 4.31886 231.069 4.31886 230.976 4.31886C230.094 4.31886 229.445 4.92258 229.445 5.85137V9.93806C229.445 10.0309 229.398 10.0774 229.305 10.0774H228.377C228.285 10.0774 228.238 10.0309 228.238 9.93806V3.20431C228.238 3.11143 228.285 3.06499 228.377 3.06499H229.166C229.259 3.06499 229.305 3.11143 229.305 3.20431V3.85447C229.305 4.04023 229.445 4.08667 229.584 3.94735C230.001 3.34363 230.512 3.01855 231.022 3.01855H231.347C231.44 3.01855 231.486 3.06499 231.486 3.20431V4.17955C231.44 4.3653 231.347 4.41174 231.254 4.3653Z" fill="white"/>
<path d="M231.254 4.3653C231.161 4.31886 231.069 4.31886 230.976 4.31886C230.094 4.31886 229.445 4.92258 229.445 5.85137V9.93806C229.445 10.0309 229.398 10.0774 229.305 10.0774H228.377C228.285 10.0774 228.238 10.0309 228.238 9.93806V3.20431C228.238 3.11143 228.285 3.06499 228.377 3.06499H229.166C229.259 3.06499 229.305 3.11143 229.305 3.20431V3.85447C229.305 4.04023 229.445 4.08667 229.584 3.94735C230.001 3.34363 230.512 3.01855 231.022 3.01855H231.347C231.44 3.01855 231.486 3.06499 231.486 3.20431V4.17955C231.44 4.3653 231.347 4.41174 231.254 4.3653Z" fill="#200806" fill-opacity="0.25"/>
<path d="M238.306 10.1238H237.564C237.471 10.1238 237.425 10.0773 237.425 9.98445V9.52005C237.425 9.33429 237.239 9.28785 237.146 9.42717C236.729 9.93801 236.218 10.1238 235.708 10.1238C233.991 10.1238 232.924 9.05565 232.924 7.47671V3.20426C232.924 3.11138 232.97 3.06494 233.063 3.06494H233.991C234.084 3.06494 234.13 3.11138 234.13 3.20426V7.43027C234.13 8.26618 234.826 8.96277 235.661 8.96277C236.497 8.96277 237.239 8.26618 237.239 7.43027V3.20426C237.239 3.11138 237.285 3.06494 237.378 3.06494H238.306C238.399 3.06494 238.445 3.11138 238.445 3.20426V9.93801C238.445 10.0773 238.399 10.1238 238.306 10.1238Z" fill="white"/>
<path d="M238.306 10.1238H237.564C237.471 10.1238 237.425 10.0773 237.425 9.98445V9.52005C237.425 9.33429 237.239 9.28785 237.146 9.42717C236.729 9.93801 236.218 10.1238 235.708 10.1238C233.991 10.1238 232.924 9.05565 232.924 7.47671V3.20426C232.924 3.11138 232.97 3.06494 233.063 3.06494H233.991C234.084 3.06494 234.13 3.11138 234.13 3.20426V7.43027C234.13 8.26618 234.826 8.96277 235.661 8.96277C236.497 8.96277 237.239 8.26618 237.239 7.43027V3.20426C237.239 3.11138 237.285 3.06494 237.378 3.06494H238.306C238.399 3.06494 238.445 3.11138 238.445 3.20426V9.93801C238.445 10.0773 238.399 10.1238 238.306 10.1238Z" fill="#200806" fill-opacity="0.25"/>
<path d="M249.814 10.1238H248.886C248.793 10.1238 248.746 10.0773 248.746 9.98445V5.712C248.746 4.87609 248.004 4.17949 247.354 4.17949C246.751 4.17949 245.962 4.87609 245.962 5.712V9.98445C245.962 10.0773 245.916 10.1238 245.823 10.1238H244.895C244.802 10.1238 244.756 10.0773 244.756 9.98445V5.712C244.756 4.87609 244.014 4.17949 243.364 4.17949C242.714 4.17949 241.972 4.87609 241.972 5.712V9.98445C241.972 10.0773 241.926 10.1238 241.833 10.1238H240.905C240.812 10.1238 240.766 10.0773 240.766 9.98445V3.20426C240.766 3.11138 240.812 3.06494 240.905 3.06494H241.694C241.786 3.06494 241.833 3.11138 241.833 3.20426V3.62222C241.833 3.80798 241.972 3.85442 242.065 3.76154C242.529 3.2507 243.039 3.06494 243.503 3.06494C244.06 3.06494 244.802 3.29714 245.22 3.90085C245.313 3.99373 245.406 3.99373 245.452 3.90085C245.962 3.34358 246.612 3.06494 247.308 3.06494C248.793 3.06494 249.953 4.13305 249.953 5.66556V9.93801C249.999 10.0773 249.953 10.1238 249.814 10.1238Z" fill="white"/>
<path d="M249.814 10.1238H248.886C248.793 10.1238 248.746 10.0773 248.746 9.98445V5.712C248.746 4.87609 248.004 4.17949 247.354 4.17949C246.751 4.17949 245.962 4.87609 245.962 5.712V9.98445C245.962 10.0773 245.916 10.1238 245.823 10.1238H244.895C244.802 10.1238 244.756 10.0773 244.756 9.98445V5.712C244.756 4.87609 244.014 4.17949 243.364 4.17949C242.714 4.17949 241.972 4.87609 241.972 5.712V9.98445C241.972 10.0773 241.926 10.1238 241.833 10.1238H240.905C240.812 10.1238 240.766 10.0773 240.766 9.98445V3.20426C240.766 3.11138 240.812 3.06494 240.905 3.06494H241.694C241.786 3.06494 241.833 3.11138 241.833 3.20426V3.62222C241.833 3.80798 241.972 3.85442 242.065 3.76154C242.529 3.2507 243.039 3.06494 243.503 3.06494C244.06 3.06494 244.802 3.29714 245.22 3.90085C245.313 3.99373 245.406 3.99373 245.452 3.90085C245.962 3.34358 246.612 3.06494 247.308 3.06494C248.793 3.06494 249.953 4.13305 249.953 5.66556V9.93801C249.999 10.0773 249.953 10.1238 249.814 10.1238Z" fill="#200806" fill-opacity="0.25"/>
<path d="M84.7714 26.4706H81.6626C81.5698 26.4706 81.5234 26.4241 81.5234 26.3312V16.6718C81.5234 16.5789 81.5698 16.5325 81.6626 16.5325H84.7714C86.4882 16.5325 87.5554 17.6006 87.5554 19.3188V19.4582C87.5554 20.0619 87.045 20.9442 86.4882 21.2693C86.349 21.3622 86.349 21.4551 86.4882 21.548C87.045 21.873 87.5554 22.6625 87.5554 23.452V23.6842C87.5554 25.356 86.4418 26.4706 84.7714 26.4706ZM86.3026 19.1331C86.3026 18.2972 85.6066 17.6006 84.725 17.6006H82.869C82.7762 17.6006 82.7298 17.647 82.7298 17.7399V20.712C82.7298 20.8049 82.7762 20.8514 82.869 20.8514H84.725C85.5602 20.8514 86.3026 20.1548 86.3026 19.2724V19.1331ZM86.3026 23.4984C86.3026 22.6625 85.6066 21.9659 84.725 21.9659H82.869C82.7762 21.9659 82.7298 22.0123 82.7298 22.1052V25.2167C82.7298 25.3096 82.7762 25.356 82.869 25.356H84.725C85.5602 25.356 86.3026 24.6594 86.3026 23.8235V23.4984Z" fill="white"/>
<path d="M84.7714 26.4706H81.6626C81.5698 26.4706 81.5234 26.4241 81.5234 26.3312V16.6718C81.5234 16.5789 81.5698 16.5325 81.6626 16.5325H84.7714C86.4882 16.5325 87.5554 17.6006 87.5554 19.3188V19.4582C87.5554 20.0619 87.045 20.9442 86.4882 21.2693C86.349 21.3622 86.349 21.4551 86.4882 21.548C87.045 21.873 87.5554 22.6625 87.5554 23.452V23.6842C87.5554 25.356 86.4418 26.4706 84.7714 26.4706ZM86.3026 19.1331C86.3026 18.2972 85.6066 17.6006 84.725 17.6006H82.869C82.7762 17.6006 82.7298 17.647 82.7298 17.7399V20.712C82.7298 20.8049 82.7762 20.8514 82.869 20.8514H84.725C85.5602 20.8514 86.3026 20.1548 86.3026 19.2724V19.1331ZM86.3026 23.4984C86.3026 22.6625 85.6066 21.9659 84.725 21.9659H82.869C82.7762 21.9659 82.7298 22.0123 82.7298 22.1052V25.2167C82.7298 25.3096 82.7762 25.356 82.869 25.356H84.725C85.5602 25.356 86.3026 24.6594 86.3026 23.8235V23.4984Z" fill="#200806" fill-opacity="0.25"/>
<path d="M94.7475 26.4706H94.0051C93.9123 26.4706 93.8659 26.4242 93.8659 26.3313V25.8669C93.8659 25.6811 93.7267 25.6347 93.5875 25.7276C93.1235 26.192 92.5667 26.4706 92.1955 26.4706H91.5924C90.4788 26.4706 89.5508 25.7276 89.5508 24.5666V24.4737C89.5508 23.3127 90.4788 22.5697 91.5924 22.5697H93.5411C93.6339 22.5697 93.6803 22.5232 93.6803 22.4304V21.8731C93.6803 21.0372 92.9843 20.3406 92.1028 20.3406C91.5924 20.3406 91.082 20.6192 90.7108 21.2229C90.6644 21.3158 90.5716 21.3158 90.4788 21.2694L89.69 20.8514C89.5972 20.805 89.5508 20.7121 89.6436 20.6192C89.8292 20.3406 90.0148 20.0619 90.2932 19.8762C90.7572 19.5047 91.314 19.2725 92.1028 19.2725C93.8195 19.2725 94.9331 20.2941 94.9331 21.8731V26.3313C94.8867 26.4242 94.8403 26.4706 94.7475 26.4706ZM93.6339 23.6378C93.6339 23.5449 93.5875 23.4985 93.4947 23.4985H91.546C91.082 23.4985 90.7108 23.87 90.7108 24.3344V24.5666C90.7108 25.031 91.082 25.4025 91.546 25.4025H92.1492C92.8451 25.4025 93.4483 24.7988 93.6339 24.1486V23.6378Z" fill="white"/>
<path d="M94.7475 26.4706H94.0051C93.9123 26.4706 93.8659 26.4242 93.8659 26.3313V25.8669C93.8659 25.6811 93.7267 25.6347 93.5875 25.7276C93.1235 26.192 92.5667 26.4706 92.1955 26.4706H91.5924C90.4788 26.4706 89.5508 25.7276 89.5508 24.5666V24.4737C89.5508 23.3127 90.4788 22.5697 91.5924 22.5697H93.5411C93.6339 22.5697 93.6803 22.5232 93.6803 22.4304V21.8731C93.6803 21.0372 92.9843 20.3406 92.1028 20.3406C91.5924 20.3406 91.082 20.6192 90.7108 21.2229C90.6644 21.3158 90.5716 21.3158 90.4788 21.2694L89.69 20.8514C89.5972 20.805 89.5508 20.7121 89.6436 20.6192C89.8292 20.3406 90.0148 20.0619 90.2932 19.8762C90.7572 19.5047 91.314 19.2725 92.1028 19.2725C93.8195 19.2725 94.9331 20.2941 94.9331 21.8731V26.3313C94.8867 26.4242 94.8403 26.4706 94.7475 26.4706ZM93.6339 23.6378C93.6339 23.5449 93.5875 23.4985 93.4947 23.4985H91.546C91.082 23.4985 90.7108 23.87 90.7108 24.3344V24.5666C90.7108 25.031 91.082 25.4025 91.546 25.4025H92.1492C92.8451 25.4025 93.4483 24.7988 93.6339 24.1486V23.6378Z" fill="#200806" fill-opacity="0.25"/>
<path d="M99.8523 26.4706C99.4347 26.4706 98.8779 26.2848 98.4139 25.774C98.2747 25.6346 98.1355 25.6811 98.1355 25.8668V26.2848C98.1355 26.3777 98.0891 26.4241 97.9963 26.4241H97.2076C97.1148 26.4241 97.0684 26.3777 97.0684 26.2848V16.6718C97.0684 16.5789 97.1148 16.5325 97.2076 16.5325H98.1355C98.2283 16.5325 98.2747 16.5789 98.2747 16.6718V19.969C98.2747 20.1548 98.4139 20.2012 98.5531 20.0619C98.9707 19.5975 99.5275 19.4117 99.9915 19.4117C101.476 19.4117 102.636 20.4798 102.636 22.0123V23.7771C102.636 25.356 101.523 26.4706 99.8523 26.4706ZM101.384 22.0123C101.384 21.1764 100.688 20.4798 99.8059 20.4798C98.9707 20.4798 98.2747 21.1764 98.2747 22.0123V23.7771C98.2747 24.613 98.9707 25.3096 99.8059 25.3096C100.641 25.3096 101.384 24.613 101.384 23.7771V22.0123Z" fill="white"/>
<path d="M99.8523 26.4706C99.4347 26.4706 98.8779 26.2848 98.4139 25.774C98.2747 25.6346 98.1355 25.6811 98.1355 25.8668V26.2848C98.1355 26.3777 98.0891 26.4241 97.9963 26.4241H97.2076C97.1148 26.4241 97.0684 26.3777 97.0684 26.2848V16.6718C97.0684 16.5789 97.1148 16.5325 97.2076 16.5325H98.1355C98.2283 16.5325 98.2747 16.5789 98.2747 16.6718V19.969C98.2747 20.1548 98.4139 20.2012 98.5531 20.0619C98.9707 19.5975 99.5275 19.4117 99.9915 19.4117C101.476 19.4117 102.636 20.4798 102.636 22.0123V23.7771C102.636 25.356 101.523 26.4706 99.8523 26.4706ZM101.384 22.0123C101.384 21.1764 100.688 20.4798 99.8059 20.4798C98.9707 20.4798 98.2747 21.1764 98.2747 22.0123V23.7771C98.2747 24.613 98.9707 25.3096 99.8059 25.3096C100.641 25.3096 101.384 24.613 101.384 23.7771V22.0123Z" fill="#200806" fill-opacity="0.25"/>
<path d="M109.827 23.0803H105.79C105.697 23.0803 105.651 23.1268 105.651 23.2196V23.9627C105.651 24.7986 106.347 25.4952 107.182 25.4952C107.739 25.4952 108.249 25.1701 108.574 24.6128C108.62 24.5199 108.713 24.5199 108.76 24.5664L109.595 24.9843C109.687 25.0308 109.688 25.0772 109.641 25.1701C109.502 25.4023 109.363 25.6809 109.131 25.8667C108.713 26.2847 108.11 26.5633 107.136 26.5633C105.419 26.5633 104.352 25.4952 104.352 23.9162V21.8264C104.352 20.3404 105.419 19.2258 107.136 19.2258C108.806 19.2258 109.919 20.3404 109.919 21.8264V22.8481C110.012 23.0339 109.966 23.0803 109.827 23.0803ZM108.76 21.78C108.76 20.9905 108.11 20.2939 107.228 20.2939C106.254 20.2939 105.697 20.9905 105.697 21.8264V22.0122C105.697 22.1051 105.79 22.1051 105.836 22.1051H108.62C108.713 22.1051 108.76 22.0586 108.76 21.9658V21.78Z" fill="white"/>
<path d="M109.827 23.0803H105.79C105.697 23.0803 105.651 23.1268 105.651 23.2196V23.9627C105.651 24.7986 106.347 25.4952 107.182 25.4952C107.739 25.4952 108.249 25.1701 108.574 24.6128C108.62 24.5199 108.713 24.5199 108.76 24.5664L109.595 24.9843C109.687 25.0308 109.688 25.0772 109.641 25.1701C109.502 25.4023 109.363 25.6809 109.131 25.8667C108.713 26.2847 108.11 26.5633 107.136 26.5633C105.419 26.5633 104.352 25.4952 104.352 23.9162V21.8264C104.352 20.3404 105.419 19.2258 107.136 19.2258C108.806 19.2258 109.919 20.3404 109.919 21.8264V22.8481C110.012 23.0339 109.966 23.0803 109.827 23.0803ZM108.76 21.78C108.76 20.9905 108.11 20.2939 107.228 20.2939C106.254 20.2939 105.697 20.9905 105.697 21.8264V22.0122C105.697 22.1051 105.79 22.1051 105.836 22.1051H108.62C108.713 22.1051 108.76 22.0586 108.76 21.9658V21.78Z" fill="#200806" fill-opacity="0.25"/>
<path d="M113.075 26.4706H112.147C112.054 26.4706 112.008 26.4241 112.008 26.3312V16.6718C112.008 16.5789 112.054 16.5325 112.147 16.5325H113.075C113.168 16.5325 113.214 16.5789 113.214 16.6718V26.2848C113.261 26.4241 113.214 26.4706 113.075 26.4706Z" fill="white"/>
<path d="M113.075 26.4706H112.147C112.054 26.4706 112.008 26.4241 112.008 26.3312V16.6718C112.008 16.5789 112.054 16.5325 112.147 16.5325H113.075C113.168 16.5325 113.214 16.5789 113.214 16.6718V26.2848C113.261 26.4241 113.214 26.4706 113.075 26.4706Z" fill="#200806" fill-opacity="0.25"/>
<path d="M118.364 26.6099H117.9C117.019 26.6099 116.415 26.3777 116.044 26.0062C115.766 25.774 115.58 25.4954 115.441 25.2167C115.395 25.1239 115.441 25.0774 115.534 25.031L116.276 24.6595C116.369 24.613 116.415 24.6595 116.462 24.7059C116.74 25.2167 117.297 25.5882 117.9 25.5882H118.364C119.246 25.5882 119.71 25.0774 119.71 24.5201C119.71 23.7307 118.689 23.6378 117.575 23.4056C116.555 23.2198 115.395 22.7554 115.395 21.4087C115.395 19.9691 116.462 19.2725 117.9 19.2725H118.364C119.199 19.2725 119.756 19.5047 120.174 19.8297C120.452 20.0619 120.684 20.3406 120.823 20.6192C120.87 20.7121 120.823 20.805 120.73 20.8514L119.988 21.2229C119.895 21.2694 119.849 21.2229 119.802 21.1765C119.478 20.6656 118.967 20.2941 118.364 20.2941H117.9C116.972 20.2941 116.601 20.7585 116.601 21.2694C116.601 22.1517 117.622 22.1982 118.689 22.4304C119.895 22.6626 120.916 23.0805 120.916 24.3344C120.916 25.5883 120.034 26.6099 118.364 26.6099Z" fill="white"/>
<path d="M118.364 26.6099H117.9C117.019 26.6099 116.415 26.3777 116.044 26.0062C115.766 25.774 115.58 25.4954 115.441 25.2167C115.395 25.1239 115.441 25.0774 115.534 25.031L116.276 24.6595C116.369 24.613 116.415 24.6595 116.462 24.7059C116.74 25.2167 117.297 25.5882 117.9 25.5882H118.364C119.246 25.5882 119.71 25.0774 119.71 24.5201C119.71 23.7307 118.689 23.6378 117.575 23.4056C116.555 23.2198 115.395 22.7554 115.395 21.4087C115.395 19.9691 116.462 19.2725 117.9 19.2725H118.364C119.199 19.2725 119.756 19.5047 120.174 19.8297C120.452 20.0619 120.684 20.3406 120.823 20.6192C120.87 20.7121 120.823 20.805 120.73 20.8514L119.988 21.2229C119.895 21.2694 119.849 21.2229 119.802 21.1765C119.478 20.6656 118.967 20.2941 118.364 20.2941H117.9C116.972 20.2941 116.601 20.7585 116.601 21.2694C116.601 22.1517 117.622 22.1982 118.689 22.4304C119.895 22.6626 120.916 23.0805 120.916 24.3344C120.916 25.5883 120.034 26.6099 118.364 26.6099Z" fill="#200806" fill-opacity="0.25"/>
<path d="M125.511 26.4706C125.093 26.4706 124.536 26.2848 124.072 25.774C123.933 25.6346 123.794 25.6811 123.794 25.8668V26.2848C123.794 26.3777 123.747 26.4241 123.655 26.4241H122.866C122.773 26.4241 122.727 26.3777 122.727 26.2848V16.6718C122.727 16.5789 122.773 16.5325 122.866 16.5325H123.794C123.887 16.5325 123.933 16.5789 123.933 16.6718V19.969C123.933 20.1548 124.072 20.2012 124.211 20.0619C124.629 19.5975 125.186 19.4117 125.65 19.4117C127.134 19.4117 128.294 20.4798 128.294 22.0123V23.7771C128.341 25.356 127.227 26.4706 125.511 26.4706ZM127.088 22.0123C127.088 21.1764 126.392 20.4798 125.511 20.4798C124.675 20.4798 123.979 21.1764 123.979 22.0123V23.7771C123.979 24.613 124.675 25.3096 125.511 25.3096C126.346 25.3096 127.088 24.613 127.088 23.7771V22.0123Z" fill="white"/>
<path d="M125.511 26.4706C125.093 26.4706 124.536 26.2848 124.072 25.774C123.933 25.6346 123.794 25.6811 123.794 25.8668V26.2848C123.794 26.3777 123.747 26.4241 123.655 26.4241H122.866C122.773 26.4241 122.727 26.3777 122.727 26.2848V16.6718C122.727 16.5789 122.773 16.5325 122.866 16.5325H123.794C123.887 16.5325 123.933 16.5789 123.933 16.6718V19.969C123.933 20.1548 124.072 20.2012 124.211 20.0619C124.629 19.5975 125.186 19.4117 125.65 19.4117C127.134 19.4117 128.294 20.4798 128.294 22.0123V23.7771C128.341 25.356 127.227 26.4706 125.511 26.4706ZM127.088 22.0123C127.088 21.1764 126.392 20.4798 125.511 20.4798C124.675 20.4798 123.979 21.1764 123.979 22.0123V23.7771C123.979 24.613 124.675 25.3096 125.511 25.3096C126.346 25.3096 127.088 24.613 127.088 23.7771V22.0123Z" fill="#200806" fill-opacity="0.25"/>
<path d="M135.858 23.0803H131.821C131.728 23.0803 131.682 23.1268 131.682 23.2196V23.9627C131.682 24.7986 132.378 25.4952 133.213 25.4952C133.77 25.4952 134.28 25.1701 134.605 24.6128C134.652 24.5199 134.744 24.5199 134.791 24.5664L135.626 24.9843C135.719 25.0308 135.719 25.0772 135.672 25.1701C135.533 25.4023 135.394 25.6809 135.162 25.8667C134.744 26.2847 134.141 26.5633 133.167 26.5633C131.45 26.5633 130.383 25.4952 130.383 23.9162V21.8264C130.383 20.3404 131.45 19.2258 133.167 19.2258C134.837 19.2258 135.951 20.3404 135.951 21.8264V22.8481C135.997 23.0339 135.951 23.0803 135.858 23.0803ZM134.744 21.78C134.744 20.9905 134.095 20.2939 133.213 20.2939C132.239 20.2939 131.682 20.9905 131.682 21.8264V22.0122C131.682 22.1051 131.775 22.1051 131.821 22.1051H134.605C134.698 22.1051 134.744 22.0586 134.744 21.9658V21.78Z" fill="white"/>
<path d="M135.858 23.0803H131.821C131.728 23.0803 131.682 23.1268 131.682 23.2196V23.9627C131.682 24.7986 132.378 25.4952 133.213 25.4952C133.77 25.4952 134.28 25.1701 134.605 24.6128C134.652 24.5199 134.744 24.5199 134.791 24.5664L135.626 24.9843C135.719 25.0308 135.719 25.0772 135.672 25.1701C135.533 25.4023 135.394 25.6809 135.162 25.8667C134.744 26.2847 134.141 26.5633 133.167 26.5633C131.45 26.5633 130.383 25.4952 130.383 23.9162V21.8264C130.383 20.3404 131.45 19.2258 133.167 19.2258C134.837 19.2258 135.951 20.3404 135.951 21.8264V22.8481C135.997 23.0339 135.951 23.0803 135.858 23.0803ZM134.744 21.78C134.744 20.9905 134.095 20.2939 133.213 20.2939C132.239 20.2939 131.682 20.9905 131.682 21.8264V22.0122C131.682 22.1051 131.775 22.1051 131.821 22.1051H134.605C134.698 22.1051 134.744 22.0586 134.744 21.9658V21.78Z" fill="#200806" fill-opacity="0.25"/>
<path d="M141.053 20.7122C140.96 20.6658 140.867 20.6658 140.775 20.6658C139.893 20.6658 139.244 21.2695 139.244 22.1983V26.285C139.244 26.3779 139.197 26.4243 139.104 26.4243H138.176C138.084 26.4243 138.037 26.3779 138.037 26.285V19.5512C138.037 19.4584 138.084 19.4119 138.176 19.4119H138.965C139.058 19.4119 139.104 19.4584 139.104 19.5512V20.2014C139.104 20.3872 139.243 20.4336 139.383 20.2943C139.8 19.6906 140.311 19.3655 140.821 19.3655H141.146C141.239 19.3655 141.285 19.4119 141.285 19.5512V20.5265C141.285 20.7122 141.192 20.7587 141.053 20.7122Z" fill="white"/>
<path d="M141.053 20.7122C140.96 20.6658 140.867 20.6658 140.775 20.6658C139.893 20.6658 139.244 21.2695 139.244 22.1983V26.285C139.244 26.3779 139.197 26.4243 139.104 26.4243H138.176C138.084 26.4243 138.037 26.3779 138.037 26.285V19.5512C138.037 19.4584 138.084 19.4119 138.176 19.4119H138.965C139.058 19.4119 139.104 19.4584 139.104 19.5512V20.2014C139.104 20.3872 139.243 20.4336 139.383 20.2943C139.8 19.6906 140.311 19.3655 140.821 19.3655H141.146C141.239 19.3655 141.285 19.4119 141.285 19.5512V20.5265C141.285 20.7122 141.192 20.7587 141.053 20.7122Z" fill="#200806" fill-opacity="0.25"/>
<path d="M146.575 29.9999H144.395C143.281 29.9999 142.307 29.2568 142.307 28.0958V27.9565C142.307 27.3528 142.678 26.8884 143.235 26.4704C143.327 26.424 143.327 26.3311 143.281 26.2847C143.142 26.0061 143.049 25.7274 143.049 25.4488C143.049 25.0773 143.142 24.7522 143.374 24.4735C143.42 24.3807 143.42 24.3342 143.327 24.2413C142.678 23.7305 142.307 23.0339 142.307 22.1516V22.0122C142.307 20.4797 143.559 19.4116 145.091 19.4116C145.462 19.4116 146.065 19.5974 146.529 20.1082C146.668 20.2475 146.807 20.2011 146.807 20.0153V19.5974C146.807 19.5045 146.854 19.4581 146.947 19.4581H147.689C147.782 19.4581 147.828 19.5045 147.828 19.5974V22.198C147.828 23.7305 146.575 24.8451 145.044 24.8451C144.905 24.8451 144.719 24.8451 144.534 24.7986C144.302 24.8915 144.023 25.1701 144.023 25.4488C144.023 25.7274 144.209 26.0525 144.534 26.0989H146.483C147.643 26.0989 148.571 26.842 148.571 27.9565V28.0958C148.617 29.2568 147.735 29.9999 146.575 29.9999ZM146.668 22.0122C146.668 21.1763 145.972 20.4797 145.137 20.4797C144.302 20.4797 143.606 21.1763 143.606 22.0122V22.1516C143.606 22.9875 144.302 23.6841 145.137 23.6841C145.972 23.6841 146.668 22.9875 146.668 22.1516V22.0122ZM147.364 27.9565C147.364 27.4921 146.993 27.167 146.529 27.167H144.348C143.884 27.167 143.513 27.4921 143.513 27.9565V28.0958C143.513 28.5602 143.838 28.9317 144.348 28.9317H146.529C146.993 28.9317 147.364 28.5602 147.364 28.0958V27.9565Z" fill="white"/>
<path d="M146.575 29.9999H144.395C143.281 29.9999 142.307 29.2568 142.307 28.0958V27.9565C142.307 27.3528 142.678 26.8884 143.235 26.4704C143.327 26.424 143.327 26.3311 143.281 26.2847C143.142 26.0061 143.049 25.7274 143.049 25.4488C143.049 25.0773 143.142 24.7522 143.374 24.4735C143.42 24.3807 143.42 24.3342 143.327 24.2413C142.678 23.7305 142.307 23.0339 142.307 22.1516V22.0122C142.307 20.4797 143.559 19.4116 145.091 19.4116C145.462 19.4116 146.065 19.5974 146.529 20.1082C146.668 20.2475 146.807 20.2011 146.807 20.0153V19.5974C146.807 19.5045 146.854 19.4581 146.947 19.4581H147.689C147.782 19.4581 147.828 19.5045 147.828 19.5974V22.198C147.828 23.7305 146.575 24.8451 145.044 24.8451C144.905 24.8451 144.719 24.8451 144.534 24.7986C144.302 24.8915 144.023 25.1701 144.023 25.4488C144.023 25.7274 144.209 26.0525 144.534 26.0989H146.483C147.643 26.0989 148.571 26.842 148.571 27.9565V28.0958C148.617 29.2568 147.735 29.9999 146.575 29.9999ZM146.668 22.0122C146.668 21.1763 145.972 20.4797 145.137 20.4797C144.302 20.4797 143.606 21.1763 143.606 22.0122V22.1516C143.606 22.9875 144.302 23.6841 145.137 23.6841C145.972 23.6841 146.668 22.9875 146.668 22.1516V22.0122ZM147.364 27.9565C147.364 27.4921 146.993 27.167 146.529 27.167H144.348C143.884 27.167 143.513 27.4921 143.513 27.9565V28.0958C143.513 28.5602 143.838 28.9317 144.348 28.9317H146.529C146.993 28.9317 147.364 28.5602 147.364 28.0958V27.9565Z" fill="#200806" fill-opacity="0.25"/>
</g>
<defs>
<clipPath id="clip0_26_632">
<rect width="250" height="30" fill="white"/>
</clipPath>
</defs>
</svg>
