<svg width="630" height="631" viewBox="0 0 630 631" fill="none" xmlns="http://www.w3.org/2000/svg">
<circle cx="361.28" cy="81.6977" r="19.35" fill="#C6C6C6"/>
<path d="M316.646 110.764H318.356C318.26 110.08 318.056 109.48 317.744 108.964C317.432 108.436 317.042 107.998 316.574 107.65C316.106 107.302 315.572 107.038 314.972 106.858C314.372 106.678 313.736 106.588 313.064 106.588C312.08 106.588 311.204 106.768 310.436 107.128C309.68 107.476 309.044 107.956 308.528 108.568C308.024 109.18 307.64 109.9 307.376 110.728C307.112 111.544 306.98 112.42 306.98 113.356C306.98 114.292 307.1 115.168 307.34 115.984C307.592 116.8 307.964 117.508 308.456 118.108C308.948 118.708 309.566 119.182 310.31 119.53C311.054 119.866 311.924 120.034 312.92 120.034C314.564 120.034 315.86 119.584 316.808 118.684C317.756 117.784 318.314 116.524 318.482 114.904H316.772C316.736 115.432 316.628 115.924 316.448 116.38C316.268 116.836 316.016 117.232 315.692 117.568C315.38 117.892 315.002 118.15 314.558 118.342C314.126 118.522 313.628 118.612 313.064 118.612C312.296 118.612 311.636 118.468 311.084 118.18C310.532 117.892 310.076 117.508 309.716 117.028C309.368 116.536 309.11 115.966 308.942 115.318C308.774 114.658 308.69 113.962 308.69 113.23C308.69 112.558 308.774 111.91 308.942 111.286C309.11 110.662 309.368 110.11 309.716 109.63C310.076 109.138 310.526 108.748 311.066 108.46C311.618 108.172 312.278 108.028 313.046 108.028C313.946 108.028 314.72 108.256 315.368 108.712C316.028 109.168 316.454 109.852 316.646 110.764ZM321.105 115.102C321.105 114.538 321.177 114.04 321.321 113.608C321.477 113.164 321.687 112.792 321.951 112.492C322.215 112.192 322.521 111.964 322.869 111.808C323.229 111.652 323.607 111.574 324.003 111.574C324.399 111.574 324.771 111.652 325.119 111.808C325.479 111.964 325.791 112.192 326.055 112.492C326.319 112.792 326.523 113.164 326.667 113.608C326.823 114.04 326.901 114.538 326.901 115.102C326.901 115.666 326.823 116.17 326.667 116.614C326.523 117.046 326.319 117.412 326.055 117.712C325.791 118 325.479 118.222 325.119 118.378C324.771 118.534 324.399 118.612 324.003 118.612C323.607 118.612 323.229 118.534 322.869 118.378C322.521 118.222 322.215 118 321.951 117.712C321.687 117.412 321.477 117.046 321.321 116.614C321.177 116.17 321.105 115.666 321.105 115.102ZM319.485 115.102C319.485 115.786 319.581 116.422 319.773 117.01C319.965 117.598 320.253 118.114 320.637 118.558C321.021 118.99 321.495 119.332 322.059 119.584C322.623 119.824 323.271 119.944 324.003 119.944C324.747 119.944 325.395 119.824 325.947 119.584C326.511 119.332 326.985 118.99 327.369 118.558C327.753 118.114 328.041 117.598 328.233 117.01C328.425 116.422 328.521 115.786 328.521 115.102C328.521 114.418 328.425 113.782 328.233 113.194C328.041 112.594 327.753 112.078 327.369 111.646C326.985 111.202 326.511 110.854 325.947 110.602C325.395 110.35 324.747 110.224 324.003 110.224C323.271 110.224 322.623 110.35 322.059 110.602C321.495 110.854 321.021 111.202 320.637 111.646C320.253 112.078 319.965 112.594 319.773 113.194C319.581 113.782 319.485 114.418 319.485 115.102ZM329.964 110.44V119.746H331.494V113.95C331.494 113.77 331.536 113.548 331.62 113.284C331.716 113.008 331.86 112.744 332.052 112.492C332.256 112.24 332.514 112.024 332.826 111.844C333.15 111.664 333.534 111.574 333.978 111.574C334.326 111.574 334.608 111.628 334.824 111.736C335.052 111.832 335.232 111.976 335.364 112.168C335.496 112.348 335.586 112.564 335.634 112.816C335.694 113.068 335.724 113.344 335.724 113.644V119.746H337.254V113.95C337.254 113.23 337.47 112.654 337.902 112.222C338.334 111.79 338.928 111.574 339.684 111.574C340.056 111.574 340.356 111.628 340.584 111.736C340.824 111.844 341.01 111.994 341.142 112.186C341.274 112.366 341.364 112.582 341.412 112.834C341.46 113.086 341.484 113.356 341.484 113.644V119.746H343.014V112.924C343.014 112.444 342.936 112.036 342.78 111.7C342.636 111.352 342.426 111.07 342.15 110.854C341.886 110.638 341.562 110.482 341.178 110.386C340.806 110.278 340.386 110.224 339.918 110.224C339.306 110.224 338.742 110.362 338.226 110.638C337.722 110.914 337.314 111.304 337.002 111.808C336.81 111.232 336.48 110.824 336.012 110.584C335.544 110.344 335.022 110.224 334.446 110.224C333.138 110.224 332.136 110.752 331.44 111.808H331.404V110.44H329.964ZM345.004 110.44V123.292H346.534V118.504H346.57C346.738 118.78 346.942 119.014 347.182 119.206C347.434 119.386 347.698 119.53 347.974 119.638C348.25 119.746 348.526 119.824 348.802 119.872C349.09 119.92 349.348 119.944 349.576 119.944C350.284 119.944 350.902 119.818 351.43 119.566C351.97 119.314 352.414 118.972 352.762 118.54C353.122 118.096 353.386 117.58 353.554 116.992C353.734 116.404 353.824 115.78 353.824 115.12C353.824 114.46 353.734 113.836 353.554 113.248C353.374 112.66 353.104 112.144 352.744 111.7C352.396 111.244 351.952 110.884 351.412 110.62C350.884 110.356 350.26 110.224 349.54 110.224C348.892 110.224 348.298 110.344 347.758 110.584C347.218 110.812 346.822 111.184 346.57 111.7H346.534V110.44H345.004ZM352.204 115.012C352.204 115.468 352.156 115.912 352.06 116.344C351.964 116.776 351.808 117.16 351.592 117.496C351.376 117.832 351.088 118.102 350.728 118.306C350.38 118.51 349.942 118.612 349.414 118.612C348.886 118.612 348.436 118.516 348.064 118.324C347.692 118.12 347.386 117.856 347.146 117.532C346.918 117.208 346.75 116.836 346.642 116.416C346.534 115.984 346.48 115.54 346.48 115.084C346.48 114.652 346.528 114.226 346.624 113.806C346.732 113.386 346.9 113.014 347.128 112.69C347.356 112.354 347.65 112.084 348.01 111.88C348.37 111.676 348.808 111.574 349.324 111.574C349.816 111.574 350.242 111.67 350.602 111.862C350.974 112.054 351.274 112.312 351.502 112.636C351.742 112.96 351.916 113.332 352.024 113.752C352.144 114.16 352.204 114.58 352.204 115.012ZM356.376 115.102C356.376 114.538 356.448 114.04 356.592 113.608C356.748 113.164 356.958 112.792 357.222 112.492C357.486 112.192 357.792 111.964 358.14 111.808C358.5 111.652 358.878 111.574 359.274 111.574C359.67 111.574 360.042 111.652 360.39 111.808C360.75 111.964 361.062 112.192 361.326 112.492C361.59 112.792 361.794 113.164 361.938 113.608C362.094 114.04 362.172 114.538 362.172 115.102C362.172 115.666 362.094 116.17 361.938 116.614C361.794 117.046 361.59 117.412 361.326 117.712C361.062 118 360.75 118.222 360.39 118.378C360.042 118.534 359.67 118.612 359.274 118.612C358.878 118.612 358.5 118.534 358.14 118.378C357.792 118.222 357.486 118 357.222 117.712C356.958 117.412 356.748 117.046 356.592 116.614C356.448 116.17 356.376 115.666 356.376 115.102ZM354.756 115.102C354.756 115.786 354.852 116.422 355.044 117.01C355.236 117.598 355.524 118.114 355.908 118.558C356.292 118.99 356.766 119.332 357.33 119.584C357.894 119.824 358.542 119.944 359.274 119.944C360.018 119.944 360.666 119.824 361.218 119.584C361.782 119.332 362.256 118.99 362.64 118.558C363.024 118.114 363.312 117.598 363.504 117.01C363.696 116.422 363.792 115.786 363.792 115.102C363.792 114.418 363.696 113.782 363.504 113.194C363.312 112.594 363.024 112.078 362.64 111.646C362.256 111.202 361.782 110.854 361.218 110.602C360.666 110.35 360.018 110.224 359.274 110.224C358.542 110.224 357.894 110.35 357.33 110.602C356.766 110.854 356.292 111.202 355.908 111.646C355.524 112.078 355.236 112.594 355.044 113.194C354.852 113.782 354.756 114.418 354.756 115.102ZM366.172 116.812H364.642C364.666 117.388 364.786 117.88 365.002 118.288C365.218 118.684 365.506 119.008 365.866 119.26C366.226 119.5 366.64 119.674 367.108 119.782C367.576 119.89 368.068 119.944 368.584 119.944C369.052 119.944 369.52 119.896 369.988 119.8C370.468 119.716 370.894 119.56 371.266 119.332C371.65 119.104 371.956 118.804 372.184 118.432C372.424 118.06 372.544 117.592 372.544 117.028C372.544 116.584 372.454 116.212 372.274 115.912C372.106 115.612 371.878 115.366 371.59 115.174C371.314 114.97 370.99 114.808 370.618 114.688C370.258 114.568 369.886 114.466 369.502 114.382C369.142 114.298 368.782 114.22 368.422 114.148C368.062 114.064 367.738 113.968 367.45 113.86C367.162 113.74 366.922 113.596 366.73 113.428C366.55 113.248 366.46 113.026 366.46 112.762C366.46 112.522 366.52 112.33 366.64 112.186C366.76 112.03 366.916 111.91 367.108 111.826C367.3 111.73 367.51 111.664 367.738 111.628C367.978 111.592 368.212 111.574 368.44 111.574C368.692 111.574 368.938 111.604 369.178 111.664C369.43 111.712 369.658 111.796 369.862 111.916C370.066 112.036 370.234 112.198 370.366 112.402C370.498 112.594 370.576 112.84 370.6 113.14H372.13C372.094 112.576 371.974 112.108 371.77 111.736C371.566 111.352 371.29 111.052 370.942 110.836C370.606 110.608 370.216 110.452 369.772 110.368C369.328 110.272 368.842 110.224 368.314 110.224C367.906 110.224 367.492 110.278 367.072 110.386C366.664 110.482 366.292 110.638 365.956 110.854C365.632 111.058 365.362 111.328 365.146 111.664C364.942 112 364.84 112.402 364.84 112.87C364.84 113.47 364.99 113.938 365.29 114.274C365.59 114.61 365.962 114.874 366.406 115.066C366.862 115.246 367.354 115.39 367.882 115.498C368.41 115.594 368.896 115.708 369.34 115.84C369.796 115.96 370.174 116.122 370.474 116.326C370.774 116.53 370.924 116.83 370.924 117.226C370.924 117.514 370.852 117.754 370.708 117.946C370.564 118.126 370.378 118.264 370.15 118.36C369.934 118.456 369.694 118.522 369.43 118.558C369.166 118.594 368.914 118.612 368.674 118.612C368.362 118.612 368.056 118.582 367.756 118.522C367.468 118.462 367.204 118.366 366.964 118.234C366.736 118.09 366.55 117.904 366.406 117.676C366.262 117.436 366.184 117.148 366.172 116.812ZM375.496 108.766V106.894H373.966V108.766H375.496ZM373.966 110.44V119.746H375.496V110.44H373.966ZM379.63 110.44V107.65H378.1V110.44H376.516V111.79H378.1V117.712C378.1 118.144 378.142 118.492 378.226 118.756C378.31 119.02 378.436 119.224 378.604 119.368C378.784 119.512 379.012 119.614 379.288 119.674C379.576 119.722 379.918 119.746 380.314 119.746H381.484V118.396H380.782C380.542 118.396 380.344 118.39 380.188 118.378C380.044 118.354 379.93 118.312 379.846 118.252C379.762 118.192 379.702 118.108 379.666 118C379.642 117.892 379.63 117.748 379.63 117.568V111.79H381.484V110.44H379.63ZM384.444 108.766V106.894H382.914V108.766H384.444ZM382.914 110.44V119.746H384.444V110.44H382.914ZM387.57 115.102C387.57 114.538 387.642 114.04 387.786 113.608C387.942 113.164 388.152 112.792 388.416 112.492C388.68 112.192 388.986 111.964 389.334 111.808C389.694 111.652 390.072 111.574 390.468 111.574C390.864 111.574 391.236 111.652 391.584 111.808C391.944 111.964 392.256 112.192 392.52 112.492C392.784 112.792 392.988 113.164 393.132 113.608C393.288 114.04 393.366 114.538 393.366 115.102C393.366 115.666 393.288 116.17 393.132 116.614C392.988 117.046 392.784 117.412 392.52 117.712C392.256 118 391.944 118.222 391.584 118.378C391.236 118.534 390.864 118.612 390.468 118.612C390.072 118.612 389.694 118.534 389.334 118.378C388.986 118.222 388.68 118 388.416 117.712C388.152 117.412 387.942 117.046 387.786 116.614C387.642 116.17 387.57 115.666 387.57 115.102ZM385.95 115.102C385.95 115.786 386.046 116.422 386.238 117.01C386.43 117.598 386.718 118.114 387.102 118.558C387.486 118.99 387.96 119.332 388.524 119.584C389.088 119.824 389.736 119.944 390.468 119.944C391.212 119.944 391.86 119.824 392.412 119.584C392.976 119.332 393.45 118.99 393.834 118.558C394.218 118.114 394.506 117.598 394.698 117.01C394.89 116.422 394.986 115.786 394.986 115.102C394.986 114.418 394.89 113.782 394.698 113.194C394.506 112.594 394.218 112.078 393.834 111.646C393.45 111.202 392.976 110.854 392.412 110.602C391.86 110.35 391.212 110.224 390.468 110.224C389.736 110.224 389.088 110.35 388.524 110.602C387.96 110.854 387.486 111.202 387.102 111.646C386.718 112.078 386.43 112.594 386.238 113.194C386.046 113.782 385.95 114.418 385.95 115.102ZM396.43 110.44V119.746H397.96V114.49C397.96 114.07 398.014 113.686 398.122 113.338C398.242 112.978 398.416 112.666 398.644 112.402C398.872 112.138 399.154 111.934 399.49 111.79C399.838 111.646 400.246 111.574 400.714 111.574C401.302 111.574 401.764 111.742 402.1 112.078C402.436 112.414 402.604 112.87 402.604 113.446V119.746H404.134V113.626C404.134 113.122 404.08 112.666 403.972 112.258C403.876 111.838 403.702 111.478 403.45 111.178C403.198 110.878 402.868 110.644 402.46 110.476C402.052 110.308 401.542 110.224 400.93 110.224C399.55 110.224 398.542 110.788 397.906 111.916H397.87V110.44H396.43ZM415.978 119.746V106.984H414.808C414.724 107.464 414.568 107.86 414.34 108.172C414.112 108.484 413.83 108.73 413.494 108.91C413.17 109.09 412.804 109.216 412.396 109.288C411.988 109.348 411.568 109.378 411.136 109.378V110.602H414.448V119.746H415.978Z" fill="black"/>
<circle cx="539.479" cy="340.897" r="19.35" fill="#C6C6C6"/>
<path d="M494.846 369.963H496.556C496.46 369.279 496.256 368.679 495.944 368.163C495.632 367.635 495.242 367.197 494.774 366.849C494.306 366.501 493.772 366.237 493.172 366.057C492.572 365.877 491.936 365.787 491.264 365.787C490.28 365.787 489.404 365.967 488.636 366.327C487.88 366.675 487.244 367.155 486.728 367.767C486.224 368.379 485.84 369.099 485.576 369.927C485.312 370.743 485.18 371.619 485.18 372.555C485.18 373.491 485.3 374.367 485.54 375.183C485.792 375.999 486.164 376.707 486.656 377.307C487.148 377.907 487.766 378.381 488.51 378.729C489.254 379.065 490.124 379.233 491.12 379.233C492.764 379.233 494.06 378.783 495.008 377.883C495.956 376.983 496.514 375.723 496.682 374.103H494.972C494.936 374.631 494.828 375.123 494.648 375.579C494.468 376.035 494.216 376.431 493.892 376.767C493.58 377.091 493.202 377.349 492.758 377.541C492.326 377.721 491.828 377.811 491.264 377.811C490.496 377.811 489.836 377.667 489.284 377.379C488.732 377.091 488.276 376.707 487.916 376.227C487.568 375.735 487.31 375.165 487.142 374.517C486.974 373.857 486.89 373.161 486.89 372.429C486.89 371.757 486.974 371.109 487.142 370.485C487.31 369.861 487.568 369.309 487.916 368.829C488.276 368.337 488.726 367.947 489.266 367.659C489.818 367.371 490.478 367.227 491.246 367.227C492.146 367.227 492.92 367.455 493.568 367.911C494.228 368.367 494.654 369.051 494.846 369.963ZM499.304 374.301C499.304 373.737 499.376 373.239 499.52 372.807C499.676 372.363 499.886 371.991 500.15 371.691C500.414 371.391 500.72 371.163 501.068 371.007C501.428 370.851 501.806 370.773 502.202 370.773C502.598 370.773 502.97 370.851 503.318 371.007C503.678 371.163 503.99 371.391 504.254 371.691C504.518 371.991 504.722 372.363 504.866 372.807C505.022 373.239 505.1 373.737 505.1 374.301C505.1 374.865 505.022 375.369 504.866 375.813C504.722 376.245 504.518 376.611 504.254 376.911C503.99 377.199 503.678 377.421 503.318 377.577C502.97 377.733 502.598 377.811 502.202 377.811C501.806 377.811 501.428 377.733 501.068 377.577C500.72 377.421 500.414 377.199 500.15 376.911C499.886 376.611 499.676 376.245 499.52 375.813C499.376 375.369 499.304 374.865 499.304 374.301ZM497.684 374.301C497.684 374.985 497.78 375.621 497.972 376.209C498.164 376.797 498.452 377.313 498.836 377.757C499.22 378.189 499.694 378.531 500.258 378.783C500.822 379.023 501.47 379.143 502.202 379.143C502.946 379.143 503.594 379.023 504.146 378.783C504.71 378.531 505.184 378.189 505.568 377.757C505.952 377.313 506.24 376.797 506.432 376.209C506.624 375.621 506.72 374.985 506.72 374.301C506.72 373.617 506.624 372.981 506.432 372.393C506.24 371.793 505.952 371.277 505.568 370.845C505.184 370.401 504.71 370.053 504.146 369.801C503.594 369.549 502.946 369.423 502.202 369.423C501.47 369.423 500.822 369.549 500.258 369.801C499.694 370.053 499.22 370.401 498.836 370.845C498.452 371.277 498.164 371.793 497.972 372.393C497.78 372.981 497.684 373.617 497.684 374.301ZM508.164 369.639V378.945H509.694V373.149C509.694 372.969 509.736 372.747 509.82 372.483C509.916 372.207 510.06 371.943 510.252 371.691C510.456 371.439 510.714 371.223 511.026 371.043C511.35 370.863 511.734 370.773 512.178 370.773C512.526 370.773 512.808 370.827 513.024 370.935C513.252 371.031 513.432 371.175 513.564 371.367C513.696 371.547 513.786 371.763 513.834 372.015C513.894 372.267 513.924 372.543 513.924 372.843V378.945H515.454V373.149C515.454 372.429 515.67 371.853 516.102 371.421C516.534 370.989 517.128 370.773 517.884 370.773C518.256 370.773 518.556 370.827 518.784 370.935C519.024 371.043 519.21 371.193 519.342 371.385C519.474 371.565 519.564 371.781 519.612 372.033C519.66 372.285 519.684 372.555 519.684 372.843V378.945H521.214V372.123C521.214 371.643 521.136 371.235 520.98 370.899C520.836 370.551 520.626 370.269 520.35 370.053C520.086 369.837 519.762 369.681 519.378 369.585C519.006 369.477 518.586 369.423 518.118 369.423C517.506 369.423 516.942 369.561 516.426 369.837C515.922 370.113 515.514 370.503 515.202 371.007C515.01 370.431 514.68 370.023 514.212 369.783C513.744 369.543 513.222 369.423 512.646 369.423C511.338 369.423 510.336 369.951 509.64 371.007H509.604V369.639H508.164ZM523.203 369.639V382.491H524.733V377.703H524.769C524.937 377.979 525.141 378.213 525.381 378.405C525.633 378.585 525.897 378.729 526.173 378.837C526.449 378.945 526.725 379.023 527.001 379.071C527.289 379.119 527.547 379.143 527.775 379.143C528.483 379.143 529.101 379.017 529.629 378.765C530.169 378.513 530.613 378.171 530.961 377.739C531.321 377.295 531.585 376.779 531.753 376.191C531.933 375.603 532.023 374.979 532.023 374.319C532.023 373.659 531.933 373.035 531.753 372.447C531.573 371.859 531.303 371.343 530.943 370.899C530.595 370.443 530.151 370.083 529.611 369.819C529.083 369.555 528.459 369.423 527.739 369.423C527.091 369.423 526.497 369.543 525.957 369.783C525.417 370.011 525.021 370.383 524.769 370.899H524.733V369.639H523.203ZM530.403 374.211C530.403 374.667 530.355 375.111 530.259 375.543C530.163 375.975 530.007 376.359 529.791 376.695C529.575 377.031 529.287 377.301 528.927 377.505C528.579 377.709 528.141 377.811 527.613 377.811C527.085 377.811 526.635 377.715 526.263 377.523C525.891 377.319 525.585 377.055 525.345 376.731C525.117 376.407 524.949 376.035 524.841 375.615C524.733 375.183 524.679 374.739 524.679 374.283C524.679 373.851 524.727 373.425 524.823 373.005C524.931 372.585 525.099 372.213 525.327 371.889C525.555 371.553 525.849 371.283 526.209 371.079C526.569 370.875 527.007 370.773 527.523 370.773C528.015 370.773 528.441 370.869 528.801 371.061C529.173 371.253 529.473 371.511 529.701 371.835C529.941 372.159 530.115 372.531 530.223 372.951C530.343 373.359 530.403 373.779 530.403 374.211ZM534.575 374.301C534.575 373.737 534.647 373.239 534.791 372.807C534.947 372.363 535.157 371.991 535.421 371.691C535.685 371.391 535.991 371.163 536.339 371.007C536.699 370.851 537.077 370.773 537.473 370.773C537.869 370.773 538.241 370.851 538.589 371.007C538.949 371.163 539.261 371.391 539.525 371.691C539.789 371.991 539.993 372.363 540.137 372.807C540.293 373.239 540.371 373.737 540.371 374.301C540.371 374.865 540.293 375.369 540.137 375.813C539.993 376.245 539.789 376.611 539.525 376.911C539.261 377.199 538.949 377.421 538.589 377.577C538.241 377.733 537.869 377.811 537.473 377.811C537.077 377.811 536.699 377.733 536.339 377.577C535.991 377.421 535.685 377.199 535.421 376.911C535.157 376.611 534.947 376.245 534.791 375.813C534.647 375.369 534.575 374.865 534.575 374.301ZM532.955 374.301C532.955 374.985 533.051 375.621 533.243 376.209C533.435 376.797 533.723 377.313 534.107 377.757C534.491 378.189 534.965 378.531 535.529 378.783C536.093 379.023 536.741 379.143 537.473 379.143C538.217 379.143 538.865 379.023 539.417 378.783C539.981 378.531 540.455 378.189 540.839 377.757C541.223 377.313 541.511 376.797 541.703 376.209C541.895 375.621 541.991 374.985 541.991 374.301C541.991 373.617 541.895 372.981 541.703 372.393C541.511 371.793 541.223 371.277 540.839 370.845C540.455 370.401 539.981 370.053 539.417 369.801C538.865 369.549 538.217 369.423 537.473 369.423C536.741 369.423 536.093 369.549 535.529 369.801C534.965 370.053 534.491 370.401 534.107 370.845C533.723 371.277 533.435 371.793 533.243 372.393C533.051 372.981 532.955 373.617 532.955 374.301ZM544.371 376.011H542.841C542.865 376.587 542.985 377.079 543.201 377.487C543.417 377.883 543.705 378.207 544.065 378.459C544.425 378.699 544.839 378.873 545.307 378.981C545.775 379.089 546.267 379.143 546.783 379.143C547.251 379.143 547.719 379.095 548.187 378.999C548.667 378.915 549.093 378.759 549.465 378.531C549.849 378.303 550.155 378.003 550.383 377.631C550.623 377.259 550.743 376.791 550.743 376.227C550.743 375.783 550.653 375.411 550.473 375.111C550.305 374.811 550.077 374.565 549.789 374.373C549.513 374.169 549.189 374.007 548.817 373.887C548.457 373.767 548.085 373.665 547.701 373.581C547.341 373.497 546.981 373.419 546.621 373.347C546.261 373.263 545.937 373.167 545.649 373.059C545.361 372.939 545.121 372.795 544.929 372.627C544.749 372.447 544.659 372.225 544.659 371.961C544.659 371.721 544.719 371.529 544.839 371.385C544.959 371.229 545.115 371.109 545.307 371.025C545.499 370.929 545.709 370.863 545.937 370.827C546.177 370.791 546.411 370.773 546.639 370.773C546.891 370.773 547.137 370.803 547.377 370.863C547.629 370.911 547.857 370.995 548.061 371.115C548.265 371.235 548.433 371.397 548.565 371.601C548.697 371.793 548.775 372.039 548.799 372.339H550.329C550.293 371.775 550.173 371.307 549.969 370.935C549.765 370.551 549.489 370.251 549.141 370.035C548.805 369.807 548.415 369.651 547.971 369.567C547.527 369.471 547.041 369.423 546.513 369.423C546.105 369.423 545.691 369.477 545.271 369.585C544.863 369.681 544.491 369.837 544.155 370.053C543.831 370.257 543.561 370.527 543.345 370.863C543.141 371.199 543.039 371.601 543.039 372.069C543.039 372.669 543.189 373.137 543.489 373.473C543.789 373.809 544.161 374.073 544.605 374.265C545.061 374.445 545.553 374.589 546.081 374.697C546.609 374.793 547.095 374.907 547.539 375.039C547.995 375.159 548.373 375.321 548.673 375.525C548.973 375.729 549.123 376.029 549.123 376.425C549.123 376.713 549.051 376.953 548.907 377.145C548.763 377.325 548.577 377.463 548.349 377.559C548.133 377.655 547.893 377.721 547.629 377.757C547.365 377.793 547.113 377.811 546.873 377.811C546.561 377.811 546.255 377.781 545.955 377.721C545.667 377.661 545.403 377.565 545.163 377.433C544.935 377.289 544.749 377.103 544.605 376.875C544.461 376.635 544.383 376.347 544.371 376.011ZM553.695 367.965V366.093H552.165V367.965H553.695ZM552.165 369.639V378.945H553.695V369.639H552.165ZM557.829 369.639V366.849H556.299V369.639H554.715V370.989H556.299V376.911C556.299 377.343 556.341 377.691 556.425 377.955C556.509 378.219 556.635 378.423 556.803 378.567C556.983 378.711 557.211 378.813 557.487 378.873C557.775 378.921 558.117 378.945 558.513 378.945H559.683V377.595H558.981C558.741 377.595 558.543 377.589 558.387 377.577C558.243 377.553 558.129 377.511 558.045 377.451C557.961 377.391 557.901 377.307 557.865 377.199C557.841 377.091 557.829 376.947 557.829 376.767V370.989H559.683V369.639H557.829ZM562.643 367.965V366.093H561.113V367.965H562.643ZM561.113 369.639V378.945H562.643V369.639H561.113ZM565.769 374.301C565.769 373.737 565.841 373.239 565.985 372.807C566.141 372.363 566.351 371.991 566.615 371.691C566.879 371.391 567.185 371.163 567.533 371.007C567.893 370.851 568.271 370.773 568.667 370.773C569.063 370.773 569.435 370.851 569.783 371.007C570.143 371.163 570.455 371.391 570.719 371.691C570.983 371.991 571.187 372.363 571.331 372.807C571.487 373.239 571.565 373.737 571.565 374.301C571.565 374.865 571.487 375.369 571.331 375.813C571.187 376.245 570.983 376.611 570.719 376.911C570.455 377.199 570.143 377.421 569.783 377.577C569.435 377.733 569.063 377.811 568.667 377.811C568.271 377.811 567.893 377.733 567.533 377.577C567.185 377.421 566.879 377.199 566.615 376.911C566.351 376.611 566.141 376.245 565.985 375.813C565.841 375.369 565.769 374.865 565.769 374.301ZM564.149 374.301C564.149 374.985 564.245 375.621 564.437 376.209C564.629 376.797 564.917 377.313 565.301 377.757C565.685 378.189 566.159 378.531 566.723 378.783C567.287 379.023 567.935 379.143 568.667 379.143C569.411 379.143 570.059 379.023 570.611 378.783C571.175 378.531 571.649 378.189 572.033 377.757C572.417 377.313 572.705 376.797 572.897 376.209C573.089 375.621 573.185 374.985 573.185 374.301C573.185 373.617 573.089 372.981 572.897 372.393C572.705 371.793 572.417 371.277 572.033 370.845C571.649 370.401 571.175 370.053 570.611 369.801C570.059 369.549 569.411 369.423 568.667 369.423C567.935 369.423 567.287 369.549 566.723 369.801C566.159 370.053 565.685 370.401 565.301 370.845C564.917 371.277 564.629 371.793 564.437 372.393C564.245 372.981 564.149 373.617 564.149 374.301ZM574.629 369.639V378.945H576.159V373.689C576.159 373.269 576.213 372.885 576.321 372.537C576.441 372.177 576.615 371.865 576.843 371.601C577.071 371.337 577.353 371.133 577.689 370.989C578.037 370.845 578.445 370.773 578.913 370.773C579.501 370.773 579.963 370.941 580.299 371.277C580.635 371.613 580.803 372.069 580.803 372.645V378.945H582.333V372.825C582.333 372.321 582.279 371.865 582.171 371.457C582.075 371.037 581.901 370.677 581.649 370.377C581.397 370.077 581.067 369.843 580.659 369.675C580.251 369.507 579.741 369.423 579.129 369.423C577.749 369.423 576.741 369.987 576.105 371.115H576.069V369.639H574.629ZM588.561 370.701H590.091C590.079 370.317 590.115 369.939 590.199 369.567C590.295 369.183 590.445 368.841 590.649 368.541C590.853 368.241 591.111 368.001 591.423 367.821C591.747 367.629 592.131 367.533 592.575 367.533C592.911 367.533 593.229 367.587 593.529 367.695C593.829 367.803 594.087 367.959 594.303 368.163C594.531 368.367 594.711 368.613 594.843 368.901C594.975 369.177 595.041 369.489 595.041 369.837C595.041 370.281 594.969 370.671 594.825 371.007C594.693 371.343 594.489 371.655 594.213 371.943C593.949 372.231 593.613 372.519 593.205 372.807C592.797 373.083 592.323 373.389 591.783 373.725C591.339 373.989 590.913 374.271 590.505 374.571C590.097 374.871 589.731 375.219 589.407 375.615C589.083 376.011 588.813 376.479 588.597 377.019C588.393 377.547 588.261 378.189 588.201 378.945H596.535V377.595H589.983C590.055 377.199 590.205 376.851 590.433 376.551C590.673 376.239 590.955 375.951 591.279 375.687C591.615 375.423 591.981 375.177 592.377 374.949C592.773 374.709 593.169 374.469 593.565 374.229C593.961 373.977 594.345 373.713 594.717 373.437C595.089 373.161 595.419 372.855 595.707 372.519C595.995 372.171 596.223 371.781 596.391 371.349C596.571 370.917 596.661 370.419 596.661 369.855C596.661 369.255 596.553 368.727 596.337 368.271C596.133 367.815 595.851 367.437 595.491 367.137C595.131 366.825 594.705 366.591 594.213 366.435C593.733 366.267 593.217 366.183 592.665 366.183C591.993 366.183 591.393 366.297 590.865 366.525C590.337 366.753 589.893 367.071 589.533 367.479C589.185 367.875 588.927 368.349 588.759 368.901C588.591 369.453 588.525 370.053 588.561 370.701Z" fill="black"/>
<circle cx="428.26" cy="502.897" r="19.35" fill="#C6C6C6"/>
<path d="M383.627 531.963H385.337C385.241 531.279 385.037 530.679 384.725 530.163C384.413 529.635 384.023 529.197 383.555 528.849C383.087 528.501 382.553 528.237 381.953 528.057C381.353 527.877 380.717 527.787 380.045 527.787C379.061 527.787 378.185 527.967 377.417 528.327C376.661 528.675 376.025 529.155 375.509 529.767C375.005 530.379 374.621 531.099 374.357 531.927C374.093 532.743 373.961 533.619 373.961 534.555C373.961 535.491 374.081 536.367 374.321 537.183C374.573 537.999 374.945 538.707 375.437 539.307C375.929 539.907 376.547 540.381 377.291 540.729C378.035 541.065 378.905 541.233 379.901 541.233C381.545 541.233 382.841 540.783 383.789 539.883C384.737 538.983 385.295 537.723 385.463 536.103H383.753C383.717 536.631 383.609 537.123 383.429 537.579C383.249 538.035 382.997 538.431 382.673 538.767C382.361 539.091 381.983 539.349 381.539 539.541C381.107 539.721 380.609 539.811 380.045 539.811C379.277 539.811 378.617 539.667 378.065 539.379C377.513 539.091 377.057 538.707 376.697 538.227C376.349 537.735 376.091 537.165 375.923 536.517C375.755 535.857 375.671 535.161 375.671 534.429C375.671 533.757 375.755 533.109 375.923 532.485C376.091 531.861 376.349 531.309 376.697 530.829C377.057 530.337 377.507 529.947 378.047 529.659C378.599 529.371 379.259 529.227 380.027 529.227C380.927 529.227 381.701 529.455 382.349 529.911C383.009 530.367 383.435 531.051 383.627 531.963ZM388.085 536.301C388.085 535.737 388.157 535.239 388.301 534.807C388.457 534.363 388.667 533.991 388.931 533.691C389.195 533.391 389.501 533.163 389.849 533.007C390.209 532.851 390.587 532.773 390.983 532.773C391.379 532.773 391.751 532.851 392.099 533.007C392.459 533.163 392.771 533.391 393.035 533.691C393.299 533.991 393.503 534.363 393.647 534.807C393.803 535.239 393.881 535.737 393.881 536.301C393.881 536.865 393.803 537.369 393.647 537.813C393.503 538.245 393.299 538.611 393.035 538.911C392.771 539.199 392.459 539.421 392.099 539.577C391.751 539.733 391.379 539.811 390.983 539.811C390.587 539.811 390.209 539.733 389.849 539.577C389.501 539.421 389.195 539.199 388.931 538.911C388.667 538.611 388.457 538.245 388.301 537.813C388.157 537.369 388.085 536.865 388.085 536.301ZM386.465 536.301C386.465 536.985 386.561 537.621 386.753 538.209C386.945 538.797 387.233 539.313 387.617 539.757C388.001 540.189 388.475 540.531 389.039 540.783C389.603 541.023 390.251 541.143 390.983 541.143C391.727 541.143 392.375 541.023 392.927 540.783C393.491 540.531 393.965 540.189 394.349 539.757C394.733 539.313 395.021 538.797 395.213 538.209C395.405 537.621 395.501 536.985 395.501 536.301C395.501 535.617 395.405 534.981 395.213 534.393C395.021 533.793 394.733 533.277 394.349 532.845C393.965 532.401 393.491 532.053 392.927 531.801C392.375 531.549 391.727 531.423 390.983 531.423C390.251 531.423 389.603 531.549 389.039 531.801C388.475 532.053 388.001 532.401 387.617 532.845C387.233 533.277 386.945 533.793 386.753 534.393C386.561 534.981 386.465 535.617 386.465 536.301ZM396.945 531.639V540.945H398.475V535.149C398.475 534.969 398.517 534.747 398.601 534.483C398.697 534.207 398.841 533.943 399.033 533.691C399.237 533.439 399.495 533.223 399.807 533.043C400.131 532.863 400.515 532.773 400.959 532.773C401.307 532.773 401.589 532.827 401.805 532.935C402.033 533.031 402.213 533.175 402.345 533.367C402.477 533.547 402.567 533.763 402.615 534.015C402.675 534.267 402.705 534.543 402.705 534.843V540.945H404.235V535.149C404.235 534.429 404.451 533.853 404.883 533.421C405.315 532.989 405.909 532.773 406.665 532.773C407.037 532.773 407.337 532.827 407.565 532.935C407.805 533.043 407.991 533.193 408.123 533.385C408.255 533.565 408.345 533.781 408.393 534.033C408.441 534.285 408.465 534.555 408.465 534.843V540.945H409.995V534.123C409.995 533.643 409.917 533.235 409.761 532.899C409.617 532.551 409.407 532.269 409.131 532.053C408.867 531.837 408.543 531.681 408.159 531.585C407.787 531.477 407.367 531.423 406.899 531.423C406.287 531.423 405.723 531.561 405.207 531.837C404.703 532.113 404.295 532.503 403.983 533.007C403.791 532.431 403.461 532.023 402.993 531.783C402.525 531.543 402.003 531.423 401.427 531.423C400.119 531.423 399.117 531.951 398.421 533.007H398.385V531.639H396.945ZM411.985 531.639V544.491H413.515V539.703H413.551C413.719 539.979 413.923 540.213 414.163 540.405C414.415 540.585 414.679 540.729 414.955 540.837C415.231 540.945 415.507 541.023 415.783 541.071C416.071 541.119 416.329 541.143 416.557 541.143C417.265 541.143 417.883 541.017 418.411 540.765C418.951 540.513 419.395 540.171 419.743 539.739C420.103 539.295 420.367 538.779 420.535 538.191C420.715 537.603 420.805 536.979 420.805 536.319C420.805 535.659 420.715 535.035 420.535 534.447C420.355 533.859 420.085 533.343 419.725 532.899C419.377 532.443 418.933 532.083 418.393 531.819C417.865 531.555 417.241 531.423 416.521 531.423C415.873 531.423 415.279 531.543 414.739 531.783C414.199 532.011 413.803 532.383 413.551 532.899H413.515V531.639H411.985ZM419.185 536.211C419.185 536.667 419.137 537.111 419.041 537.543C418.945 537.975 418.789 538.359 418.573 538.695C418.357 539.031 418.069 539.301 417.709 539.505C417.361 539.709 416.923 539.811 416.395 539.811C415.867 539.811 415.417 539.715 415.045 539.523C414.673 539.319 414.367 539.055 414.127 538.731C413.899 538.407 413.731 538.035 413.623 537.615C413.515 537.183 413.461 536.739 413.461 536.283C413.461 535.851 413.509 535.425 413.605 535.005C413.713 534.585 413.881 534.213 414.109 533.889C414.337 533.553 414.631 533.283 414.991 533.079C415.351 532.875 415.789 532.773 416.305 532.773C416.797 532.773 417.223 532.869 417.583 533.061C417.955 533.253 418.255 533.511 418.483 533.835C418.723 534.159 418.897 534.531 419.005 534.951C419.125 535.359 419.185 535.779 419.185 536.211ZM423.357 536.301C423.357 535.737 423.429 535.239 423.573 534.807C423.729 534.363 423.939 533.991 424.203 533.691C424.467 533.391 424.773 533.163 425.121 533.007C425.481 532.851 425.859 532.773 426.255 532.773C426.651 532.773 427.023 532.851 427.371 533.007C427.731 533.163 428.043 533.391 428.307 533.691C428.571 533.991 428.775 534.363 428.919 534.807C429.075 535.239 429.153 535.737 429.153 536.301C429.153 536.865 429.075 537.369 428.919 537.813C428.775 538.245 428.571 538.611 428.307 538.911C428.043 539.199 427.731 539.421 427.371 539.577C427.023 539.733 426.651 539.811 426.255 539.811C425.859 539.811 425.481 539.733 425.121 539.577C424.773 539.421 424.467 539.199 424.203 538.911C423.939 538.611 423.729 538.245 423.573 537.813C423.429 537.369 423.357 536.865 423.357 536.301ZM421.737 536.301C421.737 536.985 421.833 537.621 422.025 538.209C422.217 538.797 422.505 539.313 422.889 539.757C423.273 540.189 423.747 540.531 424.311 540.783C424.875 541.023 425.523 541.143 426.255 541.143C426.999 541.143 427.647 541.023 428.199 540.783C428.763 540.531 429.237 540.189 429.621 539.757C430.005 539.313 430.293 538.797 430.485 538.209C430.677 537.621 430.773 536.985 430.773 536.301C430.773 535.617 430.677 534.981 430.485 534.393C430.293 533.793 430.005 533.277 429.621 532.845C429.237 532.401 428.763 532.053 428.199 531.801C427.647 531.549 426.999 531.423 426.255 531.423C425.523 531.423 424.875 531.549 424.311 531.801C423.747 532.053 423.273 532.401 422.889 532.845C422.505 533.277 422.217 533.793 422.025 534.393C421.833 534.981 421.737 535.617 421.737 536.301ZM433.152 538.011H431.622C431.646 538.587 431.766 539.079 431.982 539.487C432.198 539.883 432.486 540.207 432.846 540.459C433.206 540.699 433.62 540.873 434.088 540.981C434.556 541.089 435.048 541.143 435.564 541.143C436.032 541.143 436.5 541.095 436.968 540.999C437.448 540.915 437.874 540.759 438.246 540.531C438.63 540.303 438.936 540.003 439.164 539.631C439.404 539.259 439.524 538.791 439.524 538.227C439.524 537.783 439.434 537.411 439.254 537.111C439.086 536.811 438.858 536.565 438.57 536.373C438.294 536.169 437.97 536.007 437.598 535.887C437.238 535.767 436.866 535.665 436.482 535.581C436.122 535.497 435.762 535.419 435.402 535.347C435.042 535.263 434.718 535.167 434.43 535.059C434.142 534.939 433.902 534.795 433.71 534.627C433.53 534.447 433.44 534.225 433.44 533.961C433.44 533.721 433.5 533.529 433.62 533.385C433.74 533.229 433.896 533.109 434.088 533.025C434.28 532.929 434.49 532.863 434.718 532.827C434.958 532.791 435.192 532.773 435.42 532.773C435.672 532.773 435.918 532.803 436.158 532.863C436.41 532.911 436.638 532.995 436.842 533.115C437.046 533.235 437.214 533.397 437.346 533.601C437.478 533.793 437.556 534.039 437.58 534.339H439.11C439.074 533.775 438.954 533.307 438.75 532.935C438.546 532.551 438.27 532.251 437.922 532.035C437.586 531.807 437.196 531.651 436.752 531.567C436.308 531.471 435.822 531.423 435.294 531.423C434.886 531.423 434.472 531.477 434.052 531.585C433.644 531.681 433.272 531.837 432.936 532.053C432.612 532.257 432.342 532.527 432.126 532.863C431.922 533.199 431.82 533.601 431.82 534.069C431.82 534.669 431.97 535.137 432.27 535.473C432.57 535.809 432.942 536.073 433.386 536.265C433.842 536.445 434.334 536.589 434.862 536.697C435.39 536.793 435.876 536.907 436.32 537.039C436.776 537.159 437.154 537.321 437.454 537.525C437.754 537.729 437.904 538.029 437.904 538.425C437.904 538.713 437.832 538.953 437.688 539.145C437.544 539.325 437.358 539.463 437.13 539.559C436.914 539.655 436.674 539.721 436.41 539.757C436.146 539.793 435.894 539.811 435.654 539.811C435.342 539.811 435.036 539.781 434.736 539.721C434.448 539.661 434.184 539.565 433.944 539.433C433.716 539.289 433.53 539.103 433.386 538.875C433.242 538.635 433.164 538.347 433.152 538.011ZM442.476 529.965V528.093H440.946V529.965H442.476ZM440.946 531.639V540.945H442.476V531.639H440.946ZM446.611 531.639V528.849H445.081V531.639H443.497V532.989H445.081V538.911C445.081 539.343 445.123 539.691 445.207 539.955C445.291 540.219 445.417 540.423 445.585 540.567C445.765 540.711 445.993 540.813 446.269 540.873C446.557 540.921 446.899 540.945 447.295 540.945H448.465V539.595H447.763C447.523 539.595 447.325 539.589 447.169 539.577C447.025 539.553 446.911 539.511 446.827 539.451C446.743 539.391 446.683 539.307 446.647 539.199C446.623 539.091 446.611 538.947 446.611 538.767V532.989H448.465V531.639H446.611ZM451.424 529.965V528.093H449.894V529.965H451.424ZM449.894 531.639V540.945H451.424V531.639H449.894ZM454.551 536.301C454.551 535.737 454.623 535.239 454.767 534.807C454.923 534.363 455.133 533.991 455.397 533.691C455.661 533.391 455.967 533.163 456.315 533.007C456.675 532.851 457.053 532.773 457.449 532.773C457.845 532.773 458.217 532.851 458.565 533.007C458.925 533.163 459.237 533.391 459.501 533.691C459.765 533.991 459.969 534.363 460.113 534.807C460.269 535.239 460.347 535.737 460.347 536.301C460.347 536.865 460.269 537.369 460.113 537.813C459.969 538.245 459.765 538.611 459.501 538.911C459.237 539.199 458.925 539.421 458.565 539.577C458.217 539.733 457.845 539.811 457.449 539.811C457.053 539.811 456.675 539.733 456.315 539.577C455.967 539.421 455.661 539.199 455.397 538.911C455.133 538.611 454.923 538.245 454.767 537.813C454.623 537.369 454.551 536.865 454.551 536.301ZM452.931 536.301C452.931 536.985 453.027 537.621 453.219 538.209C453.411 538.797 453.699 539.313 454.083 539.757C454.467 540.189 454.941 540.531 455.505 540.783C456.069 541.023 456.717 541.143 457.449 541.143C458.193 541.143 458.841 541.023 459.393 540.783C459.957 540.531 460.431 540.189 460.815 539.757C461.199 539.313 461.487 538.797 461.679 538.209C461.871 537.621 461.967 536.985 461.967 536.301C461.967 535.617 461.871 534.981 461.679 534.393C461.487 533.793 461.199 533.277 460.815 532.845C460.431 532.401 459.957 532.053 459.393 531.801C458.841 531.549 458.193 531.423 457.449 531.423C456.717 531.423 456.069 531.549 455.505 531.801C454.941 532.053 454.467 532.401 454.083 532.845C453.699 533.277 453.411 533.793 453.219 534.393C453.027 534.981 452.931 535.617 452.931 536.301ZM463.411 531.639V540.945H464.941V535.689C464.941 535.269 464.995 534.885 465.103 534.537C465.223 534.177 465.397 533.865 465.625 533.601C465.853 533.337 466.135 533.133 466.471 532.989C466.819 532.845 467.227 532.773 467.695 532.773C468.283 532.773 468.745 532.941 469.081 533.277C469.417 533.613 469.585 534.069 469.585 534.645V540.945H471.115V534.825C471.115 534.321 471.061 533.865 470.953 533.457C470.857 533.037 470.683 532.677 470.431 532.377C470.179 532.077 469.849 531.843 469.441 531.675C469.033 531.507 468.523 531.423 467.911 531.423C466.531 531.423 465.523 531.987 464.887 533.115H464.851V531.639H463.411ZM485.01 529.749V528.399H478.71L477.522 535.023L478.836 535.095C479.136 534.735 479.478 534.447 479.862 534.231C480.258 534.003 480.708 533.889 481.212 533.889C481.644 533.889 482.034 533.961 482.382 534.105C482.742 534.249 483.048 534.453 483.3 534.717C483.552 534.969 483.744 535.275 483.876 535.635C484.02 535.983 484.092 536.367 484.092 536.787C484.092 537.291 484.02 537.735 483.876 538.119C483.732 538.491 483.534 538.803 483.282 539.055C483.042 539.307 482.754 539.499 482.418 539.631C482.094 539.751 481.752 539.811 481.392 539.811C481.008 539.811 480.654 539.757 480.33 539.649C480.018 539.529 479.742 539.367 479.502 539.163C479.274 538.947 479.088 538.701 478.944 538.425C478.812 538.137 478.734 537.831 478.71 537.507H477.18C477.192 538.083 477.306 538.599 477.522 539.055C477.738 539.511 478.032 539.895 478.404 540.207C478.776 540.507 479.202 540.741 479.682 540.909C480.174 541.065 480.696 541.143 481.248 541.143C481.992 541.143 482.64 541.029 483.192 540.801C483.756 540.561 484.224 540.243 484.596 539.847C484.968 539.451 485.244 539.001 485.424 538.497C485.616 537.981 485.712 537.453 485.712 536.913C485.712 536.181 485.604 535.545 485.388 535.005C485.172 534.453 484.878 533.997 484.506 533.637C484.134 533.265 483.696 532.989 483.192 532.809C482.688 532.629 482.154 532.539 481.59 532.539C481.158 532.539 480.72 532.617 480.276 532.773C479.844 532.917 479.49 533.145 479.214 533.457L479.178 533.421L479.862 529.749H485.01Z" fill="black"/>
<circle cx="96.682" cy="500.198" r="19.35" fill="#C6C6C6"/>
<path d="M52.0486 529.264H53.7586C53.6626 528.58 53.4586 527.98 53.1466 527.464C52.8346 526.936 52.4446 526.498 51.9766 526.15C51.5086 525.802 50.9746 525.538 50.3746 525.358C49.7746 525.178 49.1386 525.088 48.4666 525.088C47.4826 525.088 46.6066 525.268 45.8386 525.628C45.0826 525.976 44.4466 526.456 43.9306 527.068C43.4266 527.68 43.0426 528.4 42.7786 529.228C42.5146 530.044 42.3826 530.92 42.3826 531.856C42.3826 532.792 42.5026 533.668 42.7426 534.484C42.9946 535.3 43.3666 536.008 43.8586 536.608C44.3506 537.208 44.9686 537.682 45.7126 538.03C46.4566 538.366 47.3266 538.534 48.3226 538.534C49.9666 538.534 51.2626 538.084 52.2106 537.184C53.1586 536.284 53.7166 535.024 53.8846 533.404H52.1746C52.1386 533.932 52.0306 534.424 51.8506 534.88C51.6706 535.336 51.4186 535.732 51.0946 536.068C50.7826 536.392 50.4046 536.65 49.9606 536.842C49.5286 537.022 49.0306 537.112 48.4666 537.112C47.6986 537.112 47.0386 536.968 46.4866 536.68C45.9346 536.392 45.4786 536.008 45.1186 535.528C44.7706 535.036 44.5126 534.466 44.3446 533.818C44.1766 533.158 44.0926 532.462 44.0926 531.73C44.0926 531.058 44.1766 530.41 44.3446 529.786C44.5126 529.162 44.7706 528.61 45.1186 528.13C45.4786 527.638 45.9286 527.248 46.4686 526.96C47.0206 526.672 47.6806 526.528 48.4486 526.528C49.3486 526.528 50.1226 526.756 50.7706 527.212C51.4306 527.668 51.8566 528.352 52.0486 529.264ZM56.5069 533.602C56.5069 533.038 56.5789 532.54 56.7229 532.108C56.8789 531.664 57.0889 531.292 57.3529 530.992C57.6169 530.692 57.9229 530.464 58.2709 530.308C58.6309 530.152 59.0089 530.074 59.4049 530.074C59.8009 530.074 60.1729 530.152 60.5209 530.308C60.8809 530.464 61.1929 530.692 61.4569 530.992C61.7209 531.292 61.9249 531.664 62.0689 532.108C62.2249 532.54 62.3029 533.038 62.3029 533.602C62.3029 534.166 62.2249 534.67 62.0689 535.114C61.9249 535.546 61.7209 535.912 61.4569 536.212C61.1929 536.5 60.8809 536.722 60.5209 536.878C60.1729 537.034 59.8009 537.112 59.4049 537.112C59.0089 537.112 58.6309 537.034 58.2709 536.878C57.9229 536.722 57.6169 536.5 57.3529 536.212C57.0889 535.912 56.8789 535.546 56.7229 535.114C56.5789 534.67 56.5069 534.166 56.5069 533.602ZM54.8869 533.602C54.8869 534.286 54.9829 534.922 55.1749 535.51C55.3669 536.098 55.6549 536.614 56.0389 537.058C56.4229 537.49 56.8969 537.832 57.4609 538.084C58.0249 538.324 58.6729 538.444 59.4049 538.444C60.1489 538.444 60.7969 538.324 61.3489 538.084C61.9129 537.832 62.3869 537.49 62.7709 537.058C63.1549 536.614 63.4429 536.098 63.6349 535.51C63.8269 534.922 63.9229 534.286 63.9229 533.602C63.9229 532.918 63.8269 532.282 63.6349 531.694C63.4429 531.094 63.1549 530.578 62.7709 530.146C62.3869 529.702 61.9129 529.354 61.3489 529.102C60.7969 528.85 60.1489 528.724 59.4049 528.724C58.6729 528.724 58.0249 528.85 57.4609 529.102C56.8969 529.354 56.4229 529.702 56.0389 530.146C55.6549 530.578 55.3669 531.094 55.1749 531.694C54.9829 532.282 54.8869 532.918 54.8869 533.602ZM65.3668 528.94V538.246H66.8968V532.45C66.8968 532.27 66.9388 532.048 67.0228 531.784C67.1188 531.508 67.2628 531.244 67.4548 530.992C67.6588 530.74 67.9168 530.524 68.2288 530.344C68.5528 530.164 68.9368 530.074 69.3808 530.074C69.7288 530.074 70.0108 530.128 70.2268 530.236C70.4548 530.332 70.6348 530.476 70.7668 530.668C70.8988 530.848 70.9888 531.064 71.0368 531.316C71.0968 531.568 71.1268 531.844 71.1268 532.144V538.246H72.6568V532.45C72.6568 531.73 72.8728 531.154 73.3048 530.722C73.7368 530.29 74.3308 530.074 75.0868 530.074C75.4588 530.074 75.7588 530.128 75.9868 530.236C76.2268 530.344 76.4128 530.494 76.5448 530.686C76.6768 530.866 76.7668 531.082 76.8148 531.334C76.8628 531.586 76.8868 531.856 76.8868 532.144V538.246H78.4168V531.424C78.4168 530.944 78.3388 530.536 78.1828 530.2C78.0388 529.852 77.8288 529.57 77.5528 529.354C77.2888 529.138 76.9648 528.982 76.5808 528.886C76.2088 528.778 75.7888 528.724 75.3208 528.724C74.7088 528.724 74.1448 528.862 73.6288 529.138C73.1248 529.414 72.7168 529.804 72.4048 530.308C72.2128 529.732 71.8828 529.324 71.4148 529.084C70.9468 528.844 70.4248 528.724 69.8488 528.724C68.5408 528.724 67.5388 529.252 66.8428 530.308H66.8068V528.94H65.3668ZM80.4065 528.94V541.792H81.9365V537.004H81.9725C82.1405 537.28 82.3445 537.514 82.5845 537.706C82.8365 537.886 83.1005 538.03 83.3765 538.138C83.6525 538.246 83.9285 538.324 84.2045 538.372C84.4925 538.42 84.7505 538.444 84.9785 538.444C85.6865 538.444 86.3045 538.318 86.8325 538.066C87.3725 537.814 87.8165 537.472 88.1645 537.04C88.5245 536.596 88.7885 536.08 88.9565 535.492C89.1365 534.904 89.2265 534.28 89.2265 533.62C89.2265 532.96 89.1365 532.336 88.9565 531.748C88.7765 531.16 88.5065 530.644 88.1465 530.2C87.7985 529.744 87.3545 529.384 86.8145 529.12C86.2865 528.856 85.6625 528.724 84.9425 528.724C84.2945 528.724 83.7005 528.844 83.1605 529.084C82.6205 529.312 82.2245 529.684 81.9725 530.2H81.9365V528.94H80.4065ZM87.6065 533.512C87.6065 533.968 87.5585 534.412 87.4625 534.844C87.3665 535.276 87.2105 535.66 86.9945 535.996C86.7785 536.332 86.4905 536.602 86.1305 536.806C85.7825 537.01 85.3445 537.112 84.8165 537.112C84.2885 537.112 83.8385 537.016 83.4665 536.824C83.0945 536.62 82.7885 536.356 82.5485 536.032C82.3205 535.708 82.1525 535.336 82.0445 534.916C81.9365 534.484 81.8825 534.04 81.8825 533.584C81.8825 533.152 81.9305 532.726 82.0265 532.306C82.1345 531.886 82.3025 531.514 82.5305 531.19C82.7585 530.854 83.0525 530.584 83.4125 530.38C83.7725 530.176 84.2105 530.074 84.7265 530.074C85.2185 530.074 85.6445 530.17 86.0045 530.362C86.3765 530.554 86.6765 530.812 86.9045 531.136C87.1445 531.46 87.3185 531.832 87.4265 532.252C87.5465 532.66 87.6065 533.08 87.6065 533.512ZM91.7784 533.602C91.7784 533.038 91.8504 532.54 91.9944 532.108C92.1504 531.664 92.3604 531.292 92.6244 530.992C92.8884 530.692 93.1944 530.464 93.5424 530.308C93.9024 530.152 94.2804 530.074 94.6764 530.074C95.0724 530.074 95.4444 530.152 95.7924 530.308C96.1524 530.464 96.4644 530.692 96.7284 530.992C96.9924 531.292 97.1964 531.664 97.3404 532.108C97.4964 532.54 97.5744 533.038 97.5744 533.602C97.5744 534.166 97.4964 534.67 97.3404 535.114C97.1964 535.546 96.9924 535.912 96.7284 536.212C96.4644 536.5 96.1524 536.722 95.7924 536.878C95.4444 537.034 95.0724 537.112 94.6764 537.112C94.2804 537.112 93.9024 537.034 93.5424 536.878C93.1944 536.722 92.8884 536.5 92.6244 536.212C92.3604 535.912 92.1504 535.546 91.9944 535.114C91.8504 534.67 91.7784 534.166 91.7784 533.602ZM90.1584 533.602C90.1584 534.286 90.2544 534.922 90.4464 535.51C90.6384 536.098 90.9264 536.614 91.3104 537.058C91.6944 537.49 92.1684 537.832 92.7324 538.084C93.2964 538.324 93.9444 538.444 94.6764 538.444C95.4204 538.444 96.0684 538.324 96.6204 538.084C97.1844 537.832 97.6584 537.49 98.0424 537.058C98.4264 536.614 98.7144 536.098 98.9064 535.51C99.0984 534.922 99.1944 534.286 99.1944 533.602C99.1944 532.918 99.0984 532.282 98.9064 531.694C98.7144 531.094 98.4264 530.578 98.0424 530.146C97.6584 529.702 97.1844 529.354 96.6204 529.102C96.0684 528.85 95.4204 528.724 94.6764 528.724C93.9444 528.724 93.2964 528.85 92.7324 529.102C92.1684 529.354 91.6944 529.702 91.3104 530.146C90.9264 530.578 90.6384 531.094 90.4464 531.694C90.2544 532.282 90.1584 532.918 90.1584 533.602ZM101.574 535.312H100.044C100.068 535.888 100.188 536.38 100.404 536.788C100.62 537.184 100.908 537.508 101.268 537.76C101.628 538 102.042 538.174 102.51 538.282C102.978 538.39 103.47 538.444 103.986 538.444C104.454 538.444 104.922 538.396 105.39 538.3C105.87 538.216 106.296 538.06 106.668 537.832C107.052 537.604 107.358 537.304 107.586 536.932C107.826 536.56 107.946 536.092 107.946 535.528C107.946 535.084 107.856 534.712 107.676 534.412C107.508 534.112 107.28 533.866 106.992 533.674C106.716 533.47 106.392 533.308 106.02 533.188C105.66 533.068 105.288 532.966 104.904 532.882C104.544 532.798 104.184 532.72 103.824 532.648C103.464 532.564 103.14 532.468 102.852 532.36C102.564 532.24 102.324 532.096 102.132 531.928C101.952 531.748 101.862 531.526 101.862 531.262C101.862 531.022 101.922 530.83 102.042 530.686C102.162 530.53 102.318 530.41 102.51 530.326C102.702 530.23 102.912 530.164 103.14 530.128C103.38 530.092 103.614 530.074 103.842 530.074C104.094 530.074 104.34 530.104 104.58 530.164C104.832 530.212 105.06 530.296 105.264 530.416C105.468 530.536 105.636 530.698 105.768 530.902C105.9 531.094 105.978 531.34 106.002 531.64H107.532C107.496 531.076 107.376 530.608 107.172 530.236C106.968 529.852 106.692 529.552 106.344 529.336C106.008 529.108 105.618 528.952 105.174 528.868C104.73 528.772 104.244 528.724 103.716 528.724C103.308 528.724 102.894 528.778 102.474 528.886C102.066 528.982 101.694 529.138 101.358 529.354C101.034 529.558 100.764 529.828 100.548 530.164C100.344 530.5 100.242 530.902 100.242 531.37C100.242 531.97 100.392 532.438 100.692 532.774C100.992 533.11 101.364 533.374 101.808 533.566C102.264 533.746 102.756 533.89 103.284 533.998C103.812 534.094 104.298 534.208 104.742 534.34C105.198 534.46 105.576 534.622 105.876 534.826C106.176 535.03 106.326 535.33 106.326 535.726C106.326 536.014 106.254 536.254 106.11 536.446C105.966 536.626 105.78 536.764 105.552 536.86C105.336 536.956 105.096 537.022 104.832 537.058C104.568 537.094 104.316 537.112 104.076 537.112C103.764 537.112 103.458 537.082 103.158 537.022C102.87 536.962 102.606 536.866 102.366 536.734C102.138 536.59 101.952 536.404 101.808 536.176C101.664 535.936 101.586 535.648 101.574 535.312ZM110.898 527.266V525.394H109.368V527.266H110.898ZM109.368 528.94V538.246H110.898V528.94H109.368ZM115.033 528.94V526.15H113.503V528.94H111.919V530.29H113.503V536.212C113.503 536.644 113.545 536.992 113.629 537.256C113.713 537.52 113.839 537.724 114.007 537.868C114.187 538.012 114.415 538.114 114.691 538.174C114.979 538.222 115.321 538.246 115.717 538.246H116.887V536.896H116.185C115.945 536.896 115.747 536.89 115.591 536.878C115.447 536.854 115.333 536.812 115.249 536.752C115.165 536.692 115.105 536.608 115.069 536.5C115.045 536.392 115.033 536.248 115.033 536.068V530.29H116.887V528.94H115.033ZM119.846 527.266V525.394H118.316V527.266H119.846ZM118.316 528.94V538.246H119.846V528.94H118.316ZM122.973 533.602C122.973 533.038 123.045 532.54 123.189 532.108C123.345 531.664 123.555 531.292 123.819 530.992C124.083 530.692 124.389 530.464 124.737 530.308C125.097 530.152 125.475 530.074 125.871 530.074C126.267 530.074 126.639 530.152 126.987 530.308C127.347 530.464 127.659 530.692 127.923 530.992C128.187 531.292 128.391 531.664 128.535 532.108C128.691 532.54 128.769 533.038 128.769 533.602C128.769 534.166 128.691 534.67 128.535 535.114C128.391 535.546 128.187 535.912 127.923 536.212C127.659 536.5 127.347 536.722 126.987 536.878C126.639 537.034 126.267 537.112 125.871 537.112C125.475 537.112 125.097 537.034 124.737 536.878C124.389 536.722 124.083 536.5 123.819 536.212C123.555 535.912 123.345 535.546 123.189 535.114C123.045 534.67 122.973 534.166 122.973 533.602ZM121.353 533.602C121.353 534.286 121.449 534.922 121.641 535.51C121.833 536.098 122.121 536.614 122.505 537.058C122.889 537.49 123.363 537.832 123.927 538.084C124.491 538.324 125.139 538.444 125.871 538.444C126.615 538.444 127.263 538.324 127.815 538.084C128.379 537.832 128.853 537.49 129.237 537.058C129.621 536.614 129.909 536.098 130.101 535.51C130.293 534.922 130.389 534.286 130.389 533.602C130.389 532.918 130.293 532.282 130.101 531.694C129.909 531.094 129.621 530.578 129.237 530.146C128.853 529.702 128.379 529.354 127.815 529.102C127.263 528.85 126.615 528.724 125.871 528.724C125.139 528.724 124.491 528.85 123.927 529.102C123.363 529.354 122.889 529.702 122.505 530.146C122.121 530.578 121.833 531.094 121.641 531.694C121.449 532.282 121.353 532.918 121.353 533.602ZM131.833 528.94V538.246H133.363V532.99C133.363 532.57 133.417 532.186 133.525 531.838C133.645 531.478 133.819 531.166 134.047 530.902C134.275 530.638 134.557 530.434 134.893 530.29C135.241 530.146 135.649 530.074 136.117 530.074C136.705 530.074 137.167 530.242 137.503 530.578C137.839 530.914 138.007 531.37 138.007 531.946V538.246H139.537V532.126C139.537 531.622 139.483 531.166 139.375 530.758C139.279 530.338 139.105 529.978 138.853 529.678C138.601 529.378 138.271 529.144 137.863 528.976C137.455 528.808 136.945 528.724 136.333 528.724C134.953 528.724 133.945 529.288 133.309 530.416H133.273V528.94H131.833ZM151.074 533.908H146.79L151.038 527.662H151.074V533.908ZM152.514 533.908V525.484H151.29L145.476 533.782V535.258H151.074V538.246H152.514V535.258H154.242V533.908H152.514Z" fill="black"/>
<circle cx="130.881" cy="149.198" r="19.35" fill="#C6C6C6"/>
<path d="M117.668 184.042V174.394H115.958V183.79C115.958 184.498 115.808 185.062 115.508 185.482C115.22 185.902 114.686 186.112 113.906 186.112C113.486 186.112 113.138 186.052 112.862 185.932C112.598 185.8 112.388 185.62 112.232 185.392C112.088 185.164 111.986 184.894 111.926 184.582C111.866 184.27 111.836 183.928 111.836 183.556V183.016H110.126V183.808C110.126 185.032 110.45 185.962 111.098 186.598C111.746 187.222 112.67 187.534 113.87 187.534C114.59 187.534 115.19 187.438 115.67 187.246C116.162 187.042 116.552 186.778 116.84 186.454C117.14 186.118 117.35 185.74 117.47 185.32C117.602 184.9 117.668 184.474 117.668 184.042ZM121.476 176.266V174.394H119.946V176.266H121.476ZM119.946 177.94V187.246H121.476V177.94H119.946ZM123.487 177.94V187.246H125.017V181.99C125.017 181.57 125.071 181.186 125.179 180.838C125.299 180.478 125.473 180.166 125.701 179.902C125.929 179.638 126.211 179.434 126.547 179.29C126.895 179.146 127.303 179.074 127.771 179.074C128.359 179.074 128.821 179.242 129.157 179.578C129.493 179.914 129.661 180.37 129.661 180.946V187.246H131.191V181.126C131.191 180.622 131.137 180.166 131.029 179.758C130.933 179.338 130.759 178.978 130.507 178.678C130.255 178.378 129.925 178.144 129.517 177.976C129.109 177.808 128.599 177.724 127.987 177.724C126.607 177.724 125.599 178.288 124.963 179.416H124.927V177.94H123.487ZM141.157 186.454V177.94H139.717V179.272H139.699C139.423 178.756 139.039 178.372 138.547 178.12C138.055 177.856 137.515 177.724 136.927 177.724C136.123 177.724 135.445 177.88 134.893 178.192C134.341 178.492 133.897 178.882 133.561 179.362C133.225 179.83 132.985 180.358 132.841 180.946C132.697 181.522 132.625 182.086 132.625 182.638C132.625 183.274 132.709 183.88 132.877 184.456C133.057 185.02 133.321 185.518 133.669 185.95C134.017 186.37 134.449 186.706 134.965 186.958C135.481 187.21 136.087 187.336 136.783 187.336C137.383 187.336 137.947 187.204 138.475 186.94C139.015 186.664 139.417 186.238 139.681 185.662H139.717V186.274C139.717 186.79 139.663 187.264 139.555 187.696C139.459 188.128 139.297 188.494 139.069 188.794C138.841 189.106 138.553 189.346 138.205 189.514C137.857 189.694 137.431 189.784 136.927 189.784C136.675 189.784 136.411 189.754 136.135 189.694C135.859 189.646 135.601 189.562 135.361 189.442C135.133 189.322 134.935 189.166 134.767 188.974C134.611 188.782 134.527 188.548 134.515 188.272H132.985C133.009 188.776 133.141 189.202 133.381 189.55C133.621 189.898 133.921 190.18 134.281 190.396C134.653 190.612 135.061 190.768 135.505 190.864C135.961 190.96 136.405 191.008 136.837 191.008C138.325 191.008 139.417 190.63 140.113 189.874C140.809 189.118 141.157 187.978 141.157 186.454ZM136.873 186.004C136.369 186.004 135.949 185.902 135.613 185.698C135.277 185.482 135.007 185.206 134.803 184.87C134.599 184.522 134.455 184.138 134.371 183.718C134.287 183.298 134.245 182.878 134.245 182.458C134.245 182.014 134.293 181.588 134.389 181.18C134.497 180.772 134.659 180.412 134.875 180.1C135.103 179.788 135.391 179.542 135.739 179.362C136.087 179.17 136.507 179.074 136.999 179.074C137.479 179.074 137.887 179.17 138.223 179.362C138.559 179.554 138.829 179.812 139.033 180.136C139.249 180.448 139.405 180.802 139.501 181.198C139.597 181.594 139.645 181.996 139.645 182.404C139.645 182.836 139.591 183.268 139.483 183.7C139.387 184.132 139.231 184.522 139.015 184.87C138.799 185.206 138.511 185.482 138.151 185.698C137.803 185.902 137.377 186.004 136.873 186.004ZM143.195 174.394V187.246H144.725V174.394H143.195ZM153.197 181.702H147.851C147.875 181.342 147.953 181.006 148.085 180.694C148.217 180.37 148.397 180.088 148.625 179.848C148.853 179.608 149.123 179.422 149.435 179.29C149.759 179.146 150.119 179.074 150.515 179.074C150.899 179.074 151.247 179.146 151.559 179.29C151.883 179.422 152.159 179.608 152.387 179.848C152.627 180.076 152.813 180.352 152.945 180.676C153.089 181 153.173 181.342 153.197 181.702ZM154.673 184.294H153.161C153.029 184.906 152.753 185.362 152.333 185.662C151.925 185.962 151.397 186.112 150.749 186.112C150.245 186.112 149.807 186.028 149.435 185.86C149.063 185.692 148.757 185.47 148.517 185.194C148.277 184.906 148.103 184.582 147.995 184.222C147.887 183.85 147.839 183.46 147.851 183.052H154.817C154.841 182.488 154.787 181.894 154.655 181.27C154.535 180.646 154.307 180.07 153.971 179.542C153.647 179.014 153.209 178.582 152.657 178.246C152.117 177.898 151.433 177.724 150.605 177.724C149.969 177.724 149.381 177.844 148.841 178.084C148.313 178.324 147.851 178.66 147.455 179.092C147.071 179.524 146.771 180.034 146.555 180.622C146.339 181.21 146.231 181.858 146.231 182.566C146.255 183.274 146.357 183.928 146.537 184.528C146.729 185.128 147.011 185.644 147.383 186.076C147.755 186.508 148.211 186.844 148.751 187.084C149.303 187.324 149.951 187.444 150.695 187.444C151.751 187.444 152.627 187.18 153.323 186.652C154.019 186.124 154.469 185.338 154.673 184.294Z" fill="black"/>
<circle cx="111.721" cy="336.397" r="19.35" fill="#C6C6C6"/>
<path d="M67.0877 365.463H68.7977C68.7017 364.779 68.4977 364.179 68.1857 363.663C67.8737 363.135 67.4837 362.697 67.0157 362.349C66.5477 362.001 66.0137 361.737 65.4137 361.557C64.8137 361.377 64.1777 361.287 63.5057 361.287C62.5217 361.287 61.6457 361.467 60.8777 361.827C60.1217 362.175 59.4857 362.655 58.9697 363.267C58.4657 363.879 58.0817 364.599 57.8177 365.427C57.5537 366.243 57.4217 367.119 57.4217 368.055C57.4217 368.991 57.5417 369.867 57.7817 370.683C58.0337 371.499 58.4057 372.207 58.8977 372.807C59.3897 373.407 60.0077 373.881 60.7517 374.229C61.4957 374.565 62.3657 374.733 63.3617 374.733C65.0057 374.733 66.3017 374.283 67.2497 373.383C68.1977 372.483 68.7557 371.223 68.9237 369.603H67.2137C67.1777 370.131 67.0697 370.623 66.8897 371.079C66.7097 371.535 66.4577 371.931 66.1337 372.267C65.8217 372.591 65.4437 372.849 64.9997 373.041C64.5677 373.221 64.0697 373.311 63.5057 373.311C62.7377 373.311 62.0777 373.167 61.5257 372.879C60.9737 372.591 60.5177 372.207 60.1577 371.727C59.8097 371.235 59.5517 370.665 59.3837 370.017C59.2157 369.357 59.1317 368.661 59.1317 367.929C59.1317 367.257 59.2157 366.609 59.3837 365.985C59.5517 365.361 59.8097 364.809 60.1577 364.329C60.5177 363.837 60.9677 363.447 61.5077 363.159C62.0597 362.871 62.7197 362.727 63.4877 362.727C64.3877 362.727 65.1617 362.955 65.8097 363.411C66.4697 363.867 66.8957 364.551 67.0877 365.463ZM71.5459 369.801C71.5459 369.237 71.6179 368.739 71.7619 368.307C71.9179 367.863 72.1279 367.491 72.3919 367.191C72.6559 366.891 72.9619 366.663 73.3099 366.507C73.6699 366.351 74.0479 366.273 74.4439 366.273C74.8399 366.273 75.2119 366.351 75.5599 366.507C75.9199 366.663 76.2319 366.891 76.4959 367.191C76.7599 367.491 76.9639 367.863 77.1079 368.307C77.2639 368.739 77.3419 369.237 77.3419 369.801C77.3419 370.365 77.2639 370.869 77.1079 371.313C76.9639 371.745 76.7599 372.111 76.4959 372.411C76.2319 372.699 75.9199 372.921 75.5599 373.077C75.2119 373.233 74.8399 373.311 74.4439 373.311C74.0479 373.311 73.6699 373.233 73.3099 373.077C72.9619 372.921 72.6559 372.699 72.3919 372.411C72.1279 372.111 71.9179 371.745 71.7619 371.313C71.6179 370.869 71.5459 370.365 71.5459 369.801ZM69.9259 369.801C69.9259 370.485 70.0219 371.121 70.2139 371.709C70.4059 372.297 70.6939 372.813 71.0779 373.257C71.4619 373.689 71.9359 374.031 72.4999 374.283C73.0639 374.523 73.7119 374.643 74.4439 374.643C75.1879 374.643 75.8359 374.523 76.3879 374.283C76.9519 374.031 77.4259 373.689 77.8099 373.257C78.1939 372.813 78.4819 372.297 78.6739 371.709C78.8659 371.121 78.9619 370.485 78.9619 369.801C78.9619 369.117 78.8659 368.481 78.6739 367.893C78.4819 367.293 78.1939 366.777 77.8099 366.345C77.4259 365.901 76.9519 365.553 76.3879 365.301C75.8359 365.049 75.1879 364.923 74.4439 364.923C73.7119 364.923 73.0639 365.049 72.4999 365.301C71.9359 365.553 71.4619 365.901 71.0779 366.345C70.6939 366.777 70.4059 367.293 70.2139 367.893C70.0219 368.481 69.9259 369.117 69.9259 369.801ZM80.4059 365.139V374.445H81.9359V368.649C81.9359 368.469 81.9779 368.247 82.0619 367.983C82.1579 367.707 82.3019 367.443 82.4939 367.191C82.6979 366.939 82.9559 366.723 83.2679 366.543C83.5919 366.363 83.9759 366.273 84.4199 366.273C84.7679 366.273 85.0499 366.327 85.2659 366.435C85.4939 366.531 85.6739 366.675 85.8059 366.867C85.9379 367.047 86.0279 367.263 86.0759 367.515C86.1359 367.767 86.1659 368.043 86.1659 368.343V374.445H87.6959V368.649C87.6959 367.929 87.9119 367.353 88.3439 366.921C88.7759 366.489 89.3699 366.273 90.1259 366.273C90.4979 366.273 90.7979 366.327 91.0259 366.435C91.2659 366.543 91.4519 366.693 91.5839 366.885C91.7159 367.065 91.8059 367.281 91.8539 367.533C91.9019 367.785 91.9259 368.055 91.9259 368.343V374.445H93.4559V367.623C93.4559 367.143 93.3779 366.735 93.2219 366.399C93.0779 366.051 92.8679 365.769 92.5919 365.553C92.3279 365.337 92.0039 365.181 91.6199 365.085C91.2479 364.977 90.8279 364.923 90.3599 364.923C89.7479 364.923 89.1839 365.061 88.6679 365.337C88.1639 365.613 87.7559 366.003 87.4439 366.507C87.2519 365.931 86.9219 365.523 86.4539 365.283C85.9859 365.043 85.4639 364.923 84.8879 364.923C83.5799 364.923 82.5779 365.451 81.8819 366.507H81.8459V365.139H80.4059ZM95.4456 365.139V377.991H96.9756V373.203H97.0116C97.1796 373.479 97.3836 373.713 97.6236 373.905C97.8756 374.085 98.1396 374.229 98.4156 374.337C98.6916 374.445 98.9676 374.523 99.2436 374.571C99.5316 374.619 99.7896 374.643 100.018 374.643C100.726 374.643 101.344 374.517 101.872 374.265C102.412 374.013 102.856 373.671 103.204 373.239C103.564 372.795 103.828 372.279 103.996 371.691C104.176 371.103 104.266 370.479 104.266 369.819C104.266 369.159 104.176 368.535 103.996 367.947C103.816 367.359 103.546 366.843 103.186 366.399C102.838 365.943 102.394 365.583 101.854 365.319C101.326 365.055 100.702 364.923 99.9816 364.923C99.3336 364.923 98.7396 365.043 98.1996 365.283C97.6596 365.511 97.2636 365.883 97.0116 366.399H96.9756V365.139H95.4456ZM102.646 369.711C102.646 370.167 102.598 370.611 102.502 371.043C102.406 371.475 102.25 371.859 102.034 372.195C101.818 372.531 101.53 372.801 101.17 373.005C100.822 373.209 100.384 373.311 99.8556 373.311C99.3276 373.311 98.8776 373.215 98.5056 373.023C98.1336 372.819 97.8276 372.555 97.5876 372.231C97.3596 371.907 97.1916 371.535 97.0836 371.115C96.9756 370.683 96.9216 370.239 96.9216 369.783C96.9216 369.351 96.9696 368.925 97.0656 368.505C97.1736 368.085 97.3416 367.713 97.5696 367.389C97.7976 367.053 98.0916 366.783 98.4516 366.579C98.8116 366.375 99.2496 366.273 99.7656 366.273C100.258 366.273 100.684 366.369 101.044 366.561C101.416 366.753 101.716 367.011 101.944 367.335C102.184 367.659 102.358 368.031 102.466 368.451C102.586 368.859 102.646 369.279 102.646 369.711ZM106.817 369.801C106.817 369.237 106.889 368.739 107.033 368.307C107.189 367.863 107.399 367.491 107.663 367.191C107.927 366.891 108.233 366.663 108.581 366.507C108.941 366.351 109.319 366.273 109.715 366.273C110.111 366.273 110.483 366.351 110.831 366.507C111.191 366.663 111.503 366.891 111.767 367.191C112.031 367.491 112.235 367.863 112.379 368.307C112.535 368.739 112.613 369.237 112.613 369.801C112.613 370.365 112.535 370.869 112.379 371.313C112.235 371.745 112.031 372.111 111.767 372.411C111.503 372.699 111.191 372.921 110.831 373.077C110.483 373.233 110.111 373.311 109.715 373.311C109.319 373.311 108.941 373.233 108.581 373.077C108.233 372.921 107.927 372.699 107.663 372.411C107.399 372.111 107.189 371.745 107.033 371.313C106.889 370.869 106.817 370.365 106.817 369.801ZM105.197 369.801C105.197 370.485 105.293 371.121 105.485 371.709C105.677 372.297 105.965 372.813 106.349 373.257C106.733 373.689 107.207 374.031 107.771 374.283C108.335 374.523 108.983 374.643 109.715 374.643C110.459 374.643 111.107 374.523 111.659 374.283C112.223 374.031 112.697 373.689 113.081 373.257C113.465 372.813 113.753 372.297 113.945 371.709C114.137 371.121 114.233 370.485 114.233 369.801C114.233 369.117 114.137 368.481 113.945 367.893C113.753 367.293 113.465 366.777 113.081 366.345C112.697 365.901 112.223 365.553 111.659 365.301C111.107 365.049 110.459 364.923 109.715 364.923C108.983 364.923 108.335 365.049 107.771 365.301C107.207 365.553 106.733 365.901 106.349 366.345C105.965 366.777 105.677 367.293 105.485 367.893C105.293 368.481 105.197 369.117 105.197 369.801ZM116.613 371.511H115.083C115.107 372.087 115.227 372.579 115.443 372.987C115.659 373.383 115.947 373.707 116.307 373.959C116.667 374.199 117.081 374.373 117.549 374.481C118.017 374.589 118.509 374.643 119.025 374.643C119.493 374.643 119.961 374.595 120.429 374.499C120.909 374.415 121.335 374.259 121.707 374.031C122.091 373.803 122.397 373.503 122.625 373.131C122.865 372.759 122.985 372.291 122.985 371.727C122.985 371.283 122.895 370.911 122.715 370.611C122.547 370.311 122.319 370.065 122.031 369.873C121.755 369.669 121.431 369.507 121.059 369.387C120.699 369.267 120.327 369.165 119.943 369.081C119.583 368.997 119.223 368.919 118.863 368.847C118.503 368.763 118.179 368.667 117.891 368.559C117.603 368.439 117.363 368.295 117.171 368.127C116.991 367.947 116.901 367.725 116.901 367.461C116.901 367.221 116.961 367.029 117.081 366.885C117.201 366.729 117.357 366.609 117.549 366.525C117.741 366.429 117.951 366.363 118.179 366.327C118.419 366.291 118.653 366.273 118.881 366.273C119.133 366.273 119.379 366.303 119.619 366.363C119.871 366.411 120.099 366.495 120.303 366.615C120.507 366.735 120.675 366.897 120.807 367.101C120.939 367.293 121.017 367.539 121.041 367.839H122.571C122.535 367.275 122.415 366.807 122.211 366.435C122.007 366.051 121.731 365.751 121.383 365.535C121.047 365.307 120.657 365.151 120.213 365.067C119.769 364.971 119.283 364.923 118.755 364.923C118.347 364.923 117.933 364.977 117.513 365.085C117.105 365.181 116.733 365.337 116.397 365.553C116.073 365.757 115.803 366.027 115.587 366.363C115.383 366.699 115.281 367.101 115.281 367.569C115.281 368.169 115.431 368.637 115.731 368.973C116.031 369.309 116.403 369.573 116.847 369.765C117.303 369.945 117.795 370.089 118.323 370.197C118.851 370.293 119.337 370.407 119.781 370.539C120.237 370.659 120.615 370.821 120.915 371.025C121.215 371.229 121.365 371.529 121.365 371.925C121.365 372.213 121.293 372.453 121.149 372.645C121.005 372.825 120.819 372.963 120.591 373.059C120.375 373.155 120.135 373.221 119.871 373.257C119.607 373.293 119.355 373.311 119.115 373.311C118.803 373.311 118.497 373.281 118.197 373.221C117.909 373.161 117.645 373.065 117.405 372.933C117.177 372.789 116.991 372.603 116.847 372.375C116.703 372.135 116.625 371.847 116.613 371.511ZM125.937 363.465V361.593H124.407V363.465H125.937ZM124.407 365.139V374.445H125.937V365.139H124.407ZM130.072 365.139V362.349H128.542V365.139H126.958V366.489H128.542V372.411C128.542 372.843 128.584 373.191 128.668 373.455C128.752 373.719 128.878 373.923 129.046 374.067C129.226 374.211 129.454 374.313 129.73 374.373C130.018 374.421 130.36 374.445 130.756 374.445H131.926V373.095H131.224C130.984 373.095 130.786 373.089 130.63 373.077C130.486 373.053 130.372 373.011 130.288 372.951C130.204 372.891 130.144 372.807 130.108 372.699C130.084 372.591 130.072 372.447 130.072 372.267V366.489H131.926V365.139H130.072ZM134.885 363.465V361.593H133.355V363.465H134.885ZM133.355 365.139V374.445H134.885V365.139H133.355ZM138.012 369.801C138.012 369.237 138.084 368.739 138.228 368.307C138.384 367.863 138.594 367.491 138.858 367.191C139.122 366.891 139.428 366.663 139.776 366.507C140.136 366.351 140.514 366.273 140.91 366.273C141.306 366.273 141.678 366.351 142.026 366.507C142.386 366.663 142.698 366.891 142.962 367.191C143.226 367.491 143.43 367.863 143.574 368.307C143.73 368.739 143.808 369.237 143.808 369.801C143.808 370.365 143.73 370.869 143.574 371.313C143.43 371.745 143.226 372.111 142.962 372.411C142.698 372.699 142.386 372.921 142.026 373.077C141.678 373.233 141.306 373.311 140.91 373.311C140.514 373.311 140.136 373.233 139.776 373.077C139.428 372.921 139.122 372.699 138.858 372.411C138.594 372.111 138.384 371.745 138.228 371.313C138.084 370.869 138.012 370.365 138.012 369.801ZM136.392 369.801C136.392 370.485 136.488 371.121 136.68 371.709C136.872 372.297 137.16 372.813 137.544 373.257C137.928 373.689 138.402 374.031 138.966 374.283C139.53 374.523 140.178 374.643 140.91 374.643C141.654 374.643 142.302 374.523 142.854 374.283C143.418 374.031 143.892 373.689 144.276 373.257C144.66 372.813 144.948 372.297 145.14 371.709C145.332 371.121 145.428 370.485 145.428 369.801C145.428 369.117 145.332 368.481 145.14 367.893C144.948 367.293 144.66 366.777 144.276 366.345C143.892 365.901 143.418 365.553 142.854 365.301C142.302 365.049 141.654 364.923 140.91 364.923C140.178 364.923 139.53 365.049 138.966 365.301C138.402 365.553 137.928 365.901 137.544 366.345C137.16 366.777 136.872 367.293 136.68 367.893C136.488 368.481 136.392 369.117 136.392 369.801ZM146.872 365.139V374.445H148.402V369.189C148.402 368.769 148.456 368.385 148.564 368.037C148.684 367.677 148.858 367.365 149.086 367.101C149.314 366.837 149.596 366.633 149.932 366.489C150.28 366.345 150.688 366.273 151.156 366.273C151.744 366.273 152.206 366.441 152.542 366.777C152.878 367.113 153.046 367.569 153.046 368.145V374.445H154.576V368.325C154.576 367.821 154.522 367.365 154.414 366.957C154.318 366.537 154.144 366.177 153.892 365.877C153.64 365.577 153.31 365.343 152.902 365.175C152.494 365.007 151.984 364.923 151.372 364.923C149.992 364.923 148.984 365.487 148.348 366.615H148.312V365.139H146.872ZM163.935 367.155V368.451C164.223 368.415 164.529 368.397 164.853 368.397C165.237 368.397 165.591 368.451 165.915 368.559C166.251 368.655 166.539 368.811 166.779 369.027C167.019 369.231 167.211 369.489 167.355 369.801C167.499 370.101 167.571 370.449 167.571 370.845C167.571 371.229 167.493 371.577 167.337 371.889C167.193 372.189 166.995 372.447 166.743 372.663C166.491 372.867 166.197 373.029 165.861 373.149C165.525 373.257 165.171 373.311 164.799 373.311C163.923 373.311 163.257 373.053 162.801 372.537C162.345 372.009 162.105 371.331 162.081 370.503H160.551C160.539 371.163 160.629 371.751 160.821 372.267C161.025 372.783 161.313 373.221 161.685 373.581C162.057 373.929 162.507 374.193 163.035 374.373C163.563 374.553 164.151 374.643 164.799 374.643C165.399 374.643 165.963 374.565 166.491 374.409C167.031 374.241 167.499 373.995 167.895 373.671C168.291 373.347 168.603 372.945 168.831 372.465C169.071 371.973 169.191 371.409 169.191 370.773C169.191 370.005 168.999 369.339 168.615 368.775C168.243 368.211 167.667 367.845 166.887 367.677V367.641C167.391 367.413 167.811 367.077 168.147 366.633C168.483 366.189 168.651 365.679 168.651 365.103C168.651 364.515 168.549 364.005 168.345 363.573C168.153 363.141 167.883 362.787 167.535 362.511C167.187 362.235 166.773 362.031 166.293 361.899C165.825 361.755 165.315 361.683 164.763 361.683C164.127 361.683 163.563 361.785 163.071 361.989C162.591 362.193 162.189 362.475 161.865 362.835C161.541 363.195 161.289 363.627 161.109 364.131C160.941 364.635 160.845 365.193 160.821 365.805H162.351C162.351 365.433 162.399 365.079 162.495 364.743C162.591 364.407 162.735 364.113 162.927 363.861C163.131 363.609 163.383 363.411 163.683 363.267C163.995 363.111 164.355 363.033 164.763 363.033C165.411 363.033 165.951 363.207 166.383 363.555C166.815 363.891 167.031 364.401 167.031 365.085C167.031 365.421 166.965 365.721 166.833 365.985C166.701 366.249 166.521 366.471 166.293 366.651C166.077 366.819 165.819 366.951 165.519 367.047C165.231 367.131 164.925 367.173 164.601 367.173H164.277C164.217 367.173 164.157 367.173 164.097 367.173C164.049 367.173 163.995 367.167 163.935 367.155Z" fill="black"/>
<path d="M352.348 128.945L341.455 140.096L356.558 143.955L352.348 128.945ZM309.148 283.745C310.444 284.126 310.444 284.125 310.444 284.125C310.444 284.124 310.445 284.123 310.445 284.122C310.446 284.119 310.447 284.115 310.448 284.11C310.452 284.099 310.456 284.083 310.463 284.061C310.475 284.018 310.494 283.954 310.519 283.869C310.569 283.7 310.643 283.447 310.74 283.115C310.935 282.452 311.222 281.472 311.592 280.205C312.332 277.672 313.406 273.993 314.739 269.409C317.404 260.24 321.104 247.45 325.246 232.962C333.53 203.99 343.582 168.218 350.649 141.051L348.036 140.372C340.977 167.505 330.933 203.25 322.65 232.22C318.51 246.703 314.81 259.49 312.146 268.655C310.814 273.238 309.741 276.916 309 279.448C308.63 280.714 308.343 281.693 308.149 282.356C308.052 282.687 307.978 282.94 307.928 283.109C307.903 283.194 307.885 283.258 307.872 283.3C307.866 283.322 307.861 283.338 307.858 283.349C307.856 283.354 307.855 283.358 307.854 283.361C307.854 283.362 307.854 283.363 307.853 283.364C307.853 283.364 307.853 283.365 309.148 283.745Z" fill="black"/>
<path d="M162.898 178.895L167.966 193.636L178.199 181.877L162.898 178.895ZM292.035 289.476L172.95 185.852L171.178 187.889L290.262 291.513L292.035 289.476Z" fill="black"/>
<path d="M137.699 331.898L152.566 336.587L149.194 321.368L137.699 331.898ZM287.707 297.28L149.27 327.951L149.854 330.588L288.291 299.916L287.707 297.28Z" fill="black"/>
<path d="M118.352 482.645L133.464 478.823L122.597 467.646L118.352 482.645ZM263.66 339.477L126.122 473.208L128.004 475.143L265.543 341.413L263.66 339.477Z" fill="black"/>
<path d="M413.999 480.395L413.722 464.809L400.363 472.842L413.999 480.395ZM330.042 343.391L406.581 470.678L408.895 469.287L332.356 342L330.042 343.391Z" fill="black"/>
<path d="M511.652 335.945L499.857 325.752L496.927 341.063L511.652 335.945ZM313.848 299.47L499.464 334.987L499.972 332.335L314.355 296.819L313.848 299.47Z" fill="black"/>
<circle cx="304.58" cy="296.346" r="19.35" fill="#ADFF00"/>
<path d="M255.226 321.543V334.395H256.936V328.509H262.84V327.069H256.936V322.983H263.668V321.543H255.226ZM272.654 334.395V325.089H271.124V330.345C271.124 330.765 271.064 331.155 270.944 331.515C270.836 331.863 270.668 332.169 270.44 332.433C270.212 332.697 269.924 332.901 269.576 333.045C269.24 333.189 268.838 333.261 268.37 333.261C267.782 333.261 267.32 333.093 266.984 332.757C266.648 332.421 266.48 331.965 266.48 331.389V325.089H264.95V331.209C264.95 331.713 264.998 332.175 265.094 332.595C265.202 333.003 265.382 333.357 265.634 333.657C265.886 333.957 266.216 334.191 266.624 334.359C267.032 334.515 267.542 334.593 268.154 334.593C268.838 334.593 269.432 334.461 269.936 334.197C270.44 333.921 270.854 333.495 271.178 332.919H271.214V334.395H272.654ZM276.716 325.089V322.299H275.186V325.089H273.602V326.439H275.186V332.361C275.186 332.793 275.228 333.141 275.312 333.405C275.396 333.669 275.522 333.873 275.69 334.017C275.87 334.161 276.098 334.263 276.374 334.323C276.662 334.371 277.004 334.395 277.4 334.395H278.57V333.045H277.868C277.628 333.045 277.43 333.039 277.274 333.027C277.13 333.003 277.016 332.961 276.932 332.901C276.848 332.841 276.788 332.757 276.752 332.649C276.728 332.541 276.716 332.397 276.716 332.217V326.439H278.57V325.089H276.716ZM287.614 334.395V325.089H286.084V330.345C286.084 330.765 286.024 331.155 285.904 331.515C285.796 331.863 285.628 332.169 285.4 332.433C285.172 332.697 284.884 332.901 284.536 333.045C284.2 333.189 283.798 333.261 283.33 333.261C282.742 333.261 282.28 333.093 281.944 332.757C281.608 332.421 281.44 331.965 281.44 331.389V325.089H279.91V331.209C279.91 331.713 279.958 332.175 280.054 332.595C280.162 333.003 280.342 333.357 280.594 333.657C280.846 333.957 281.176 334.191 281.584 334.359C281.992 334.515 282.502 334.593 283.114 334.593C283.798 334.593 284.392 334.461 284.896 334.197C285.4 333.921 285.814 333.495 286.138 332.919H286.174V334.395H287.614ZM289.498 325.089V334.395H291.028V330.255C291.028 329.655 291.088 329.127 291.208 328.671C291.328 328.203 291.52 327.807 291.784 327.483C292.048 327.159 292.396 326.913 292.828 326.745C293.26 326.577 293.782 326.493 294.394 326.493V324.873C293.566 324.849 292.882 325.017 292.342 325.377C291.802 325.737 291.346 326.295 290.974 327.051H290.938V325.089H289.498ZM301.332 328.851H295.986C296.01 328.491 296.088 328.155 296.22 327.843C296.352 327.519 296.532 327.237 296.76 326.997C296.988 326.757 297.258 326.571 297.57 326.439C297.894 326.295 298.254 326.223 298.65 326.223C299.034 326.223 299.382 326.295 299.694 326.439C300.018 326.571 300.294 326.757 300.522 326.997C300.762 327.225 300.948 327.501 301.08 327.825C301.224 328.149 301.308 328.491 301.332 328.851ZM302.808 331.443H301.296C301.164 332.055 300.888 332.511 300.468 332.811C300.06 333.111 299.532 333.261 298.884 333.261C298.38 333.261 297.942 333.177 297.57 333.009C297.198 332.841 296.892 332.619 296.652 332.343C296.412 332.055 296.238 331.731 296.13 331.371C296.022 330.999 295.974 330.609 295.986 330.201H302.952C302.976 329.637 302.922 329.043 302.79 328.419C302.67 327.795 302.442 327.219 302.106 326.691C301.782 326.163 301.344 325.731 300.792 325.395C300.252 325.047 299.568 324.873 298.74 324.873C298.104 324.873 297.516 324.993 296.976 325.233C296.448 325.473 295.986 325.809 295.59 326.241C295.206 326.673 294.906 327.183 294.69 327.771C294.474 328.359 294.366 329.007 294.366 329.715C294.39 330.423 294.492 331.077 294.672 331.677C294.864 332.277 295.146 332.793 295.518 333.225C295.89 333.657 296.346 333.993 296.886 334.233C297.438 334.473 298.086 334.593 298.83 334.593C299.886 334.593 300.762 334.329 301.458 333.801C302.154 333.273 302.604 332.487 302.808 331.443ZM314.138 334.395L318.71 321.543H316.928L313.22 332.685H313.184L309.512 321.543H307.676L312.194 334.395H314.138ZM319.603 329.751C319.603 329.187 319.675 328.689 319.819 328.257C319.975 327.813 320.185 327.441 320.449 327.141C320.713 326.841 321.019 326.613 321.367 326.457C321.727 326.301 322.105 326.223 322.501 326.223C322.897 326.223 323.269 326.301 323.617 326.457C323.977 326.613 324.289 326.841 324.553 327.141C324.817 327.441 325.021 327.813 325.165 328.257C325.321 328.689 325.399 329.187 325.399 329.751C325.399 330.315 325.321 330.819 325.165 331.263C325.021 331.695 324.817 332.061 324.553 332.361C324.289 332.649 323.977 332.871 323.617 333.027C323.269 333.183 322.897 333.261 322.501 333.261C322.105 333.261 321.727 333.183 321.367 333.027C321.019 332.871 320.713 332.649 320.449 332.361C320.185 332.061 319.975 331.695 319.819 331.263C319.675 330.819 319.603 330.315 319.603 329.751ZM317.983 329.751C317.983 330.435 318.079 331.071 318.271 331.659C318.463 332.247 318.751 332.763 319.135 333.207C319.519 333.639 319.993 333.981 320.557 334.233C321.121 334.473 321.769 334.593 322.501 334.593C323.245 334.593 323.893 334.473 324.445 334.233C325.009 333.981 325.483 333.639 325.867 333.207C326.251 332.763 326.539 332.247 326.731 331.659C326.923 331.071 327.019 330.435 327.019 329.751C327.019 329.067 326.923 328.431 326.731 327.843C326.539 327.243 326.251 326.727 325.867 326.295C325.483 325.851 325.009 325.503 324.445 325.251C323.893 324.999 323.245 324.873 322.501 324.873C321.769 324.873 321.121 324.999 320.557 325.251C319.993 325.503 319.519 325.851 319.135 326.295C318.751 326.727 318.463 327.243 318.271 327.843C318.079 328.431 317.983 329.067 317.983 329.751ZM330.083 323.415V321.543H328.553V323.415H330.083ZM328.553 325.089V334.395H330.083V325.089H328.553ZM338.411 328.077H339.995C339.935 327.525 339.791 327.051 339.563 326.655C339.335 326.247 339.041 325.911 338.681 325.647C338.333 325.383 337.925 325.191 337.457 325.071C337.001 324.939 336.509 324.873 335.981 324.873C335.249 324.873 334.607 325.005 334.055 325.269C333.503 325.521 333.041 325.875 332.669 326.331C332.309 326.775 332.039 327.303 331.859 327.915C331.679 328.515 331.589 329.163 331.589 329.859C331.589 330.555 331.679 331.197 331.859 331.785C332.051 332.361 332.327 332.859 332.687 333.279C333.059 333.699 333.515 334.023 334.055 334.251C334.607 334.479 335.237 334.593 335.945 334.593C337.133 334.593 338.069 334.281 338.753 333.657C339.449 333.033 339.881 332.145 340.049 330.993H338.483C338.387 331.713 338.123 332.271 337.691 332.667C337.271 333.063 336.683 333.261 335.927 333.261C335.447 333.261 335.033 333.165 334.685 332.973C334.337 332.781 334.055 332.529 333.839 332.217C333.623 331.893 333.461 331.527 333.353 331.119C333.257 330.711 333.209 330.291 333.209 329.859C333.209 329.391 333.257 328.941 333.353 328.509C333.449 328.065 333.605 327.675 333.821 327.339C334.049 327.003 334.349 326.733 334.721 326.529C335.093 326.325 335.555 326.223 336.107 326.223C336.755 326.223 337.271 326.385 337.655 326.709C338.039 327.033 338.291 327.489 338.411 328.077ZM347.863 328.851H342.517C342.541 328.491 342.619 328.155 342.751 327.843C342.883 327.519 343.063 327.237 343.291 326.997C343.519 326.757 343.789 326.571 344.101 326.439C344.425 326.295 344.785 326.223 345.181 326.223C345.565 326.223 345.913 326.295 346.225 326.439C346.549 326.571 346.825 326.757 347.053 326.997C347.293 327.225 347.479 327.501 347.611 327.825C347.755 328.149 347.839 328.491 347.863 328.851ZM349.339 331.443H347.827C347.695 332.055 347.419 332.511 346.999 332.811C346.591 333.111 346.063 333.261 345.415 333.261C344.911 333.261 344.473 333.177 344.101 333.009C343.729 332.841 343.423 332.619 343.183 332.343C342.943 332.055 342.769 331.731 342.661 331.371C342.553 330.999 342.505 330.609 342.517 330.201H349.483C349.507 329.637 349.453 329.043 349.321 328.419C349.201 327.795 348.973 327.219 348.637 326.691C348.313 326.163 347.875 325.731 347.323 325.395C346.783 325.047 346.099 324.873 345.271 324.873C344.635 324.873 344.047 324.993 343.507 325.233C342.979 325.473 342.517 325.809 342.121 326.241C341.737 326.673 341.437 327.183 341.221 327.771C341.005 328.359 340.897 329.007 340.897 329.715C340.921 330.423 341.023 331.077 341.203 331.677C341.395 332.277 341.677 332.793 342.049 333.225C342.421 333.657 342.877 333.993 343.417 334.233C343.969 334.473 344.617 334.593 345.361 334.593C346.417 334.593 347.293 334.329 347.989 333.801C348.685 333.273 349.135 332.487 349.339 331.443ZM351.645 331.461H350.115C350.139 332.037 350.259 332.529 350.475 332.937C350.691 333.333 350.979 333.657 351.339 333.909C351.699 334.149 352.113 334.323 352.581 334.431C353.049 334.539 353.541 334.593 354.057 334.593C354.525 334.593 354.993 334.545 355.461 334.449C355.941 334.365 356.367 334.209 356.739 333.981C357.123 333.753 357.429 333.453 357.657 333.081C357.897 332.709 358.017 332.241 358.017 331.677C358.017 331.233 357.927 330.861 357.747 330.561C357.579 330.261 357.351 330.015 357.063 329.823C356.787 329.619 356.463 329.457 356.091 329.337C355.731 329.217 355.359 329.115 354.975 329.031C354.615 328.947 354.255 328.869 353.895 328.797C353.535 328.713 353.211 328.617 352.923 328.509C352.635 328.389 352.395 328.245 352.203 328.077C352.023 327.897 351.933 327.675 351.933 327.411C351.933 327.171 351.993 326.979 352.113 326.835C352.233 326.679 352.389 326.559 352.581 326.475C352.773 326.379 352.983 326.313 353.211 326.277C353.451 326.241 353.685 326.223 353.913 326.223C354.165 326.223 354.411 326.253 354.651 326.313C354.903 326.361 355.131 326.445 355.335 326.565C355.539 326.685 355.707 326.847 355.839 327.051C355.971 327.243 356.049 327.489 356.073 327.789H357.603C357.567 327.225 357.447 326.757 357.243 326.385C357.039 326.001 356.763 325.701 356.415 325.485C356.079 325.257 355.689 325.101 355.245 325.017C354.801 324.921 354.315 324.873 353.787 324.873C353.379 324.873 352.965 324.927 352.545 325.035C352.137 325.131 351.765 325.287 351.429 325.503C351.105 325.707 350.835 325.977 350.619 326.313C350.415 326.649 350.313 327.051 350.313 327.519C350.313 328.119 350.463 328.587 350.763 328.923C351.063 329.259 351.435 329.523 351.879 329.715C352.335 329.895 352.827 330.039 353.355 330.147C353.883 330.243 354.369 330.357 354.813 330.489C355.269 330.609 355.647 330.771 355.947 330.975C356.247 331.179 356.397 331.479 356.397 331.875C356.397 332.163 356.325 332.403 356.181 332.595C356.037 332.775 355.851 332.913 355.623 333.009C355.407 333.105 355.167 333.171 354.903 333.207C354.639 333.243 354.387 333.261 354.147 333.261C353.835 333.261 353.529 333.231 353.229 333.171C352.941 333.111 352.677 333.015 352.437 332.883C352.209 332.739 352.023 332.553 351.879 332.325C351.735 332.085 351.657 331.797 351.645 331.461Z" fill="black"/>
</svg>
