<svg width="700" height="700" viewBox="0 0 700 700" fill="none" xmlns="http://www.w3.org/2000/svg">
<circle cx="401.422" cy="90.5" r="21.5" fill="#C6C6C6"/>
<path d="M351.83 122.02H353.73C353.623 121.26 353.397 120.593 353.05 120.02C352.703 119.433 352.27 118.947 351.75 118.56C351.23 118.173 350.637 117.88 349.97 117.68C349.303 117.48 348.597 117.38 347.85 117.38C346.757 117.38 345.783 117.58 344.93 117.98C344.09 118.367 343.383 118.9 342.81 119.58C342.25 120.26 341.823 121.06 341.53 121.98C341.237 122.887 341.09 123.86 341.09 124.9C341.09 125.94 341.223 126.913 341.49 127.82C341.77 128.727 342.183 129.513 342.73 130.18C343.277 130.847 343.963 131.373 344.79 131.76C345.617 132.133 346.583 132.32 347.69 132.32C349.517 132.32 350.957 131.82 352.01 130.82C353.063 129.82 353.683 128.42 353.87 126.62H351.97C351.93 127.207 351.81 127.753 351.61 128.26C351.41 128.767 351.13 129.207 350.77 129.58C350.423 129.94 350.003 130.227 349.51 130.44C349.03 130.64 348.477 130.74 347.85 130.74C346.997 130.74 346.263 130.58 345.65 130.26C345.037 129.94 344.53 129.513 344.13 128.98C343.743 128.433 343.457 127.8 343.27 127.08C343.083 126.347 342.99 125.573 342.99 124.76C342.99 124.013 343.083 123.293 343.27 122.6C343.457 121.907 343.743 121.293 344.13 120.76C344.53 120.213 345.03 119.78 345.63 119.46C346.243 119.14 346.977 118.98 347.83 118.98C348.83 118.98 349.69 119.233 350.41 119.74C351.143 120.247 351.617 121.007 351.83 122.02ZM356.784 126.84C356.784 126.213 356.864 125.66 357.024 125.18C357.197 124.687 357.43 124.273 357.724 123.94C358.017 123.607 358.357 123.353 358.744 123.18C359.144 123.007 359.564 122.92 360.004 122.92C360.444 122.92 360.857 123.007 361.244 123.18C361.644 123.353 361.99 123.607 362.284 123.94C362.577 124.273 362.804 124.687 362.964 125.18C363.137 125.66 363.224 126.213 363.224 126.84C363.224 127.467 363.137 128.027 362.964 128.52C362.804 129 362.577 129.407 362.284 129.74C361.99 130.06 361.644 130.307 361.244 130.48C360.857 130.653 360.444 130.74 360.004 130.74C359.564 130.74 359.144 130.653 358.744 130.48C358.357 130.307 358.017 130.06 357.724 129.74C357.43 129.407 357.197 129 357.024 128.52C356.864 128.027 356.784 127.467 356.784 126.84ZM354.984 126.84C354.984 127.6 355.09 128.307 355.304 128.96C355.517 129.613 355.837 130.187 356.264 130.68C356.69 131.16 357.217 131.54 357.844 131.82C358.47 132.087 359.19 132.22 360.004 132.22C360.83 132.22 361.55 132.087 362.164 131.82C362.79 131.54 363.317 131.16 363.744 130.68C364.17 130.187 364.49 129.613 364.704 128.96C364.917 128.307 365.024 127.6 365.024 126.84C365.024 126.08 364.917 125.373 364.704 124.72C364.49 124.053 364.17 123.48 363.744 123C363.317 122.507 362.79 122.12 362.164 121.84C361.55 121.56 360.83 121.42 360.004 121.42C359.19 121.42 358.47 121.56 357.844 121.84C357.217 122.12 356.69 122.507 356.264 123C355.837 123.48 355.517 124.053 355.304 124.72C355.09 125.373 354.984 126.08 354.984 126.84ZM366.628 121.66V132H368.328V125.56C368.328 125.36 368.375 125.113 368.468 124.82C368.575 124.513 368.735 124.22 368.948 123.94C369.175 123.66 369.461 123.42 369.808 123.22C370.168 123.02 370.595 122.92 371.088 122.92C371.475 122.92 371.788 122.98 372.028 123.1C372.281 123.207 372.481 123.367 372.628 123.58C372.775 123.78 372.875 124.02 372.928 124.3C372.995 124.58 373.028 124.887 373.028 125.22V132H374.728V125.56C374.728 124.76 374.968 124.12 375.448 123.64C375.928 123.16 376.588 122.92 377.428 122.92C377.841 122.92 378.175 122.98 378.428 123.1C378.695 123.22 378.901 123.387 379.048 123.6C379.195 123.8 379.295 124.04 379.348 124.32C379.401 124.6 379.428 124.9 379.428 125.22V132H381.128V124.42C381.128 123.887 381.041 123.433 380.868 123.06C380.708 122.673 380.475 122.36 380.168 122.12C379.875 121.88 379.515 121.707 379.088 121.6C378.675 121.48 378.208 121.42 377.688 121.42C377.008 121.42 376.381 121.573 375.808 121.88C375.248 122.187 374.795 122.62 374.448 123.18C374.235 122.54 373.868 122.087 373.348 121.82C372.828 121.553 372.248 121.42 371.608 121.42C370.155 121.42 369.041 122.007 368.268 123.18H368.228V121.66H366.628ZM383.339 121.66V135.94H385.039V130.62H385.079C385.265 130.927 385.492 131.187 385.759 131.4C386.039 131.6 386.332 131.76 386.639 131.88C386.945 132 387.252 132.087 387.559 132.14C387.879 132.193 388.165 132.22 388.419 132.22C389.205 132.22 389.892 132.08 390.479 131.8C391.079 131.52 391.572 131.14 391.959 130.66C392.359 130.167 392.652 129.593 392.839 128.94C393.039 128.287 393.139 127.593 393.139 126.86C393.139 126.127 393.039 125.433 392.839 124.78C392.639 124.127 392.339 123.553 391.939 123.06C391.552 122.553 391.059 122.153 390.459 121.86C389.872 121.567 389.179 121.42 388.379 121.42C387.659 121.42 386.999 121.553 386.399 121.82C385.799 122.073 385.359 122.487 385.079 123.06H385.039V121.66H383.339ZM391.339 126.74C391.339 127.247 391.285 127.74 391.179 128.22C391.072 128.7 390.899 129.127 390.659 129.5C390.419 129.873 390.099 130.173 389.699 130.4C389.312 130.627 388.825 130.74 388.239 130.74C387.652 130.74 387.152 130.633 386.739 130.42C386.325 130.193 385.985 129.9 385.719 129.54C385.465 129.18 385.279 128.767 385.159 128.3C385.039 127.82 384.979 127.327 384.979 126.82C384.979 126.34 385.032 125.867 385.139 125.4C385.259 124.933 385.445 124.52 385.699 124.16C385.952 123.787 386.279 123.487 386.679 123.26C387.079 123.033 387.565 122.92 388.139 122.92C388.685 122.92 389.159 123.027 389.559 123.24C389.972 123.453 390.305 123.74 390.559 124.1C390.825 124.46 391.019 124.873 391.139 125.34C391.272 125.793 391.339 126.26 391.339 126.74ZM395.974 126.84C395.974 126.213 396.054 125.66 396.214 125.18C396.388 124.687 396.621 124.273 396.914 123.94C397.208 123.607 397.548 123.353 397.934 123.18C398.334 123.007 398.754 122.92 399.194 122.92C399.634 122.92 400.048 123.007 400.434 123.18C400.834 123.353 401.181 123.607 401.474 123.94C401.768 124.273 401.994 124.687 402.154 125.18C402.328 125.66 402.414 126.213 402.414 126.84C402.414 127.467 402.328 128.027 402.154 128.52C401.994 129 401.768 129.407 401.474 129.74C401.181 130.06 400.834 130.307 400.434 130.48C400.048 130.653 399.634 130.74 399.194 130.74C398.754 130.74 398.334 130.653 397.934 130.48C397.548 130.307 397.208 130.06 396.914 129.74C396.621 129.407 396.388 129 396.214 128.52C396.054 128.027 395.974 127.467 395.974 126.84ZM394.174 126.84C394.174 127.6 394.281 128.307 394.494 128.96C394.708 129.613 395.028 130.187 395.454 130.68C395.881 131.16 396.408 131.54 397.034 131.82C397.661 132.087 398.381 132.22 399.194 132.22C400.021 132.22 400.741 132.087 401.354 131.82C401.981 131.54 402.508 131.16 402.934 130.68C403.361 130.187 403.681 129.613 403.894 128.96C404.108 128.307 404.214 127.6 404.214 126.84C404.214 126.08 404.108 125.373 403.894 124.72C403.681 124.053 403.361 123.48 402.934 123C402.508 122.507 401.981 122.12 401.354 121.84C400.741 121.56 400.021 121.42 399.194 121.42C398.381 121.42 397.661 121.56 397.034 121.84C396.408 122.12 395.881 122.507 395.454 123C395.028 123.48 394.708 124.053 394.494 124.72C394.281 125.373 394.174 126.08 394.174 126.84ZM406.859 128.74H405.159C405.185 129.38 405.319 129.927 405.559 130.38C405.799 130.82 406.119 131.18 406.519 131.46C406.919 131.727 407.379 131.92 407.899 132.04C408.419 132.16 408.965 132.22 409.539 132.22C410.059 132.22 410.579 132.167 411.099 132.06C411.632 131.967 412.105 131.793 412.519 131.54C412.945 131.287 413.285 130.953 413.539 130.54C413.805 130.127 413.939 129.607 413.939 128.98C413.939 128.487 413.839 128.073 413.639 127.74C413.452 127.407 413.199 127.133 412.879 126.92C412.572 126.693 412.212 126.513 411.799 126.38C411.399 126.247 410.985 126.133 410.559 126.04C410.159 125.947 409.759 125.86 409.359 125.78C408.959 125.687 408.599 125.58 408.279 125.46C407.959 125.327 407.692 125.167 407.479 124.98C407.279 124.78 407.179 124.533 407.179 124.24C407.179 123.973 407.245 123.76 407.379 123.6C407.512 123.427 407.685 123.293 407.899 123.2C408.112 123.093 408.345 123.02 408.599 122.98C408.865 122.94 409.125 122.92 409.379 122.92C409.659 122.92 409.932 122.953 410.199 123.02C410.479 123.073 410.732 123.167 410.959 123.3C411.185 123.433 411.372 123.613 411.519 123.84C411.665 124.053 411.752 124.327 411.779 124.66H413.479C413.439 124.033 413.305 123.513 413.079 123.1C412.852 122.673 412.545 122.34 412.159 122.1C411.785 121.847 411.352 121.673 410.859 121.58C410.365 121.473 409.825 121.42 409.239 121.42C408.785 121.42 408.325 121.48 407.859 121.6C407.405 121.707 406.992 121.88 406.619 122.12C406.259 122.347 405.959 122.647 405.719 123.02C405.492 123.393 405.379 123.84 405.379 124.36C405.379 125.027 405.545 125.547 405.879 125.92C406.212 126.293 406.625 126.587 407.119 126.8C407.625 127 408.172 127.16 408.759 127.28C409.345 127.387 409.885 127.513 410.379 127.66C410.885 127.793 411.305 127.973 411.639 128.2C411.972 128.427 412.139 128.76 412.139 129.2C412.139 129.52 412.059 129.787 411.899 130C411.739 130.2 411.532 130.353 411.279 130.46C411.039 130.567 410.772 130.64 410.479 130.68C410.185 130.72 409.905 130.74 409.639 130.74C409.292 130.74 408.952 130.707 408.619 130.64C408.299 130.573 408.005 130.467 407.739 130.32C407.485 130.16 407.279 129.953 407.119 129.7C406.959 129.433 406.872 129.113 406.859 128.74ZM417.219 119.8V117.72H415.519V119.8H417.219ZM415.519 121.66V132H417.219V121.66H415.519ZM421.812 121.66V118.56H420.112V121.66H418.352V123.16H420.112V129.74C420.112 130.22 420.159 130.607 420.252 130.9C420.346 131.193 420.486 131.42 420.672 131.58C420.872 131.74 421.126 131.853 421.432 131.92C421.752 131.973 422.132 132 422.572 132H423.872V130.5H423.092C422.826 130.5 422.606 130.493 422.432 130.48C422.272 130.453 422.146 130.407 422.052 130.34C421.959 130.273 421.892 130.18 421.852 130.06C421.826 129.94 421.812 129.78 421.812 129.58V123.16H423.872V121.66H421.812ZM427.161 119.8V117.72H425.461V119.8H427.161ZM425.461 121.66V132H427.161V121.66H425.461ZM430.634 126.84C430.634 126.213 430.714 125.66 430.874 125.18C431.048 124.687 431.281 124.273 431.574 123.94C431.868 123.607 432.208 123.353 432.594 123.18C432.994 123.007 433.414 122.92 433.854 122.92C434.294 122.92 434.708 123.007 435.094 123.18C435.494 123.353 435.841 123.607 436.134 123.94C436.428 124.273 436.654 124.687 436.814 125.18C436.988 125.66 437.074 126.213 437.074 126.84C437.074 127.467 436.988 128.027 436.814 128.52C436.654 129 436.428 129.407 436.134 129.74C435.841 130.06 435.494 130.307 435.094 130.48C434.708 130.653 434.294 130.74 433.854 130.74C433.414 130.74 432.994 130.653 432.594 130.48C432.208 130.307 431.868 130.06 431.574 129.74C431.281 129.407 431.048 129 430.874 128.52C430.714 128.027 430.634 127.467 430.634 126.84ZM428.834 126.84C428.834 127.6 428.941 128.307 429.154 128.96C429.368 129.613 429.688 130.187 430.114 130.68C430.541 131.16 431.068 131.54 431.694 131.82C432.321 132.087 433.041 132.22 433.854 132.22C434.681 132.22 435.401 132.087 436.014 131.82C436.641 131.54 437.168 131.16 437.594 130.68C438.021 130.187 438.341 129.613 438.554 128.96C438.768 128.307 438.874 127.6 438.874 126.84C438.874 126.08 438.768 125.373 438.554 124.72C438.341 124.053 438.021 123.48 437.594 123C437.168 122.507 436.641 122.12 436.014 121.84C435.401 121.56 434.681 121.42 433.854 121.42C433.041 121.42 432.321 121.56 431.694 121.84C431.068 122.12 430.541 122.507 430.114 123C429.688 123.48 429.368 124.053 429.154 124.72C428.941 125.373 428.834 126.08 428.834 126.84ZM440.479 121.66V132H442.179V126.16C442.179 125.693 442.239 125.267 442.359 124.88C442.492 124.48 442.685 124.133 442.939 123.84C443.192 123.547 443.505 123.32 443.879 123.16C444.265 123 444.719 122.92 445.239 122.92C445.892 122.92 446.405 123.107 446.779 123.48C447.152 123.853 447.339 124.36 447.339 125V132H449.039V125.2C449.039 124.64 448.979 124.133 448.859 123.68C448.752 123.213 448.559 122.813 448.279 122.48C447.999 122.147 447.632 121.887 447.179 121.7C446.725 121.513 446.159 121.42 445.479 121.42C443.945 121.42 442.825 122.047 442.119 123.3H442.079V121.66H440.479ZM462.199 132V117.82H460.899C460.805 118.353 460.632 118.793 460.379 119.14C460.125 119.487 459.812 119.76 459.439 119.96C459.079 120.16 458.672 120.3 458.219 120.38C457.765 120.447 457.299 120.48 456.819 120.48V121.84H460.499V132H462.199Z" fill="black"/>
<circle cx="599.422" cy="378.5" r="21.5" fill="#C6C6C6"/>
<path d="M549.83 410.02H551.73C551.623 409.26 551.397 408.593 551.05 408.02C550.703 407.433 550.27 406.947 549.75 406.56C549.23 406.173 548.637 405.88 547.97 405.68C547.303 405.48 546.597 405.38 545.85 405.38C544.757 405.38 543.783 405.58 542.93 405.98C542.09 406.367 541.383 406.9 540.81 407.58C540.25 408.26 539.823 409.06 539.53 409.98C539.237 410.887 539.09 411.86 539.09 412.9C539.09 413.94 539.223 414.913 539.49 415.82C539.77 416.727 540.183 417.513 540.73 418.18C541.277 418.847 541.963 419.373 542.79 419.76C543.617 420.133 544.583 420.32 545.69 420.32C547.517 420.32 548.957 419.82 550.01 418.82C551.063 417.82 551.683 416.42 551.87 414.62H549.97C549.93 415.207 549.81 415.753 549.61 416.26C549.41 416.767 549.13 417.207 548.77 417.58C548.423 417.94 548.003 418.227 547.51 418.44C547.03 418.64 546.477 418.74 545.85 418.74C544.997 418.74 544.263 418.58 543.65 418.26C543.037 417.94 542.53 417.513 542.13 416.98C541.743 416.433 541.457 415.8 541.27 415.08C541.083 414.347 540.99 413.573 540.99 412.76C540.99 412.013 541.083 411.293 541.27 410.6C541.457 409.907 541.743 409.293 542.13 408.76C542.53 408.213 543.03 407.78 543.63 407.46C544.243 407.14 544.977 406.98 545.83 406.98C546.83 406.98 547.69 407.233 548.41 407.74C549.143 408.247 549.617 409.007 549.83 410.02ZM554.784 414.84C554.784 414.213 554.864 413.66 555.024 413.18C555.197 412.687 555.43 412.273 555.724 411.94C556.017 411.607 556.357 411.353 556.744 411.18C557.144 411.007 557.564 410.92 558.004 410.92C558.444 410.92 558.857 411.007 559.244 411.18C559.644 411.353 559.99 411.607 560.284 411.94C560.577 412.273 560.804 412.687 560.964 413.18C561.137 413.66 561.224 414.213 561.224 414.84C561.224 415.467 561.137 416.027 560.964 416.52C560.804 417 560.577 417.407 560.284 417.74C559.99 418.06 559.644 418.307 559.244 418.48C558.857 418.653 558.444 418.74 558.004 418.74C557.564 418.74 557.144 418.653 556.744 418.48C556.357 418.307 556.017 418.06 555.724 417.74C555.43 417.407 555.197 417 555.024 416.52C554.864 416.027 554.784 415.467 554.784 414.84ZM552.984 414.84C552.984 415.6 553.09 416.307 553.304 416.96C553.517 417.613 553.837 418.187 554.264 418.68C554.69 419.16 555.217 419.54 555.844 419.82C556.47 420.087 557.19 420.22 558.004 420.22C558.83 420.22 559.55 420.087 560.164 419.82C560.79 419.54 561.317 419.16 561.744 418.68C562.17 418.187 562.49 417.613 562.704 416.96C562.917 416.307 563.024 415.6 563.024 414.84C563.024 414.08 562.917 413.373 562.704 412.72C562.49 412.053 562.17 411.48 561.744 411C561.317 410.507 560.79 410.12 560.164 409.84C559.55 409.56 558.83 409.42 558.004 409.42C557.19 409.42 556.47 409.56 555.844 409.84C555.217 410.12 554.69 410.507 554.264 411C553.837 411.48 553.517 412.053 553.304 412.72C553.09 413.373 552.984 414.08 552.984 414.84ZM564.628 409.66V420H566.328V413.56C566.328 413.36 566.375 413.113 566.468 412.82C566.575 412.513 566.735 412.22 566.948 411.94C567.175 411.66 567.461 411.42 567.808 411.22C568.168 411.02 568.595 410.92 569.088 410.92C569.475 410.92 569.788 410.98 570.028 411.1C570.281 411.207 570.481 411.367 570.628 411.58C570.775 411.78 570.875 412.02 570.928 412.3C570.995 412.58 571.028 412.887 571.028 413.22V420H572.728V413.56C572.728 412.76 572.968 412.12 573.448 411.64C573.928 411.16 574.588 410.92 575.428 410.92C575.841 410.92 576.175 410.98 576.428 411.1C576.695 411.22 576.901 411.387 577.048 411.6C577.195 411.8 577.295 412.04 577.348 412.32C577.401 412.6 577.428 412.9 577.428 413.22V420H579.128V412.42C579.128 411.887 579.041 411.433 578.868 411.06C578.708 410.673 578.475 410.36 578.168 410.12C577.875 409.88 577.515 409.707 577.088 409.6C576.675 409.48 576.208 409.42 575.688 409.42C575.008 409.42 574.381 409.573 573.808 409.88C573.248 410.187 572.795 410.62 572.448 411.18C572.235 410.54 571.868 410.087 571.348 409.82C570.828 409.553 570.248 409.42 569.608 409.42C568.155 409.42 567.041 410.007 566.268 411.18H566.228V409.66H564.628ZM581.339 409.66V423.94H583.039V418.62H583.079C583.265 418.927 583.492 419.187 583.759 419.4C584.039 419.6 584.332 419.76 584.639 419.88C584.945 420 585.252 420.087 585.559 420.14C585.879 420.193 586.165 420.22 586.419 420.22C587.205 420.22 587.892 420.08 588.479 419.8C589.079 419.52 589.572 419.14 589.959 418.66C590.359 418.167 590.652 417.593 590.839 416.94C591.039 416.287 591.139 415.593 591.139 414.86C591.139 414.127 591.039 413.433 590.839 412.78C590.639 412.127 590.339 411.553 589.939 411.06C589.552 410.553 589.059 410.153 588.459 409.86C587.872 409.567 587.179 409.42 586.379 409.42C585.659 409.42 584.999 409.553 584.399 409.82C583.799 410.073 583.359 410.487 583.079 411.06H583.039V409.66H581.339ZM589.339 414.74C589.339 415.247 589.285 415.74 589.179 416.22C589.072 416.7 588.899 417.127 588.659 417.5C588.419 417.873 588.099 418.173 587.699 418.4C587.312 418.627 586.825 418.74 586.239 418.74C585.652 418.74 585.152 418.633 584.739 418.42C584.325 418.193 583.985 417.9 583.719 417.54C583.465 417.18 583.279 416.767 583.159 416.3C583.039 415.82 582.979 415.327 582.979 414.82C582.979 414.34 583.032 413.867 583.139 413.4C583.259 412.933 583.445 412.52 583.699 412.16C583.952 411.787 584.279 411.487 584.679 411.26C585.079 411.033 585.565 410.92 586.139 410.92C586.685 410.92 587.159 411.027 587.559 411.24C587.972 411.453 588.305 411.74 588.559 412.1C588.825 412.46 589.019 412.873 589.139 413.34C589.272 413.793 589.339 414.26 589.339 414.74ZM593.974 414.84C593.974 414.213 594.054 413.66 594.214 413.18C594.388 412.687 594.621 412.273 594.914 411.94C595.208 411.607 595.548 411.353 595.934 411.18C596.334 411.007 596.754 410.92 597.194 410.92C597.634 410.92 598.048 411.007 598.434 411.18C598.834 411.353 599.181 411.607 599.474 411.94C599.768 412.273 599.994 412.687 600.154 413.18C600.328 413.66 600.414 414.213 600.414 414.84C600.414 415.467 600.328 416.027 600.154 416.52C599.994 417 599.768 417.407 599.474 417.74C599.181 418.06 598.834 418.307 598.434 418.48C598.048 418.653 597.634 418.74 597.194 418.74C596.754 418.74 596.334 418.653 595.934 418.48C595.548 418.307 595.208 418.06 594.914 417.74C594.621 417.407 594.388 417 594.214 416.52C594.054 416.027 593.974 415.467 593.974 414.84ZM592.174 414.84C592.174 415.6 592.281 416.307 592.494 416.96C592.708 417.613 593.028 418.187 593.454 418.68C593.881 419.16 594.408 419.54 595.034 419.82C595.661 420.087 596.381 420.22 597.194 420.22C598.021 420.22 598.741 420.087 599.354 419.82C599.981 419.54 600.508 419.16 600.934 418.68C601.361 418.187 601.681 417.613 601.894 416.96C602.108 416.307 602.214 415.6 602.214 414.84C602.214 414.08 602.108 413.373 601.894 412.72C601.681 412.053 601.361 411.48 600.934 411C600.508 410.507 599.981 410.12 599.354 409.84C598.741 409.56 598.021 409.42 597.194 409.42C596.381 409.42 595.661 409.56 595.034 409.84C594.408 410.12 593.881 410.507 593.454 411C593.028 411.48 592.708 412.053 592.494 412.72C592.281 413.373 592.174 414.08 592.174 414.84ZM604.859 416.74H603.159C603.185 417.38 603.319 417.927 603.559 418.38C603.799 418.82 604.119 419.18 604.519 419.46C604.919 419.727 605.379 419.92 605.899 420.04C606.419 420.16 606.965 420.22 607.539 420.22C608.059 420.22 608.579 420.167 609.099 420.06C609.632 419.967 610.105 419.793 610.519 419.54C610.945 419.287 611.285 418.953 611.539 418.54C611.805 418.127 611.939 417.607 611.939 416.98C611.939 416.487 611.839 416.073 611.639 415.74C611.452 415.407 611.199 415.133 610.879 414.92C610.572 414.693 610.212 414.513 609.799 414.38C609.399 414.247 608.985 414.133 608.559 414.04C608.159 413.947 607.759 413.86 607.359 413.78C606.959 413.687 606.599 413.58 606.279 413.46C605.959 413.327 605.692 413.167 605.479 412.98C605.279 412.78 605.179 412.533 605.179 412.24C605.179 411.973 605.245 411.76 605.379 411.6C605.512 411.427 605.685 411.293 605.899 411.2C606.112 411.093 606.345 411.02 606.599 410.98C606.865 410.94 607.125 410.92 607.379 410.92C607.659 410.92 607.932 410.953 608.199 411.02C608.479 411.073 608.732 411.167 608.959 411.3C609.185 411.433 609.372 411.613 609.519 411.84C609.665 412.053 609.752 412.327 609.779 412.66H611.479C611.439 412.033 611.305 411.513 611.079 411.1C610.852 410.673 610.545 410.34 610.159 410.1C609.785 409.847 609.352 409.673 608.859 409.58C608.365 409.473 607.825 409.42 607.239 409.42C606.785 409.42 606.325 409.48 605.859 409.6C605.405 409.707 604.992 409.88 604.619 410.12C604.259 410.347 603.959 410.647 603.719 411.02C603.492 411.393 603.379 411.84 603.379 412.36C603.379 413.027 603.545 413.547 603.879 413.92C604.212 414.293 604.625 414.587 605.119 414.8C605.625 415 606.172 415.16 606.759 415.28C607.345 415.387 607.885 415.513 608.379 415.66C608.885 415.793 609.305 415.973 609.639 416.2C609.972 416.427 610.139 416.76 610.139 417.2C610.139 417.52 610.059 417.787 609.899 418C609.739 418.2 609.532 418.353 609.279 418.46C609.039 418.567 608.772 418.64 608.479 418.68C608.185 418.72 607.905 418.74 607.639 418.74C607.292 418.74 606.952 418.707 606.619 418.64C606.299 418.573 606.005 418.467 605.739 418.32C605.485 418.16 605.279 417.953 605.119 417.7C604.959 417.433 604.872 417.113 604.859 416.74ZM615.219 407.8V405.72H613.519V407.8H615.219ZM613.519 409.66V420H615.219V409.66H613.519ZM619.812 409.66V406.56H618.112V409.66H616.352V411.16H618.112V417.74C618.112 418.22 618.159 418.607 618.252 418.9C618.346 419.193 618.486 419.42 618.672 419.58C618.872 419.74 619.126 419.853 619.432 419.92C619.752 419.973 620.132 420 620.572 420H621.872V418.5H621.092C620.826 418.5 620.606 418.493 620.432 418.48C620.272 418.453 620.146 418.407 620.052 418.34C619.959 418.273 619.892 418.18 619.852 418.06C619.826 417.94 619.812 417.78 619.812 417.58V411.16H621.872V409.66H619.812ZM625.161 407.8V405.72H623.461V407.8H625.161ZM623.461 409.66V420H625.161V409.66H623.461ZM628.634 414.84C628.634 414.213 628.714 413.66 628.874 413.18C629.048 412.687 629.281 412.273 629.574 411.94C629.868 411.607 630.208 411.353 630.594 411.18C630.994 411.007 631.414 410.92 631.854 410.92C632.294 410.92 632.708 411.007 633.094 411.18C633.494 411.353 633.841 411.607 634.134 411.94C634.428 412.273 634.654 412.687 634.814 413.18C634.988 413.66 635.074 414.213 635.074 414.84C635.074 415.467 634.988 416.027 634.814 416.52C634.654 417 634.428 417.407 634.134 417.74C633.841 418.06 633.494 418.307 633.094 418.48C632.708 418.653 632.294 418.74 631.854 418.74C631.414 418.74 630.994 418.653 630.594 418.48C630.208 418.307 629.868 418.06 629.574 417.74C629.281 417.407 629.048 417 628.874 416.52C628.714 416.027 628.634 415.467 628.634 414.84ZM626.834 414.84C626.834 415.6 626.941 416.307 627.154 416.96C627.368 417.613 627.688 418.187 628.114 418.68C628.541 419.16 629.068 419.54 629.694 419.82C630.321 420.087 631.041 420.22 631.854 420.22C632.681 420.22 633.401 420.087 634.014 419.82C634.641 419.54 635.168 419.16 635.594 418.68C636.021 418.187 636.341 417.613 636.554 416.96C636.768 416.307 636.874 415.6 636.874 414.84C636.874 414.08 636.768 413.373 636.554 412.72C636.341 412.053 636.021 411.48 635.594 411C635.168 410.507 634.641 410.12 634.014 409.84C633.401 409.56 632.681 409.42 631.854 409.42C631.041 409.42 630.321 409.56 629.694 409.84C629.068 410.12 628.541 410.507 628.114 411C627.688 411.48 627.368 412.053 627.154 412.72C626.941 413.373 626.834 414.08 626.834 414.84ZM638.479 409.66V420H640.179V414.16C640.179 413.693 640.239 413.267 640.359 412.88C640.492 412.48 640.685 412.133 640.939 411.84C641.192 411.547 641.505 411.32 641.879 411.16C642.265 411 642.719 410.92 643.239 410.92C643.892 410.92 644.405 411.107 644.779 411.48C645.152 411.853 645.339 412.36 645.339 413V420H647.039V413.2C647.039 412.64 646.979 412.133 646.859 411.68C646.752 411.213 646.559 410.813 646.279 410.48C645.999 410.147 645.632 409.887 645.179 409.7C644.725 409.513 644.159 409.42 643.479 409.42C641.945 409.42 640.825 410.047 640.119 411.3H640.079V409.66H638.479ZM653.959 410.84H655.659C655.645 410.413 655.685 409.993 655.779 409.58C655.885 409.153 656.052 408.773 656.279 408.44C656.505 408.107 656.792 407.84 657.139 407.64C657.499 407.427 657.925 407.32 658.419 407.32C658.792 407.32 659.145 407.38 659.479 407.5C659.812 407.62 660.099 407.793 660.339 408.02C660.592 408.247 660.792 408.52 660.939 408.84C661.085 409.147 661.159 409.493 661.159 409.88C661.159 410.373 661.079 410.807 660.919 411.18C660.772 411.553 660.545 411.9 660.239 412.22C659.945 412.54 659.572 412.86 659.119 413.18C658.665 413.487 658.139 413.827 657.539 414.2C657.045 414.493 656.572 414.807 656.119 415.14C655.665 415.473 655.259 415.86 654.899 416.3C654.539 416.74 654.239 417.26 653.999 417.86C653.772 418.447 653.625 419.16 653.559 420H662.819V418.5H655.539C655.619 418.06 655.785 417.673 656.039 417.34C656.305 416.993 656.619 416.673 656.979 416.38C657.352 416.087 657.759 415.813 658.199 415.56C658.639 415.293 659.079 415.027 659.519 414.76C659.959 414.48 660.385 414.187 660.799 413.88C661.212 413.573 661.579 413.233 661.899 412.86C662.219 412.473 662.472 412.04 662.659 411.56C662.859 411.08 662.959 410.527 662.959 409.9C662.959 409.233 662.839 408.647 662.599 408.14C662.372 407.633 662.059 407.213 661.659 406.88C661.259 406.533 660.785 406.273 660.239 406.1C659.705 405.913 659.132 405.82 658.519 405.82C657.772 405.82 657.105 405.947 656.519 406.2C655.932 406.453 655.439 406.807 655.039 407.26C654.652 407.7 654.365 408.227 654.179 408.84C653.992 409.453 653.919 410.12 653.959 410.84Z" fill="black"/>
<circle cx="475.844" cy="558.5" r="21.5" fill="#C6C6C6"/>
<path d="M426.252 590.02H428.152C428.045 589.26 427.819 588.593 427.472 588.02C427.125 587.433 426.692 586.947 426.172 586.56C425.652 586.173 425.059 585.88 424.392 585.68C423.725 585.48 423.019 585.38 422.272 585.38C421.179 585.38 420.205 585.58 419.352 585.98C418.512 586.367 417.805 586.9 417.232 587.58C416.672 588.26 416.245 589.06 415.952 589.98C415.659 590.887 415.512 591.86 415.512 592.9C415.512 593.94 415.645 594.913 415.912 595.82C416.192 596.727 416.605 597.513 417.152 598.18C417.699 598.847 418.385 599.373 419.212 599.76C420.039 600.133 421.005 600.32 422.112 600.32C423.939 600.32 425.379 599.82 426.432 598.82C427.485 597.82 428.105 596.42 428.292 594.62H426.392C426.352 595.207 426.232 595.753 426.032 596.26C425.832 596.767 425.552 597.207 425.192 597.58C424.845 597.94 424.425 598.227 423.932 598.44C423.452 598.64 422.899 598.74 422.272 598.74C421.419 598.74 420.685 598.58 420.072 598.26C419.459 597.94 418.952 597.513 418.552 596.98C418.165 596.433 417.879 595.8 417.692 595.08C417.505 594.347 417.412 593.573 417.412 592.76C417.412 592.013 417.505 591.293 417.692 590.6C417.879 589.907 418.165 589.293 418.552 588.76C418.952 588.213 419.452 587.78 420.052 587.46C420.665 587.14 421.399 586.98 422.252 586.98C423.252 586.98 424.112 587.233 424.832 587.74C425.565 588.247 426.039 589.007 426.252 590.02ZM431.206 594.84C431.206 594.213 431.286 593.66 431.446 593.18C431.619 592.687 431.852 592.273 432.146 591.94C432.439 591.607 432.779 591.353 433.166 591.18C433.566 591.007 433.986 590.92 434.426 590.92C434.866 590.92 435.279 591.007 435.666 591.18C436.066 591.353 436.412 591.607 436.706 591.94C436.999 592.273 437.226 592.687 437.386 593.18C437.559 593.66 437.646 594.213 437.646 594.84C437.646 595.467 437.559 596.027 437.386 596.52C437.226 597 436.999 597.407 436.706 597.74C436.412 598.06 436.066 598.307 435.666 598.48C435.279 598.653 434.866 598.74 434.426 598.74C433.986 598.74 433.566 598.653 433.166 598.48C432.779 598.307 432.439 598.06 432.146 597.74C431.852 597.407 431.619 597 431.446 596.52C431.286 596.027 431.206 595.467 431.206 594.84ZM429.406 594.84C429.406 595.6 429.512 596.307 429.726 596.96C429.939 597.613 430.259 598.187 430.686 598.68C431.112 599.16 431.639 599.54 432.266 599.82C432.892 600.087 433.612 600.22 434.426 600.22C435.252 600.22 435.972 600.087 436.586 599.82C437.212 599.54 437.739 599.16 438.166 598.68C438.592 598.187 438.912 597.613 439.126 596.96C439.339 596.307 439.446 595.6 439.446 594.84C439.446 594.08 439.339 593.373 439.126 592.72C438.912 592.053 438.592 591.48 438.166 591C437.739 590.507 437.212 590.12 436.586 589.84C435.972 589.56 435.252 589.42 434.426 589.42C433.612 589.42 432.892 589.56 432.266 589.84C431.639 590.12 431.112 590.507 430.686 591C430.259 591.48 429.939 592.053 429.726 592.72C429.512 593.373 429.406 594.08 429.406 594.84ZM441.05 589.66V600H442.75V593.56C442.75 593.36 442.797 593.113 442.89 592.82C442.997 592.513 443.157 592.22 443.37 591.94C443.597 591.66 443.883 591.42 444.23 591.22C444.59 591.02 445.017 590.92 445.51 590.92C445.897 590.92 446.21 590.98 446.45 591.1C446.703 591.207 446.903 591.367 447.05 591.58C447.197 591.78 447.297 592.02 447.35 592.3C447.417 592.58 447.45 592.887 447.45 593.22V600H449.15V593.56C449.15 592.76 449.39 592.12 449.87 591.64C450.35 591.16 451.01 590.92 451.85 590.92C452.263 590.92 452.597 590.98 452.85 591.1C453.117 591.22 453.323 591.387 453.47 591.6C453.617 591.8 453.717 592.04 453.77 592.32C453.823 592.6 453.85 592.9 453.85 593.22V600H455.55V592.42C455.55 591.887 455.463 591.433 455.29 591.06C455.13 590.673 454.897 590.36 454.59 590.12C454.297 589.88 453.937 589.707 453.51 589.6C453.097 589.48 452.63 589.42 452.11 589.42C451.43 589.42 450.803 589.573 450.23 589.88C449.67 590.187 449.217 590.62 448.87 591.18C448.657 590.54 448.29 590.087 447.77 589.82C447.25 589.553 446.67 589.42 446.03 589.42C444.577 589.42 443.463 590.007 442.69 591.18H442.65V589.66H441.05ZM457.761 589.66V603.94H459.461V598.62H459.501C459.687 598.927 459.914 599.187 460.181 599.4C460.461 599.6 460.754 599.76 461.061 599.88C461.367 600 461.674 600.087 461.981 600.14C462.301 600.193 462.587 600.22 462.841 600.22C463.627 600.22 464.314 600.08 464.901 599.8C465.501 599.52 465.994 599.14 466.381 598.66C466.781 598.167 467.074 597.593 467.261 596.94C467.461 596.287 467.561 595.593 467.561 594.86C467.561 594.127 467.461 593.433 467.261 592.78C467.061 592.127 466.761 591.553 466.361 591.06C465.974 590.553 465.481 590.153 464.881 589.86C464.294 589.567 463.601 589.42 462.801 589.42C462.081 589.42 461.421 589.553 460.821 589.82C460.221 590.073 459.781 590.487 459.501 591.06H459.461V589.66H457.761ZM465.761 594.74C465.761 595.247 465.707 595.74 465.601 596.22C465.494 596.7 465.321 597.127 465.081 597.5C464.841 597.873 464.521 598.173 464.121 598.4C463.734 598.627 463.247 598.74 462.661 598.74C462.074 598.74 461.574 598.633 461.161 598.42C460.747 598.193 460.407 597.9 460.141 597.54C459.887 597.18 459.701 596.767 459.581 596.3C459.461 595.82 459.401 595.327 459.401 594.82C459.401 594.34 459.454 593.867 459.561 593.4C459.681 592.933 459.867 592.52 460.121 592.16C460.374 591.787 460.701 591.487 461.101 591.26C461.501 591.033 461.987 590.92 462.561 590.92C463.107 590.92 463.581 591.027 463.981 591.24C464.394 591.453 464.727 591.74 464.981 592.1C465.247 592.46 465.441 592.873 465.561 593.34C465.694 593.793 465.761 594.26 465.761 594.74ZM470.396 594.84C470.396 594.213 470.476 593.66 470.636 593.18C470.81 592.687 471.043 592.273 471.336 591.94C471.63 591.607 471.97 591.353 472.356 591.18C472.756 591.007 473.176 590.92 473.616 590.92C474.056 590.92 474.47 591.007 474.856 591.18C475.256 591.353 475.603 591.607 475.896 591.94C476.19 592.273 476.416 592.687 476.576 593.18C476.75 593.66 476.836 594.213 476.836 594.84C476.836 595.467 476.75 596.027 476.576 596.52C476.416 597 476.19 597.407 475.896 597.74C475.603 598.06 475.256 598.307 474.856 598.48C474.47 598.653 474.056 598.74 473.616 598.74C473.176 598.74 472.756 598.653 472.356 598.48C471.97 598.307 471.63 598.06 471.336 597.74C471.043 597.407 470.81 597 470.636 596.52C470.476 596.027 470.396 595.467 470.396 594.84ZM468.596 594.84C468.596 595.6 468.703 596.307 468.916 596.96C469.13 597.613 469.45 598.187 469.876 598.68C470.303 599.16 470.83 599.54 471.456 599.82C472.083 600.087 472.803 600.22 473.616 600.22C474.443 600.22 475.163 600.087 475.776 599.82C476.403 599.54 476.93 599.16 477.356 598.68C477.783 598.187 478.103 597.613 478.316 596.96C478.53 596.307 478.636 595.6 478.636 594.84C478.636 594.08 478.53 593.373 478.316 592.72C478.103 592.053 477.783 591.48 477.356 591C476.93 590.507 476.403 590.12 475.776 589.84C475.163 589.56 474.443 589.42 473.616 589.42C472.803 589.42 472.083 589.56 471.456 589.84C470.83 590.12 470.303 590.507 469.876 591C469.45 591.48 469.13 592.053 468.916 592.72C468.703 593.373 468.596 594.08 468.596 594.84ZM481.281 596.74H479.581C479.607 597.38 479.741 597.927 479.981 598.38C480.221 598.82 480.541 599.18 480.941 599.46C481.341 599.727 481.801 599.92 482.321 600.04C482.841 600.16 483.387 600.22 483.961 600.22C484.481 600.22 485.001 600.167 485.521 600.06C486.054 599.967 486.527 599.793 486.941 599.54C487.367 599.287 487.707 598.953 487.961 598.54C488.227 598.127 488.361 597.607 488.361 596.98C488.361 596.487 488.261 596.073 488.061 595.74C487.874 595.407 487.621 595.133 487.301 594.92C486.994 594.693 486.634 594.513 486.221 594.38C485.821 594.247 485.407 594.133 484.981 594.04C484.581 593.947 484.181 593.86 483.781 593.78C483.381 593.687 483.021 593.58 482.701 593.46C482.381 593.327 482.114 593.167 481.901 592.98C481.701 592.78 481.601 592.533 481.601 592.24C481.601 591.973 481.667 591.76 481.801 591.6C481.934 591.427 482.107 591.293 482.321 591.2C482.534 591.093 482.767 591.02 483.021 590.98C483.287 590.94 483.547 590.92 483.801 590.92C484.081 590.92 484.354 590.953 484.621 591.02C484.901 591.073 485.154 591.167 485.381 591.3C485.607 591.433 485.794 591.613 485.941 591.84C486.087 592.053 486.174 592.327 486.201 592.66H487.901C487.861 592.033 487.727 591.513 487.501 591.1C487.274 590.673 486.967 590.34 486.581 590.1C486.207 589.847 485.774 589.673 485.281 589.58C484.787 589.473 484.247 589.42 483.661 589.42C483.207 589.42 482.747 589.48 482.281 589.6C481.827 589.707 481.414 589.88 481.041 590.12C480.681 590.347 480.381 590.647 480.141 591.02C479.914 591.393 479.801 591.84 479.801 592.36C479.801 593.027 479.967 593.547 480.301 593.92C480.634 594.293 481.047 594.587 481.541 594.8C482.047 595 482.594 595.16 483.181 595.28C483.767 595.387 484.307 595.513 484.801 595.66C485.307 595.793 485.727 595.973 486.061 596.2C486.394 596.427 486.561 596.76 486.561 597.2C486.561 597.52 486.481 597.787 486.321 598C486.161 598.2 485.954 598.353 485.701 598.46C485.461 598.567 485.194 598.64 484.901 598.68C484.607 598.72 484.327 598.74 484.061 598.74C483.714 598.74 483.374 598.707 483.041 598.64C482.721 598.573 482.427 598.467 482.161 598.32C481.907 598.16 481.701 597.953 481.541 597.7C481.381 597.433 481.294 597.113 481.281 596.74ZM491.641 587.8V585.72H489.941V587.8H491.641ZM489.941 589.66V600H491.641V589.66H489.941ZM496.234 589.66V586.56H494.534V589.66H492.774V591.16H494.534V597.74C494.534 598.22 494.581 598.607 494.674 598.9C494.767 599.193 494.907 599.42 495.094 599.58C495.294 599.74 495.547 599.853 495.854 599.92C496.174 599.973 496.554 600 496.994 600H498.294V598.5H497.514C497.247 598.5 497.027 598.493 496.854 598.48C496.694 598.453 496.567 598.407 496.474 598.34C496.381 598.273 496.314 598.18 496.274 598.06C496.247 597.94 496.234 597.78 496.234 597.58V591.16H498.294V589.66H496.234ZM501.583 587.8V585.72H499.883V587.8H501.583ZM499.883 589.66V600H501.583V589.66H499.883ZM505.056 594.84C505.056 594.213 505.136 593.66 505.296 593.18C505.47 592.687 505.703 592.273 505.996 591.94C506.29 591.607 506.63 591.353 507.016 591.18C507.416 591.007 507.836 590.92 508.276 590.92C508.716 590.92 509.13 591.007 509.516 591.18C509.916 591.353 510.263 591.607 510.556 591.94C510.85 592.273 511.076 592.687 511.236 593.18C511.41 593.66 511.496 594.213 511.496 594.84C511.496 595.467 511.41 596.027 511.236 596.52C511.076 597 510.85 597.407 510.556 597.74C510.263 598.06 509.916 598.307 509.516 598.48C509.13 598.653 508.716 598.74 508.276 598.74C507.836 598.74 507.416 598.653 507.016 598.48C506.63 598.307 506.29 598.06 505.996 597.74C505.703 597.407 505.47 597 505.296 596.52C505.136 596.027 505.056 595.467 505.056 594.84ZM503.256 594.84C503.256 595.6 503.363 596.307 503.576 596.96C503.79 597.613 504.11 598.187 504.536 598.68C504.963 599.16 505.49 599.54 506.116 599.82C506.743 600.087 507.463 600.22 508.276 600.22C509.103 600.22 509.823 600.087 510.436 599.82C511.063 599.54 511.59 599.16 512.016 598.68C512.443 598.187 512.763 597.613 512.976 596.96C513.19 596.307 513.296 595.6 513.296 594.84C513.296 594.08 513.19 593.373 512.976 592.72C512.763 592.053 512.443 591.48 512.016 591C511.59 590.507 511.063 590.12 510.436 589.84C509.823 589.56 509.103 589.42 508.276 589.42C507.463 589.42 506.743 589.56 506.116 589.84C505.49 590.12 504.963 590.507 504.536 591C504.11 591.48 503.79 592.053 503.576 592.72C503.363 593.373 503.256 594.08 503.256 594.84ZM514.901 589.66V600H516.601V594.16C516.601 593.693 516.661 593.267 516.781 592.88C516.914 592.48 517.107 592.133 517.361 591.84C517.614 591.547 517.927 591.32 518.301 591.16C518.687 591 519.141 590.92 519.661 590.92C520.314 590.92 520.827 591.107 521.201 591.48C521.574 591.853 521.761 592.36 521.761 593V600H523.461V593.2C523.461 592.64 523.401 592.133 523.281 591.68C523.174 591.213 522.981 590.813 522.701 590.48C522.421 590.147 522.054 589.887 521.601 589.7C521.147 589.513 520.581 589.42 519.901 589.42C518.367 589.42 517.247 590.047 516.541 591.3H516.501V589.66H514.901ZM538.9 587.56V586.06H531.9L530.58 593.42L532.04 593.5C532.374 593.1 532.754 592.78 533.18 592.54C533.62 592.287 534.12 592.16 534.68 592.16C535.16 592.16 535.594 592.24 535.98 592.4C536.38 592.56 536.72 592.787 537 593.08C537.28 593.36 537.494 593.7 537.64 594.1C537.8 594.487 537.88 594.913 537.88 595.38C537.88 595.94 537.8 596.433 537.64 596.86C537.48 597.273 537.26 597.62 536.98 597.9C536.714 598.18 536.394 598.393 536.02 598.54C535.66 598.673 535.28 598.74 534.88 598.74C534.454 598.74 534.06 598.68 533.7 598.56C533.354 598.427 533.047 598.247 532.78 598.02C532.527 597.78 532.32 597.507 532.16 597.2C532.014 596.88 531.927 596.54 531.9 596.18H530.2C530.214 596.82 530.34 597.393 530.58 597.9C530.82 598.407 531.147 598.833 531.56 599.18C531.974 599.513 532.447 599.773 532.98 599.96C533.527 600.133 534.107 600.22 534.72 600.22C535.547 600.22 536.267 600.093 536.88 599.84C537.507 599.573 538.027 599.22 538.44 598.78C538.854 598.34 539.16 597.84 539.36 597.28C539.574 596.707 539.68 596.12 539.68 595.52C539.68 594.707 539.56 594 539.32 593.4C539.08 592.787 538.754 592.28 538.34 591.88C537.927 591.467 537.44 591.16 536.88 590.96C536.32 590.76 535.727 590.66 535.1 590.66C534.62 590.66 534.134 590.747 533.64 590.92C533.16 591.08 532.767 591.333 532.46 591.68L532.42 591.64L533.18 587.56H538.9Z" fill="black"/>
<circle cx="107.422" cy="555.5" r="21.5" fill="#C6C6C6"/>
<path d="M57.8301 587.02H59.7301C59.6234 586.26 59.3967 585.593 59.0501 585.02C58.7034 584.433 58.2701 583.947 57.7501 583.56C57.2301 583.173 56.6367 582.88 55.9701 582.68C55.3034 582.48 54.5967 582.38 53.8501 582.38C52.7567 582.38 51.7834 582.58 50.9301 582.98C50.0901 583.367 49.3834 583.9 48.8101 584.58C48.2501 585.26 47.8234 586.06 47.5301 586.98C47.2367 587.887 47.0901 588.86 47.0901 589.9C47.0901 590.94 47.2234 591.913 47.4901 592.82C47.7701 593.727 48.1834 594.513 48.7301 595.18C49.2767 595.847 49.9634 596.373 50.7901 596.76C51.6167 597.133 52.5834 597.32 53.6901 597.32C55.5167 597.32 56.9567 596.82 58.0101 595.82C59.0634 594.82 59.6834 593.42 59.8701 591.62H57.9701C57.9301 592.207 57.8101 592.753 57.6101 593.26C57.4101 593.767 57.1301 594.207 56.7701 594.58C56.4234 594.94 56.0034 595.227 55.5101 595.44C55.0301 595.64 54.4767 595.74 53.8501 595.74C52.9967 595.74 52.2634 595.58 51.6501 595.26C51.0367 594.94 50.5301 594.513 50.1301 593.98C49.7434 593.433 49.4567 592.8 49.2701 592.08C49.0834 591.347 48.9901 590.573 48.9901 589.76C48.9901 589.013 49.0834 588.293 49.2701 587.6C49.4567 586.907 49.7434 586.293 50.1301 585.76C50.5301 585.213 51.0301 584.78 51.6301 584.46C52.2434 584.14 52.9767 583.98 53.8301 583.98C54.8301 583.98 55.6901 584.233 56.4101 584.74C57.1434 585.247 57.6167 586.007 57.8301 587.02ZM62.7837 591.84C62.7837 591.213 62.8637 590.66 63.0237 590.18C63.197 589.687 63.4303 589.273 63.7237 588.94C64.017 588.607 64.357 588.353 64.7437 588.18C65.1437 588.007 65.5637 587.92 66.0037 587.92C66.4437 587.92 66.857 588.007 67.2437 588.18C67.6437 588.353 67.9903 588.607 68.2837 588.94C68.577 589.273 68.8037 589.687 68.9637 590.18C69.137 590.66 69.2237 591.213 69.2237 591.84C69.2237 592.467 69.137 593.027 68.9637 593.52C68.8037 594 68.577 594.407 68.2837 594.74C67.9903 595.06 67.6437 595.307 67.2437 595.48C66.857 595.653 66.4437 595.74 66.0037 595.74C65.5637 595.74 65.1437 595.653 64.7437 595.48C64.357 595.307 64.017 595.06 63.7237 594.74C63.4303 594.407 63.197 594 63.0237 593.52C62.8637 593.027 62.7837 592.467 62.7837 591.84ZM60.9837 591.84C60.9837 592.6 61.0903 593.307 61.3037 593.96C61.517 594.613 61.837 595.187 62.2637 595.68C62.6903 596.16 63.217 596.54 63.8437 596.82C64.4703 597.087 65.1903 597.22 66.0037 597.22C66.8303 597.22 67.5503 597.087 68.1637 596.82C68.7903 596.54 69.317 596.16 69.7437 595.68C70.1703 595.187 70.4903 594.613 70.7037 593.96C70.917 593.307 71.0237 592.6 71.0237 591.84C71.0237 591.08 70.917 590.373 70.7037 589.72C70.4903 589.053 70.1703 588.48 69.7437 588C69.317 587.507 68.7903 587.12 68.1637 586.84C67.5503 586.56 66.8303 586.42 66.0037 586.42C65.1903 586.42 64.4703 586.56 63.8437 586.84C63.217 587.12 62.6903 587.507 62.2637 588C61.837 588.48 61.517 589.053 61.3037 589.72C61.0903 590.373 60.9837 591.08 60.9837 591.84ZM72.628 586.66V597H74.328V590.56C74.328 590.36 74.3747 590.113 74.468 589.82C74.5747 589.513 74.7347 589.22 74.948 588.94C75.1747 588.66 75.4614 588.42 75.808 588.22C76.168 588.02 76.5947 587.92 77.088 587.92C77.4747 587.92 77.788 587.98 78.028 588.1C78.2814 588.207 78.4814 588.367 78.628 588.58C78.7747 588.78 78.8747 589.02 78.928 589.3C78.9947 589.58 79.028 589.887 79.028 590.22V597H80.728V590.56C80.728 589.76 80.968 589.12 81.448 588.64C81.928 588.16 82.588 587.92 83.428 587.92C83.8414 587.92 84.1747 587.98 84.4281 588.1C84.6947 588.22 84.9014 588.387 85.0481 588.6C85.1947 588.8 85.2947 589.04 85.3481 589.32C85.4014 589.6 85.4281 589.9 85.4281 590.22V597H87.128V589.42C87.128 588.887 87.0414 588.433 86.868 588.06C86.7081 587.673 86.4747 587.36 86.1681 587.12C85.8747 586.88 85.5147 586.707 85.088 586.6C84.6747 586.48 84.208 586.42 83.6881 586.42C83.0081 586.42 82.3814 586.573 81.808 586.88C81.248 587.187 80.7947 587.62 80.448 588.18C80.2347 587.54 79.868 587.087 79.348 586.82C78.828 586.553 78.248 586.42 77.608 586.42C76.1547 586.42 75.0414 587.007 74.268 588.18H74.228V586.66H72.628ZM89.3388 586.66V600.94H91.0388V595.62H91.0788C91.2655 595.927 91.4922 596.187 91.7588 596.4C92.0388 596.6 92.3322 596.76 92.6388 596.88C92.9455 597 93.2522 597.087 93.5588 597.14C93.8788 597.193 94.1655 597.22 94.4188 597.22C95.2055 597.22 95.8922 597.08 96.4788 596.8C97.0788 596.52 97.5722 596.14 97.9588 595.66C98.3588 595.167 98.6522 594.593 98.8388 593.94C99.0388 593.287 99.1388 592.593 99.1388 591.86C99.1388 591.127 99.0388 590.433 98.8388 589.78C98.6388 589.127 98.3388 588.553 97.9388 588.06C97.5522 587.553 97.0588 587.153 96.4588 586.86C95.8722 586.567 95.1788 586.42 94.3788 586.42C93.6588 586.42 92.9988 586.553 92.3988 586.82C91.7988 587.073 91.3588 587.487 91.0788 588.06H91.0388V586.66H89.3388ZM97.3388 591.74C97.3388 592.247 97.2855 592.74 97.1788 593.22C97.0722 593.7 96.8988 594.127 96.6588 594.5C96.4188 594.873 96.0988 595.173 95.6988 595.4C95.3122 595.627 94.8255 595.74 94.2388 595.74C93.6522 595.74 93.1522 595.633 92.7388 595.42C92.3255 595.193 91.9855 594.9 91.7188 594.54C91.4655 594.18 91.2788 593.767 91.1588 593.3C91.0388 592.82 90.9788 592.327 90.9788 591.82C90.9788 591.34 91.0322 590.867 91.1388 590.4C91.2588 589.933 91.4455 589.52 91.6988 589.16C91.9522 588.787 92.2788 588.487 92.6788 588.26C93.0788 588.033 93.5655 587.92 94.1388 587.92C94.6855 587.92 95.1588 588.027 95.5588 588.24C95.9722 588.453 96.3055 588.74 96.5588 589.1C96.8255 589.46 97.0188 589.873 97.1388 590.34C97.2722 590.793 97.3388 591.26 97.3388 591.74ZM101.974 591.84C101.974 591.213 102.054 590.66 102.214 590.18C102.388 589.687 102.621 589.273 102.914 588.94C103.208 588.607 103.548 588.353 103.934 588.18C104.334 588.007 104.754 587.92 105.194 587.92C105.634 587.92 106.048 588.007 106.434 588.18C106.834 588.353 107.181 588.607 107.474 588.94C107.768 589.273 107.994 589.687 108.154 590.18C108.328 590.66 108.414 591.213 108.414 591.84C108.414 592.467 108.328 593.027 108.154 593.52C107.994 594 107.768 594.407 107.474 594.74C107.181 595.06 106.834 595.307 106.434 595.48C106.048 595.653 105.634 595.74 105.194 595.74C104.754 595.74 104.334 595.653 103.934 595.48C103.548 595.307 103.208 595.06 102.914 594.74C102.621 594.407 102.388 594 102.214 593.52C102.054 593.027 101.974 592.467 101.974 591.84ZM100.174 591.84C100.174 592.6 100.281 593.307 100.494 593.96C100.708 594.613 101.028 595.187 101.454 595.68C101.881 596.16 102.408 596.54 103.034 596.82C103.661 597.087 104.381 597.22 105.194 597.22C106.021 597.22 106.741 597.087 107.354 596.82C107.981 596.54 108.508 596.16 108.934 595.68C109.361 595.187 109.681 594.613 109.894 593.96C110.108 593.307 110.214 592.6 110.214 591.84C110.214 591.08 110.108 590.373 109.894 589.72C109.681 589.053 109.361 588.48 108.934 588C108.508 587.507 107.981 587.12 107.354 586.84C106.741 586.56 106.021 586.42 105.194 586.42C104.381 586.42 103.661 586.56 103.034 586.84C102.408 587.12 101.881 587.507 101.454 588C101.028 588.48 100.708 589.053 100.494 589.72C100.281 590.373 100.174 591.08 100.174 591.84ZM112.859 593.74H111.159C111.185 594.38 111.319 594.927 111.559 595.38C111.799 595.82 112.119 596.18 112.519 596.46C112.919 596.727 113.379 596.92 113.899 597.04C114.419 597.16 114.965 597.22 115.539 597.22C116.059 597.22 116.579 597.167 117.099 597.06C117.632 596.967 118.105 596.793 118.519 596.54C118.945 596.287 119.285 595.953 119.539 595.54C119.805 595.127 119.939 594.607 119.939 593.98C119.939 593.487 119.839 593.073 119.639 592.74C119.452 592.407 119.199 592.133 118.879 591.92C118.572 591.693 118.212 591.513 117.799 591.38C117.399 591.247 116.985 591.133 116.559 591.04C116.159 590.947 115.759 590.86 115.359 590.78C114.959 590.687 114.599 590.58 114.279 590.46C113.959 590.327 113.692 590.167 113.479 589.98C113.279 589.78 113.179 589.533 113.179 589.24C113.179 588.973 113.245 588.76 113.379 588.6C113.512 588.427 113.685 588.293 113.899 588.2C114.112 588.093 114.345 588.02 114.599 587.98C114.865 587.94 115.125 587.92 115.379 587.92C115.659 587.92 115.932 587.953 116.199 588.02C116.479 588.073 116.732 588.167 116.959 588.3C117.185 588.433 117.372 588.613 117.519 588.84C117.665 589.053 117.752 589.327 117.779 589.66H119.479C119.439 589.033 119.305 588.513 119.079 588.1C118.852 587.673 118.545 587.34 118.159 587.1C117.785 586.847 117.352 586.673 116.859 586.58C116.365 586.473 115.825 586.42 115.239 586.42C114.785 586.42 114.325 586.48 113.859 586.6C113.405 586.707 112.992 586.88 112.619 587.12C112.259 587.347 111.959 587.647 111.719 588.02C111.492 588.393 111.379 588.84 111.379 589.36C111.379 590.027 111.545 590.547 111.879 590.92C112.212 591.293 112.625 591.587 113.119 591.8C113.625 592 114.172 592.16 114.759 592.28C115.345 592.387 115.885 592.513 116.379 592.66C116.885 592.793 117.305 592.973 117.639 593.2C117.972 593.427 118.139 593.76 118.139 594.2C118.139 594.52 118.059 594.787 117.899 595C117.739 595.2 117.532 595.353 117.279 595.46C117.039 595.567 116.772 595.64 116.479 595.68C116.185 595.72 115.905 595.74 115.639 595.74C115.292 595.74 114.952 595.707 114.619 595.64C114.299 595.573 114.005 595.467 113.739 595.32C113.485 595.16 113.279 594.953 113.119 594.7C112.959 594.433 112.872 594.113 112.859 593.74ZM123.219 584.8V582.72H121.519V584.8H123.219ZM121.519 586.66V597H123.219V586.66H121.519ZM127.812 586.66V583.56H126.112V586.66H124.352V588.16H126.112V594.74C126.112 595.22 126.159 595.607 126.252 595.9C126.346 596.193 126.486 596.42 126.672 596.58C126.872 596.74 127.126 596.853 127.432 596.92C127.752 596.973 128.132 597 128.572 597H129.872V595.5H129.092C128.826 595.5 128.606 595.493 128.432 595.48C128.272 595.453 128.146 595.407 128.052 595.34C127.959 595.273 127.892 595.18 127.852 595.06C127.826 594.94 127.812 594.78 127.812 594.58V588.16H129.872V586.66H127.812ZM133.161 584.8V582.72H131.461V584.8H133.161ZM131.461 586.66V597H133.161V586.66H131.461ZM136.634 591.84C136.634 591.213 136.714 590.66 136.874 590.18C137.048 589.687 137.281 589.273 137.574 588.94C137.868 588.607 138.208 588.353 138.594 588.18C138.994 588.007 139.414 587.92 139.854 587.92C140.294 587.92 140.708 588.007 141.094 588.18C141.494 588.353 141.841 588.607 142.134 588.94C142.428 589.273 142.654 589.687 142.814 590.18C142.988 590.66 143.074 591.213 143.074 591.84C143.074 592.467 142.988 593.027 142.814 593.52C142.654 594 142.428 594.407 142.134 594.74C141.841 595.06 141.494 595.307 141.094 595.48C140.708 595.653 140.294 595.74 139.854 595.74C139.414 595.74 138.994 595.653 138.594 595.48C138.208 595.307 137.868 595.06 137.574 594.74C137.281 594.407 137.048 594 136.874 593.52C136.714 593.027 136.634 592.467 136.634 591.84ZM134.834 591.84C134.834 592.6 134.941 593.307 135.154 593.96C135.368 594.613 135.688 595.187 136.114 595.68C136.541 596.16 137.068 596.54 137.694 596.82C138.321 597.087 139.041 597.22 139.854 597.22C140.681 597.22 141.401 597.087 142.014 596.82C142.641 596.54 143.168 596.16 143.594 595.68C144.021 595.187 144.341 594.613 144.554 593.96C144.768 593.307 144.874 592.6 144.874 591.84C144.874 591.08 144.768 590.373 144.554 589.72C144.341 589.053 144.021 588.48 143.594 588C143.168 587.507 142.641 587.12 142.014 586.84C141.401 586.56 140.681 586.42 139.854 586.42C139.041 586.42 138.321 586.56 137.694 586.84C137.068 587.12 136.541 587.507 136.114 588C135.688 588.48 135.368 589.053 135.154 589.72C134.941 590.373 134.834 591.08 134.834 591.84ZM146.479 586.66V597H148.179V591.16C148.179 590.693 148.239 590.267 148.359 589.88C148.492 589.48 148.685 589.133 148.939 588.84C149.192 588.547 149.505 588.32 149.879 588.16C150.265 588 150.719 587.92 151.239 587.92C151.892 587.92 152.405 588.107 152.779 588.48C153.152 588.853 153.339 589.36 153.339 590V597H155.039V590.2C155.039 589.64 154.979 589.133 154.859 588.68C154.752 588.213 154.559 587.813 154.279 587.48C153.999 587.147 153.632 586.887 153.179 586.7C152.725 586.513 152.159 586.42 151.479 586.42C149.945 586.42 148.825 587.047 148.119 588.3H148.079V586.66H146.479ZM167.859 592.18H163.099L167.819 585.24H167.859V592.18ZM169.459 592.18V582.82H168.099L161.639 592.04V593.68H167.859V597H169.459V593.68H171.379V592.18H169.459Z" fill="black"/>
<circle cx="145.422" cy="165.5" r="21.5" fill="#C6C6C6"/>
<path d="M130.742 203.44V192.72H128.842V203.16C128.842 203.947 128.675 204.573 128.342 205.04C128.022 205.507 127.429 205.74 126.562 205.74C126.095 205.74 125.709 205.673 125.402 205.54C125.109 205.393 124.875 205.193 124.702 204.94C124.542 204.687 124.429 204.387 124.362 204.04C124.295 203.693 124.262 203.313 124.262 202.9V202.3H122.362V203.18C122.362 204.54 122.722 205.573 123.442 206.28C124.162 206.973 125.189 207.32 126.522 207.32C127.322 207.32 127.989 207.213 128.522 207C129.069 206.773 129.502 206.48 129.822 206.12C130.155 205.747 130.389 205.327 130.522 204.86C130.669 204.393 130.742 203.92 130.742 203.44ZM134.973 194.8V192.72H133.273V194.8H134.973ZM133.273 196.66V207H134.973V196.66H133.273ZM137.207 196.66V207H138.907V201.16C138.907 200.693 138.967 200.267 139.087 199.88C139.22 199.48 139.413 199.133 139.667 198.84C139.92 198.547 140.233 198.32 140.607 198.16C140.993 198 141.447 197.92 141.967 197.92C142.62 197.92 143.133 198.107 143.507 198.48C143.88 198.853 144.067 199.36 144.067 200V207H145.767V200.2C145.767 199.64 145.707 199.133 145.587 198.68C145.48 198.213 145.287 197.813 145.007 197.48C144.727 197.147 144.36 196.887 143.907 196.7C143.453 196.513 142.887 196.42 142.207 196.42C140.673 196.42 139.553 197.047 138.847 198.3H138.807V196.66H137.207ZM156.84 206.12V196.66H155.24V198.14H155.22C154.913 197.567 154.487 197.14 153.94 196.86C153.393 196.567 152.793 196.42 152.14 196.42C151.247 196.42 150.493 196.593 149.88 196.94C149.267 197.273 148.773 197.707 148.4 198.24C148.027 198.76 147.76 199.347 147.6 200C147.44 200.64 147.36 201.267 147.36 201.88C147.36 202.587 147.453 203.26 147.64 203.9C147.84 204.527 148.133 205.08 148.52 205.56C148.907 206.027 149.387 206.4 149.96 206.68C150.533 206.96 151.207 207.1 151.98 207.1C152.647 207.1 153.273 206.953 153.86 206.66C154.46 206.353 154.907 205.88 155.2 205.24H155.24V205.92C155.24 206.493 155.18 207.02 155.06 207.5C154.953 207.98 154.773 208.387 154.52 208.72C154.267 209.067 153.947 209.333 153.56 209.52C153.173 209.72 152.7 209.82 152.14 209.82C151.86 209.82 151.567 209.787 151.26 209.72C150.953 209.667 150.667 209.573 150.4 209.44C150.147 209.307 149.927 209.133 149.74 208.92C149.567 208.707 149.473 208.447 149.46 208.14H147.76C147.787 208.7 147.933 209.173 148.2 209.56C148.467 209.947 148.8 210.26 149.2 210.5C149.613 210.74 150.067 210.913 150.56 211.02C151.067 211.127 151.56 211.18 152.04 211.18C153.693 211.18 154.907 210.76 155.68 209.92C156.453 209.08 156.84 207.813 156.84 206.12ZM152.08 205.62C151.52 205.62 151.053 205.507 150.68 205.28C150.307 205.04 150.007 204.733 149.78 204.36C149.553 203.973 149.393 203.547 149.3 203.08C149.207 202.613 149.16 202.147 149.16 201.68C149.16 201.187 149.213 200.713 149.32 200.26C149.44 199.807 149.62 199.407 149.86 199.06C150.113 198.713 150.433 198.44 150.82 198.24C151.207 198.027 151.673 197.92 152.22 197.92C152.753 197.92 153.207 198.027 153.58 198.24C153.953 198.453 154.253 198.74 154.48 199.1C154.72 199.447 154.893 199.84 155 200.28C155.107 200.72 155.16 201.167 155.16 201.62C155.16 202.1 155.1 202.58 154.98 203.06C154.873 203.54 154.7 203.973 154.46 204.36C154.22 204.733 153.9 205.04 153.5 205.28C153.113 205.507 152.64 205.62 152.08 205.62ZM159.104 192.72V207H160.804V192.72H159.104ZM170.218 200.84H164.278C164.304 200.44 164.391 200.067 164.538 199.72C164.684 199.36 164.884 199.047 165.138 198.78C165.391 198.513 165.691 198.307 166.038 198.16C166.398 198 166.798 197.92 167.238 197.92C167.664 197.92 168.051 198 168.398 198.16C168.758 198.307 169.064 198.513 169.318 198.78C169.584 199.033 169.791 199.34 169.938 199.7C170.098 200.06 170.191 200.44 170.218 200.84ZM171.858 203.72H170.178C170.031 204.4 169.724 204.907 169.258 205.24C168.804 205.573 168.218 205.74 167.498 205.74C166.938 205.74 166.451 205.647 166.038 205.46C165.624 205.273 165.284 205.027 165.018 204.72C164.751 204.4 164.558 204.04 164.438 203.64C164.318 203.227 164.264 202.793 164.278 202.34H172.018C172.044 201.713 171.984 201.053 171.838 200.36C171.704 199.667 171.451 199.027 171.078 198.44C170.718 197.853 170.231 197.373 169.618 197C169.018 196.613 168.258 196.42 167.338 196.42C166.631 196.42 165.978 196.553 165.378 196.82C164.791 197.087 164.278 197.46 163.838 197.94C163.411 198.42 163.078 198.987 162.838 199.64C162.598 200.293 162.478 201.013 162.478 201.8C162.504 202.587 162.618 203.313 162.818 203.98C163.031 204.647 163.344 205.22 163.758 205.7C164.171 206.18 164.678 206.553 165.278 206.82C165.891 207.087 166.611 207.22 167.438 207.22C168.611 207.22 169.584 206.927 170.358 206.34C171.131 205.753 171.631 204.88 171.858 203.72Z" fill="black"/>
<circle cx="124.133" cy="373.5" r="21.5" fill="#C6C6C6"/>
<path d="M74.541 405.02H76.441C76.3344 404.26 76.1077 403.593 75.761 403.02C75.4144 402.433 74.981 401.947 74.461 401.56C73.941 401.173 73.3477 400.88 72.681 400.68C72.0144 400.48 71.3077 400.38 70.561 400.38C69.4677 400.38 68.4944 400.58 67.641 400.98C66.801 401.367 66.0944 401.9 65.521 402.58C64.961 403.26 64.5344 404.06 64.241 404.98C63.9477 405.887 63.801 406.86 63.801 407.9C63.801 408.94 63.9344 409.913 64.201 410.82C64.481 411.727 64.8944 412.513 65.441 413.18C65.9877 413.847 66.6744 414.373 67.501 414.76C68.3277 415.133 69.2944 415.32 70.401 415.32C72.2277 415.32 73.6677 414.82 74.721 413.82C75.7744 412.82 76.3944 411.42 76.581 409.62H74.681C74.641 410.207 74.521 410.753 74.321 411.26C74.121 411.767 73.841 412.207 73.481 412.58C73.1344 412.94 72.7144 413.227 72.221 413.44C71.741 413.64 71.1877 413.74 70.561 413.74C69.7077 413.74 68.9744 413.58 68.361 413.26C67.7477 412.94 67.241 412.513 66.841 411.98C66.4544 411.433 66.1677 410.8 65.981 410.08C65.7944 409.347 65.701 408.573 65.701 407.76C65.701 407.013 65.7944 406.293 65.981 405.6C66.1677 404.907 66.4544 404.293 66.841 403.76C67.241 403.213 67.741 402.78 68.341 402.46C68.9544 402.14 69.6877 401.98 70.541 401.98C71.541 401.98 72.401 402.233 73.121 402.74C73.8544 403.247 74.3277 404.007 74.541 405.02ZM79.4946 409.84C79.4946 409.213 79.5746 408.66 79.7346 408.18C79.9079 407.687 80.1413 407.273 80.4346 406.94C80.7279 406.607 81.0679 406.353 81.4546 406.18C81.8546 406.007 82.2746 405.92 82.7146 405.92C83.1546 405.92 83.5679 406.007 83.9546 406.18C84.3546 406.353 84.7013 406.607 84.9946 406.94C85.2879 407.273 85.5146 407.687 85.6746 408.18C85.8479 408.66 85.9346 409.213 85.9346 409.84C85.9346 410.467 85.8479 411.027 85.6746 411.52C85.5146 412 85.2879 412.407 84.9946 412.74C84.7013 413.06 84.3546 413.307 83.9546 413.48C83.5679 413.653 83.1546 413.74 82.7146 413.74C82.2746 413.74 81.8546 413.653 81.4546 413.48C81.0679 413.307 80.7279 413.06 80.4346 412.74C80.1413 412.407 79.9079 412 79.7346 411.52C79.5746 411.027 79.4946 410.467 79.4946 409.84ZM77.6946 409.84C77.6946 410.6 77.8013 411.307 78.0146 411.96C78.2279 412.613 78.5479 413.187 78.9746 413.68C79.4013 414.16 79.9279 414.54 80.5546 414.82C81.1813 415.087 81.9013 415.22 82.7146 415.22C83.5413 415.22 84.2613 415.087 84.8746 414.82C85.5013 414.54 86.0279 414.16 86.4546 413.68C86.8813 413.187 87.2013 412.613 87.4146 411.96C87.6279 411.307 87.7346 410.6 87.7346 409.84C87.7346 409.08 87.6279 408.373 87.4146 407.72C87.2013 407.053 86.8813 406.48 86.4546 406C86.0279 405.507 85.5013 405.12 84.8746 404.84C84.2613 404.56 83.5413 404.42 82.7146 404.42C81.9013 404.42 81.1813 404.56 80.5546 404.84C79.9279 405.12 79.4013 405.507 78.9746 406C78.5479 406.48 78.2279 407.053 78.0146 407.72C77.8013 408.373 77.6946 409.08 77.6946 409.84ZM89.339 404.66V415H91.039V408.56C91.039 408.36 91.0857 408.113 91.179 407.82C91.2857 407.513 91.4457 407.22 91.659 406.94C91.8857 406.66 92.1723 406.42 92.519 406.22C92.879 406.02 93.3057 405.92 93.799 405.92C94.1857 405.92 94.499 405.98 94.739 406.1C94.9923 406.207 95.1923 406.367 95.339 406.58C95.4857 406.78 95.5857 407.02 95.639 407.3C95.7057 407.58 95.739 407.887 95.739 408.22V415H97.439V408.56C97.439 407.76 97.679 407.12 98.159 406.64C98.639 406.16 99.299 405.92 100.139 405.92C100.552 405.92 100.886 405.98 101.139 406.1C101.406 406.22 101.612 406.387 101.759 406.6C101.906 406.8 102.006 407.04 102.059 407.32C102.112 407.6 102.139 407.9 102.139 408.22V415H103.839V407.42C103.839 406.887 103.752 406.433 103.579 406.06C103.419 405.673 103.186 405.36 102.879 405.12C102.586 404.88 102.226 404.707 101.799 404.6C101.386 404.48 100.919 404.42 100.399 404.42C99.719 404.42 99.0923 404.573 98.519 404.88C97.959 405.187 97.5057 405.62 97.159 406.18C96.9457 405.54 96.579 405.087 96.059 404.82C95.539 404.553 94.959 404.42 94.319 404.42C92.8657 404.42 91.7523 405.007 90.979 406.18H90.939V404.66H89.339ZM106.05 404.66V418.94H107.75V413.62H107.79C107.976 413.927 108.203 414.187 108.47 414.4C108.75 414.6 109.043 414.76 109.35 414.88C109.656 415 109.963 415.087 110.27 415.14C110.59 415.193 110.876 415.22 111.13 415.22C111.916 415.22 112.603 415.08 113.19 414.8C113.79 414.52 114.283 414.14 114.67 413.66C115.07 413.167 115.363 412.593 115.55 411.94C115.75 411.287 115.85 410.593 115.85 409.86C115.85 409.127 115.75 408.433 115.55 407.78C115.35 407.127 115.05 406.553 114.65 406.06C114.263 405.553 113.77 405.153 113.17 404.86C112.583 404.567 111.89 404.42 111.09 404.42C110.37 404.42 109.71 404.553 109.11 404.82C108.51 405.073 108.07 405.487 107.79 406.06H107.75V404.66H106.05ZM114.05 409.74C114.05 410.247 113.996 410.74 113.89 411.22C113.783 411.7 113.61 412.127 113.37 412.5C113.13 412.873 112.81 413.173 112.41 413.4C112.023 413.627 111.536 413.74 110.95 413.74C110.363 413.74 109.863 413.633 109.45 413.42C109.036 413.193 108.696 412.9 108.43 412.54C108.176 412.18 107.99 411.767 107.87 411.3C107.75 410.82 107.69 410.327 107.69 409.82C107.69 409.34 107.743 408.867 107.85 408.4C107.97 407.933 108.156 407.52 108.41 407.16C108.663 406.787 108.99 406.487 109.39 406.26C109.79 406.033 110.276 405.92 110.85 405.92C111.396 405.92 111.87 406.027 112.27 406.24C112.683 406.453 113.016 406.74 113.27 407.1C113.536 407.46 113.73 407.873 113.85 408.34C113.983 408.793 114.05 409.26 114.05 409.74ZM118.685 409.84C118.685 409.213 118.765 408.66 118.925 408.18C119.099 407.687 119.332 407.273 119.625 406.94C119.919 406.607 120.259 406.353 120.645 406.18C121.045 406.007 121.465 405.92 121.905 405.92C122.345 405.92 122.759 406.007 123.145 406.18C123.545 406.353 123.892 406.607 124.185 406.94C124.479 407.273 124.705 407.687 124.865 408.18C125.039 408.66 125.125 409.213 125.125 409.84C125.125 410.467 125.039 411.027 124.865 411.52C124.705 412 124.479 412.407 124.185 412.74C123.892 413.06 123.545 413.307 123.145 413.48C122.759 413.653 122.345 413.74 121.905 413.74C121.465 413.74 121.045 413.653 120.645 413.48C120.259 413.307 119.919 413.06 119.625 412.74C119.332 412.407 119.099 412 118.925 411.52C118.765 411.027 118.685 410.467 118.685 409.84ZM116.885 409.84C116.885 410.6 116.992 411.307 117.205 411.96C117.419 412.613 117.739 413.187 118.165 413.68C118.592 414.16 119.119 414.54 119.745 414.82C120.372 415.087 121.092 415.22 121.905 415.22C122.732 415.22 123.452 415.087 124.065 414.82C124.692 414.54 125.219 414.16 125.645 413.68C126.072 413.187 126.392 412.613 126.605 411.96C126.819 411.307 126.925 410.6 126.925 409.84C126.925 409.08 126.819 408.373 126.605 407.72C126.392 407.053 126.072 406.48 125.645 406C125.219 405.507 124.692 405.12 124.065 404.84C123.452 404.56 122.732 404.42 121.905 404.42C121.092 404.42 120.372 404.56 119.745 404.84C119.119 405.12 118.592 405.507 118.165 406C117.739 406.48 117.419 407.053 117.205 407.72C116.992 408.373 116.885 409.08 116.885 409.84ZM129.57 411.74H127.87C127.896 412.38 128.03 412.927 128.27 413.38C128.51 413.82 128.83 414.18 129.23 414.46C129.63 414.727 130.09 414.92 130.61 415.04C131.13 415.16 131.676 415.22 132.25 415.22C132.77 415.22 133.29 415.167 133.81 415.06C134.343 414.967 134.816 414.793 135.23 414.54C135.656 414.287 135.996 413.953 136.25 413.54C136.516 413.127 136.65 412.607 136.65 411.98C136.65 411.487 136.55 411.073 136.35 410.74C136.163 410.407 135.91 410.133 135.59 409.92C135.283 409.693 134.923 409.513 134.51 409.38C134.11 409.247 133.696 409.133 133.27 409.04C132.87 408.947 132.47 408.86 132.07 408.78C131.67 408.687 131.31 408.58 130.99 408.46C130.67 408.327 130.403 408.167 130.19 407.98C129.99 407.78 129.89 407.533 129.89 407.24C129.89 406.973 129.956 406.76 130.09 406.6C130.223 406.427 130.396 406.293 130.61 406.2C130.823 406.093 131.056 406.02 131.31 405.98C131.576 405.94 131.836 405.92 132.09 405.92C132.37 405.92 132.643 405.953 132.91 406.02C133.19 406.073 133.443 406.167 133.67 406.3C133.896 406.433 134.083 406.613 134.23 406.84C134.376 407.053 134.463 407.327 134.49 407.66H136.19C136.15 407.033 136.016 406.513 135.79 406.1C135.563 405.673 135.256 405.34 134.87 405.1C134.496 404.847 134.063 404.673 133.57 404.58C133.076 404.473 132.536 404.42 131.95 404.42C131.496 404.42 131.036 404.48 130.57 404.6C130.116 404.707 129.703 404.88 129.33 405.12C128.97 405.347 128.67 405.647 128.43 406.02C128.203 406.393 128.09 406.84 128.09 407.36C128.09 408.027 128.256 408.547 128.59 408.92C128.923 409.293 129.336 409.587 129.83 409.8C130.336 410 130.883 410.16 131.47 410.28C132.056 410.387 132.596 410.513 133.09 410.66C133.596 410.793 134.016 410.973 134.35 411.2C134.683 411.427 134.85 411.76 134.85 412.2C134.85 412.52 134.77 412.787 134.61 413C134.45 413.2 134.243 413.353 133.99 413.46C133.75 413.567 133.483 413.64 133.19 413.68C132.896 413.72 132.616 413.74 132.35 413.74C132.003 413.74 131.663 413.707 131.33 413.64C131.01 413.573 130.716 413.467 130.45 413.32C130.196 413.16 129.99 412.953 129.83 412.7C129.67 412.433 129.583 412.113 129.57 411.74ZM139.93 402.8V400.72H138.23V402.8H139.93ZM138.23 404.66V415H139.93V404.66H138.23ZM144.523 404.66V401.56H142.823V404.66H141.063V406.16H142.823V412.74C142.823 413.22 142.87 413.607 142.963 413.9C143.057 414.193 143.197 414.42 143.383 414.58C143.583 414.74 143.837 414.853 144.143 414.92C144.463 414.973 144.843 415 145.283 415H146.583V413.5H145.803C145.537 413.5 145.317 413.493 145.143 413.48C144.983 413.453 144.857 413.407 144.763 413.34C144.67 413.273 144.603 413.18 144.563 413.06C144.537 412.94 144.523 412.78 144.523 412.58V406.16H146.583V404.66H144.523ZM149.872 402.8V400.72H148.172V402.8H149.872ZM148.172 404.66V415H149.872V404.66H148.172ZM153.345 409.84C153.345 409.213 153.425 408.66 153.585 408.18C153.759 407.687 153.992 407.273 154.285 406.94C154.579 406.607 154.919 406.353 155.305 406.18C155.705 406.007 156.125 405.92 156.565 405.92C157.005 405.92 157.419 406.007 157.805 406.18C158.205 406.353 158.552 406.607 158.845 406.94C159.139 407.273 159.365 407.687 159.525 408.18C159.699 408.66 159.785 409.213 159.785 409.84C159.785 410.467 159.699 411.027 159.525 411.52C159.365 412 159.139 412.407 158.845 412.74C158.552 413.06 158.205 413.307 157.805 413.48C157.419 413.653 157.005 413.74 156.565 413.74C156.125 413.74 155.705 413.653 155.305 413.48C154.919 413.307 154.579 413.06 154.285 412.74C153.992 412.407 153.759 412 153.585 411.52C153.425 411.027 153.345 410.467 153.345 409.84ZM151.545 409.84C151.545 410.6 151.652 411.307 151.865 411.96C152.079 412.613 152.399 413.187 152.825 413.68C153.252 414.16 153.779 414.54 154.405 414.82C155.032 415.087 155.752 415.22 156.565 415.22C157.392 415.22 158.112 415.087 158.725 414.82C159.352 414.54 159.879 414.16 160.305 413.68C160.732 413.187 161.052 412.613 161.265 411.96C161.479 411.307 161.585 410.6 161.585 409.84C161.585 409.08 161.479 408.373 161.265 407.72C161.052 407.053 160.732 406.48 160.305 406C159.879 405.507 159.352 405.12 158.725 404.84C158.112 404.56 157.392 404.42 156.565 404.42C155.752 404.42 155.032 404.56 154.405 404.84C153.779 405.12 153.252 405.507 152.825 406C152.399 406.48 152.079 407.053 151.865 407.72C151.652 408.373 151.545 409.08 151.545 409.84ZM163.19 404.66V415H164.89V409.16C164.89 408.693 164.95 408.267 165.07 407.88C165.203 407.48 165.396 407.133 165.65 406.84C165.903 406.547 166.216 406.32 166.59 406.16C166.976 406 167.43 405.92 167.95 405.92C168.603 405.92 169.116 406.107 169.49 406.48C169.863 406.853 170.05 407.36 170.05 408V415H171.75V408.2C171.75 407.64 171.69 407.133 171.57 406.68C171.463 406.213 171.27 405.813 170.99 405.48C170.71 405.147 170.343 404.887 169.89 404.7C169.436 404.513 168.87 404.42 168.19 404.42C166.656 404.42 165.536 405.047 164.83 406.3H164.79V404.66H163.19ZM182.149 406.9V408.34C182.469 408.3 182.809 408.28 183.169 408.28C183.596 408.28 183.989 408.34 184.349 408.46C184.723 408.567 185.043 408.74 185.309 408.98C185.576 409.207 185.789 409.493 185.949 409.84C186.109 410.173 186.189 410.56 186.189 411C186.189 411.427 186.103 411.813 185.929 412.16C185.769 412.493 185.549 412.78 185.269 413.02C184.989 413.247 184.663 413.427 184.289 413.56C183.916 413.68 183.523 413.74 183.109 413.74C182.136 413.74 181.396 413.453 180.889 412.88C180.383 412.293 180.116 411.54 180.089 410.62H178.389C178.376 411.353 178.476 412.007 178.689 412.58C178.916 413.153 179.236 413.64 179.649 414.04C180.063 414.427 180.563 414.72 181.149 414.92C181.736 415.12 182.389 415.22 183.109 415.22C183.776 415.22 184.403 415.133 184.989 414.96C185.589 414.773 186.109 414.5 186.549 414.14C186.989 413.78 187.336 413.333 187.589 412.8C187.856 412.253 187.989 411.627 187.989 410.92C187.989 410.067 187.776 409.327 187.349 408.7C186.936 408.073 186.296 407.667 185.429 407.48V407.44C185.989 407.187 186.456 406.813 186.829 406.32C187.203 405.827 187.389 405.26 187.389 404.62C187.389 403.967 187.276 403.4 187.049 402.92C186.836 402.44 186.536 402.047 186.149 401.74C185.763 401.433 185.303 401.207 184.769 401.06C184.249 400.9 183.683 400.82 183.069 400.82C182.363 400.82 181.736 400.933 181.189 401.16C180.656 401.387 180.209 401.7 179.849 402.1C179.489 402.5 179.209 402.98 179.009 403.54C178.823 404.1 178.716 404.72 178.689 405.4H180.389C180.389 404.987 180.443 404.593 180.549 404.22C180.656 403.847 180.816 403.52 181.029 403.24C181.256 402.96 181.536 402.74 181.869 402.58C182.216 402.407 182.616 402.32 183.069 402.32C183.789 402.32 184.389 402.513 184.869 402.9C185.349 403.273 185.589 403.84 185.589 404.6C185.589 404.973 185.516 405.307 185.369 405.6C185.223 405.893 185.023 406.14 184.769 406.34C184.529 406.527 184.243 406.673 183.909 406.78C183.589 406.873 183.249 406.92 182.889 406.92H182.529C182.463 406.92 182.396 406.92 182.329 406.92C182.276 406.92 182.216 406.913 182.149 406.9Z" fill="black"/>
<path d="M391.5 143L379.396 155.389L396.178 159.677L391.5 143ZM343.5 315C344.939 315.423 344.939 315.422 344.94 315.422C344.94 315.421 344.94 315.42 344.941 315.418C344.941 315.415 344.943 315.411 344.944 315.405C344.948 315.393 344.953 315.375 344.96 315.351C344.974 315.303 344.995 315.232 345.023 315.138C345.078 314.949 345.161 314.669 345.269 314.3C345.485 313.563 345.804 312.474 346.215 311.067C347.038 308.252 348.231 304.165 349.711 299.071C352.673 288.883 356.784 274.672 361.387 258.574C370.59 226.382 381.759 186.636 389.612 156.451L386.708 155.696C378.866 185.844 367.705 225.561 358.502 257.749C353.901 273.842 349.791 288.049 346.831 298.233C345.351 303.326 344.158 307.412 343.336 310.225C342.924 311.631 342.606 312.72 342.39 313.456C342.282 313.824 342.2 314.105 342.144 314.293C342.117 314.387 342.096 314.458 342.082 314.506C342.075 314.529 342.07 314.547 342.066 314.559C342.064 314.565 342.063 314.57 342.062 314.573C342.062 314.574 342.061 314.575 342.061 314.576C342.061 314.577 342.061 314.577 343.5 315Z" fill="black"/>
<path d="M181 198.5L186.63 214.88L198 201.814L181 198.5ZM324.484 321.368L192.168 206.23L190.199 208.494L322.515 323.632L324.484 321.368Z" fill="black"/>
<path d="M153 368.5L169.518 373.711L165.772 356.8L153 368.5ZM319.676 330.036L165.856 364.115L166.505 367.044L320.324 332.964L319.676 330.036Z" fill="black"/>
<path d="M131.5 536L148.291 531.752L136.217 519.334L131.5 536ZM292.954 376.925L140.133 525.514L142.224 527.664L295.045 379.075L292.954 376.925Z" fill="black"/>
<path d="M460 533.5L459.692 516.182L444.849 525.108L460 533.5ZM366.715 381.273L451.758 522.704L454.329 521.158L369.286 379.727L366.715 381.273Z" fill="black"/>
<path d="M568.5 373L555.395 361.675L552.14 378.687L568.5 373ZM348.718 332.473L554.959 371.936L555.522 368.99L349.282 329.527L348.718 332.473Z" fill="black"/>
<circle cx="338.422" cy="329" r="21.5" fill="#ADFF00"/>
<path d="M283.585 356.22V370.5H285.485V363.96H292.045V362.36H285.485V357.82H292.965V356.22H283.585ZM302.949 370.5V360.16H301.249V366C301.249 366.467 301.183 366.9 301.049 367.3C300.929 367.687 300.743 368.027 300.489 368.32C300.236 368.613 299.916 368.84 299.529 369C299.156 369.16 298.709 369.24 298.189 369.24C297.536 369.24 297.023 369.053 296.649 368.68C296.276 368.307 296.089 367.8 296.089 367.16V360.16H294.389V366.96C294.389 367.52 294.443 368.033 294.549 368.5C294.669 368.953 294.869 369.347 295.149 369.68C295.429 370.013 295.796 370.273 296.249 370.46C296.703 370.633 297.269 370.72 297.949 370.72C298.709 370.72 299.369 370.573 299.929 370.28C300.489 369.973 300.949 369.5 301.309 368.86H301.349V370.5H302.949ZM307.463 360.16V357.06H305.763V360.16H304.003V361.66H305.763V368.24C305.763 368.72 305.809 369.107 305.903 369.4C305.996 369.693 306.136 369.92 306.323 370.08C306.523 370.24 306.776 370.353 307.083 370.42C307.403 370.473 307.783 370.5 308.223 370.5H309.523V369H308.743C308.476 369 308.256 368.993 308.083 368.98C307.923 368.953 307.796 368.907 307.703 368.84C307.609 368.773 307.543 368.68 307.503 368.56C307.476 368.44 307.463 368.28 307.463 368.08V361.66H309.523V360.16H307.463ZM319.571 370.5V360.16H317.871V366C317.871 366.467 317.805 366.9 317.671 367.3C317.551 367.687 317.365 368.027 317.111 368.32C316.858 368.613 316.538 368.84 316.151 369C315.778 369.16 315.331 369.24 314.811 369.24C314.158 369.24 313.645 369.053 313.271 368.68C312.898 368.307 312.711 367.8 312.711 367.16V360.16H311.011V366.96C311.011 367.52 311.065 368.033 311.171 368.5C311.291 368.953 311.491 369.347 311.771 369.68C312.051 370.013 312.418 370.273 312.871 370.46C313.325 370.633 313.891 370.72 314.571 370.72C315.331 370.72 315.991 370.573 316.551 370.28C317.111 369.973 317.571 369.5 317.931 368.86H317.971V370.5H319.571ZM321.665 360.16V370.5H323.365V365.9C323.365 365.233 323.431 364.647 323.565 364.14C323.698 363.62 323.911 363.18 324.205 362.82C324.498 362.46 324.885 362.187 325.365 362C325.845 361.813 326.425 361.72 327.105 361.72V359.92C326.185 359.893 325.425 360.08 324.825 360.48C324.225 360.88 323.718 361.5 323.305 362.34H323.265V360.16H321.665ZM334.813 364.34H328.873C328.9 363.94 328.986 363.567 329.133 363.22C329.28 362.86 329.48 362.547 329.733 362.28C329.986 362.013 330.286 361.807 330.633 361.66C330.993 361.5 331.393 361.42 331.833 361.42C332.26 361.42 332.646 361.5 332.993 361.66C333.353 361.807 333.66 362.013 333.913 362.28C334.18 362.533 334.386 362.84 334.533 363.2C334.693 363.56 334.786 363.94 334.813 364.34ZM336.453 367.22H334.773C334.626 367.9 334.32 368.407 333.853 368.74C333.4 369.073 332.813 369.24 332.093 369.24C331.533 369.24 331.046 369.147 330.633 368.96C330.22 368.773 329.88 368.527 329.613 368.22C329.346 367.9 329.153 367.54 329.033 367.14C328.913 366.727 328.86 366.293 328.873 365.84H336.613C336.64 365.213 336.58 364.553 336.433 363.86C336.3 363.167 336.046 362.527 335.673 361.94C335.313 361.353 334.826 360.873 334.213 360.5C333.613 360.113 332.853 359.92 331.933 359.92C331.226 359.92 330.573 360.053 329.973 360.32C329.386 360.587 328.873 360.96 328.433 361.44C328.006 361.92 327.673 362.487 327.433 363.14C327.193 363.793 327.073 364.513 327.073 365.3C327.1 366.087 327.213 366.813 327.413 367.48C327.626 368.147 327.94 368.72 328.353 369.2C328.766 369.68 329.273 370.053 329.873 370.32C330.486 370.587 331.206 370.72 332.033 370.72C333.206 370.72 334.18 370.427 334.953 369.84C335.726 369.253 336.226 368.38 336.453 367.22ZM349.042 370.5L354.122 356.22H352.142L348.022 368.6H347.982L343.902 356.22H341.862L346.882 370.5H349.042ZM355.115 365.34C355.115 364.713 355.195 364.16 355.355 363.68C355.528 363.187 355.761 362.773 356.055 362.44C356.348 362.107 356.688 361.853 357.075 361.68C357.475 361.507 357.895 361.42 358.335 361.42C358.775 361.42 359.188 361.507 359.575 361.68C359.975 361.853 360.321 362.107 360.615 362.44C360.908 362.773 361.135 363.187 361.295 363.68C361.468 364.16 361.555 364.713 361.555 365.34C361.555 365.967 361.468 366.527 361.295 367.02C361.135 367.5 360.908 367.907 360.615 368.24C360.321 368.56 359.975 368.807 359.575 368.98C359.188 369.153 358.775 369.24 358.335 369.24C357.895 369.24 357.475 369.153 357.075 368.98C356.688 368.807 356.348 368.56 356.055 368.24C355.761 367.907 355.528 367.5 355.355 367.02C355.195 366.527 355.115 365.967 355.115 365.34ZM353.315 365.34C353.315 366.1 353.421 366.807 353.635 367.46C353.848 368.113 354.168 368.687 354.595 369.18C355.021 369.66 355.548 370.04 356.175 370.32C356.801 370.587 357.521 370.72 358.335 370.72C359.161 370.72 359.881 370.587 360.495 370.32C361.121 370.04 361.648 369.66 362.075 369.18C362.501 368.687 362.821 368.113 363.035 367.46C363.248 366.807 363.355 366.1 363.355 365.34C363.355 364.58 363.248 363.873 363.035 363.22C362.821 362.553 362.501 361.98 362.075 361.5C361.648 361.007 361.121 360.62 360.495 360.34C359.881 360.06 359.161 359.92 358.335 359.92C357.521 359.92 356.801 360.06 356.175 360.34C355.548 360.62 355.021 361.007 354.595 361.5C354.168 361.98 353.848 362.553 353.635 363.22C353.421 363.873 353.315 364.58 353.315 365.34ZM366.759 358.3V356.22H365.059V358.3H366.759ZM365.059 360.16V370.5H366.759V360.16H365.059ZM376.013 363.48H377.773C377.706 362.867 377.546 362.34 377.293 361.9C377.039 361.447 376.713 361.073 376.313 360.78C375.926 360.487 375.473 360.273 374.953 360.14C374.446 359.993 373.899 359.92 373.313 359.92C372.499 359.92 371.786 360.067 371.173 360.36C370.559 360.64 370.046 361.033 369.633 361.54C369.233 362.033 368.933 362.62 368.733 363.3C368.533 363.967 368.433 364.687 368.433 365.46C368.433 366.233 368.533 366.947 368.733 367.6C368.946 368.24 369.253 368.793 369.653 369.26C370.066 369.727 370.573 370.087 371.173 370.34C371.786 370.593 372.486 370.72 373.273 370.72C374.593 370.72 375.633 370.373 376.393 369.68C377.166 368.987 377.646 368 377.833 366.72H376.093C375.986 367.52 375.693 368.14 375.213 368.58C374.746 369.02 374.093 369.24 373.253 369.24C372.719 369.24 372.259 369.133 371.873 368.92C371.486 368.707 371.173 368.427 370.933 368.08C370.693 367.72 370.513 367.313 370.393 366.86C370.286 366.407 370.233 365.94 370.233 365.46C370.233 364.94 370.286 364.44 370.393 363.96C370.499 363.467 370.673 363.033 370.913 362.66C371.166 362.287 371.499 361.987 371.913 361.76C372.326 361.533 372.839 361.42 373.453 361.42C374.173 361.42 374.746 361.6 375.173 361.96C375.599 362.32 375.879 362.827 376.013 363.48ZM386.515 364.34H380.575C380.601 363.94 380.688 363.567 380.835 363.22C380.981 362.86 381.181 362.547 381.435 362.28C381.688 362.013 381.988 361.807 382.335 361.66C382.695 361.5 383.095 361.42 383.535 361.42C383.961 361.42 384.348 361.5 384.695 361.66C385.055 361.807 385.361 362.013 385.615 362.28C385.881 362.533 386.088 362.84 386.235 363.2C386.395 363.56 386.488 363.94 386.515 364.34ZM388.155 367.22H386.475C386.328 367.9 386.021 368.407 385.555 368.74C385.101 369.073 384.515 369.24 383.795 369.24C383.235 369.24 382.748 369.147 382.335 368.96C381.921 368.773 381.581 368.527 381.315 368.22C381.048 367.9 380.855 367.54 380.735 367.14C380.615 366.727 380.561 366.293 380.575 365.84H388.315C388.341 365.213 388.281 364.553 388.135 363.86C388.001 363.167 387.748 362.527 387.375 361.94C387.015 361.353 386.528 360.873 385.915 360.5C385.315 360.113 384.555 359.92 383.635 359.92C382.928 359.92 382.275 360.053 381.675 360.32C381.088 360.587 380.575 360.96 380.135 361.44C379.708 361.92 379.375 362.487 379.135 363.14C378.895 363.793 378.775 364.513 378.775 365.3C378.801 366.087 378.915 366.813 379.115 367.48C379.328 368.147 379.641 368.72 380.055 369.2C380.468 369.68 380.975 370.053 381.575 370.32C382.188 370.587 382.908 370.72 383.735 370.72C384.908 370.72 385.881 370.427 386.655 369.84C387.428 369.253 387.928 368.38 388.155 367.22ZM390.717 367.24H389.017C389.044 367.88 389.177 368.427 389.417 368.88C389.657 369.32 389.977 369.68 390.377 369.96C390.777 370.227 391.237 370.42 391.757 370.54C392.277 370.66 392.824 370.72 393.397 370.72C393.917 370.72 394.437 370.667 394.957 370.56C395.49 370.467 395.964 370.293 396.377 370.04C396.804 369.787 397.144 369.453 397.397 369.04C397.664 368.627 397.797 368.107 397.797 367.48C397.797 366.987 397.697 366.573 397.497 366.24C397.31 365.907 397.057 365.633 396.737 365.42C396.43 365.193 396.07 365.013 395.657 364.88C395.257 364.747 394.844 364.633 394.417 364.54C394.017 364.447 393.617 364.36 393.217 364.28C392.817 364.187 392.457 364.08 392.137 363.96C391.817 363.827 391.55 363.667 391.337 363.48C391.137 363.28 391.037 363.033 391.037 362.74C391.037 362.473 391.104 362.26 391.237 362.1C391.37 361.927 391.544 361.793 391.757 361.7C391.97 361.593 392.204 361.52 392.457 361.48C392.724 361.44 392.984 361.42 393.237 361.42C393.517 361.42 393.79 361.453 394.057 361.52C394.337 361.573 394.59 361.667 394.817 361.8C395.044 361.933 395.23 362.113 395.377 362.34C395.524 362.553 395.61 362.827 395.637 363.16H397.337C397.297 362.533 397.164 362.013 396.937 361.6C396.71 361.173 396.404 360.84 396.017 360.6C395.644 360.347 395.21 360.173 394.717 360.08C394.224 359.973 393.684 359.92 393.097 359.92C392.644 359.92 392.184 359.98 391.717 360.1C391.264 360.207 390.85 360.38 390.477 360.62C390.117 360.847 389.817 361.147 389.577 361.52C389.35 361.893 389.237 362.34 389.237 362.86C389.237 363.527 389.404 364.047 389.737 364.42C390.07 364.793 390.484 365.087 390.977 365.3C391.484 365.5 392.03 365.66 392.617 365.78C393.204 365.887 393.744 366.013 394.237 366.16C394.744 366.293 395.164 366.473 395.497 366.7C395.83 366.927 395.997 367.26 395.997 367.7C395.997 368.02 395.917 368.287 395.757 368.5C395.597 368.7 395.39 368.853 395.137 368.96C394.897 369.067 394.63 369.14 394.337 369.18C394.044 369.22 393.764 369.24 393.497 369.24C393.15 369.24 392.81 369.207 392.477 369.14C392.157 369.073 391.864 368.967 391.597 368.82C391.344 368.66 391.137 368.453 390.977 368.2C390.817 367.933 390.73 367.613 390.717 367.24Z" fill="black"/>
</svg>
