<svg width="159" height="37" viewBox="0 0 159 37" fill="none" xmlns="http://www.w3.org/2000/svg">
<g clip-path="url(#clip0_24_432)">
<path d="M57.6356 25.0386L58.2793 27.3303H59.8243V17.6487H51.7648V19.7086H57.6356C57.6699 20.5497 57.5583 21.3394 57.3008 22.0775C57.0434 22.7985 56.6571 23.4336 56.1421 23.9829C55.6443 24.5151 55.0263 24.9356 54.2882 25.2446C53.5501 25.5536 52.7003 25.7081 51.739 25.7081C50.7091 25.7081 49.7993 25.5107 49.0096 25.1159C48.2372 24.7039 47.5849 24.1632 47.0527 23.4937C46.5206 22.8071 46.1172 22.026 45.8425 21.1505C45.5679 20.2579 45.4305 19.3309 45.4305 18.3696C45.4305 17.3912 45.5507 16.4385 45.791 15.5115C46.0313 14.5674 46.4004 13.7348 46.8982 13.0138C47.4132 12.2757 48.0655 11.6835 48.8552 11.2372C49.662 10.7908 50.6233 10.5677 51.739 10.5677C52.4257 10.5677 53.0694 10.6535 53.6702 10.8252C54.2882 10.9797 54.8375 11.22 55.3182 11.5461C55.7988 11.8723 56.2022 12.2929 56.5284 12.8078C56.8545 13.3057 57.0777 13.9065 57.1978 14.6103H59.644C59.4723 13.5288 59.1462 12.6104 58.6655 11.8551C58.2021 11.0827 57.6184 10.4475 56.9146 9.9497C56.228 9.45188 55.4383 9.0914 54.5457 8.86824C53.6702 8.62791 52.7347 8.50775 51.739 8.50775C50.2799 8.50775 49.0011 8.78241 47.9024 9.33172C46.821 9.86387 45.9112 10.5848 45.173 11.4946C44.4521 12.4044 43.9028 13.4687 43.5251 14.6875C43.1646 15.8891 42.9844 17.1594 42.9844 18.4984C42.9844 19.7 43.1818 20.8587 43.5766 21.9745C43.9714 23.0903 44.5465 24.0773 45.3018 24.9356C46.0571 25.7939 46.9755 26.4806 48.0569 26.9956C49.1384 27.4934 50.3658 27.7423 51.739 27.7423C52.8205 27.7423 53.8934 27.5363 54.9577 27.1243C56.022 26.6952 56.9146 25.9999 57.6356 25.0386Z" fill="black"/>
<path d="M71.7921 19.3996H64.1447C64.179 18.8846 64.2906 18.404 64.4794 17.9577C64.6682 17.4942 64.9257 17.0908 65.2519 16.7474C65.578 16.4041 65.9643 16.1381 66.4106 15.9492C66.8741 15.7432 67.389 15.6402 67.9555 15.6402C68.5048 15.6402 69.0027 15.7432 69.449 15.9492C69.9125 16.1381 70.3073 16.4041 70.6334 16.7474C70.9767 17.0736 71.2428 17.4684 71.4316 17.9319C71.6376 18.3954 71.7578 18.8846 71.7921 19.3996ZM73.9035 23.1075H71.7406C71.5518 23.9829 71.157 24.6352 70.5562 25.0644C69.9725 25.4935 69.2172 25.7081 68.2903 25.7081C67.5693 25.7081 66.9427 25.588 66.4106 25.3476C65.8784 25.1073 65.4407 24.7897 65.0974 24.3949C64.7541 23.9829 64.5051 23.5194 64.3506 23.0045C64.1962 22.4723 64.1275 21.9144 64.1447 21.3308H74.1095C74.1439 20.524 74.0666 19.6743 73.8778 18.7816C73.7061 17.889 73.38 17.065 72.8993 16.3097C72.4358 15.5544 71.8093 14.9364 71.0196 14.4558C70.2472 13.958 69.2687 13.7091 68.0843 13.7091C67.1745 13.7091 66.3333 13.8807 65.5609 14.224C64.8055 14.5674 64.1447 15.048 63.5782 15.666C63.0289 16.284 62.5997 17.0135 62.2907 17.8547C61.9817 18.6958 61.8272 19.6228 61.8272 20.6356C61.8616 21.6483 62.0075 22.5839 62.265 23.4422C62.5396 24.3005 62.943 25.0386 63.4752 25.6566C64.0073 26.2746 64.6596 26.7552 65.4321 27.0986C66.2217 27.4419 67.1487 27.6135 68.213 27.6135C69.7236 27.6135 70.9767 27.2359 71.9724 26.4806C72.968 25.7253 73.6117 24.6009 73.9035 23.1075Z" fill="black"/>
<path d="M75.8633 14.018V27.3303H78.052V19.8116C78.052 19.2108 78.1292 18.6615 78.2837 18.1636C78.4554 17.6487 78.7043 17.2023 79.0304 16.8247C79.3566 16.447 79.76 16.1552 80.2406 15.9492C80.7384 15.7432 81.3221 15.6402 81.9916 15.6402C82.8327 15.6402 83.4936 15.8806 83.9742 16.3612C84.4549 16.8419 84.6952 17.4942 84.6952 18.3181V27.3303H86.8839V18.5756C86.8839 17.8547 86.8066 17.2023 86.6521 16.6187C86.5148 16.0179 86.2659 15.5029 85.9054 15.0738C85.5449 14.6446 85.0729 14.3099 84.4892 14.0695C83.9056 13.8292 83.176 13.7091 82.3005 13.7091C80.3265 13.7091 78.8845 14.5159 77.9747 16.1295H77.9232V14.018H75.8633Z" fill="black"/>
<path d="M98.694 18.2924H100.96C100.874 17.5028 100.668 16.8247 100.342 16.2582C100.016 15.6746 99.5953 15.1939 99.0803 14.8163C98.5825 14.4386 97.9988 14.164 97.3293 13.9923C96.677 13.8035 95.9732 13.7091 95.2179 13.7091C94.1708 13.7091 93.2524 13.8979 92.4628 14.2755C91.6731 14.636 91.0123 15.1424 90.4801 15.7947C89.9651 16.4299 89.5789 17.1852 89.3214 18.0606C89.0639 18.9189 88.9352 19.8459 88.9352 20.8415C88.9352 21.8372 89.0639 22.7556 89.3214 23.5967C89.5961 24.4207 89.9909 25.1331 90.5059 25.7339C91.038 26.3347 91.6903 26.7982 92.4628 27.1243C93.2524 27.4505 94.1536 27.6135 95.1664 27.6135C96.8659 27.6135 98.2048 27.1672 99.1833 26.2746C100.179 25.382 100.797 24.1117 101.037 22.4637H98.7971C98.6597 23.4937 98.2821 24.2919 97.6641 24.8584C97.0633 25.4249 96.2221 25.7081 95.1407 25.7081C94.454 25.7081 93.8618 25.5708 93.364 25.2961C92.8662 25.0215 92.4628 24.661 92.1538 24.2147C91.8448 23.7512 91.6131 23.2276 91.4586 22.644C91.3212 22.0603 91.2526 21.4595 91.2526 20.8415C91.2526 20.1721 91.3212 19.5283 91.4586 18.9104C91.5959 18.2752 91.8191 17.7173 92.128 17.2367C92.4542 16.756 92.8833 16.3698 93.4155 16.078C93.9476 15.7861 94.6085 15.6402 95.3982 15.6402C96.3251 15.6402 97.0633 15.872 97.6126 16.3355C98.1619 16.7989 98.5224 17.4513 98.694 18.2924Z" fill="black"/>
<path d="M114.764 27.2788C114.387 27.502 113.863 27.6135 113.194 27.6135C112.627 27.6135 112.172 27.4591 111.829 27.1501C111.503 26.8239 111.34 26.3003 111.34 25.5794C110.739 26.3003 110.035 26.8239 109.228 27.1501C108.439 27.4591 107.58 27.6135 106.653 27.6135C106.053 27.6135 105.477 27.5449 104.928 27.4076C104.396 27.2702 103.932 27.0556 103.538 26.7638C103.143 26.472 102.825 26.0944 102.585 25.6309C102.362 25.1502 102.25 24.5752 102.25 23.9057C102.25 23.1504 102.379 22.5324 102.636 22.0518C102.894 21.5711 103.229 21.1849 103.641 20.893C104.07 20.5841 104.55 20.3523 105.083 20.1978C105.632 20.0433 106.19 19.9146 106.756 19.8116C107.357 19.6914 107.924 19.6056 108.456 19.5541C109.005 19.4854 109.486 19.3996 109.898 19.2966C110.31 19.1764 110.636 19.0134 110.876 18.8074C111.116 18.5842 111.237 18.2666 111.237 17.8547C111.237 17.374 111.142 16.9878 110.953 16.6959C110.782 16.4041 110.55 16.181 110.258 16.0265C109.984 15.872 109.666 15.769 109.305 15.7175C108.962 15.666 108.619 15.6402 108.276 15.6402C107.349 15.6402 106.576 15.8205 105.958 16.181C105.34 16.5243 105.005 17.1852 104.954 18.1636H102.765C102.8 17.3397 102.971 16.6444 103.28 16.078C103.589 15.5115 104.001 15.0566 104.516 14.7133C105.031 14.3528 105.615 14.0953 106.267 13.9408C106.937 13.7863 107.649 13.7091 108.404 13.7091C109.005 13.7091 109.597 13.752 110.181 13.8378C110.782 13.9236 111.322 14.1039 111.803 14.3785C112.284 14.636 112.67 15.0051 112.962 15.4857C113.254 15.9664 113.4 16.593 113.4 17.3654V24.2147C113.4 24.7296 113.425 25.1073 113.477 25.3476C113.545 25.588 113.751 25.7081 114.095 25.7081C114.284 25.7081 114.507 25.6652 114.764 25.5794V27.2788ZM111.211 20.4553C110.936 20.6613 110.576 20.8158 110.129 20.9188C109.683 21.0046 109.211 21.0819 108.713 21.1505C108.233 21.202 107.743 21.2707 107.246 21.3565C106.748 21.4252 106.301 21.5454 105.907 21.717C105.512 21.8887 105.186 22.1376 104.928 22.4637C104.688 22.7727 104.568 23.2019 104.568 23.7512C104.568 24.1117 104.636 24.4207 104.774 24.6782C104.928 24.9185 105.117 25.1159 105.34 25.2704C105.58 25.4249 105.855 25.5365 106.164 25.6051C106.473 25.6738 106.799 25.7081 107.143 25.7081C107.864 25.7081 108.481 25.6137 108.996 25.4249C109.511 25.2189 109.932 24.97 110.258 24.6782C110.584 24.3692 110.825 24.043 110.979 23.6997C111.134 23.3392 111.211 23.0045 111.211 22.6955V20.4553Z" fill="black"/>
<path d="M117.625 23.1332H115.437C115.471 23.9572 115.643 24.661 115.952 25.2446C116.261 25.8111 116.673 26.2746 117.187 26.6351C117.702 26.9784 118.295 27.2273 118.964 27.3818C119.634 27.5363 120.337 27.6135 121.076 27.6135C121.745 27.6135 122.415 27.5449 123.084 27.4076C123.771 27.2874 124.38 27.0642 124.912 26.7381C125.462 26.4119 125.899 25.9828 126.225 25.4506C126.569 24.9185 126.74 24.249 126.74 23.4422C126.74 22.8071 126.612 22.2749 126.354 21.8458C126.114 21.4166 125.788 21.0647 125.376 20.79C124.981 20.4982 124.517 20.2665 123.985 20.0948C123.47 19.9232 122.938 19.7773 122.389 19.6571C121.874 19.5369 121.359 19.4253 120.844 19.3224C120.329 19.2022 119.865 19.0649 119.453 18.9104C119.041 18.7387 118.698 18.5327 118.423 18.2924C118.166 18.0349 118.037 17.7173 118.037 17.3397C118.037 16.9964 118.123 16.7217 118.295 16.5157C118.466 16.2925 118.69 16.1209 118.964 16.0007C119.239 15.8634 119.539 15.769 119.865 15.7175C120.209 15.666 120.543 15.6402 120.87 15.6402C121.23 15.6402 121.582 15.6832 121.925 15.769C122.286 15.8376 122.612 15.9578 122.904 16.1295C123.196 16.3011 123.436 16.5329 123.625 16.8247C123.814 17.0993 123.925 17.4513 123.959 17.8804H126.148C126.097 17.0736 125.925 16.4041 125.633 15.872C125.341 15.3227 124.947 14.8935 124.449 14.5845C123.968 14.2584 123.41 14.0352 122.775 13.9151C122.14 13.7777 121.445 13.7091 120.689 13.7091C120.106 13.7091 119.513 13.7863 118.913 13.9408C118.329 14.0781 117.797 14.3013 117.316 14.6103C116.853 14.9021 116.467 15.2883 116.158 15.769C115.866 16.2496 115.72 16.8247 115.72 17.4942C115.72 18.3525 115.934 19.0219 116.364 19.5026C116.793 19.9832 117.325 20.3609 117.96 20.6356C118.612 20.893 119.316 21.099 120.071 21.2535C120.827 21.3909 121.522 21.5539 122.157 21.7428C122.809 21.9144 123.35 22.1462 123.779 22.438C124.208 22.7298 124.423 23.159 124.423 23.7254C124.423 24.1374 124.32 24.4807 124.114 24.7554C123.908 25.0129 123.642 25.2103 123.316 25.3476C123.007 25.485 122.663 25.5794 122.286 25.6309C121.908 25.6824 121.548 25.7081 121.204 25.7081C120.758 25.7081 120.32 25.6652 119.891 25.5794C119.479 25.4935 119.101 25.3562 118.758 25.1674C118.432 24.9614 118.166 24.6953 117.96 24.3692C117.754 24.0258 117.642 23.6139 117.625 23.1332Z" fill="black"/>
<path d="M131.684 14.018V10.0269H129.496V14.018H127.23V15.9492H129.496V24.4207C129.496 25.0386 129.556 25.5365 129.676 25.9141C129.796 26.2918 129.976 26.5836 130.217 26.7896C130.474 26.9956 130.8 27.1415 131.195 27.2273C131.607 27.296 132.096 27.3303 132.663 27.3303H134.336V25.3991H133.332C132.989 25.3991 132.706 25.3905 132.482 25.3734C132.276 25.339 132.113 25.279 131.993 25.1931C131.873 25.1073 131.787 24.9871 131.736 24.8326C131.701 24.6782 131.684 24.4722 131.684 24.2147V15.9492H134.336V14.018H131.684Z" fill="black"/>
<path d="M145.497 19.3996H137.849C137.884 18.8846 137.995 18.404 138.184 17.9577C138.373 17.4942 138.63 17.0908 138.957 16.7474C139.283 16.4041 139.669 16.1381 140.115 15.9492C140.579 15.7432 141.094 15.6402 141.66 15.6402C142.209 15.6402 142.707 15.7432 143.154 15.9492C143.617 16.1381 144.012 16.4041 144.338 16.7474C144.681 17.0736 144.947 17.4684 145.136 17.9319C145.342 18.3954 145.462 18.8846 145.497 19.3996ZM147.608 23.1075H145.445C145.256 23.9829 144.862 24.6352 144.261 25.0644C143.677 25.4935 142.922 25.7081 141.995 25.7081C141.274 25.7081 140.647 25.588 140.115 25.3476C139.583 25.1073 139.145 24.7897 138.802 24.3949C138.459 23.9829 138.21 23.5194 138.055 23.0045C137.901 22.4723 137.832 21.9144 137.849 21.3308H147.814C147.849 20.524 147.771 19.6743 147.582 18.7816C147.411 17.889 147.085 17.065 146.604 16.3097C146.14 15.5544 145.514 14.9364 144.724 14.4558C143.952 13.958 142.973 13.7091 141.789 13.7091C140.879 13.7091 140.038 13.8807 139.265 14.224C138.51 14.5674 137.849 15.048 137.283 15.666C136.734 16.284 136.304 17.0135 135.995 17.8547C135.686 18.6958 135.532 19.6228 135.532 20.6356C135.566 21.6483 135.712 22.5839 135.97 23.4422C136.244 24.3005 136.648 25.0386 137.18 25.6566C137.712 26.2746 138.364 26.7552 139.137 27.0986C139.926 27.4419 140.853 27.6135 141.918 27.6135C143.428 27.6135 144.681 27.2359 145.677 26.4806C146.673 25.7253 147.316 24.6009 147.608 23.1075Z" fill="black"/>
<path d="M149.491 14.018V27.3303H151.679V21.408C151.679 20.5497 151.765 19.7944 151.937 19.1421C152.108 18.4726 152.383 17.9062 152.761 17.4427C153.138 16.9792 153.636 16.6273 154.254 16.387C154.872 16.1466 155.619 16.0265 156.494 16.0265V13.7091C155.31 13.6747 154.332 13.9151 153.559 14.43C152.787 14.945 152.134 15.7432 151.602 16.8247H151.551V14.018H149.491Z" fill="black"/>
<path d="M36 0.5H0V36.5H36V0.5Z" fill="#ADFF00"/>
<path d="M9.90039 21.2V15.8V10.4H15.3004H20.7004H26.1004H27.1004H31.6004V4.89999H27.1004H26.1004H20.7004H15.3004H9.90039H8.90039H4.40039V10.4V15.8V21.2V26.6V32.1H8.90039H9.90039H15.3004H20.7004H26.1004H27.1004H31.6004V26.6V21.2V15.8H28.3004H26.1004H20.7004H15.3004V21.2H20.7004H26.1004V26.6H20.7004H15.3004H9.90039V21.2Z" fill="#1400FF"/>
</g>
<defs>
<clipPath id="clip0_24_432">
<rect width="158.494" height="36" fill="white" transform="translate(0 0.5)"/>
</clipPath>
</defs>
</svg>
