<svg width="900" height="630" viewBox="0 0 900 630" fill="none" xmlns="http://www.w3.org/2000/svg">
<path d="M163.965 222.52L170.27 236.776L179.464 224.187L163.965 222.52ZM247.261 281.679L174.573 228.595L172.981 230.775L245.669 283.86L247.261 281.679Z" fill="black"/>
<path d="M133.465 300.52L146.965 308.314V292.725L133.465 300.52ZM243.465 299.17H145.615V301.87H243.465V299.17Z" fill="black"/>
<path fill-rule="evenodd" clip-rule="evenodd" d="M223.15 341.591L167.15 396.597L162.634 391.999L158.465 407.02L173.558 403.12L169.042 398.523L225.009 343.55L223.15 341.591ZM245.492 323.431L250.911 318.108L249.019 316.182L243.633 321.472L245.492 323.431Z" fill="black"/>
<path d="M359.215 300.52L345.715 292.725V308.314L359.215 300.52ZM292.09 301.87H347.065V299.17H292.09V301.87Z" fill="black"/>
<path d="M543.275 300.52L529.775 292.725V308.314L543.275 300.52ZM425.654 301.87H531.125V299.17H425.654V301.87Z" fill="black"/>
<path d="M544.775 212.52L529.286 214.272L538.548 226.81L544.775 212.52ZM426.456 301.605L535.805 220.825L534.201 218.653L424.852 299.434L426.456 301.605Z" fill="black"/>
<path d="M671.275 246.52L662.463 233.661L655.733 247.722L671.275 246.52ZM600.693 214.237L659.733 242.492L660.899 240.057L601.858 211.802L600.693 214.237Z" fill="black"/>
<path d="M799.775 292.02L790.016 279.864L784.369 294.393L799.775 292.02ZM726.286 264.903L787.962 288.876L788.94 286.359L727.264 262.386L726.286 264.903Z" fill="black"/>
<path d="M800.275 310.02L784.704 310.753L793.125 323.871L800.275 310.02ZM727.005 358.656L790.78 317.719L789.321 315.447L725.546 356.383L727.005 358.656Z" fill="black"/>
<path d="M670.275 258.52L654.71 259.374L663.233 272.426L670.275 258.52ZM602.013 304.701L660.84 266.292L659.364 264.032L600.537 302.44L602.013 304.701Z" fill="black"/>
<path d="M674.275 372.52L658.813 370.541L664.831 384.921L674.275 372.52ZM601.797 404.316L663.589 378.455L662.546 375.965L600.754 401.825L601.797 404.316Z" fill="black"/>
<path d="M674.275 358.02L668.114 343.7L658.794 356.196L674.275 358.02ZM600.468 304.652L663.729 351.837L665.343 349.673L602.083 302.488L600.468 304.652Z" fill="black"/>
<path d="M547.275 392.52L541.211 378.159L531.807 390.591L547.275 392.52ZM424.84 301.596L536.771 386.266L538.4 384.113L426.469 299.443L424.84 301.596Z" fill="black"/>
<circle cx="575.856" cy="203.87" r="19.35" fill="#C6C6C6"/>
<path d="M564.916 229.068V241.92H573.43V240.48H566.626V229.068H564.916ZM575.926 230.94V229.068H574.396V230.94H575.926ZM574.396 232.614V241.92H575.926V232.614H574.396ZM578.566 233.964V241.92H580.096V233.964H581.896V232.614H580.096V231.318C580.096 230.91 580.198 230.634 580.402 230.49C580.606 230.346 580.894 230.274 581.266 230.274C581.398 230.274 581.542 230.286 581.698 230.31C581.854 230.322 581.998 230.352 582.13 230.4V229.068C581.986 229.02 581.818 228.984 581.626 228.96C581.446 228.936 581.284 228.924 581.14 228.924C580.3 228.924 579.658 229.122 579.214 229.518C578.782 229.902 578.566 230.472 578.566 231.228V232.614H577V233.964H578.566ZM589.364 236.376H584.018C584.042 236.016 584.12 235.68 584.252 235.368C584.384 235.044 584.564 234.762 584.792 234.522C585.02 234.282 585.29 234.096 585.602 233.964C585.926 233.82 586.286 233.748 586.682 233.748C587.066 233.748 587.414 233.82 587.726 233.964C588.05 234.096 588.326 234.282 588.554 234.522C588.794 234.75 588.98 235.026 589.112 235.35C589.256 235.674 589.34 236.016 589.364 236.376ZM590.84 238.968H589.328C589.196 239.58 588.92 240.036 588.5 240.336C588.092 240.636 587.564 240.786 586.916 240.786C586.412 240.786 585.974 240.702 585.602 240.534C585.23 240.366 584.924 240.144 584.684 239.868C584.444 239.58 584.27 239.256 584.162 238.896C584.054 238.524 584.006 238.134 584.018 237.726H590.984C591.008 237.162 590.954 236.568 590.822 235.944C590.702 235.32 590.474 234.744 590.138 234.216C589.814 233.688 589.376 233.256 588.824 232.92C588.284 232.572 587.6 232.398 586.772 232.398C586.136 232.398 585.548 232.518 585.008 232.758C584.48 232.998 584.018 233.334 583.622 233.766C583.238 234.198 582.938 234.708 582.722 235.296C582.506 235.884 582.398 236.532 582.398 237.24C582.422 237.948 582.524 238.602 582.704 239.202C582.896 239.802 583.178 240.318 583.55 240.75C583.922 241.182 584.378 241.518 584.918 241.758C585.47 241.998 586.118 242.118 586.862 242.118C587.918 242.118 588.794 241.854 589.49 241.326C590.186 240.798 590.636 240.012 590.84 238.968Z" fill="black"/>
<circle cx="575.856" cy="299.745" r="19.35" fill="#C6C6C6"/>
<path d="M545.452 324.943V337.795H554.38V336.355H547.162V331.909H553.84V330.469H547.162V326.383H554.326V324.943H545.452ZM558.346 332.899L554.854 337.795H556.708L559.3 333.943L561.892 337.795H563.854L560.254 332.773L563.458 328.489H561.622L559.3 331.747L557.068 328.489H555.106L558.346 332.899ZM571.118 331.477H572.702C572.642 330.925 572.498 330.451 572.27 330.055C572.042 329.647 571.748 329.311 571.388 329.047C571.04 328.783 570.632 328.591 570.164 328.471C569.708 328.339 569.216 328.273 568.688 328.273C567.956 328.273 567.314 328.405 566.762 328.669C566.21 328.921 565.748 329.275 565.376 329.731C565.016 330.175 564.746 330.703 564.566 331.315C564.386 331.915 564.296 332.563 564.296 333.259C564.296 333.955 564.386 334.597 564.566 335.185C564.758 335.761 565.034 336.259 565.394 336.679C565.766 337.099 566.222 337.423 566.762 337.651C567.314 337.879 567.944 337.993 568.652 337.993C569.84 337.993 570.776 337.681 571.46 337.057C572.156 336.433 572.588 335.545 572.756 334.393H571.19C571.094 335.113 570.83 335.671 570.398 336.067C569.978 336.463 569.39 336.661 568.634 336.661C568.154 336.661 567.74 336.565 567.392 336.373C567.044 336.181 566.762 335.929 566.546 335.617C566.33 335.293 566.168 334.927 566.06 334.519C565.964 334.111 565.916 333.691 565.916 333.259C565.916 332.791 565.964 332.341 566.06 331.909C566.156 331.465 566.312 331.075 566.528 330.739C566.756 330.403 567.056 330.133 567.428 329.929C567.8 329.725 568.262 329.623 568.814 329.623C569.462 329.623 569.978 329.785 570.362 330.109C570.746 330.433 570.998 330.889 571.118 331.477ZM582.352 337.759C582.088 337.915 581.722 337.993 581.254 337.993C580.858 337.993 580.54 337.885 580.3 337.669C580.072 337.441 579.958 337.075 579.958 336.571C579.538 337.075 579.046 337.441 578.482 337.669C577.93 337.885 577.33 337.993 576.682 337.993C576.262 337.993 575.86 337.945 575.476 337.849C575.104 337.753 574.78 337.603 574.504 337.399C574.228 337.195 574.006 336.931 573.838 336.607C573.682 336.271 573.604 335.869 573.604 335.401C573.604 334.873 573.694 334.441 573.874 334.105C574.054 333.769 574.288 333.499 574.576 333.295C574.876 333.079 575.212 332.917 575.584 332.809C575.968 332.701 576.358 332.611 576.754 332.539C577.174 332.455 577.57 332.395 577.942 332.359C578.326 332.311 578.662 332.251 578.95 332.179C579.238 332.095 579.466 331.981 579.634 331.837C579.802 331.681 579.886 331.459 579.886 331.171C579.886 330.835 579.82 330.565 579.688 330.361C579.568 330.157 579.406 330.001 579.202 329.893C579.01 329.785 578.788 329.713 578.536 329.677C578.296 329.641 578.056 329.623 577.816 329.623C577.168 329.623 576.628 329.749 576.196 330.001C575.764 330.241 575.53 330.703 575.494 331.387H573.964C573.988 330.811 574.108 330.325 574.324 329.929C574.54 329.533 574.828 329.215 575.188 328.975C575.548 328.723 575.956 328.543 576.412 328.435C576.88 328.327 577.378 328.273 577.906 328.273C578.326 328.273 578.74 328.303 579.148 328.363C579.568 328.423 579.946 328.549 580.282 328.741C580.618 328.921 580.888 329.179 581.092 329.515C581.296 329.851 581.398 330.289 581.398 330.829V335.617C581.398 335.977 581.416 336.241 581.452 336.409C581.5 336.577 581.644 336.661 581.884 336.661C582.016 336.661 582.172 336.631 582.352 336.571V337.759ZM579.868 332.989C579.676 333.133 579.424 333.241 579.112 333.313C578.8 333.373 578.47 333.427 578.122 333.475C577.786 333.511 577.444 333.559 577.096 333.619C576.748 333.667 576.436 333.751 576.16 333.871C575.884 333.991 575.656 334.165 575.476 334.393C575.308 334.609 575.224 334.909 575.224 335.293C575.224 335.545 575.272 335.761 575.368 335.941C575.476 336.109 575.608 336.247 575.764 336.355C575.932 336.463 576.124 336.541 576.34 336.589C576.556 336.637 576.784 336.661 577.024 336.661C577.528 336.661 577.96 336.595 578.32 336.463C578.68 336.319 578.974 336.145 579.202 335.941C579.43 335.725 579.598 335.497 579.706 335.257C579.814 335.005 579.868 334.771 579.868 334.555V332.989ZM583.47 328.489V341.341H585V336.553H585.036C585.204 336.829 585.408 337.063 585.648 337.255C585.9 337.435 586.164 337.579 586.44 337.687C586.716 337.795 586.992 337.873 587.268 337.921C587.556 337.969 587.814 337.993 588.042 337.993C588.75 337.993 589.368 337.867 589.896 337.615C590.436 337.363 590.88 337.021 591.228 336.589C591.588 336.145 591.852 335.629 592.02 335.041C592.2 334.453 592.29 333.829 592.29 333.169C592.29 332.509 592.2 331.885 592.02 331.297C591.84 330.709 591.57 330.193 591.21 329.749C590.862 329.293 590.418 328.933 589.878 328.669C589.35 328.405 588.726 328.273 588.006 328.273C587.358 328.273 586.764 328.393 586.224 328.633C585.684 328.861 585.288 329.233 585.036 329.749H585V328.489H583.47ZM590.67 333.061C590.67 333.517 590.622 333.961 590.526 334.393C590.43 334.825 590.274 335.209 590.058 335.545C589.842 335.881 589.554 336.151 589.194 336.355C588.846 336.559 588.408 336.661 587.88 336.661C587.352 336.661 586.902 336.565 586.53 336.373C586.158 336.169 585.852 335.905 585.612 335.581C585.384 335.257 585.216 334.885 585.108 334.465C585 334.033 584.946 333.589 584.946 333.133C584.946 332.701 584.994 332.275 585.09 331.855C585.198 331.435 585.366 331.063 585.594 330.739C585.822 330.403 586.116 330.133 586.476 329.929C586.836 329.725 587.274 329.623 587.79 329.623C588.282 329.623 588.708 329.719 589.068 329.911C589.44 330.103 589.74 330.361 589.968 330.685C590.208 331.009 590.382 331.381 590.49 331.801C590.61 332.209 590.67 332.629 590.67 333.061ZM600.188 332.251H594.842C594.866 331.891 594.944 331.555 595.076 331.243C595.208 330.919 595.388 330.637 595.616 330.397C595.844 330.157 596.114 329.971 596.426 329.839C596.75 329.695 597.11 329.623 597.506 329.623C597.89 329.623 598.238 329.695 598.55 329.839C598.874 329.971 599.15 330.157 599.378 330.397C599.618 330.625 599.804 330.901 599.936 331.225C600.08 331.549 600.164 331.891 600.188 332.251ZM601.664 334.843H600.152C600.02 335.455 599.744 335.911 599.324 336.211C598.916 336.511 598.388 336.661 597.74 336.661C597.236 336.661 596.798 336.577 596.426 336.409C596.054 336.241 595.748 336.019 595.508 335.743C595.268 335.455 595.094 335.131 594.986 334.771C594.878 334.399 594.83 334.009 594.842 333.601H601.808C601.832 333.037 601.778 332.443 601.646 331.819C601.526 331.195 601.298 330.619 600.962 330.091C600.638 329.563 600.2 329.131 599.648 328.795C599.108 328.447 598.424 328.273 597.596 328.273C596.96 328.273 596.372 328.393 595.832 328.633C595.304 328.873 594.842 329.209 594.446 329.641C594.062 330.073 593.762 330.583 593.546 331.171C593.33 331.759 593.222 332.407 593.222 333.115C593.246 333.823 593.348 334.477 593.528 335.077C593.72 335.677 594.002 336.193 594.374 336.625C594.746 337.057 595.202 337.393 595.742 337.633C596.294 337.873 596.942 337.993 597.686 337.993C598.742 337.993 599.618 337.729 600.314 337.201C601.01 336.673 601.46 335.887 601.664 334.843ZM603.97 334.861H602.44C602.464 335.437 602.584 335.929 602.8 336.337C603.016 336.733 603.304 337.057 603.664 337.309C604.024 337.549 604.438 337.723 604.906 337.831C605.374 337.939 605.866 337.993 606.382 337.993C606.85 337.993 607.318 337.945 607.786 337.849C608.266 337.765 608.692 337.609 609.064 337.381C609.448 337.153 609.754 336.853 609.982 336.481C610.222 336.109 610.342 335.641 610.342 335.077C610.342 334.633 610.252 334.261 610.072 333.961C609.904 333.661 609.676 333.415 609.388 333.223C609.112 333.019 608.788 332.857 608.416 332.737C608.056 332.617 607.684 332.515 607.3 332.431C606.94 332.347 606.58 332.269 606.22 332.197C605.86 332.113 605.536 332.017 605.248 331.909C604.96 331.789 604.72 331.645 604.528 331.477C604.348 331.297 604.258 331.075 604.258 330.811C604.258 330.571 604.318 330.379 604.438 330.235C604.558 330.079 604.714 329.959 604.906 329.875C605.098 329.779 605.308 329.713 605.536 329.677C605.776 329.641 606.01 329.623 606.238 329.623C606.49 329.623 606.736 329.653 606.976 329.713C607.228 329.761 607.456 329.845 607.66 329.965C607.864 330.085 608.032 330.247 608.164 330.451C608.296 330.643 608.374 330.889 608.398 331.189H609.928C609.892 330.625 609.772 330.157 609.568 329.785C609.364 329.401 609.088 329.101 608.74 328.885C608.404 328.657 608.014 328.501 607.57 328.417C607.126 328.321 606.64 328.273 606.112 328.273C605.704 328.273 605.29 328.327 604.87 328.435C604.462 328.531 604.09 328.687 603.754 328.903C603.43 329.107 603.16 329.377 602.944 329.713C602.74 330.049 602.638 330.451 602.638 330.919C602.638 331.519 602.788 331.987 603.088 332.323C603.388 332.659 603.76 332.923 604.204 333.115C604.66 333.295 605.152 333.439 605.68 333.547C606.208 333.643 606.694 333.757 607.138 333.889C607.594 334.009 607.972 334.171 608.272 334.375C608.572 334.579 608.722 334.879 608.722 335.275C608.722 335.563 608.65 335.803 608.506 335.995C608.362 336.175 608.176 336.313 607.948 336.409C607.732 336.505 607.492 336.571 607.228 336.607C606.964 336.643 606.712 336.661 606.472 336.661C606.16 336.661 605.854 336.631 605.554 336.571C605.266 336.511 605.002 336.415 604.762 336.283C604.534 336.139 604.348 335.953 604.204 335.725C604.06 335.485 603.982 335.197 603.97 334.861Z" fill="black"/>
<circle cx="395.045" cy="299.745" r="19.35" fill="#C6C6C6"/>
<path d="M380.675 324.943V337.795H382.385V324.943H380.675ZM384.649 328.489V337.795H386.179V332.539C386.179 332.119 386.233 331.735 386.341 331.387C386.461 331.027 386.635 330.715 386.863 330.451C387.091 330.187 387.373 329.983 387.709 329.839C388.057 329.695 388.465 329.623 388.933 329.623C389.521 329.623 389.983 329.791 390.319 330.127C390.655 330.463 390.823 330.919 390.823 331.495V337.795H392.353V331.675C392.353 331.171 392.299 330.715 392.191 330.307C392.095 329.887 391.921 329.527 391.669 329.227C391.417 328.927 391.087 328.693 390.679 328.525C390.271 328.357 389.761 328.273 389.149 328.273C387.769 328.273 386.761 328.837 386.125 329.965H386.089V328.489H384.649ZM396.415 328.489V325.699H394.885V328.489H393.301V329.839H394.885V335.761C394.885 336.193 394.927 336.541 395.011 336.805C395.095 337.069 395.221 337.273 395.389 337.417C395.569 337.561 395.797 337.663 396.073 337.723C396.361 337.771 396.703 337.795 397.099 337.795H398.269V336.445H397.567C397.327 336.445 397.129 336.439 396.973 336.427C396.829 336.403 396.715 336.361 396.631 336.301C396.547 336.241 396.487 336.157 396.451 336.049C396.427 335.941 396.415 335.797 396.415 335.617V329.839H398.269V328.489H396.415ZM399.555 328.489V337.795H401.085V333.655C401.085 333.055 401.145 332.527 401.265 332.071C401.385 331.603 401.577 331.207 401.841 330.883C402.105 330.559 402.453 330.313 402.885 330.145C403.317 329.977 403.839 329.893 404.451 329.893V328.273C403.623 328.249 402.939 328.417 402.399 328.777C401.859 329.137 401.403 329.695 401.031 330.451H400.995V328.489H399.555ZM406.043 333.151C406.043 332.587 406.115 332.089 406.259 331.657C406.415 331.213 406.625 330.841 406.889 330.541C407.153 330.241 407.459 330.013 407.807 329.857C408.167 329.701 408.545 329.623 408.941 329.623C409.337 329.623 409.709 329.701 410.057 329.857C410.417 330.013 410.729 330.241 410.993 330.541C411.257 330.841 411.461 331.213 411.605 331.657C411.761 332.089 411.839 332.587 411.839 333.151C411.839 333.715 411.761 334.219 411.605 334.663C411.461 335.095 411.257 335.461 410.993 335.761C410.729 336.049 410.417 336.271 410.057 336.427C409.709 336.583 409.337 336.661 408.941 336.661C408.545 336.661 408.167 336.583 407.807 336.427C407.459 336.271 407.153 336.049 406.889 335.761C406.625 335.461 406.415 335.095 406.259 334.663C406.115 334.219 406.043 333.715 406.043 333.151ZM404.423 333.151C404.423 333.835 404.519 334.471 404.711 335.059C404.903 335.647 405.191 336.163 405.575 336.607C405.959 337.039 406.433 337.381 406.997 337.633C407.561 337.873 408.209 337.993 408.941 337.993C409.685 337.993 410.333 337.873 410.885 337.633C411.449 337.381 411.923 337.039 412.307 336.607C412.691 336.163 412.979 335.647 413.171 335.059C413.363 334.471 413.459 333.835 413.459 333.151C413.459 332.467 413.363 331.831 413.171 331.243C412.979 330.643 412.691 330.127 412.307 329.695C411.923 329.251 411.449 328.903 410.885 328.651C410.333 328.399 409.685 328.273 408.941 328.273C408.209 328.273 407.561 328.399 406.997 328.651C406.433 328.903 405.959 329.251 405.575 329.695C405.191 330.127 404.903 330.643 404.711 331.243C404.519 331.831 404.423 332.467 404.423 333.151Z" fill="black"/>
<circle cx="702.045" cy="366.969" r="19.35" fill="#C6C6C6"/>
<path d="M681.35 396.038H683.06C682.964 395.354 682.76 394.754 682.448 394.238C682.136 393.71 681.746 393.272 681.278 392.924C680.81 392.576 680.276 392.312 679.676 392.132C679.076 391.952 678.44 391.862 677.768 391.862C676.784 391.862 675.908 392.042 675.14 392.402C674.384 392.75 673.748 393.23 673.232 393.842C672.728 394.454 672.344 395.174 672.08 396.002C671.816 396.818 671.684 397.694 671.684 398.63C671.684 399.566 671.804 400.442 672.044 401.258C672.296 402.074 672.668 402.782 673.16 403.382C673.652 403.982 674.27 404.456 675.014 404.804C675.758 405.14 676.628 405.308 677.624 405.308C679.268 405.308 680.564 404.858 681.512 403.958C682.46 403.058 683.018 401.798 683.186 400.178H681.476C681.44 400.706 681.332 401.198 681.152 401.654C680.972 402.11 680.72 402.506 680.396 402.842C680.084 403.166 679.706 403.424 679.262 403.616C678.83 403.796 678.332 403.886 677.768 403.886C677 403.886 676.34 403.742 675.788 403.454C675.236 403.166 674.78 402.782 674.42 402.302C674.072 401.81 673.814 401.24 673.646 400.592C673.478 399.932 673.394 399.236 673.394 398.504C673.394 397.832 673.478 397.184 673.646 396.56C673.814 395.936 674.072 395.384 674.42 394.904C674.78 394.412 675.23 394.022 675.77 393.734C676.322 393.446 676.982 393.302 677.75 393.302C678.65 393.302 679.424 393.53 680.072 393.986C680.732 394.442 681.158 395.126 681.35 396.038ZM684.638 395.714V405.02H686.168V400.88C686.168 400.28 686.228 399.752 686.348 399.296C686.468 398.828 686.66 398.432 686.924 398.108C687.188 397.784 687.536 397.538 687.968 397.37C688.4 397.202 688.922 397.118 689.534 397.118V395.498C688.706 395.474 688.022 395.642 687.482 396.002C686.942 396.362 686.486 396.92 686.114 397.676H686.078V395.714H684.638ZM696.472 399.476H691.126C691.15 399.116 691.228 398.78 691.36 398.468C691.492 398.144 691.672 397.862 691.9 397.622C692.128 397.382 692.398 397.196 692.71 397.064C693.034 396.92 693.394 396.848 693.79 396.848C694.174 396.848 694.522 396.92 694.834 397.064C695.158 397.196 695.434 397.382 695.662 397.622C695.902 397.85 696.088 398.126 696.22 398.45C696.364 398.774 696.448 399.116 696.472 399.476ZM697.948 402.068H696.436C696.304 402.68 696.028 403.136 695.608 403.436C695.2 403.736 694.672 403.886 694.024 403.886C693.52 403.886 693.082 403.802 692.71 403.634C692.338 403.466 692.032 403.244 691.792 402.968C691.552 402.68 691.378 402.356 691.27 401.996C691.162 401.624 691.114 401.234 691.126 400.826H698.092C698.116 400.262 698.062 399.668 697.93 399.044C697.81 398.42 697.582 397.844 697.246 397.316C696.922 396.788 696.484 396.356 695.932 396.02C695.392 395.672 694.708 395.498 693.88 395.498C693.244 395.498 692.656 395.618 692.116 395.858C691.588 396.098 691.126 396.434 690.73 396.866C690.346 397.298 690.046 397.808 689.83 398.396C689.614 398.984 689.506 399.632 689.506 400.34C689.53 401.048 689.632 401.702 689.812 402.302C690.004 402.902 690.286 403.418 690.658 403.85C691.03 404.282 691.486 404.618 692.026 404.858C692.578 405.098 693.226 405.218 693.97 405.218C695.026 405.218 695.902 404.954 696.598 404.426C697.294 403.898 697.744 403.112 697.948 402.068ZM707.562 404.984C707.298 405.14 706.932 405.218 706.464 405.218C706.068 405.218 705.75 405.11 705.51 404.894C705.282 404.666 705.168 404.3 705.168 403.796C704.748 404.3 704.256 404.666 703.692 404.894C703.14 405.11 702.54 405.218 701.892 405.218C701.472 405.218 701.07 405.17 700.686 405.074C700.314 404.978 699.99 404.828 699.714 404.624C699.438 404.42 699.216 404.156 699.048 403.832C698.892 403.496 698.814 403.094 698.814 402.626C698.814 402.098 698.904 401.666 699.084 401.33C699.264 400.994 699.498 400.724 699.786 400.52C700.086 400.304 700.422 400.142 700.794 400.034C701.178 399.926 701.568 399.836 701.964 399.764C702.384 399.68 702.78 399.62 703.152 399.584C703.536 399.536 703.872 399.476 704.16 399.404C704.448 399.32 704.676 399.206 704.844 399.062C705.012 398.906 705.096 398.684 705.096 398.396C705.096 398.06 705.03 397.79 704.898 397.586C704.778 397.382 704.616 397.226 704.412 397.118C704.22 397.01 703.998 396.938 703.746 396.902C703.506 396.866 703.266 396.848 703.026 396.848C702.378 396.848 701.838 396.974 701.406 397.226C700.974 397.466 700.74 397.928 700.704 398.612H699.174C699.198 398.036 699.318 397.55 699.534 397.154C699.75 396.758 700.038 396.44 700.398 396.2C700.758 395.948 701.166 395.768 701.622 395.66C702.09 395.552 702.588 395.498 703.116 395.498C703.536 395.498 703.95 395.528 704.358 395.588C704.778 395.648 705.156 395.774 705.492 395.966C705.828 396.146 706.098 396.404 706.302 396.74C706.506 397.076 706.608 397.514 706.608 398.054V402.842C706.608 403.202 706.626 403.466 706.662 403.634C706.71 403.802 706.854 403.886 707.094 403.886C707.226 403.886 707.382 403.856 707.562 403.796V404.984ZM705.078 400.214C704.886 400.358 704.634 400.466 704.322 400.538C704.01 400.598 703.68 400.652 703.332 400.7C702.996 400.736 702.654 400.784 702.306 400.844C701.958 400.892 701.646 400.976 701.37 401.096C701.094 401.216 700.866 401.39 700.686 401.618C700.518 401.834 700.434 402.134 700.434 402.518C700.434 402.77 700.482 402.986 700.578 403.166C700.686 403.334 700.818 403.472 700.974 403.58C701.142 403.688 701.334 403.766 701.55 403.814C701.766 403.862 701.994 403.886 702.234 403.886C702.738 403.886 703.17 403.82 703.53 403.688C703.89 403.544 704.184 403.37 704.412 403.166C704.64 402.95 704.808 402.722 704.916 402.482C705.024 402.23 705.078 401.996 705.078 401.78V400.214ZM710.75 395.714V392.924H709.22V395.714H707.636V397.064H709.22V402.986C709.22 403.418 709.262 403.766 709.346 404.03C709.43 404.294 709.556 404.498 709.724 404.642C709.904 404.786 710.132 404.888 710.408 404.948C710.696 404.996 711.038 405.02 711.434 405.02H712.604V403.67H711.902C711.662 403.67 711.464 403.664 711.308 403.652C711.164 403.628 711.05 403.586 710.966 403.526C710.882 403.466 710.822 403.382 710.786 403.274C710.762 403.166 710.75 403.022 710.75 402.842V397.064H712.604V395.714H710.75ZM715.563 394.04V392.168H714.033V394.04H715.563ZM714.033 395.714V405.02H715.563V395.714H714.033ZM718.69 400.376C718.69 399.812 718.762 399.314 718.906 398.882C719.062 398.438 719.272 398.066 719.536 397.766C719.8 397.466 720.106 397.238 720.454 397.082C720.814 396.926 721.192 396.848 721.588 396.848C721.984 396.848 722.356 396.926 722.704 397.082C723.064 397.238 723.376 397.466 723.64 397.766C723.904 398.066 724.108 398.438 724.252 398.882C724.408 399.314 724.486 399.812 724.486 400.376C724.486 400.94 724.408 401.444 724.252 401.888C724.108 402.32 723.904 402.686 723.64 402.986C723.376 403.274 723.064 403.496 722.704 403.652C722.356 403.808 721.984 403.886 721.588 403.886C721.192 403.886 720.814 403.808 720.454 403.652C720.106 403.496 719.8 403.274 719.536 402.986C719.272 402.686 719.062 402.32 718.906 401.888C718.762 401.444 718.69 400.94 718.69 400.376ZM717.07 400.376C717.07 401.06 717.166 401.696 717.358 402.284C717.55 402.872 717.838 403.388 718.222 403.832C718.606 404.264 719.08 404.606 719.644 404.858C720.208 405.098 720.856 405.218 721.588 405.218C722.332 405.218 722.98 405.098 723.532 404.858C724.096 404.606 724.57 404.264 724.954 403.832C725.338 403.388 725.626 402.872 725.818 402.284C726.01 401.696 726.106 401.06 726.106 400.376C726.106 399.692 726.01 399.056 725.818 398.468C725.626 397.868 725.338 397.352 724.954 396.92C724.57 396.476 724.096 396.128 723.532 395.876C722.98 395.624 722.332 395.498 721.588 395.498C720.856 395.498 720.208 395.624 719.644 395.876C719.08 396.128 718.606 396.476 718.222 396.92C717.838 397.352 717.55 397.868 717.358 398.468C717.166 399.056 717.07 399.692 717.07 400.376ZM727.55 395.714V405.02H729.08V399.764C729.08 399.344 729.134 398.96 729.242 398.612C729.362 398.252 729.536 397.94 729.764 397.676C729.992 397.412 730.274 397.208 730.61 397.064C730.958 396.92 731.366 396.848 731.834 396.848C732.422 396.848 732.884 397.016 733.22 397.352C733.556 397.688 733.724 398.144 733.724 398.72V405.02H735.254V398.9C735.254 398.396 735.2 397.94 735.092 397.532C734.996 397.112 734.822 396.752 734.57 396.452C734.318 396.152 733.988 395.918 733.58 395.75C733.172 395.582 732.662 395.498 732.05 395.498C730.67 395.498 729.662 396.062 729.026 397.19H728.99V395.714H727.55Z" fill="black"/>
<circle cx="826.735" cy="299.745" r="19.35" fill="#C6C6C6"/>
<path d="M808.774 331.369C808.774 330.721 808.858 330.085 809.026 329.461C809.194 328.825 809.458 328.255 809.818 327.751C810.178 327.247 810.64 326.845 811.204 326.545C811.768 326.233 812.44 326.077 813.22 326.077C814 326.077 814.672 326.233 815.236 326.545C815.8 326.845 816.262 327.247 816.622 327.751C816.982 328.255 817.246 328.825 817.414 329.461C817.582 330.085 817.666 330.721 817.666 331.369C817.666 332.017 817.582 332.659 817.414 333.295C817.246 333.919 816.982 334.483 816.622 334.987C816.262 335.491 815.8 335.899 815.236 336.211C814.672 336.511 814 336.661 813.22 336.661C812.44 336.661 811.768 336.511 811.204 336.211C810.64 335.899 810.178 335.491 809.818 334.987C809.458 334.483 809.194 333.919 809.026 333.295C808.858 332.659 808.774 332.017 808.774 331.369ZM807.064 331.369C807.064 332.245 807.19 333.091 807.442 333.907C807.706 334.711 808.096 335.425 808.612 336.049C809.128 336.673 809.77 337.171 810.538 337.543C811.306 337.903 812.2 338.083 813.22 338.083C814.24 338.083 815.134 337.903 815.902 337.543C816.67 337.171 817.312 336.673 817.828 336.049C818.344 335.425 818.728 334.711 818.98 333.907C819.244 333.091 819.376 332.245 819.376 331.369C819.376 330.493 819.244 329.653 818.98 328.849C818.728 328.033 818.344 327.313 817.828 326.689C817.312 326.065 816.67 325.567 815.902 325.195C815.134 324.823 814.24 324.637 813.22 324.637C812.2 324.637 811.306 324.823 810.538 325.195C809.77 325.567 809.128 326.065 808.612 326.689C808.096 327.313 807.706 328.033 807.442 328.849C807.19 329.653 807.064 330.493 807.064 331.369ZM828.551 337.795V328.489H827.021V333.745C827.021 334.165 826.961 334.555 826.841 334.915C826.733 335.263 826.565 335.569 826.337 335.833C826.109 336.097 825.821 336.301 825.473 336.445C825.137 336.589 824.735 336.661 824.267 336.661C823.679 336.661 823.217 336.493 822.881 336.157C822.545 335.821 822.377 335.365 822.377 334.789V328.489H820.847V334.609C820.847 335.113 820.895 335.575 820.991 335.995C821.099 336.403 821.279 336.757 821.531 337.057C821.783 337.357 822.113 337.591 822.521 337.759C822.929 337.915 823.439 337.993 824.051 337.993C824.735 337.993 825.329 337.861 825.833 337.597C826.337 337.321 826.751 336.895 827.075 336.319H827.111V337.795H828.551ZM832.613 328.489V325.699H831.083V328.489H829.499V329.839H831.083V335.761C831.083 336.193 831.125 336.541 831.209 336.805C831.293 337.069 831.419 337.273 831.587 337.417C831.767 337.561 831.995 337.663 832.271 337.723C832.559 337.771 832.901 337.795 833.297 337.795H834.467V336.445H833.765C833.525 336.445 833.327 336.439 833.171 336.427C833.027 336.403 832.913 336.361 832.829 336.301C832.745 336.241 832.685 336.157 832.649 336.049C832.625 335.941 832.613 335.797 832.613 335.617V329.839H834.467V328.489H832.613ZM835.753 328.489V337.795H837.283V333.655C837.283 333.055 837.343 332.527 837.463 332.071C837.583 331.603 837.775 331.207 838.039 330.883C838.303 330.559 838.651 330.313 839.083 330.145C839.515 329.977 840.037 329.893 840.649 329.893V328.273C839.821 328.249 839.137 328.417 838.597 328.777C838.057 329.137 837.601 329.695 837.229 330.451H837.193V328.489H835.753ZM842.241 333.151C842.241 332.587 842.313 332.089 842.457 331.657C842.613 331.213 842.823 330.841 843.087 330.541C843.351 330.241 843.657 330.013 844.005 329.857C844.365 329.701 844.743 329.623 845.139 329.623C845.535 329.623 845.907 329.701 846.255 329.857C846.615 330.013 846.927 330.241 847.191 330.541C847.455 330.841 847.659 331.213 847.803 331.657C847.959 332.089 848.037 332.587 848.037 333.151C848.037 333.715 847.959 334.219 847.803 334.663C847.659 335.095 847.455 335.461 847.191 335.761C846.927 336.049 846.615 336.271 846.255 336.427C845.907 336.583 845.535 336.661 845.139 336.661C844.743 336.661 844.365 336.583 844.005 336.427C843.657 336.271 843.351 336.049 843.087 335.761C842.823 335.461 842.613 335.095 842.457 334.663C842.313 334.219 842.241 333.715 842.241 333.151ZM840.621 333.151C840.621 333.835 840.717 334.471 840.909 335.059C841.101 335.647 841.389 336.163 841.773 336.607C842.157 337.039 842.631 337.381 843.195 337.633C843.759 337.873 844.407 337.993 845.139 337.993C845.883 337.993 846.531 337.873 847.083 337.633C847.647 337.381 848.121 337.039 848.505 336.607C848.889 336.163 849.177 335.647 849.369 335.059C849.561 334.471 849.657 333.835 849.657 333.151C849.657 332.467 849.561 331.831 849.369 331.243C849.177 330.643 848.889 330.127 848.505 329.695C848.121 329.251 847.647 328.903 847.083 328.651C846.531 328.399 845.883 328.273 845.139 328.273C844.407 328.273 843.759 328.399 843.195 328.651C842.631 328.903 842.157 329.251 841.773 329.695C841.389 330.127 841.101 330.643 840.909 331.243C840.717 331.831 840.621 332.467 840.621 333.151Z" fill="black"/>
<circle cx="138.045" cy="170.495" r="19.35" fill="#C6C6C6"/>
<path d="M98.9788 208.545L102.417 195.693H100.707L98.0968 206.385H98.0608L95.2168 195.693H93.3628L90.4828 206.385H90.4468L87.9268 195.693H86.1808L89.4748 208.545H91.2568L94.2268 197.745H94.2628L97.1968 208.545H98.9788ZM110.997 208.509C110.733 208.665 110.367 208.743 109.899 208.743C109.503 208.743 109.185 208.635 108.945 208.419C108.717 208.191 108.603 207.825 108.603 207.321C108.183 207.825 107.691 208.191 107.127 208.419C106.575 208.635 105.975 208.743 105.327 208.743C104.907 208.743 104.505 208.695 104.121 208.599C103.749 208.503 103.425 208.353 103.149 208.149C102.873 207.945 102.651 207.681 102.483 207.357C102.327 207.021 102.249 206.619 102.249 206.151C102.249 205.623 102.339 205.191 102.519 204.855C102.699 204.519 102.933 204.249 103.221 204.045C103.521 203.829 103.857 203.667 104.229 203.559C104.613 203.451 105.003 203.361 105.399 203.289C105.819 203.205 106.215 203.145 106.587 203.109C106.971 203.061 107.307 203.001 107.595 202.929C107.883 202.845 108.111 202.731 108.279 202.587C108.447 202.431 108.531 202.209 108.531 201.921C108.531 201.585 108.465 201.315 108.333 201.111C108.213 200.907 108.051 200.751 107.847 200.643C107.655 200.535 107.433 200.463 107.181 200.427C106.941 200.391 106.701 200.373 106.461 200.373C105.813 200.373 105.273 200.499 104.841 200.751C104.409 200.991 104.175 201.453 104.139 202.137H102.609C102.633 201.561 102.753 201.075 102.969 200.679C103.185 200.283 103.473 199.965 103.833 199.725C104.193 199.473 104.601 199.293 105.057 199.185C105.525 199.077 106.023 199.023 106.551 199.023C106.971 199.023 107.385 199.053 107.793 199.113C108.213 199.173 108.591 199.299 108.927 199.491C109.263 199.671 109.533 199.929 109.737 200.265C109.941 200.601 110.043 201.039 110.043 201.579V206.367C110.043 206.727 110.061 206.991 110.097 207.159C110.145 207.327 110.289 207.411 110.529 207.411C110.661 207.411 110.817 207.381 110.997 207.321V208.509ZM108.513 203.739C108.321 203.883 108.069 203.991 107.757 204.063C107.445 204.123 107.115 204.177 106.767 204.225C106.431 204.261 106.089 204.309 105.741 204.369C105.393 204.417 105.081 204.501 104.805 204.621C104.529 204.741 104.301 204.915 104.121 205.143C103.953 205.359 103.869 205.659 103.869 206.043C103.869 206.295 103.917 206.511 104.013 206.691C104.121 206.859 104.253 206.997 104.409 207.105C104.577 207.213 104.769 207.291 104.985 207.339C105.201 207.387 105.429 207.411 105.669 207.411C106.173 207.411 106.605 207.345 106.965 207.213C107.325 207.069 107.619 206.895 107.847 206.691C108.075 206.475 108.243 206.247 108.351 206.007C108.459 205.755 108.513 205.521 108.513 205.305V203.739ZM114.185 199.239V196.449H112.655V199.239H111.071V200.589H112.655V206.511C112.655 206.943 112.697 207.291 112.781 207.555C112.865 207.819 112.991 208.023 113.159 208.167C113.339 208.311 113.567 208.413 113.843 208.473C114.131 208.521 114.473 208.545 114.869 208.545H116.039V207.195H115.337C115.097 207.195 114.899 207.189 114.743 207.177C114.599 207.153 114.485 207.111 114.401 207.051C114.317 206.991 114.257 206.907 114.221 206.799C114.197 206.691 114.185 206.547 114.185 206.367V200.589H116.039V199.239H114.185ZM123.697 202.227H125.281C125.221 201.675 125.077 201.201 124.849 200.805C124.621 200.397 124.327 200.061 123.967 199.797C123.619 199.533 123.211 199.341 122.743 199.221C122.287 199.089 121.795 199.023 121.267 199.023C120.535 199.023 119.893 199.155 119.341 199.419C118.789 199.671 118.327 200.025 117.955 200.481C117.595 200.925 117.325 201.453 117.145 202.065C116.965 202.665 116.875 203.313 116.875 204.009C116.875 204.705 116.965 205.347 117.145 205.935C117.337 206.511 117.613 207.009 117.973 207.429C118.345 207.849 118.801 208.173 119.341 208.401C119.893 208.629 120.523 208.743 121.231 208.743C122.419 208.743 123.355 208.431 124.039 207.807C124.735 207.183 125.167 206.295 125.335 205.143H123.769C123.673 205.863 123.409 206.421 122.977 206.817C122.557 207.213 121.969 207.411 121.213 207.411C120.733 207.411 120.319 207.315 119.971 207.123C119.623 206.931 119.341 206.679 119.125 206.367C118.909 206.043 118.747 205.677 118.639 205.269C118.543 204.861 118.495 204.441 118.495 204.009C118.495 203.541 118.543 203.091 118.639 202.659C118.735 202.215 118.891 201.825 119.107 201.489C119.335 201.153 119.635 200.883 120.007 200.679C120.379 200.475 120.841 200.373 121.393 200.373C122.041 200.373 122.557 200.535 122.941 200.859C123.325 201.183 123.577 201.639 123.697 202.227ZM126.687 195.693V208.545H128.217V203.289C128.217 202.869 128.271 202.485 128.379 202.137C128.499 201.777 128.673 201.465 128.901 201.201C129.129 200.937 129.411 200.733 129.747 200.589C130.095 200.445 130.503 200.373 130.971 200.373C131.559 200.373 132.021 200.541 132.357 200.877C132.693 201.213 132.861 201.669 132.861 202.245V208.545H134.391V202.425C134.391 201.921 134.337 201.465 134.229 201.057C134.133 200.637 133.959 200.277 133.707 199.977C133.455 199.677 133.125 199.443 132.717 199.275C132.309 199.107 131.799 199.023 131.187 199.023C130.911 199.023 130.623 199.053 130.323 199.113C130.035 199.173 129.753 199.269 129.477 199.401C129.213 199.521 128.973 199.683 128.757 199.887C128.541 200.079 128.373 200.319 128.253 200.607H128.217V195.693H126.687ZM138.452 199.239V196.449H136.922V199.239H135.338V200.589H136.922V206.511C136.922 206.943 136.964 207.291 137.048 207.555C137.132 207.819 137.258 208.023 137.426 208.167C137.606 208.311 137.834 208.413 138.11 208.473C138.398 208.521 138.74 208.545 139.136 208.545H140.306V207.195H139.604C139.364 207.195 139.166 207.189 139.01 207.177C138.866 207.153 138.752 207.111 138.668 207.051C138.584 206.991 138.524 206.907 138.488 206.799C138.464 206.691 138.452 206.547 138.452 206.367V200.589H140.306V199.239H138.452ZM142.762 203.901C142.762 203.337 142.834 202.839 142.978 202.407C143.134 201.963 143.344 201.591 143.608 201.291C143.872 200.991 144.178 200.763 144.526 200.607C144.886 200.451 145.264 200.373 145.66 200.373C146.056 200.373 146.428 200.451 146.776 200.607C147.136 200.763 147.448 200.991 147.712 201.291C147.976 201.591 148.18 201.963 148.324 202.407C148.48 202.839 148.558 203.337 148.558 203.901C148.558 204.465 148.48 204.969 148.324 205.413C148.18 205.845 147.976 206.211 147.712 206.511C147.448 206.799 147.136 207.021 146.776 207.177C146.428 207.333 146.056 207.411 145.66 207.411C145.264 207.411 144.886 207.333 144.526 207.177C144.178 207.021 143.872 206.799 143.608 206.511C143.344 206.211 143.134 205.845 142.978 205.413C142.834 204.969 142.762 204.465 142.762 203.901ZM141.142 203.901C141.142 204.585 141.238 205.221 141.43 205.809C141.622 206.397 141.91 206.913 142.294 207.357C142.678 207.789 143.152 208.131 143.716 208.383C144.28 208.623 144.928 208.743 145.66 208.743C146.404 208.743 147.052 208.623 147.604 208.383C148.168 208.131 148.642 207.789 149.026 207.357C149.41 206.913 149.698 206.397 149.89 205.809C150.082 205.221 150.178 204.585 150.178 203.901C150.178 203.217 150.082 202.581 149.89 201.993C149.698 201.393 149.41 200.877 149.026 200.445C148.642 200.001 148.168 199.653 147.604 199.401C147.052 199.149 146.404 199.023 145.66 199.023C144.928 199.023 144.28 199.149 143.716 199.401C143.152 199.653 142.678 200.001 142.294 200.445C141.91 200.877 141.622 201.393 141.43 201.993C141.238 202.581 141.142 203.217 141.142 203.901ZM160.838 208.545L163.808 199.239H162.224L160.136 206.853H160.1L158.156 199.239H156.482L154.61 206.853H154.574L152.468 199.239H150.776L153.764 208.545H155.42L157.292 201.147H157.328L159.218 208.545H160.838ZM171.365 203.001H166.019C166.043 202.641 166.121 202.305 166.253 201.993C166.385 201.669 166.565 201.387 166.793 201.147C167.021 200.907 167.291 200.721 167.603 200.589C167.927 200.445 168.287 200.373 168.683 200.373C169.067 200.373 169.415 200.445 169.727 200.589C170.051 200.721 170.327 200.907 170.555 201.147C170.795 201.375 170.981 201.651 171.113 201.975C171.257 202.299 171.341 202.641 171.365 203.001ZM172.841 205.593H171.329C171.197 206.205 170.921 206.661 170.501 206.961C170.093 207.261 169.565 207.411 168.917 207.411C168.413 207.411 167.975 207.327 167.603 207.159C167.231 206.991 166.925 206.769 166.685 206.493C166.445 206.205 166.271 205.881 166.163 205.521C166.055 205.149 166.007 204.759 166.019 204.351H172.985C173.009 203.787 172.955 203.193 172.823 202.569C172.703 201.945 172.475 201.369 172.139 200.841C171.815 200.313 171.377 199.881 170.825 199.545C170.285 199.197 169.601 199.023 168.773 199.023C168.137 199.023 167.549 199.143 167.009 199.383C166.481 199.623 166.019 199.959 165.623 200.391C165.239 200.823 164.939 201.333 164.723 201.921C164.507 202.509 164.399 203.157 164.399 203.865C164.423 204.573 164.525 205.227 164.705 205.827C164.897 206.427 165.179 206.943 165.551 207.375C165.923 207.807 166.379 208.143 166.919 208.383C167.471 208.623 168.119 208.743 168.863 208.743C169.919 208.743 170.795 208.479 171.491 207.951C172.187 207.423 172.637 206.637 172.841 205.593ZM174.157 199.239V208.545H175.687V204.405C175.687 203.805 175.747 203.277 175.867 202.821C175.987 202.353 176.179 201.957 176.443 201.633C176.707 201.309 177.055 201.063 177.487 200.895C177.919 200.727 178.441 200.643 179.053 200.643V199.023C178.225 198.999 177.541 199.167 177.001 199.527C176.461 199.887 176.005 200.445 175.633 201.201H175.597V199.239H174.157ZM189.751 208.545V195.783H188.581C188.497 196.263 188.341 196.659 188.113 196.971C187.885 197.283 187.603 197.529 187.267 197.709C186.943 197.889 186.577 198.015 186.169 198.087C185.761 198.147 185.341 198.177 184.909 198.177V199.401H188.221V208.545H189.751Z" fill="black"/>
<circle cx="138.045" cy="426.87" r="19.35" fill="#C6C6C6"/>
<path d="M98.9788 464.92L102.417 452.068H100.707L98.0968 462.76H98.0608L95.2168 452.068H93.3628L90.4828 462.76H90.4468L87.9268 452.068H86.1808L89.4748 464.92H91.2568L94.2268 454.12H94.2628L97.1968 464.92H98.9788ZM110.997 464.884C110.733 465.04 110.367 465.118 109.899 465.118C109.503 465.118 109.185 465.01 108.945 464.794C108.717 464.566 108.603 464.2 108.603 463.696C108.183 464.2 107.691 464.566 107.127 464.794C106.575 465.01 105.975 465.118 105.327 465.118C104.907 465.118 104.505 465.07 104.121 464.974C103.749 464.878 103.425 464.728 103.149 464.524C102.873 464.32 102.651 464.056 102.483 463.732C102.327 463.396 102.249 462.994 102.249 462.526C102.249 461.998 102.339 461.566 102.519 461.23C102.699 460.894 102.933 460.624 103.221 460.42C103.521 460.204 103.857 460.042 104.229 459.934C104.613 459.826 105.003 459.736 105.399 459.664C105.819 459.58 106.215 459.52 106.587 459.484C106.971 459.436 107.307 459.376 107.595 459.304C107.883 459.22 108.111 459.106 108.279 458.962C108.447 458.806 108.531 458.584 108.531 458.296C108.531 457.96 108.465 457.69 108.333 457.486C108.213 457.282 108.051 457.126 107.847 457.018C107.655 456.91 107.433 456.838 107.181 456.802C106.941 456.766 106.701 456.748 106.461 456.748C105.813 456.748 105.273 456.874 104.841 457.126C104.409 457.366 104.175 457.828 104.139 458.512H102.609C102.633 457.936 102.753 457.45 102.969 457.054C103.185 456.658 103.473 456.34 103.833 456.1C104.193 455.848 104.601 455.668 105.057 455.56C105.525 455.452 106.023 455.398 106.551 455.398C106.971 455.398 107.385 455.428 107.793 455.488C108.213 455.548 108.591 455.674 108.927 455.866C109.263 456.046 109.533 456.304 109.737 456.64C109.941 456.976 110.043 457.414 110.043 457.954V462.742C110.043 463.102 110.061 463.366 110.097 463.534C110.145 463.702 110.289 463.786 110.529 463.786C110.661 463.786 110.817 463.756 110.997 463.696V464.884ZM108.513 460.114C108.321 460.258 108.069 460.366 107.757 460.438C107.445 460.498 107.115 460.552 106.767 460.6C106.431 460.636 106.089 460.684 105.741 460.744C105.393 460.792 105.081 460.876 104.805 460.996C104.529 461.116 104.301 461.29 104.121 461.518C103.953 461.734 103.869 462.034 103.869 462.418C103.869 462.67 103.917 462.886 104.013 463.066C104.121 463.234 104.253 463.372 104.409 463.48C104.577 463.588 104.769 463.666 104.985 463.714C105.201 463.762 105.429 463.786 105.669 463.786C106.173 463.786 106.605 463.72 106.965 463.588C107.325 463.444 107.619 463.27 107.847 463.066C108.075 462.85 108.243 462.622 108.351 462.382C108.459 462.13 108.513 461.896 108.513 461.68V460.114ZM114.185 455.614V452.824H112.655V455.614H111.071V456.964H112.655V462.886C112.655 463.318 112.697 463.666 112.781 463.93C112.865 464.194 112.991 464.398 113.159 464.542C113.339 464.686 113.567 464.788 113.843 464.848C114.131 464.896 114.473 464.92 114.869 464.92H116.039V463.57H115.337C115.097 463.57 114.899 463.564 114.743 463.552C114.599 463.528 114.485 463.486 114.401 463.426C114.317 463.366 114.257 463.282 114.221 463.174C114.197 463.066 114.185 462.922 114.185 462.742V456.964H116.039V455.614H114.185ZM123.697 458.602H125.281C125.221 458.05 125.077 457.576 124.849 457.18C124.621 456.772 124.327 456.436 123.967 456.172C123.619 455.908 123.211 455.716 122.743 455.596C122.287 455.464 121.795 455.398 121.267 455.398C120.535 455.398 119.893 455.53 119.341 455.794C118.789 456.046 118.327 456.4 117.955 456.856C117.595 457.3 117.325 457.828 117.145 458.44C116.965 459.04 116.875 459.688 116.875 460.384C116.875 461.08 116.965 461.722 117.145 462.31C117.337 462.886 117.613 463.384 117.973 463.804C118.345 464.224 118.801 464.548 119.341 464.776C119.893 465.004 120.523 465.118 121.231 465.118C122.419 465.118 123.355 464.806 124.039 464.182C124.735 463.558 125.167 462.67 125.335 461.518H123.769C123.673 462.238 123.409 462.796 122.977 463.192C122.557 463.588 121.969 463.786 121.213 463.786C120.733 463.786 120.319 463.69 119.971 463.498C119.623 463.306 119.341 463.054 119.125 462.742C118.909 462.418 118.747 462.052 118.639 461.644C118.543 461.236 118.495 460.816 118.495 460.384C118.495 459.916 118.543 459.466 118.639 459.034C118.735 458.59 118.891 458.2 119.107 457.864C119.335 457.528 119.635 457.258 120.007 457.054C120.379 456.85 120.841 456.748 121.393 456.748C122.041 456.748 122.557 456.91 122.941 457.234C123.325 457.558 123.577 458.014 123.697 458.602ZM126.687 452.068V464.92H128.217V459.664C128.217 459.244 128.271 458.86 128.379 458.512C128.499 458.152 128.673 457.84 128.901 457.576C129.129 457.312 129.411 457.108 129.747 456.964C130.095 456.82 130.503 456.748 130.971 456.748C131.559 456.748 132.021 456.916 132.357 457.252C132.693 457.588 132.861 458.044 132.861 458.62V464.92H134.391V458.8C134.391 458.296 134.337 457.84 134.229 457.432C134.133 457.012 133.959 456.652 133.707 456.352C133.455 456.052 133.125 455.818 132.717 455.65C132.309 455.482 131.799 455.398 131.187 455.398C130.911 455.398 130.623 455.428 130.323 455.488C130.035 455.548 129.753 455.644 129.477 455.776C129.213 455.896 128.973 456.058 128.757 456.262C128.541 456.454 128.373 456.694 128.253 456.982H128.217V452.068H126.687ZM138.452 455.614V452.824H136.922V455.614H135.338V456.964H136.922V462.886C136.922 463.318 136.964 463.666 137.048 463.93C137.132 464.194 137.258 464.398 137.426 464.542C137.606 464.686 137.834 464.788 138.11 464.848C138.398 464.896 138.74 464.92 139.136 464.92H140.306V463.57H139.604C139.364 463.57 139.166 463.564 139.01 463.552C138.866 463.528 138.752 463.486 138.668 463.426C138.584 463.366 138.524 463.282 138.488 463.174C138.464 463.066 138.452 462.922 138.452 462.742V456.964H140.306V455.614H138.452ZM142.762 460.276C142.762 459.712 142.834 459.214 142.978 458.782C143.134 458.338 143.344 457.966 143.608 457.666C143.872 457.366 144.178 457.138 144.526 456.982C144.886 456.826 145.264 456.748 145.66 456.748C146.056 456.748 146.428 456.826 146.776 456.982C147.136 457.138 147.448 457.366 147.712 457.666C147.976 457.966 148.18 458.338 148.324 458.782C148.48 459.214 148.558 459.712 148.558 460.276C148.558 460.84 148.48 461.344 148.324 461.788C148.18 462.22 147.976 462.586 147.712 462.886C147.448 463.174 147.136 463.396 146.776 463.552C146.428 463.708 146.056 463.786 145.66 463.786C145.264 463.786 144.886 463.708 144.526 463.552C144.178 463.396 143.872 463.174 143.608 462.886C143.344 462.586 143.134 462.22 142.978 461.788C142.834 461.344 142.762 460.84 142.762 460.276ZM141.142 460.276C141.142 460.96 141.238 461.596 141.43 462.184C141.622 462.772 141.91 463.288 142.294 463.732C142.678 464.164 143.152 464.506 143.716 464.758C144.28 464.998 144.928 465.118 145.66 465.118C146.404 465.118 147.052 464.998 147.604 464.758C148.168 464.506 148.642 464.164 149.026 463.732C149.41 463.288 149.698 462.772 149.89 462.184C150.082 461.596 150.178 460.96 150.178 460.276C150.178 459.592 150.082 458.956 149.89 458.368C149.698 457.768 149.41 457.252 149.026 456.82C148.642 456.376 148.168 456.028 147.604 455.776C147.052 455.524 146.404 455.398 145.66 455.398C144.928 455.398 144.28 455.524 143.716 455.776C143.152 456.028 142.678 456.376 142.294 456.82C141.91 457.252 141.622 457.768 141.43 458.368C141.238 458.956 141.142 459.592 141.142 460.276ZM160.838 464.92L163.808 455.614H162.224L160.136 463.228H160.1L158.156 455.614H156.482L154.61 463.228H154.574L152.468 455.614H150.776L153.764 464.92H155.42L157.292 457.522H157.328L159.218 464.92H160.838ZM171.365 459.376H166.019C166.043 459.016 166.121 458.68 166.253 458.368C166.385 458.044 166.565 457.762 166.793 457.522C167.021 457.282 167.291 457.096 167.603 456.964C167.927 456.82 168.287 456.748 168.683 456.748C169.067 456.748 169.415 456.82 169.727 456.964C170.051 457.096 170.327 457.282 170.555 457.522C170.795 457.75 170.981 458.026 171.113 458.35C171.257 458.674 171.341 459.016 171.365 459.376ZM172.841 461.968H171.329C171.197 462.58 170.921 463.036 170.501 463.336C170.093 463.636 169.565 463.786 168.917 463.786C168.413 463.786 167.975 463.702 167.603 463.534C167.231 463.366 166.925 463.144 166.685 462.868C166.445 462.58 166.271 462.256 166.163 461.896C166.055 461.524 166.007 461.134 166.019 460.726H172.985C173.009 460.162 172.955 459.568 172.823 458.944C172.703 458.32 172.475 457.744 172.139 457.216C171.815 456.688 171.377 456.256 170.825 455.92C170.285 455.572 169.601 455.398 168.773 455.398C168.137 455.398 167.549 455.518 167.009 455.758C166.481 455.998 166.019 456.334 165.623 456.766C165.239 457.198 164.939 457.708 164.723 458.296C164.507 458.884 164.399 459.532 164.399 460.24C164.423 460.948 164.525 461.602 164.705 462.202C164.897 462.802 165.179 463.318 165.551 463.75C165.923 464.182 166.379 464.518 166.919 464.758C167.471 464.998 168.119 465.118 168.863 465.118C169.919 465.118 170.795 464.854 171.491 464.326C172.187 463.798 172.637 463.012 172.841 461.968ZM174.157 455.614V464.92H175.687V460.78C175.687 460.18 175.747 459.652 175.867 459.196C175.987 458.728 176.179 458.332 176.443 458.008C176.707 457.684 177.055 457.438 177.487 457.27C177.919 457.102 178.441 457.018 179.053 457.018V455.398C178.225 455.374 177.541 455.542 177.001 455.902C176.461 456.262 176.005 456.82 175.633 457.576H175.597V455.614H174.157ZM184.135 456.676H185.665C185.653 456.292 185.689 455.914 185.773 455.542C185.869 455.158 186.019 454.816 186.223 454.516C186.427 454.216 186.685 453.976 186.997 453.796C187.321 453.604 187.705 453.508 188.149 453.508C188.485 453.508 188.803 453.562 189.103 453.67C189.403 453.778 189.661 453.934 189.877 454.138C190.105 454.342 190.285 454.588 190.417 454.876C190.549 455.152 190.615 455.464 190.615 455.812C190.615 456.256 190.543 456.646 190.399 456.982C190.267 457.318 190.063 457.63 189.787 457.918C189.523 458.206 189.187 458.494 188.779 458.782C188.371 459.058 187.897 459.364 187.357 459.7C186.913 459.964 186.487 460.246 186.079 460.546C185.671 460.846 185.305 461.194 184.981 461.59C184.657 461.986 184.387 462.454 184.171 462.994C183.967 463.522 183.835 464.164 183.775 464.92H192.109V463.57H185.557C185.629 463.174 185.779 462.826 186.007 462.526C186.247 462.214 186.529 461.926 186.853 461.662C187.189 461.398 187.555 461.152 187.951 460.924C188.347 460.684 188.743 460.444 189.139 460.204C189.535 459.952 189.919 459.688 190.291 459.412C190.663 459.136 190.993 458.83 191.281 458.494C191.569 458.146 191.797 457.756 191.965 457.324C192.145 456.892 192.235 456.394 192.235 455.83C192.235 455.23 192.127 454.702 191.911 454.246C191.707 453.79 191.425 453.412 191.065 453.112C190.705 452.8 190.279 452.566 189.787 452.41C189.307 452.242 188.791 452.158 188.239 452.158C187.567 452.158 186.967 452.272 186.439 452.5C185.911 452.728 185.467 453.046 185.107 453.454C184.759 453.85 184.501 454.324 184.333 454.876C184.165 455.428 184.099 456.028 184.135 456.676Z" fill="black"/>
<circle cx="98.0453" cy="299.745" r="19.35" fill="#C6C6C6"/>
<path d="M58.9788 337.795L62.4168 324.943H60.7068L58.0968 335.635H58.0608L55.2168 324.943H53.3628L50.4828 335.635H50.4468L47.9268 324.943H46.1808L49.4748 337.795H51.2568L54.2268 326.995H54.2628L57.1968 337.795H58.9788ZM70.9969 337.759C70.7329 337.915 70.3669 337.993 69.8989 337.993C69.5029 337.993 69.1849 337.885 68.9449 337.669C68.7169 337.441 68.6029 337.075 68.6029 336.571C68.1829 337.075 67.6909 337.441 67.1269 337.669C66.5749 337.885 65.9749 337.993 65.3269 337.993C64.9069 337.993 64.5049 337.945 64.1209 337.849C63.7489 337.753 63.4249 337.603 63.1489 337.399C62.8729 337.195 62.6509 336.931 62.4829 336.607C62.3269 336.271 62.2489 335.869 62.2489 335.401C62.2489 334.873 62.3389 334.441 62.5189 334.105C62.6989 333.769 62.9329 333.499 63.2209 333.295C63.5209 333.079 63.8569 332.917 64.2289 332.809C64.6129 332.701 65.0029 332.611 65.3989 332.539C65.8189 332.455 66.2149 332.395 66.5869 332.359C66.9709 332.311 67.3069 332.251 67.5949 332.179C67.8829 332.095 68.1109 331.981 68.2789 331.837C68.4469 331.681 68.5309 331.459 68.5309 331.171C68.5309 330.835 68.4649 330.565 68.3329 330.361C68.2129 330.157 68.0509 330.001 67.8469 329.893C67.6549 329.785 67.4329 329.713 67.1809 329.677C66.9409 329.641 66.7009 329.623 66.4609 329.623C65.8129 329.623 65.2729 329.749 64.8409 330.001C64.4089 330.241 64.1749 330.703 64.1389 331.387H62.6089C62.6329 330.811 62.7529 330.325 62.9689 329.929C63.1849 329.533 63.4729 329.215 63.8329 328.975C64.1929 328.723 64.6009 328.543 65.0569 328.435C65.5249 328.327 66.0229 328.273 66.5509 328.273C66.9709 328.273 67.3849 328.303 67.7929 328.363C68.2129 328.423 68.5909 328.549 68.9269 328.741C69.2629 328.921 69.5329 329.179 69.7369 329.515C69.9409 329.851 70.0429 330.289 70.0429 330.829V335.617C70.0429 335.977 70.0609 336.241 70.0969 336.409C70.1449 336.577 70.2889 336.661 70.5289 336.661C70.6609 336.661 70.8169 336.631 70.9969 336.571V337.759ZM68.5129 332.989C68.3209 333.133 68.0689 333.241 67.7569 333.313C67.4449 333.373 67.1149 333.427 66.7669 333.475C66.4309 333.511 66.0889 333.559 65.7409 333.619C65.3929 333.667 65.0809 333.751 64.8049 333.871C64.5289 333.991 64.3009 334.165 64.1209 334.393C63.9529 334.609 63.8689 334.909 63.8689 335.293C63.8689 335.545 63.9169 335.761 64.0129 335.941C64.1209 336.109 64.2529 336.247 64.4089 336.355C64.5769 336.463 64.7689 336.541 64.9849 336.589C65.2009 336.637 65.4289 336.661 65.6689 336.661C66.1729 336.661 66.6049 336.595 66.9649 336.463C67.3249 336.319 67.6189 336.145 67.8469 335.941C68.0749 335.725 68.2429 335.497 68.3509 335.257C68.4589 335.005 68.5129 334.771 68.5129 334.555V332.989ZM74.1848 328.489V325.699H72.6548V328.489H71.0708V329.839H72.6548V335.761C72.6548 336.193 72.6968 336.541 72.7808 336.805C72.8648 337.069 72.9908 337.273 73.1588 337.417C73.3388 337.561 73.5668 337.663 73.8428 337.723C74.1308 337.771 74.4728 337.795 74.8688 337.795H76.0388V336.445H75.3368C75.0968 336.445 74.8988 336.439 74.7428 336.427C74.5988 336.403 74.4848 336.361 74.4008 336.301C74.3168 336.241 74.2568 336.157 74.2208 336.049C74.1968 335.941 74.1848 335.797 74.1848 335.617V329.839H76.0388V328.489H74.1848ZM83.6966 331.477H85.2806C85.2206 330.925 85.0766 330.451 84.8486 330.055C84.6206 329.647 84.3266 329.311 83.9666 329.047C83.6186 328.783 83.2106 328.591 82.7426 328.471C82.2866 328.339 81.7946 328.273 81.2666 328.273C80.5346 328.273 79.8926 328.405 79.3406 328.669C78.7886 328.921 78.3266 329.275 77.9546 329.731C77.5946 330.175 77.3246 330.703 77.1446 331.315C76.9646 331.915 76.8746 332.563 76.8746 333.259C76.8746 333.955 76.9646 334.597 77.1446 335.185C77.3366 335.761 77.6126 336.259 77.9726 336.679C78.3446 337.099 78.8006 337.423 79.3406 337.651C79.8926 337.879 80.5226 337.993 81.2306 337.993C82.4186 337.993 83.3546 337.681 84.0386 337.057C84.7346 336.433 85.1666 335.545 85.3346 334.393H83.7686C83.6726 335.113 83.4086 335.671 82.9766 336.067C82.5566 336.463 81.9686 336.661 81.2126 336.661C80.7326 336.661 80.3186 336.565 79.9706 336.373C79.6226 336.181 79.3406 335.929 79.1246 335.617C78.9086 335.293 78.7466 334.927 78.6386 334.519C78.5426 334.111 78.4946 333.691 78.4946 333.259C78.4946 332.791 78.5426 332.341 78.6386 331.909C78.7346 331.465 78.8906 331.075 79.1066 330.739C79.3346 330.403 79.6346 330.133 80.0066 329.929C80.3786 329.725 80.8406 329.623 81.3926 329.623C82.0406 329.623 82.5566 329.785 82.9406 330.109C83.3246 330.433 83.5766 330.889 83.6966 331.477ZM86.6865 324.943V337.795H88.2165V332.539C88.2165 332.119 88.2705 331.735 88.3785 331.387C88.4985 331.027 88.6725 330.715 88.9005 330.451C89.1285 330.187 89.4105 329.983 89.7465 329.839C90.0945 329.695 90.5025 329.623 90.9705 329.623C91.5585 329.623 92.0205 329.791 92.3565 330.127C92.6925 330.463 92.8605 330.919 92.8605 331.495V337.795H94.3905V331.675C94.3905 331.171 94.3365 330.715 94.2285 330.307C94.1325 329.887 93.9585 329.527 93.7065 329.227C93.4545 328.927 93.1245 328.693 92.7165 328.525C92.3085 328.357 91.7985 328.273 91.1865 328.273C90.9105 328.273 90.6225 328.303 90.3225 328.363C90.0345 328.423 89.7525 328.519 89.4765 328.651C89.2125 328.771 88.9725 328.933 88.7565 329.137C88.5405 329.329 88.3725 329.569 88.2525 329.857H88.2165V324.943H86.6865ZM98.4525 328.489V325.699H96.9225V328.489H95.3385V329.839H96.9225V335.761C96.9225 336.193 96.9645 336.541 97.0485 336.805C97.1325 337.069 97.2585 337.273 97.4265 337.417C97.6065 337.561 97.8345 337.663 98.1105 337.723C98.3985 337.771 98.7405 337.795 99.1365 337.795H100.306V336.445H99.6045C99.3645 336.445 99.1665 336.439 99.0105 336.427C98.8665 336.403 98.7525 336.361 98.6685 336.301C98.5845 336.241 98.5245 336.157 98.4885 336.049C98.4645 335.941 98.4525 335.797 98.4525 335.617V329.839H100.306V328.489H98.4525ZM102.762 333.151C102.762 332.587 102.834 332.089 102.978 331.657C103.134 331.213 103.344 330.841 103.608 330.541C103.872 330.241 104.178 330.013 104.526 329.857C104.886 329.701 105.264 329.623 105.66 329.623C106.056 329.623 106.428 329.701 106.776 329.857C107.136 330.013 107.448 330.241 107.712 330.541C107.976 330.841 108.18 331.213 108.324 331.657C108.48 332.089 108.558 332.587 108.558 333.151C108.558 333.715 108.48 334.219 108.324 334.663C108.18 335.095 107.976 335.461 107.712 335.761C107.448 336.049 107.136 336.271 106.776 336.427C106.428 336.583 106.056 336.661 105.66 336.661C105.264 336.661 104.886 336.583 104.526 336.427C104.178 336.271 103.872 336.049 103.608 335.761C103.344 335.461 103.134 335.095 102.978 334.663C102.834 334.219 102.762 333.715 102.762 333.151ZM101.142 333.151C101.142 333.835 101.238 334.471 101.43 335.059C101.622 335.647 101.91 336.163 102.294 336.607C102.678 337.039 103.152 337.381 103.716 337.633C104.28 337.873 104.928 337.993 105.66 337.993C106.404 337.993 107.052 337.873 107.604 337.633C108.168 337.381 108.642 337.039 109.026 336.607C109.41 336.163 109.698 335.647 109.89 335.059C110.082 334.471 110.178 333.835 110.178 333.151C110.178 332.467 110.082 331.831 109.89 331.243C109.698 330.643 109.41 330.127 109.026 329.695C108.642 329.251 108.168 328.903 107.604 328.651C107.052 328.399 106.404 328.273 105.66 328.273C104.928 328.273 104.28 328.399 103.716 328.651C103.152 328.903 102.678 329.251 102.294 329.695C101.91 330.127 101.622 330.643 101.43 331.243C101.238 331.831 101.142 332.467 101.142 333.151ZM120.838 337.795L123.808 328.489H122.224L120.136 336.103H120.1L118.156 328.489H116.482L114.61 336.103H114.574L112.468 328.489H110.776L113.764 337.795H115.42L117.292 330.397H117.328L119.218 337.795H120.838ZM131.365 332.251H126.019C126.043 331.891 126.121 331.555 126.253 331.243C126.385 330.919 126.565 330.637 126.793 330.397C127.021 330.157 127.291 329.971 127.603 329.839C127.927 329.695 128.287 329.623 128.683 329.623C129.067 329.623 129.415 329.695 129.727 329.839C130.051 329.971 130.327 330.157 130.555 330.397C130.795 330.625 130.981 330.901 131.113 331.225C131.257 331.549 131.341 331.891 131.365 332.251ZM132.841 334.843H131.329C131.197 335.455 130.921 335.911 130.501 336.211C130.093 336.511 129.565 336.661 128.917 336.661C128.413 336.661 127.975 336.577 127.603 336.409C127.231 336.241 126.925 336.019 126.685 335.743C126.445 335.455 126.271 335.131 126.163 334.771C126.055 334.399 126.007 334.009 126.019 333.601H132.985C133.009 333.037 132.955 332.443 132.823 331.819C132.703 331.195 132.475 330.619 132.139 330.091C131.815 329.563 131.377 329.131 130.825 328.795C130.285 328.447 129.601 328.273 128.773 328.273C128.137 328.273 127.549 328.393 127.009 328.633C126.481 328.873 126.019 329.209 125.623 329.641C125.239 330.073 124.939 330.583 124.723 331.171C124.507 331.759 124.399 332.407 124.399 333.115C124.423 333.823 124.525 334.477 124.705 335.077C124.897 335.677 125.179 336.193 125.551 336.625C125.923 337.057 126.379 337.393 126.919 337.633C127.471 337.873 128.119 337.993 128.863 337.993C129.919 337.993 130.795 337.729 131.491 337.201C132.187 336.673 132.637 335.887 132.841 334.843ZM134.157 328.489V337.795H135.687V333.655C135.687 333.055 135.747 332.527 135.867 332.071C135.987 331.603 136.179 331.207 136.443 330.883C136.707 330.559 137.055 330.313 137.487 330.145C137.919 329.977 138.441 329.893 139.053 329.893V328.273C138.225 328.249 137.541 328.417 137.001 328.777C136.461 329.137 136.005 329.695 135.633 330.451H135.597V328.489H134.157ZM147.267 330.505V331.801C147.555 331.765 147.861 331.747 148.185 331.747C148.569 331.747 148.923 331.801 149.247 331.909C149.583 332.005 149.871 332.161 150.111 332.377C150.351 332.581 150.543 332.839 150.687 333.151C150.831 333.451 150.903 333.799 150.903 334.195C150.903 334.579 150.825 334.927 150.669 335.239C150.525 335.539 150.327 335.797 150.075 336.013C149.823 336.217 149.529 336.379 149.193 336.499C148.857 336.607 148.503 336.661 148.131 336.661C147.255 336.661 146.589 336.403 146.133 335.887C145.677 335.359 145.437 334.681 145.413 333.853H143.883C143.871 334.513 143.961 335.101 144.153 335.617C144.357 336.133 144.645 336.571 145.017 336.931C145.389 337.279 145.839 337.543 146.367 337.723C146.895 337.903 147.483 337.993 148.131 337.993C148.731 337.993 149.295 337.915 149.823 337.759C150.363 337.591 150.831 337.345 151.227 337.021C151.623 336.697 151.935 336.295 152.163 335.815C152.403 335.323 152.523 334.759 152.523 334.123C152.523 333.355 152.331 332.689 151.947 332.125C151.575 331.561 150.999 331.195 150.219 331.027V330.991C150.723 330.763 151.143 330.427 151.479 329.983C151.815 329.539 151.983 329.029 151.983 328.453C151.983 327.865 151.881 327.355 151.677 326.923C151.485 326.491 151.215 326.137 150.867 325.861C150.519 325.585 150.105 325.381 149.625 325.249C149.157 325.105 148.647 325.033 148.095 325.033C147.459 325.033 146.895 325.135 146.403 325.339C145.923 325.543 145.521 325.825 145.197 326.185C144.873 326.545 144.621 326.977 144.441 327.481C144.273 327.985 144.177 328.543 144.153 329.155H145.683C145.683 328.783 145.731 328.429 145.827 328.093C145.923 327.757 146.067 327.463 146.259 327.211C146.463 326.959 146.715 326.761 147.015 326.617C147.327 326.461 147.687 326.383 148.095 326.383C148.743 326.383 149.283 326.557 149.715 326.905C150.147 327.241 150.363 327.751 150.363 328.435C150.363 328.771 150.297 329.071 150.165 329.335C150.033 329.599 149.853 329.821 149.625 330.001C149.409 330.169 149.151 330.301 148.851 330.397C148.563 330.481 148.257 330.523 147.933 330.523H147.609C147.549 330.523 147.489 330.523 147.429 330.523C147.381 330.523 147.327 330.517 147.267 330.505Z" fill="black"/>
<circle cx="702.045" cy="252.969" r="19.35" fill="#C6C6C6"/>
<path d="M691.606 278.168V291.02H693.316V285.134H699.221V283.694H693.316V279.608H700.049V278.168H691.606ZM709.574 290.984C709.31 291.14 708.944 291.218 708.476 291.218C708.08 291.218 707.762 291.11 707.522 290.894C707.294 290.666 707.18 290.3 707.18 289.796C706.76 290.3 706.268 290.666 705.704 290.894C705.152 291.11 704.552 291.218 703.904 291.218C703.484 291.218 703.082 291.17 702.698 291.074C702.326 290.978 702.002 290.828 701.726 290.624C701.45 290.42 701.228 290.156 701.06 289.832C700.904 289.496 700.826 289.094 700.826 288.626C700.826 288.098 700.916 287.666 701.096 287.33C701.276 286.994 701.51 286.724 701.798 286.52C702.098 286.304 702.434 286.142 702.806 286.034C703.19 285.926 703.58 285.836 703.976 285.764C704.396 285.68 704.792 285.62 705.164 285.584C705.548 285.536 705.884 285.476 706.172 285.404C706.46 285.32 706.688 285.206 706.856 285.062C707.024 284.906 707.108 284.684 707.108 284.396C707.108 284.06 707.042 283.79 706.91 283.586C706.79 283.382 706.628 283.226 706.424 283.118C706.232 283.01 706.01 282.938 705.758 282.902C705.518 282.866 705.278 282.848 705.038 282.848C704.39 282.848 703.85 282.974 703.418 283.226C702.986 283.466 702.752 283.928 702.716 284.612H701.186C701.21 284.036 701.33 283.55 701.546 283.154C701.762 282.758 702.05 282.44 702.41 282.2C702.77 281.948 703.178 281.768 703.634 281.66C704.102 281.552 704.6 281.498 705.128 281.498C705.548 281.498 705.962 281.528 706.37 281.588C706.79 281.648 707.168 281.774 707.504 281.966C707.84 282.146 708.11 282.404 708.314 282.74C708.518 283.076 708.62 283.514 708.62 284.054V288.842C708.62 289.202 708.638 289.466 708.674 289.634C708.722 289.802 708.866 289.886 709.106 289.886C709.238 289.886 709.394 289.856 709.574 289.796V290.984ZM707.09 286.214C706.898 286.358 706.646 286.466 706.334 286.538C706.022 286.598 705.692 286.652 705.344 286.7C705.008 286.736 704.666 286.784 704.318 286.844C703.97 286.892 703.658 286.976 703.382 287.096C703.106 287.216 702.878 287.39 702.698 287.618C702.53 287.834 702.446 288.134 702.446 288.518C702.446 288.77 702.494 288.986 702.59 289.166C702.698 289.334 702.83 289.472 702.986 289.58C703.154 289.688 703.346 289.766 703.562 289.814C703.778 289.862 704.006 289.886 704.246 289.886C704.75 289.886 705.182 289.82 705.542 289.688C705.902 289.544 706.196 289.37 706.424 289.166C706.652 288.95 706.82 288.722 706.928 288.482C707.036 288.23 707.09 287.996 707.09 287.78V286.214ZM710.728 278.168V291.02H712.258V278.168H710.728ZM714.359 278.168V291.02H715.889V278.168H714.359Z" fill="black"/>
<circle cx="575.856" cy="403.918" r="19.35" fill="#C6C6C6"/>
<path d="M521.439 435.273V430.557H524.787C525.759 430.557 526.467 430.761 526.911 431.169C527.367 431.565 527.595 432.147 527.595 432.915C527.595 433.683 527.367 434.271 526.911 434.679C526.467 435.087 525.759 435.285 524.787 435.273H521.439ZM519.729 429.117V441.969H521.439V436.713H525.363C526.659 436.725 527.637 436.395 528.297 435.723C528.969 435.051 529.305 434.115 529.305 432.915C529.305 431.715 528.969 430.785 528.297 430.125C527.637 429.453 526.659 429.117 525.363 429.117H519.729ZM531.905 437.325C531.905 436.761 531.977 436.263 532.121 435.831C532.277 435.387 532.487 435.015 532.751 434.715C533.015 434.415 533.321 434.187 533.669 434.031C534.029 433.875 534.407 433.797 534.803 433.797C535.199 433.797 535.571 433.875 535.919 434.031C536.279 434.187 536.591 434.415 536.855 434.715C537.119 435.015 537.323 435.387 537.467 435.831C537.623 436.263 537.701 436.761 537.701 437.325C537.701 437.889 537.623 438.393 537.467 438.837C537.323 439.269 537.119 439.635 536.855 439.935C536.591 440.223 536.279 440.445 535.919 440.601C535.571 440.757 535.199 440.835 534.803 440.835C534.407 440.835 534.029 440.757 533.669 440.601C533.321 440.445 533.015 440.223 532.751 439.935C532.487 439.635 532.277 439.269 532.121 438.837C531.977 438.393 531.905 437.889 531.905 437.325ZM530.285 437.325C530.285 438.009 530.381 438.645 530.573 439.233C530.765 439.821 531.053 440.337 531.437 440.781C531.821 441.213 532.295 441.555 532.859 441.807C533.423 442.047 534.071 442.167 534.803 442.167C535.547 442.167 536.195 442.047 536.747 441.807C537.311 441.555 537.785 441.213 538.169 440.781C538.553 440.337 538.841 439.821 539.033 439.233C539.225 438.645 539.321 438.009 539.321 437.325C539.321 436.641 539.225 436.005 539.033 435.417C538.841 434.817 538.553 434.301 538.169 433.869C537.785 433.425 537.311 433.077 536.747 432.825C536.195 432.573 535.547 432.447 534.803 432.447C534.071 432.447 533.423 432.573 532.859 432.825C532.295 433.077 531.821 433.425 531.437 433.869C531.053 434.301 530.765 434.817 530.573 435.417C530.381 436.005 530.285 436.641 530.285 437.325ZM540.855 429.117V441.969H542.385V429.117H540.855ZM546.015 430.989V429.117H544.485V430.989H546.015ZM544.485 432.663V441.969H546.015V432.663H544.485ZM550.15 432.663V429.873H548.62V432.663H547.036V434.013H548.62V439.935C548.62 440.367 548.662 440.715 548.746 440.979C548.83 441.243 548.956 441.447 549.124 441.591C549.304 441.735 549.532 441.837 549.808 441.897C550.096 441.945 550.438 441.969 550.834 441.969H552.004V440.619H551.302C551.062 440.619 550.864 440.613 550.708 440.601C550.564 440.577 550.45 440.535 550.366 440.475C550.282 440.415 550.222 440.331 550.186 440.223C550.162 440.115 550.15 439.971 550.15 439.791V434.013H552.004V432.663H550.15ZM554.963 430.989V429.117H553.433V430.989H554.963ZM553.433 432.663V441.969H554.963V432.663H553.433ZM563.292 435.651H564.876C564.816 435.099 564.672 434.625 564.444 434.229C564.216 433.821 563.922 433.485 563.562 433.221C563.214 432.957 562.806 432.765 562.338 432.645C561.882 432.513 561.39 432.447 560.862 432.447C560.13 432.447 559.488 432.579 558.936 432.843C558.384 433.095 557.922 433.449 557.55 433.905C557.19 434.349 556.92 434.877 556.74 435.489C556.56 436.089 556.47 436.737 556.47 437.433C556.47 438.129 556.56 438.771 556.74 439.359C556.932 439.935 557.208 440.433 557.568 440.853C557.94 441.273 558.396 441.597 558.936 441.825C559.488 442.053 560.118 442.167 560.826 442.167C562.014 442.167 562.95 441.855 563.634 441.231C564.33 440.607 564.762 439.719 564.93 438.567H563.364C563.268 439.287 563.004 439.845 562.572 440.241C562.152 440.637 561.564 440.835 560.808 440.835C560.328 440.835 559.914 440.739 559.566 440.547C559.218 440.355 558.936 440.103 558.72 439.791C558.504 439.467 558.342 439.101 558.234 438.693C558.138 438.285 558.09 437.865 558.09 437.433C558.09 436.965 558.138 436.515 558.234 436.083C558.33 435.639 558.486 435.249 558.702 434.913C558.93 434.577 559.23 434.307 559.602 434.103C559.974 433.899 560.436 433.797 560.988 433.797C561.636 433.797 562.152 433.959 562.536 434.283C562.92 434.607 563.172 435.063 563.292 435.651ZM574.526 441.933C574.262 442.089 573.896 442.167 573.428 442.167C573.032 442.167 572.714 442.059 572.474 441.843C572.246 441.615 572.132 441.249 572.132 440.745C571.712 441.249 571.22 441.615 570.656 441.843C570.104 442.059 569.504 442.167 568.856 442.167C568.436 442.167 568.034 442.119 567.65 442.023C567.278 441.927 566.954 441.777 566.678 441.573C566.402 441.369 566.18 441.105 566.012 440.781C565.856 440.445 565.778 440.043 565.778 439.575C565.778 439.047 565.868 438.615 566.048 438.279C566.228 437.943 566.462 437.673 566.75 437.469C567.05 437.253 567.386 437.091 567.758 436.983C568.142 436.875 568.532 436.785 568.928 436.713C569.348 436.629 569.744 436.569 570.116 436.533C570.5 436.485 570.836 436.425 571.124 436.353C571.412 436.269 571.64 436.155 571.808 436.011C571.976 435.855 572.06 435.633 572.06 435.345C572.06 435.009 571.994 434.739 571.862 434.535C571.742 434.331 571.58 434.175 571.376 434.067C571.184 433.959 570.962 433.887 570.71 433.851C570.47 433.815 570.23 433.797 569.99 433.797C569.342 433.797 568.802 433.923 568.37 434.175C567.938 434.415 567.704 434.877 567.668 435.561H566.138C566.162 434.985 566.282 434.499 566.498 434.103C566.714 433.707 567.002 433.389 567.362 433.149C567.722 432.897 568.13 432.717 568.586 432.609C569.054 432.501 569.552 432.447 570.08 432.447C570.5 432.447 570.914 432.477 571.322 432.537C571.742 432.597 572.12 432.723 572.456 432.915C572.792 433.095 573.062 433.353 573.266 433.689C573.47 434.025 573.572 434.463 573.572 435.003V439.791C573.572 440.151 573.59 440.415 573.626 440.583C573.674 440.751 573.818 440.835 574.058 440.835C574.19 440.835 574.346 440.805 574.526 440.745V441.933ZM572.042 437.163C571.85 437.307 571.598 437.415 571.286 437.487C570.974 437.547 570.644 437.601 570.296 437.649C569.96 437.685 569.618 437.733 569.27 437.793C568.922 437.841 568.61 437.925 568.334 438.045C568.058 438.165 567.83 438.339 567.65 438.567C567.482 438.783 567.398 439.083 567.398 439.467C567.398 439.719 567.446 439.935 567.542 440.115C567.65 440.283 567.782 440.421 567.938 440.529C568.106 440.637 568.298 440.715 568.514 440.763C568.73 440.811 568.958 440.835 569.198 440.835C569.702 440.835 570.134 440.769 570.494 440.637C570.854 440.493 571.148 440.319 571.376 440.115C571.604 439.899 571.772 439.671 571.88 439.431C571.988 439.179 572.042 438.945 572.042 438.729V437.163ZM575.68 429.117V441.969H577.21V429.117H575.68ZM584.194 429.117V441.969H585.904V429.117H584.194ZM588.168 432.663V441.969H589.698V436.173C589.698 435.993 589.74 435.771 589.824 435.507C589.92 435.231 590.064 434.967 590.256 434.715C590.46 434.463 590.718 434.247 591.03 434.067C591.354 433.887 591.738 433.797 592.182 433.797C592.53 433.797 592.812 433.851 593.028 433.959C593.256 434.055 593.436 434.199 593.568 434.391C593.7 434.571 593.79 434.787 593.838 435.039C593.898 435.291 593.928 435.567 593.928 435.867V441.969H595.458V436.173C595.458 435.453 595.674 434.877 596.106 434.445C596.538 434.013 597.132 433.797 597.888 433.797C598.26 433.797 598.56 433.851 598.788 433.959C599.028 434.067 599.214 434.217 599.346 434.409C599.478 434.589 599.568 434.805 599.616 435.057C599.664 435.309 599.688 435.579 599.688 435.867V441.969H601.218V435.147C601.218 434.667 601.14 434.259 600.984 433.923C600.84 433.575 600.63 433.293 600.354 433.077C600.09 432.861 599.766 432.705 599.382 432.609C599.01 432.501 598.59 432.447 598.122 432.447C597.51 432.447 596.946 432.585 596.43 432.861C595.926 433.137 595.518 433.527 595.206 434.031C595.014 433.455 594.684 433.047 594.216 432.807C593.748 432.567 593.226 432.447 592.65 432.447C591.342 432.447 590.34 432.975 589.644 434.031H589.608V432.663H588.168ZM603.207 432.663V445.515H604.737V440.727H604.773C604.941 441.003 605.145 441.237 605.385 441.429C605.637 441.609 605.901 441.753 606.177 441.861C606.453 441.969 606.729 442.047 607.005 442.095C607.293 442.143 607.551 442.167 607.779 442.167C608.487 442.167 609.105 442.041 609.633 441.789C610.173 441.537 610.617 441.195 610.965 440.763C611.325 440.319 611.589 439.803 611.757 439.215C611.937 438.627 612.027 438.003 612.027 437.343C612.027 436.683 611.937 436.059 611.757 435.471C611.577 434.883 611.307 434.367 610.947 433.923C610.599 433.467 610.155 433.107 609.615 432.843C609.087 432.579 608.463 432.447 607.743 432.447C607.095 432.447 606.501 432.567 605.961 432.807C605.421 433.035 605.025 433.407 604.773 433.923H604.737V432.663H603.207ZM610.407 437.235C610.407 437.691 610.359 438.135 610.263 438.567C610.167 438.999 610.011 439.383 609.795 439.719C609.579 440.055 609.291 440.325 608.931 440.529C608.583 440.733 608.145 440.835 607.617 440.835C607.089 440.835 606.639 440.739 606.267 440.547C605.895 440.343 605.589 440.079 605.349 439.755C605.121 439.431 604.953 439.059 604.845 438.639C604.737 438.207 604.683 437.763 604.683 437.307C604.683 436.875 604.731 436.449 604.827 436.029C604.935 435.609 605.103 435.237 605.331 434.913C605.559 434.577 605.853 434.307 606.213 434.103C606.573 433.899 607.011 433.797 607.527 433.797C608.019 433.797 608.445 433.893 608.805 434.085C609.177 434.277 609.477 434.535 609.705 434.859C609.945 435.183 610.119 435.555 610.227 435.975C610.347 436.383 610.407 436.803 610.407 437.235ZM621.707 441.933C621.443 442.089 621.077 442.167 620.609 442.167C620.213 442.167 619.895 442.059 619.655 441.843C619.427 441.615 619.313 441.249 619.313 440.745C618.893 441.249 618.401 441.615 617.837 441.843C617.285 442.059 616.685 442.167 616.037 442.167C615.617 442.167 615.215 442.119 614.831 442.023C614.459 441.927 614.135 441.777 613.859 441.573C613.583 441.369 613.361 441.105 613.193 440.781C613.037 440.445 612.959 440.043 612.959 439.575C612.959 439.047 613.049 438.615 613.229 438.279C613.409 437.943 613.643 437.673 613.931 437.469C614.231 437.253 614.567 437.091 614.939 436.983C615.323 436.875 615.713 436.785 616.109 436.713C616.529 436.629 616.925 436.569 617.297 436.533C617.681 436.485 618.017 436.425 618.305 436.353C618.593 436.269 618.821 436.155 618.989 436.011C619.157 435.855 619.241 435.633 619.241 435.345C619.241 435.009 619.175 434.739 619.043 434.535C618.923 434.331 618.761 434.175 618.557 434.067C618.365 433.959 618.143 433.887 617.891 433.851C617.651 433.815 617.411 433.797 617.171 433.797C616.523 433.797 615.983 433.923 615.551 434.175C615.119 434.415 614.885 434.877 614.849 435.561H613.319C613.343 434.985 613.463 434.499 613.679 434.103C613.895 433.707 614.183 433.389 614.543 433.149C614.903 432.897 615.311 432.717 615.767 432.609C616.235 432.501 616.733 432.447 617.261 432.447C617.681 432.447 618.095 432.477 618.503 432.537C618.923 432.597 619.301 432.723 619.637 432.915C619.973 433.095 620.243 433.353 620.447 433.689C620.651 434.025 620.753 434.463 620.753 435.003V439.791C620.753 440.151 620.771 440.415 620.807 440.583C620.855 440.751 620.999 440.835 621.239 440.835C621.371 440.835 621.527 440.805 621.707 440.745V441.933ZM619.223 437.163C619.031 437.307 618.779 437.415 618.467 437.487C618.155 437.547 617.825 437.601 617.477 437.649C617.141 437.685 616.799 437.733 616.451 437.793C616.103 437.841 615.791 437.925 615.515 438.045C615.239 438.165 615.011 438.339 614.831 438.567C614.663 438.783 614.579 439.083 614.579 439.467C614.579 439.719 614.627 439.935 614.723 440.115C614.831 440.283 614.963 440.421 615.119 440.529C615.287 440.637 615.479 440.715 615.695 440.763C615.911 440.811 616.139 440.835 616.379 440.835C616.883 440.835 617.315 440.769 617.675 440.637C618.035 440.493 618.329 440.319 618.557 440.115C618.785 439.899 618.953 439.671 619.061 439.431C619.169 439.179 619.223 438.945 619.223 438.729V437.163ZM629.089 435.651H630.673C630.613 435.099 630.469 434.625 630.241 434.229C630.013 433.821 629.719 433.485 629.359 433.221C629.011 432.957 628.603 432.765 628.135 432.645C627.679 432.513 627.187 432.447 626.659 432.447C625.927 432.447 625.285 432.579 624.733 432.843C624.181 433.095 623.719 433.449 623.347 433.905C622.987 434.349 622.717 434.877 622.537 435.489C622.357 436.089 622.267 436.737 622.267 437.433C622.267 438.129 622.357 438.771 622.537 439.359C622.729 439.935 623.005 440.433 623.365 440.853C623.737 441.273 624.193 441.597 624.733 441.825C625.285 442.053 625.915 442.167 626.623 442.167C627.811 442.167 628.747 441.855 629.431 441.231C630.127 440.607 630.559 439.719 630.727 438.567H629.161C629.065 439.287 628.801 439.845 628.369 440.241C627.949 440.637 627.361 440.835 626.605 440.835C626.125 440.835 625.711 440.739 625.363 440.547C625.015 440.355 624.733 440.103 624.517 439.791C624.301 439.467 624.139 439.101 624.031 438.693C623.935 438.285 623.887 437.865 623.887 437.433C623.887 436.965 623.935 436.515 624.031 436.083C624.127 435.639 624.283 435.249 624.499 434.913C624.727 434.577 625.027 434.307 625.399 434.103C625.771 433.899 626.233 433.797 626.785 433.797C627.433 433.797 627.949 433.959 628.333 434.283C628.717 434.607 628.969 435.063 629.089 435.651ZM634.203 432.663V429.873H632.673V432.663H631.089V434.013H632.673V439.935C632.673 440.367 632.715 440.715 632.799 440.979C632.883 441.243 633.009 441.447 633.177 441.591C633.357 441.735 633.585 441.837 633.861 441.897C634.149 441.945 634.491 441.969 634.887 441.969H636.057V440.619H635.355C635.115 440.619 634.917 440.613 634.761 440.601C634.617 440.577 634.503 440.535 634.419 440.475C634.335 440.415 634.275 440.331 634.239 440.223C634.215 440.115 634.203 439.971 634.203 439.791V434.013H636.057V432.663H634.203Z" fill="black"/>
<circle cx="268.045" cy="299.745" r="19.35" fill="#ADFF00"/>
<path d="M211.159 330.469V326.383H214.579C214.951 326.383 215.299 326.407 215.623 326.455C215.959 326.491 216.253 326.581 216.505 326.725C216.757 326.869 216.955 327.073 217.099 327.337C217.243 327.601 217.315 327.961 217.315 328.417C217.315 329.101 217.099 329.617 216.667 329.965C216.247 330.301 215.551 330.469 214.579 330.469H211.159ZM209.449 324.943V337.795H215.659C216.295 337.795 216.853 337.693 217.333 337.489C217.825 337.273 218.233 336.997 218.557 336.661C218.893 336.313 219.145 335.917 219.313 335.473C219.481 335.029 219.565 334.573 219.565 334.105C219.565 333.313 219.355 332.641 218.935 332.089C218.515 331.537 217.909 331.177 217.117 331.009V330.973C217.729 330.733 218.197 330.367 218.521 329.875C218.857 329.371 219.025 328.777 219.025 328.093C219.025 327.445 218.875 326.899 218.575 326.455C218.287 326.011 217.933 325.663 217.513 325.411C217.321 325.291 217.087 325.201 216.811 325.141C216.547 325.081 216.259 325.039 215.947 325.015C215.635 324.979 215.317 324.961 214.993 324.961C214.681 324.949 214.387 324.943 214.111 324.943H209.449ZM211.159 336.355V331.909H215.065C215.425 331.909 215.773 331.945 216.109 332.017C216.445 332.077 216.739 332.191 216.991 332.359C217.255 332.515 217.465 332.731 217.621 333.007C217.777 333.283 217.855 333.631 217.855 334.051C217.855 334.771 217.639 335.335 217.207 335.743C216.787 336.151 216.199 336.355 215.443 336.355H211.159ZM227.621 332.251H222.275C222.299 331.891 222.377 331.555 222.509 331.243C222.641 330.919 222.821 330.637 223.049 330.397C223.277 330.157 223.547 329.971 223.859 329.839C224.183 329.695 224.543 329.623 224.939 329.623C225.323 329.623 225.671 329.695 225.983 329.839C226.307 329.971 226.583 330.157 226.811 330.397C227.051 330.625 227.237 330.901 227.369 331.225C227.513 331.549 227.597 331.891 227.621 332.251ZM229.097 334.843H227.585C227.453 335.455 227.177 335.911 226.757 336.211C226.349 336.511 225.821 336.661 225.173 336.661C224.669 336.661 224.231 336.577 223.859 336.409C223.487 336.241 223.181 336.019 222.941 335.743C222.701 335.455 222.527 335.131 222.419 334.771C222.311 334.399 222.263 334.009 222.275 333.601H229.241C229.265 333.037 229.211 332.443 229.079 331.819C228.959 331.195 228.731 330.619 228.395 330.091C228.071 329.563 227.633 329.131 227.081 328.795C226.541 328.447 225.857 328.273 225.029 328.273C224.393 328.273 223.805 328.393 223.265 328.633C222.737 328.873 222.275 329.209 221.879 329.641C221.495 330.073 221.195 330.583 220.979 331.171C220.763 331.759 220.655 332.407 220.655 333.115C220.679 333.823 220.781 334.477 220.961 335.077C221.153 335.677 221.435 336.193 221.807 336.625C222.179 337.057 222.635 337.393 223.175 337.633C223.727 337.873 224.375 337.993 225.119 337.993C226.175 337.993 227.051 337.729 227.747 337.201C228.443 336.673 228.893 335.887 229.097 334.843ZM230.413 328.489V337.795H231.943V333.655C231.943 333.055 232.003 332.527 232.123 332.071C232.243 331.603 232.435 331.207 232.699 330.883C232.963 330.559 233.311 330.313 233.743 330.145C234.175 329.977 234.697 329.893 235.309 329.893V328.273C234.481 328.249 233.797 328.417 233.257 328.777C232.717 329.137 232.261 329.695 231.889 330.451H231.853V328.489H230.413ZM236.191 324.943V337.795H237.721V324.943H236.191ZM241.352 326.815V324.943H239.822V326.815H241.352ZM239.822 328.489V337.795H241.352V328.489H239.822ZM243.362 328.489V337.795H244.892V332.539C244.892 332.119 244.946 331.735 245.054 331.387C245.174 331.027 245.348 330.715 245.576 330.451C245.804 330.187 246.086 329.983 246.422 329.839C246.77 329.695 247.178 329.623 247.646 329.623C248.234 329.623 248.696 329.791 249.032 330.127C249.368 330.463 249.536 330.919 249.536 331.495V337.795H251.066V331.675C251.066 331.171 251.012 330.715 250.904 330.307C250.808 329.887 250.634 329.527 250.382 329.227C250.13 328.927 249.8 328.693 249.392 328.525C248.984 328.357 248.474 328.273 247.862 328.273C246.482 328.273 245.474 328.837 244.838 329.965H244.802V328.489H243.362ZM269.516 337.795L272.954 324.943H271.244L268.634 335.635H268.598L265.754 324.943H263.9L261.02 335.635H260.984L258.464 324.943H256.718L260.012 337.795H261.794L264.764 326.995H264.8L267.734 337.795H269.516ZM281.534 337.759C281.27 337.915 280.904 337.993 280.436 337.993C280.04 337.993 279.722 337.885 279.482 337.669C279.254 337.441 279.14 337.075 279.14 336.571C278.72 337.075 278.228 337.441 277.664 337.669C277.112 337.885 276.512 337.993 275.864 337.993C275.444 337.993 275.042 337.945 274.658 337.849C274.286 337.753 273.962 337.603 273.686 337.399C273.41 337.195 273.188 336.931 273.02 336.607C272.864 336.271 272.786 335.869 272.786 335.401C272.786 334.873 272.876 334.441 273.056 334.105C273.236 333.769 273.47 333.499 273.758 333.295C274.058 333.079 274.394 332.917 274.766 332.809C275.15 332.701 275.54 332.611 275.936 332.539C276.356 332.455 276.752 332.395 277.124 332.359C277.508 332.311 277.844 332.251 278.132 332.179C278.42 332.095 278.648 331.981 278.816 331.837C278.984 331.681 279.068 331.459 279.068 331.171C279.068 330.835 279.002 330.565 278.87 330.361C278.75 330.157 278.588 330.001 278.384 329.893C278.192 329.785 277.97 329.713 277.718 329.677C277.478 329.641 277.238 329.623 276.998 329.623C276.35 329.623 275.81 329.749 275.378 330.001C274.946 330.241 274.712 330.703 274.676 331.387H273.146C273.17 330.811 273.29 330.325 273.506 329.929C273.722 329.533 274.01 329.215 274.37 328.975C274.73 328.723 275.138 328.543 275.594 328.435C276.062 328.327 276.56 328.273 277.088 328.273C277.508 328.273 277.922 328.303 278.33 328.363C278.75 328.423 279.128 328.549 279.464 328.741C279.8 328.921 280.07 329.179 280.274 329.515C280.478 329.851 280.58 330.289 280.58 330.829V335.617C280.58 335.977 280.598 336.241 280.634 336.409C280.682 336.577 280.826 336.661 281.066 336.661C281.198 336.661 281.354 336.631 281.534 336.571V337.759ZM279.05 332.989C278.858 333.133 278.606 333.241 278.294 333.313C277.982 333.373 277.652 333.427 277.304 333.475C276.968 333.511 276.626 333.559 276.278 333.619C275.93 333.667 275.618 333.751 275.342 333.871C275.066 333.991 274.838 334.165 274.658 334.393C274.49 334.609 274.406 334.909 274.406 335.293C274.406 335.545 274.454 335.761 274.55 335.941C274.658 336.109 274.79 336.247 274.946 336.355C275.114 336.463 275.306 336.541 275.522 336.589C275.738 336.637 275.966 336.661 276.206 336.661C276.71 336.661 277.142 336.595 277.502 336.463C277.862 336.319 278.156 336.145 278.384 335.941C278.612 335.725 278.78 335.497 278.888 335.257C278.996 335.005 279.05 334.771 279.05 334.555V332.989ZM282.688 324.943V337.795H284.218V324.943H282.688ZM286.318 324.943V337.795H287.848V324.943H286.318ZM306.37 337.795L309.808 324.943H308.098L305.488 335.635H305.452L302.608 324.943H300.754L297.874 335.635H297.838L295.318 324.943H293.572L296.866 337.795H298.648L301.618 326.995H301.654L304.588 337.795H306.37ZM318.388 337.759C318.124 337.915 317.758 337.993 317.29 337.993C316.894 337.993 316.576 337.885 316.336 337.669C316.108 337.441 315.994 337.075 315.994 336.571C315.574 337.075 315.082 337.441 314.518 337.669C313.966 337.885 313.366 337.993 312.718 337.993C312.298 337.993 311.896 337.945 311.512 337.849C311.14 337.753 310.816 337.603 310.54 337.399C310.264 337.195 310.042 336.931 309.874 336.607C309.718 336.271 309.64 335.869 309.64 335.401C309.64 334.873 309.73 334.441 309.91 334.105C310.09 333.769 310.324 333.499 310.612 333.295C310.912 333.079 311.248 332.917 311.62 332.809C312.004 332.701 312.394 332.611 312.79 332.539C313.21 332.455 313.606 332.395 313.978 332.359C314.362 332.311 314.698 332.251 314.986 332.179C315.274 332.095 315.502 331.981 315.67 331.837C315.838 331.681 315.922 331.459 315.922 331.171C315.922 330.835 315.856 330.565 315.724 330.361C315.604 330.157 315.442 330.001 315.238 329.893C315.046 329.785 314.824 329.713 314.572 329.677C314.332 329.641 314.092 329.623 313.852 329.623C313.204 329.623 312.664 329.749 312.232 330.001C311.8 330.241 311.566 330.703 311.53 331.387H310C310.024 330.811 310.144 330.325 310.36 329.929C310.576 329.533 310.864 329.215 311.224 328.975C311.584 328.723 311.992 328.543 312.448 328.435C312.916 328.327 313.414 328.273 313.942 328.273C314.362 328.273 314.776 328.303 315.184 328.363C315.604 328.423 315.982 328.549 316.318 328.741C316.654 328.921 316.924 329.179 317.128 329.515C317.332 329.851 317.434 330.289 317.434 330.829V335.617C317.434 335.977 317.452 336.241 317.488 336.409C317.536 336.577 317.68 336.661 317.92 336.661C318.052 336.661 318.208 336.631 318.388 336.571V337.759ZM315.904 332.989C315.712 333.133 315.46 333.241 315.148 333.313C314.836 333.373 314.506 333.427 314.158 333.475C313.822 333.511 313.48 333.559 313.132 333.619C312.784 333.667 312.472 333.751 312.196 333.871C311.92 333.991 311.692 334.165 311.512 334.393C311.344 334.609 311.26 334.909 311.26 335.293C311.26 335.545 311.308 335.761 311.404 335.941C311.512 336.109 311.644 336.247 311.8 336.355C311.968 336.463 312.16 336.541 312.376 336.589C312.592 336.637 312.82 336.661 313.06 336.661C313.564 336.661 313.996 336.595 314.356 336.463C314.716 336.319 315.01 336.145 315.238 335.941C315.466 335.725 315.634 335.497 315.742 335.257C315.85 335.005 315.904 334.771 315.904 334.555V332.989ZM319.542 324.943V337.795H321.072V324.943H319.542ZM323.172 324.943V337.795H324.702V334.267L326.142 332.935L329.328 337.795H331.272L327.312 331.873L331.002 328.489H328.95L324.702 332.557V324.943H323.172Z" fill="black"/>
</svg>
